<svg xmlns="http://www.w3.org/2000/svg" viewBox="0 0 250 250"><defs><style>.cls-1{isolation:isolate;}.cls-2{fill:#f29c1f;}.cls-3{fill:#f0c419;}.cls-3,.cls-4{fill-rule:evenodd;}.cls-4{fill:#231f20;opacity:0.1;mix-blend-mode:multiply;}.cls-5{fill:#fff;}</style></defs><title>Artboard 11</title><g class="cls-1"><g id="Layer_1" data-name="Layer 1"><rect class="cls-2" x="0.07" y="0.04" width="249.99" height="250"/><path class="cls-3" d="M243,69.34q-20.54,15.3-8.58,39.17,19.91,21-4.11,37.39L138,159.8,27.76,176.35l-4.38-9.21L14,80.65q4.65,0,10.81-4.28a93.75,93.75,0,0,0,11.48-10L190.34,45.76a38.44,38.44,0,0,1,16.53-1.86Q226,46.14,243,69.34Z"/><path class="cls-4" d="M126.83,60.54l7.86-1.13,10.18,71.15,9.2-1.62,6.52,22.21-22.15,3.31ZM104.23,72a65.46,65.46,0,0,1,2.23,7.43q1,4,1.79,8.4l-4.64.65a12,12,0,0,0-1.07-3.72l-.89-1.45a3,3,0,0,1-.45-.32l-.36.16-.45.81-.09,2.26a23.14,23.14,0,0,0,.63,4.36A12,12,0,0,0,102,93.81l5,6.06q2.41,3.23,4.82,10.82a116.91,116.91,0,0,1,3.84,16.48,139.29,139.29,0,0,1,1.88,17,52.17,52.17,0,0,1-1.07,12.44q-.62,1.45-1.07,2.58l-1.52,1a2.82,2.82,0,0,1-2.23-1,13,13,0,0,1-2.59-3.88,62.36,62.36,0,0,1-4.38-11.79,122.52,122.52,0,0,1-3.4-15.75l4.74-1a42.25,42.25,0,0,0,1.43,6.14l1.16,3a3.6,3.6,0,0,0,1.43,1.62q.54-.16,1.07-1.29l.27-2.18-.8-8.08-1.34-4.2-4.64-6.14a17.33,17.33,0,0,1-2.06-3.23,65.29,65.29,0,0,1-2.86-6.78,90.73,90.73,0,0,1-2.32-8.8Q96.19,92,95.47,87.19q-.71-5.17-1-10a62.54,62.54,0,0,1,.18-7.11,14.52,14.52,0,0,1,.89-4.85q.53-2.1,1.61-2.26,0-.65.27-.16.71-.81,2,.65a8.33,8.33,0,0,1,2.41,3.23A31.11,31.11,0,0,1,104.23,72Zm14.2-11,4.91-.81,8.75,95.14-5.36.81-2.32-28L105.75,62.8l5.09-.81,11.08,38.52ZM151,56.74l4.82-.81L171.23,150l-7.59.65-25.1-92.23,4.73-.73,15.19,55.4Zm45.78,9.77h4.64l18.45,75.59-4.74.65ZM224.29,107l-7.15-21.89,3.93,22.53Zm-45.83,6.78-6.43-22,3.13,22.53Zm2,5-3.57,1.53L180,148.41l-5.18.65L162,55.93l4.29-.65,27,91.18-5.09.65Zm15.23-57L193.2,51.57l4.47-.65,2.64,10.82Zm-24.34-7,8.22-1,18.4,51-12.24-52,4.56-.81L212,143.24l-5.18.65-19.3-53.63L200,145l-4.82.81Zm34.84-4.6,4.2-.65,27.07,82.7-3.66,4.6-7.77-25-3.31,1L227,141.14l-5.09.65ZM29.37,96.72q-.8-1.61-1.61-1.62l4,36.1a4.43,4.43,0,0,0,1.34-1.78l.71-4.2a56.53,56.53,0,0,0,.27-5.82q-.18-3.55-.54-6.95a62,62,0,0,0-1.07-6.78q-.71-3.23-1.34-5.33Q30.26,97.45,29.37,96.72Zm7.68-23.91,13.13-1.94,2.59,20.84-9.83-8.08,3.75,29.88L53,105.85l2.86,22-8.13-6.54,4.82,33.36,7-11.71,2.86,23.42L48.4,168.11ZM29,76.65l.13.2a33.8,33.8,0,0,1,3.66,8.08A82.46,82.46,0,0,1,36,96.72q1.52,6.7,2.59,15.1.8,8.08,1,15.35a112.2,112.2,0,0,1-.36,13.16,45.65,45.65,0,0,1-1.88,9.37q-1.34,3.55-3,4.2l1.7,16L31,171l-9.2-88.35Zm35.87-7.87,4.73-.48,13.58,94.65-5.36.81L63,107.78,70.64,165l-5,.65-12.42-95,5.09-.49,14.11,52.25Zm7.86-.48,5.09-1L92.62,119.9,84.31,66.35,89,65.54l14.92,94.33-5.36.81L83,104.88l8.49,56.78-5,.81Z"/><path class="cls-5" d="M53.89,110.38H49.3v-3.06H61.78v3.06H57.2v12H53.89Z"/><path class="cls-5" d="M64.32,107.32h3.31v6h6.11v-6h3.31v15.06H73.74v-6H67.63v6H64.32Z"/><path class="cls-5" d="M80.67,107.32H92v2.95H84v3.06h7.1v2.95H84v3.16h8.18v2.95H80.67Z"/><path class="cls-5" d="M100.38,107.32h3.55l3.12,10.2,3.38-10.24h2.84l3.38,10.24,3.12-10.2h3.46l-5.14,15.17h-2.88l-3.4-9.85-3.4,9.85h-2.88Z"/><path class="cls-5" d="M128.91,107.22H132l6.46,15.17H135L133.58,119h-6.37l-1.38,3.38h-3.38Zm3.48,8.86-2-4.88-2,4.88Z"/><path class="cls-5" d="M140.75,107.32h3.31v12h7.51v3H140.75Z"/><path class="cls-5" d="M154.07,107.32h5.87c4.73,0,8,3.25,8,7.49v0c0,4.24-3.27,7.53-8,7.53h-5.87Zm3.31,3v9.08h2.56a4.29,4.29,0,0,0,4.54-4.5v0a4.33,4.33,0,0,0-4.54-4.54Z"/><path class="cls-5" d="M170.89,107.32h11.36v2.95h-8.07v3.06h7.1v2.95h-7.1v3.16h8.18v2.95H170.89Z"/><path class="cls-5" d="M185.31,107.32h3.05l7.06,9.27v-9.27h3.27v15.06h-2.82l-7.29-9.57v9.57h-3.27Z"/><path class="cls-5" d="M77.36,140.63l2-2.34a6.91,6.91,0,0,0,4.5,1.83c1.36,0,2.17-.54,2.17-1.42v0c0-.84-.52-1.27-3-1.92-3-.77-5-1.61-5-4.6v0c0-2.73,2.19-4.54,5.27-4.54a8.72,8.72,0,0,1,5.59,1.92L87.11,132a7.07,7.07,0,0,0-3.91-1.48c-1.27,0-1.94.58-1.94,1.31v0c0,1,.65,1.31,3.25,2,3.06.8,4.78,1.89,4.78,4.52v0c0,3-2.28,4.67-5.53,4.67A9.59,9.59,0,0,1,77.36,140.63Z"/><path class="cls-5" d="M91.5,135.34v0a7.65,7.65,0,0,1,7.85-7.79,7.77,7.77,0,0,1,5.94,2.32l-2.11,2.43a5.56,5.56,0,0,0-3.85-1.7A4.46,4.46,0,0,0,95,135.25v0A4.47,4.47,0,0,0,99.33,140a5.44,5.44,0,0,0,4-1.76l2.11,2.13a7.7,7.7,0,0,1-6.17,2.69A7.6,7.6,0,0,1,91.5,135.34Z"/><path class="cls-5" d="M108,127.77h3.31v6h6.11v-6h3.31v15.06h-3.31v-6h-6.11v6H108Z"/><path class="cls-5" d="M123.73,135.34v0a8,8,0,0,1,16,0v0a8,8,0,0,1-16,0Zm12.54,0v0a4.58,4.58,0,0,0-4.56-4.73,4.5,4.5,0,0,0-4.52,4.69v0a4.57,4.57,0,0,0,4.56,4.73A4.51,4.51,0,0,0,136.27,135.34Z"/><path class="cls-5" d="M142,135.34v0a8,8,0,0,1,16,0v0a8,8,0,0,1-16,0Zm12.54,0v0a4.58,4.58,0,0,0-4.56-4.73,4.5,4.5,0,0,0-4.52,4.69v0A4.57,4.57,0,0,0,150,140,4.51,4.51,0,0,0,154.56,135.34Z"/><path class="cls-5" d="M161,127.77h3.31v12h7.51v3H161Z"/><path class="cls-5" d="M87.86,150.38h2.51l2.78,4.47,2.78-4.47h2.51V161H96.12v-6.9l-3,4.52h-.06l-2.95-4.47V161H87.86Z"/><path class="cls-5" d="M100.34,157v0a4,4,0,0,1,4-4.21c2.71,0,3.94,2.1,3.94,4.4,0,.18,0,.39,0,.6h-5.63a1.88,1.88,0,0,0,2,1.59,2.65,2.65,0,0,0,2-.83l1.31,1.16a4.28,4.28,0,0,1-7.54-2.67Zm5.71-.68a1.74,1.74,0,0,0-1.71-1.72,1.81,1.81,0,0,0-1.75,1.72Z"/><path class="cls-5" d="M109.63,156.92v0c0-2.7,1.77-4.18,3.69-4.18a3.11,3.11,0,0,1,2.52,1.21v-4h2.3v11h-2.3v-1.16a3,3,0,0,1-2.52,1.31C111.42,161.11,109.63,159.63,109.63,156.92Zm6.24,0v0a2,2,0,1,0-3.94,0v0a2,2,0,1,0,3.94,0Z"/><path class="cls-5" d="M120.23,149.93h2.42v2h-2.42Zm.06,2.93h2.3V161h-2.3Z"/><path class="cls-5" d="M124.26,158.63v0c0-1.77,1.35-2.58,3.26-2.58a5.76,5.76,0,0,1,2,.33v-.14c0-1-.59-1.48-1.74-1.48a6,6,0,0,0-2.24.44l-.57-1.75a7.15,7.15,0,0,1,3.14-.65,3.74,3.74,0,0,1,2.73.91,3.53,3.53,0,0,1,.88,2.58V161h-2.22v-.88a3.11,3.11,0,0,1-2.45,1A2.51,2.51,0,0,1,124.26,158.63Zm5.27-.53v-.41a3.55,3.55,0,0,0-1.46-.3c-1,0-1.59.39-1.59,1.12v0c0,.62.51,1,1.25,1C128.81,159.52,129.54,158.93,129.54,158.1Z"/><path class="cls-5" d="M133.05,162.45c1-.11,1.56-.63,1.48-1.5h-.94v-2.42H136v2c0,2-1,2.79-2.79,2.83Z"/><path class="cls-5" d="M142.78,150.38h4.32c2.52,0,4,1.5,4,3.66v0c0,2.45-1.9,3.72-4.28,3.72h-1.77V161h-2.33Zm4.17,5.33a1.64,1.64,0,0,0,1.84-1.6v0c0-1-.72-1.6-1.89-1.6h-1.8v3.23Z"/><path class="cls-5" d="M155.44,150.3h2.14L162.12,161h-2.43l-1-2.37h-4.47l-1,2.37h-2.37Zm2.45,6.22-1.4-3.43-1.4,3.43Z"/></g></g></svg>