<svg xmlns="http://www.w3.org/2000/svg" viewBox="0 0 250 250"><defs><style>.cls-1{isolation:isolate;}.cls-2{fill:#2c3e50;}.cls-3{fill:#48627c;}.cls-3,.cls-4{fill-rule:evenodd;}.cls-4{fill:#231f20;opacity:0.27;mix-blend-mode:multiply;}.cls-5{fill:#fff;}</style></defs><title>Artboard 8</title><g class="cls-1"><g id="Layer_1" data-name="Layer 1"><rect class="cls-2" x="-0.08" y="0.56" width="249.99" height="250"/><path class="cls-3" d="M100.17,232.39a14,14,0,0,0-1.39,1.5l-.15.23-.23.22a11.44,11.44,0,0,0-4.14.75,8.65,8.65,0,0,0,.53-2.86q0-2.71-2.93-17.9Q88.93,199.83,88,197.5a3.57,3.57,0,0,0-3.46-2.33H81.63A3.45,3.45,0,0,0,79,196.29a3.61,3.61,0,0,0-1.13,2.63,53.06,53.06,0,0,1-1.05,9.1,49,49,0,0,0-1.28,10,13.43,13.43,0,0,0,2.18,6.69,21.51,21.51,0,0,1,1.2,2.33,3.81,3.81,0,0,1-.6,1.8l-.15.22a6.87,6.87,0,0,0-3.31-.9,4.67,4.67,0,0,0-2.11.53,25.74,25.74,0,0,0-3.46,2.18l-1.13.75-1-1.2a3.59,3.59,0,0,0-1.88-1,4,4,0,0,0-2.18.15l-1.24.49q-8.75-98,8-203.18,49.11-.77,98.2-3.72l17.56,88.5,14.14,24.59q-17.78,39.17-3.42,61.1l-96.29,7.11Z"/><path class="cls-4" d="M109.08,183.74v5.71l28.72-5.19Zm-1.5-62.56.15,4.74,25.87-4.29ZM184,176.59l1,8.57L92.46,201.41v-8.08l7.74-1.17-.07-7.9L67,183l.3-8.42Zm7-43.91-4.14,8.12-76,12.41,75.5.9-2.63,8L67.5,173.44l.38-7.74,47.3-4.59L68,160.35l.3-7.44,47.83-8.42-47.52,2.86.38-7.07ZM70.13,113.73l108.73,1.13,3.68,6.24L69,139.45l.3-7.29L82.53,130l.15-9.1-12.93-.23Zm79-16.62q1.5-.75,1.5-1.58l-.15-.9-9.55.68.15.9a2.69,2.69,0,0,0,1.8,1.35,12.32,12.32,0,0,0,3.23.3A8.8,8.8,0,0,0,149.08,97.11ZM105.62,39.74,106,43.2,128.25,40Zm1,36.77v4l23.91-3.68ZM95.47,101.85,97.87,103a33,33,0,0,0,3.76.6,29.48,29.48,0,0,0,4.21,0,20.52,20.52,0,0,0,4.51-.68,19.57,19.57,0,0,0,3.83-1.13l2.26-1.43q1-.9.83-1.65V97L94.64,98.69l-.15,1.65Q94.34,101.17,95.47,101.85Zm-14.66,6.77A33,33,0,0,1,73,106a5.58,5.58,0,0,1-2.41-3.83l.3-7.67L173,87l.83,6.77q.53,1.58-1.43,3.23a25.62,25.62,0,0,1-6,3.08,83.68,83.68,0,0,1-8.57,2.41,110.87,110.87,0,0,1-11.13,1.5,106.36,106.36,0,0,1-13.23.07,70.94,70.94,0,0,1-11.81,3.61,132,132,0,0,1-15.34,2.1,134.83,134.83,0,0,1-14.06.3A70.46,70.46,0,0,1,80.81,108.62Zm-9.1-32.48.3-5.94,98.28,1.2.83,5.26L71.11,92l.3-6.17L97.57,82.6l-1.05-6.69Zm.3-7.22.68-13.61,94.52-6.54,1,5.11L85,58.91l.07,9.4Zm26.09-29-24.74-.45.3-5.11,91.59,1,.68,4.51L72.83,53.12,73,47.78l23.84-2.26Z"/><path class="cls-5" d="M28.33,108.1h3.31v6h6.11v-6h3.31v15.06H37.75v-6H31.64v6H28.33Z"/><path class="cls-5" d="M49.85,108H52.9l6.45,15.17H55.89l-1.38-3.38H48.15l-1.38,3.38H43.39Zm3.49,8.86-2-4.88-2,4.88Z"/><path class="cls-5" d="M61.68,108.1h6.88A6,6,0,0,1,73,109.63a4.73,4.73,0,0,1,1.29,3.44v0A4.68,4.68,0,0,1,71,117.78l3.68,5.38H70.83l-3.23-4.82H65v4.82H61.68Zm6.67,7.31c1.61,0,2.54-.86,2.54-2.13v0c0-1.42-1-2.15-2.6-2.15H65v4.32Z"/><path class="cls-5" d="M77.24,108.1h6.88a6,6,0,0,1,4.39,1.53,4.73,4.73,0,0,1,1.29,3.44v0a4.68,4.68,0,0,1-3.23,4.67l3.68,5.38H86.38l-3.23-4.82h-2.6v4.82H77.24Zm6.67,7.31c1.61,0,2.54-.86,2.54-2.13v0c0-1.42-1-2.15-2.6-2.15H80.55v4.32Z"/><path class="cls-5" d="M98,108H101l6.45,15.17H104l-1.38-3.38H96.26l-1.38,3.38H91.5Zm3.49,8.86-2-4.88-2,4.88Z"/><path class="cls-5" d="M109.79,108.1h3.05l7.06,9.27V108.1h3.27v15.06h-2.82l-7.29-9.57v9.57h-3.27Z"/><path class="cls-5" d="M126.79,108.1h5.87c4.73,0,8,3.25,8,7.49v0c0,4.24-3.27,7.53-8,7.53h-5.87Zm3.31,3v9.08h2.56a4.29,4.29,0,0,0,4.54-4.5v0a4.33,4.33,0,0,0-4.54-4.54Z"/><path class="cls-5" d="M149.41,115.67v0a7.65,7.65,0,0,1,7.85-7.79,7.77,7.77,0,0,1,5.94,2.32l-2.11,2.43a5.56,5.56,0,0,0-3.85-1.7,4.46,4.46,0,0,0-4.37,4.69v0a4.47,4.47,0,0,0,4.37,4.73,5.44,5.44,0,0,0,4-1.76l2.11,2.13a7.7,7.7,0,0,1-6.17,2.69A7.6,7.6,0,0,1,149.41,115.67Z"/><path class="cls-5" d="M166,108.1h6.88a6,6,0,0,1,4.39,1.53,4.73,4.73,0,0,1,1.29,3.44v0a4.68,4.68,0,0,1-3.23,4.67l3.68,5.38h-3.87l-3.23-4.82h-2.6v4.82H166Zm6.67,7.31c1.61,0,2.54-.86,2.54-2.13v0c0-1.42-1-2.15-2.6-2.15h-3.29v4.32Z"/><path class="cls-5" d="M181.51,108.1h11.36V111H184.8v3.06h7.1v2.95h-7.1v3.16H193v2.95H181.51Z"/><path class="cls-5" d="M195.92,108.1h11.36V111h-8.07v3.06h7.1v2.95h-7.1v3.16h8.18v2.95H195.92Z"/><path class="cls-5" d="M210.34,108.1h3.31v6.58l6.11-6.58h4l-6.13,6.39,6.41,8.67h-4l-4.67-6.41-1.74,1.81v4.6h-3.31Z"/><path class="cls-5" d="M51.35,128.54H62.71v2.95H54.65v3.05h7.1v2.95h-7.1v3.16h8.18v2.95H51.35Z"/><path class="cls-5" d="M65.77,128.54h3.31v12h7.51v3H65.77Z"/><path class="cls-5" d="M79.09,128.54H90.45v2.95H82.38v3.05h7.1v2.95h-7.1v3.16h8.18v2.95H79.09Z"/><path class="cls-5" d="M93.5,128.54h3.57l4,6.37,4-6.37h3.57V143.6h-3.29v-9.83L101,140.2h-.09l-4.2-6.37v9.77H93.5Z"/><path class="cls-5" d="M112.18,128.54h11.36v2.95h-8.07v3.05h7.1v2.95h-7.1v3.16h8.18v2.95H112.18Z"/><path class="cls-5" d="M126.6,128.54h3.05l7.06,9.27v-9.27H140V143.6h-2.82L129.87,134v9.57H126.6Z"/><path class="cls-5" d="M147.1,131.6h-4.58v-3.06H155v3.06h-4.58v12H147.1Z"/><path class="cls-5" d="M160.76,128.43h3.06l6.45,15.17h-3.46l-1.38-3.38h-6.37l-1.38,3.38h-3.38Zm3.49,8.86-2-4.88-2,4.88Z"/><path class="cls-5" d="M172.6,128.54h6.88a6,6,0,0,1,4.39,1.53,4.73,4.73,0,0,1,1.29,3.44v0a4.68,4.68,0,0,1-3.23,4.67l3.68,5.38h-3.87l-3.23-4.82h-2.6v4.82H172.6Zm6.67,7.32c1.61,0,2.54-.86,2.54-2.13v0c0-1.42-1-2.15-2.6-2.15h-3.29v4.32Z"/><path class="cls-5" d="M191.86,137.67l-5.79-9.12h3.87l3.59,6,3.66-6H201l-5.79,9.06v6h-3.31Z"/><path class="cls-5" d="M72.13,151.16h8v2.07H74.44v2.15h5v2.07h-5v2.22h5.74v2.07H72.13Z"/><path class="cls-5" d="M82,153.63h2.3v1.15a2.87,2.87,0,0,1,2.37-1.3c1.74,0,2.75,1.15,2.75,3v5.24h-2.3v-4.52c0-1.09-.51-1.65-1.39-1.65s-1.44.56-1.44,1.65v4.52H82Z"/><path class="cls-5" d="M91.79,159.43V155.6h-1v-2h1v-2.07h2.3v2.07H96v2h-1.9v3.46c0,.53.23.79.74.79a2.34,2.34,0,0,0,1.13-.29v1.84a3.38,3.38,0,0,1-1.81.47C92.75,161.87,91.79,161.31,91.79,159.43Z"/><path class="cls-5" d="M97.07,157.73v0a4,4,0,0,1,4-4.21c2.7,0,3.94,2.1,3.94,4.4,0,.18,0,.39,0,.6H99.35a1.88,1.88,0,0,0,2,1.59,2.65,2.65,0,0,0,2-.83l1.31,1.16a4.28,4.28,0,0,1-7.54-2.67Zm5.71-.68a1.74,1.74,0,0,0-1.71-1.72A1.8,1.8,0,0,0,99.32,157Z"/><path class="cls-5" d="M106.72,153.63H109v1.63a2.5,2.5,0,0,1,2.58-1.78v2.4h-.12c-1.53,0-2.46.92-2.46,2.85v3h-2.3Z"/><path class="cls-5" d="M113,153.63h2.3v1.16a3,3,0,0,1,2.52-1.31c1.89,0,3.69,1.48,3.69,4.18v0c0,2.7-1.77,4.18-3.69,4.18a3.11,3.11,0,0,1-2.52-1.21v3.47H113Zm6.21,4.06v0a2,2,0,1,0-3.94,0v0a2,2,0,1,0,3.94,0Z"/><path class="cls-5" d="M123.23,153.63h2.3v1.63a2.5,2.5,0,0,1,2.58-1.78v2.4H128c-1.53,0-2.46.92-2.46,2.85v3h-2.3Z"/><path class="cls-5" d="M129.59,150.7H132v2h-2.42Zm.06,2.93h2.3v8.1h-2.3Z"/><path class="cls-5" d="M133.47,160.66l1-1.51a4.57,4.57,0,0,0,2.55,1c.67,0,1-.24,1-.6v0c0-.5-.79-.66-1.68-.94-1.13-.33-2.42-.86-2.42-2.43v0c0-1.65,1.33-2.57,3-2.57a5.6,5.6,0,0,1,3,.94L139,156a4.8,4.8,0,0,0-2.19-.75c-.56,0-.85.24-.85.56v0c0,.45.77.67,1.65,1,1.13.38,2.45.92,2.45,2.4v0c0,1.8-1.34,2.61-3.1,2.61A5.67,5.67,0,0,1,133.47,160.66Z"/><path class="cls-5" d="M141.29,157.73v0a4,4,0,0,1,4-4.21c2.7,0,3.94,2.1,3.94,4.4,0,.18,0,.39,0,.6h-5.63a1.88,1.88,0,0,0,2,1.59,2.65,2.65,0,0,0,2-.83l1.31,1.16a4.28,4.28,0,0,1-7.54-2.67ZM147,157a1.74,1.74,0,0,0-1.71-1.72,1.8,1.8,0,0,0-1.75,1.72Z"/><path class="cls-5" d="M150.16,163.23c1-.11,1.56-.63,1.48-1.5h-.94v-2.42h2.45v2c0,2-1,2.79-2.79,2.83Z"/><path class="cls-5" d="M163.51,151.08h2.14l4.53,10.65h-2.43l-1-2.37h-4.47l-1,2.37H159ZM166,157.3l-1.41-3.43-1.4,3.43Z"/><path class="cls-5" d="M171.82,151.16h2.33v8.46h5.27v2.12h-7.6Z"/></g></g></svg>