<svg xmlns="http://www.w3.org/2000/svg" viewBox="0 0 250 250"><defs><style>.cls-1{isolation:isolate;}.cls-2{fill:#2c3e50;}.cls-3{fill:#48627c;}.cls-3,.cls-4{fill-rule:evenodd;}.cls-4{fill:#231f20;opacity:0.27;mix-blend-mode:multiply;}.cls-5{fill:#fff;}</style></defs><title>Artboard 16</title><g class="cls-1"><g id="Layer_1" data-name="Layer 1"><rect class="cls-2" x="0.24" y="-0.47" width="249.99" height="250"/><path class="cls-3" d="M241,75.63q-20.54,15.3-8.58,39.17,19.91,21-4.11,37.39l-92.28,13.89L25.83,182.64l-4.38-9.21-9.38-86.5q4.65,0,10.81-4.28a93.75,93.75,0,0,0,11.48-10L188.41,52a38.44,38.44,0,0,1,16.53-1.86Q224.08,52.43,241,75.63Z"/><path class="cls-4" d="M124.89,66.82l7.86-1.13,10.18,71.15,9.2-1.62,6.52,22.21-22.15,3.31Zm-22.6,11.47a65.46,65.46,0,0,1,2.23,7.43q1,4,1.79,8.4l-4.64.65a12,12,0,0,0-1.07-3.72L99.7,89.6a3,3,0,0,1-.45-.32l-.36.16-.45.81-.09,2.26A23.14,23.14,0,0,0,99,96.87a12,12,0,0,0,1.07,3.23l5,6.06q2.41,3.23,4.82,10.82a116.91,116.91,0,0,1,3.84,16.48,139.29,139.29,0,0,1,1.88,17,52.17,52.17,0,0,1-1.07,12.44q-.62,1.45-1.07,2.58l-1.52,1a2.82,2.82,0,0,1-2.23-1,13,13,0,0,1-2.59-3.88,62.36,62.36,0,0,1-4.38-11.79,122.52,122.52,0,0,1-3.4-15.75l4.74-1a42.25,42.25,0,0,0,1.43,6.14l1.16,3a3.6,3.6,0,0,0,1.43,1.62q.54-.16,1.07-1.29l.27-2.18-.8-8.08-1.34-4.2L102.65,122a17.33,17.33,0,0,1-2.06-3.23A65.29,65.29,0,0,1,97.74,112a90.73,90.73,0,0,1-2.32-8.8q-1.16-4.85-1.88-9.69-.71-5.17-1-10a62.54,62.54,0,0,1,.18-7.11,14.52,14.52,0,0,1,.89-4.85q.53-2.1,1.61-2.26,0-.65.27-.16.71-.81,2,.65A8.33,8.33,0,0,1,99.88,73,31.11,31.11,0,0,1,102.29,78.29Zm14.2-11,4.91-.81,8.75,95.14-5.36.81-2.32-28L103.81,69.08l5.09-.81L120,106.8ZM149.1,63l4.82-.81,15.36,94.09-7.59.65L136.6,64.72l4.73-.73,15.19,55.4Zm45.78,9.77h4.64L218,148.39l-4.74.65Zm27.47,40.46-7.15-21.89,3.93,22.53ZM176.53,120l-6.43-22,3.13,22.53Zm2,5-3.57,1.53L178,154.69l-5.18.65L160.09,62.22l4.29-.65,27,91.18-5.09.65Zm15.23-57-2.46-10.18,4.47-.65L198.37,68Zm-24.34-7,8.22-1L196,111,183.76,59l4.56-.81L210,149.52l-5.18.65-19.3-53.63,12.51,54.76-4.82.81Zm34.84-4.6,4.2-.65,27.07,82.7-3.66,4.6-7.77-25-3.31,1L225,147.42l-5.09.65ZM27.43,103q-.8-1.61-1.61-1.62l4,36.1a4.43,4.43,0,0,0,1.34-1.78l.71-4.2a56.53,56.53,0,0,0,.27-5.82q-.18-3.55-.54-6.95A62,62,0,0,0,30.56,112q-.71-3.23-1.34-5.33Q28.33,103.73,27.43,103ZM35.12,79.1l13.13-1.94L50.84,98,41,89.92l3.75,29.88L51,112.13l2.86,22-8.13-6.54,4.82,33.36,7-11.71,2.86,23.42L46.46,174.4ZM27,82.93l.13.2a33.8,33.8,0,0,1,3.66,8.08A82.46,82.46,0,0,1,34,103q1.52,6.7,2.59,15.1.8,8.08,1,15.35a112.2,112.2,0,0,1-.36,13.16A45.65,45.65,0,0,1,35.38,156q-1.34,3.55-3,4.2l1.7,16-5,1.13L19.84,89ZM62.9,75.06l4.73-.48,13.58,94.65-5.36.81L61,114.07l7.68,57.26-5,.65L51.29,77l5.09-.49,14.11,52.25Zm7.86-.48,5.09-1,14.83,52.58L82.37,72.64,87,71.83l14.92,94.33-5.36.81L81,111.16l8.49,56.78-5,.81Z"/><path class="cls-5" d="M58.69,114.64v0a7.65,7.65,0,0,1,7.85-7.79,7.77,7.77,0,0,1,5.94,2.32l-2.11,2.43a5.56,5.56,0,0,0-3.85-1.7,4.46,4.46,0,0,0-4.37,4.69v0a4.47,4.47,0,0,0,4.37,4.73,5.44,5.44,0,0,0,4-1.76l2.11,2.13a7.7,7.7,0,0,1-6.17,2.69A7.6,7.6,0,0,1,58.69,114.64Z"/><path class="cls-5" d="M75.24,107.07H86.6V110H78.53v3.06h7.1V116h-7.1v3.16h8.18v2.95H75.24Z"/><path class="cls-5" d="M89.65,107.07h3.05l7.06,9.27v-9.27H103v15.06h-2.82l-7.29-9.57v9.57H89.65Z"/><path class="cls-5" d="M110.16,110.13h-4.58v-3.06h12.48v3.06h-4.58v12h-3.31Z"/><path class="cls-5" d="M120.59,107.07h6.88a6,6,0,0,1,4.39,1.53,4.73,4.73,0,0,1,1.29,3.44v0a4.68,4.68,0,0,1-3.23,4.67l3.68,5.38h-3.87l-3.23-4.82h-2.6v4.82h-3.31Zm6.67,7.31c1.61,0,2.54-.86,2.54-2.13v0c0-1.42-1-2.15-2.6-2.15h-3.29v4.32Z"/><path class="cls-5" d="M135.48,114.64v0a8,8,0,0,1,16,0v0a8,8,0,0,1-16,0Zm12.54,0v0a4.58,4.58,0,0,0-4.56-4.73,4.5,4.5,0,0,0-4.52,4.69v0a4.57,4.57,0,0,0,4.56,4.73A4.5,4.5,0,0,0,148,114.64Z"/><path class="cls-5" d="M154.44,107.07h3.05l7.06,9.27v-9.27h3.27v15.06H165l-7.29-9.57v9.57h-3.27Z"/><path class="cls-5" d="M171.59,107.07h3.31v15.06h-3.31Z"/><path class="cls-5" d="M183.83,107h3.06l6.45,15.17h-3.46l-1.38-3.38h-6.37l-1.38,3.38h-3.38Zm3.49,8.86-2-4.88-2,4.88Z"/><path class="cls-5" d="M51.68,127.51H63v2.95H55v3.06h7.1v2.95H55v3.16h8.18v2.95H51.68Z"/><path class="cls-5" d="M66.09,127.51h3.31v12h7.51v3H66.09Z"/><path class="cls-5" d="M79.41,127.51H90.77v2.95H82.7v3.06h7.1v2.95H82.7v3.16h8.18v2.95H79.41Z"/><path class="cls-5" d="M93.83,127.51H97.4l4,6.37,4-6.37h3.57v15.06H105.6v-9.83l-4.24,6.43h-.09l-4.2-6.37v9.77H93.83Z"/><path class="cls-5" d="M112.5,127.51h11.36v2.95H115.8v3.06h7.1v2.95h-7.1v3.16H124v2.95H112.5Z"/><path class="cls-5" d="M126.92,127.51H130l7.06,9.27v-9.27h3.27v15.06h-2.82L130.19,133v9.57h-3.27Z"/><path class="cls-5" d="M147.43,130.57h-4.58v-3.05h12.48v3.05h-4.58v12h-3.31Z"/><path class="cls-5" d="M161.09,127.4h3.06l6.45,15.17h-3.46l-1.38-3.38h-6.37L158,142.57h-3.38Zm3.49,8.86-2-4.88-2,4.88Z"/><path class="cls-5" d="M172.92,127.51h6.88A6,6,0,0,1,184.2,129a4.73,4.73,0,0,1,1.29,3.44v0a4.68,4.68,0,0,1-3.23,4.67l3.68,5.38h-3.87l-3.23-4.82h-2.6v4.82h-3.31Zm6.67,7.32c1.61,0,2.54-.86,2.54-2.13v0c0-1.42-1-2.15-2.6-2.15h-3.29v4.33Z"/><path class="cls-5" d="M192.18,136.63l-5.79-9.12h3.87l3.59,6,3.66-6h3.76l-5.79,9.06v6h-3.31Z"/><path class="cls-5" d="M72.24,150.05h2.14l4.53,10.65H76.48l-1-2.37H71l-1,2.37H67.71Zm2.45,6.22-1.41-3.43-1.4,3.43Z"/><path class="cls-5" d="M80.41,149.67h2.3v11h-2.3Z"/><path class="cls-5" d="M85,149.67h2.3v11H85Z"/><path class="cls-5" d="M89,156.7v0a4,4,0,0,1,4-4.21c2.7,0,3.94,2.1,3.94,4.4,0,.18,0,.39,0,.6H91.31a1.88,1.88,0,0,0,2,1.59,2.65,2.65,0,0,0,2-.83l1.31,1.16A4.28,4.28,0,0,1,89,156.7Zm5.71-.68A1.74,1.74,0,0,0,93,154.29,1.8,1.8,0,0,0,91.29,156Z"/><path class="cls-5" d="M98.69,152.6H101v1.15a2.87,2.87,0,0,1,2.37-1.3c1.74,0,2.75,1.15,2.75,3v5.24h-2.3v-4.52c0-1.09-.51-1.65-1.39-1.65s-1.44.56-1.44,1.65v4.52h-2.3Z"/><path class="cls-5" d="M108.48,158.4v-3.84h-1v-2h1v-2.07h2.3v2.07h1.9v2h-1.9V158c0,.53.23.79.74.79a2.34,2.34,0,0,0,1.13-.29v1.84a3.38,3.38,0,0,1-1.81.47C109.43,160.84,108.48,160.28,108.48,158.4Z"/><path class="cls-5" d="M113.75,156.7v0a4.38,4.38,0,0,1,8.76,0v0a4.25,4.25,0,0,1-4.4,4.21A4.21,4.21,0,0,1,113.75,156.7Zm6.5,0v0a2.15,2.15,0,0,0-2.13-2.24,2.07,2.07,0,0,0-2.1,2.21v0a2.15,2.15,0,0,0,2.13,2.24A2.07,2.07,0,0,0,120.24,156.7Z"/><path class="cls-5" d="M123.13,152.6h2.33l1.3,4.91,1.53-4.94h2l1.54,5,1.33-4.92h2.28l-2.52,8.16h-2.07l-1.56-5-1.59,5h-2.05Z"/><path class="cls-5" d="M136.8,152.6h2.3v1.15a2.87,2.87,0,0,1,2.37-1.3c1.74,0,2.75,1.15,2.75,3v5.24h-2.3v-4.52c0-1.09-.51-1.65-1.39-1.65s-1.44.56-1.44,1.65v4.52h-2.3Z"/><path class="cls-5" d="M145.58,162.2c1-.11,1.56-.63,1.48-1.5h-.94v-2.42h2.45v2c0,2-1,2.79-2.79,2.83Z"/><path class="cls-5" d="M155.3,150.13h4.32c2.52,0,4,1.5,4,3.66v0c0,2.45-1.9,3.72-4.28,3.72h-1.77v3.17H155.3Zm4.17,5.33a1.64,1.64,0,0,0,1.84-1.6v0c0-1-.73-1.6-1.89-1.6h-1.8v3.23Z"/><path class="cls-5" d="M168,150.05h2.14l4.53,10.65h-2.43l-1-2.37h-4.47l-1,2.37h-2.37Zm2.45,6.22L169,152.84l-1.4,3.43Z"/></g></g></svg>