<svg xmlns="http://www.w3.org/2000/svg" viewBox="0 0 250 250"><defs><style>.cls-1{isolation:isolate;}.cls-2{fill:#c03b2b;}.cls-3{fill:#e64c3c;}.cls-3,.cls-4{fill-rule:evenodd;}.cls-4{fill:#231f20;opacity:0.15;mix-blend-mode:multiply;}.cls-5{fill:#fff;}</style></defs><title>Artboard 1</title><g class="cls-1"><g id="Layer_1" data-name="Layer 1"><rect class="cls-2" width="249.99" height="250"/><path class="cls-3" d="M183.61,158.56q-35.47,66.6-122.07,72.87l16-47.82L69.27,35.93a6,6,0,0,0,2.89.82A32.62,32.62,0,0,0,97.91,25l67.82-4Z"/><path class="cls-4" d="M120.63,198.39q-.26,2.68-.6,5.1,14-6.91,22.55-16Q134,194.07,120.63,198.39Zm54.08-53.82q.35,2.76.78,5.44Q144.3,215,70.35,226.12l4.41-10.28q8.72,3.11,36.8-7.6l.26-6.91q-25.31,6.22-30.75,6a66.06,66.06,0,0,0,1.21-9.93Q142.14,197.44,174.71,144.57Zm-5-32.4q.43,3.37.95,6.74a227.43,227.43,0,0,1-43.71,50.28q12-4.15,24-17.45,12.79-14.43,21.34-24.19.43,2.94.86,6-31.36,52.18-90.71,60a58.63,58.63,0,0,0,.43-11.49q33.09-13.82,56.33-34-24,13.74-56.59,18.4a96.17,96.17,0,0,1-.6-10.63Q137.74,151.65,169.7,112.17Zm-4-33q.34,2.68.78,5.53-4.32,3.56-8.9,6.78V84.91Q161.77,82.16,165.73,79.17ZM150.52,34.81V28.71q5-.76,10-1.47a37,37,0,0,1,.43,5.7ZM75.28,48.41a37.54,37.54,0,0,0-.43-6Q112,34.67,146.29,29.36v6.22Q112.41,41.68,75.28,48.41ZM115.62,125q.34,2.42.6,5.36a117,117,0,0,0,20.3-10A125.8,125.8,0,0,1,115.62,125ZM108.8,93.34a36.73,36.73,0,0,0,7.43-.26,64.06,64.06,0,0,0,8.38-1.81,35.37,35.37,0,0,0,8.21-3.63,66.29,66.29,0,0,0,7-5.1,25.39,25.39,0,0,0,4.58-4.92q2.16-2.51,2-4.06a176.52,176.52,0,0,1-46.13,15.64A4.13,4.13,0,0,0,103,92,20.08,20.08,0,0,0,108.8,93.34ZM80,128.24a28.41,28.41,0,0,1-.35-6.31q53.31,0,87.86-26.61.34,2.76.78,5.62-31.79,38.88-86.65,50.62-.26-5.36-.6-10,5.44-1,27.13-7l-1.3-7.69Q85.82,128.58,80,128.24Zm-.6-9q-.35-3.37-.52-7,42.42-5.14,74-24.41v6.78Q121.81,114.68,79.42,119.25Zm3-19.87A10.75,10.75,0,0,1,78,93.16q-.35-4.23-.52-8.38Q126,78.22,163.57,60a29.15,29.15,0,0,1,.52,5.53l.09.09q0,2.42-3,6a48.51,48.51,0,0,1-7.78,8.29,122.15,122.15,0,0,1-12.27,10.37,54.73,54.73,0,0,1-15.55,8.29,100.61,100.61,0,0,1-17.11,3.89,73.21,73.21,0,0,1-15.38.43A27.79,27.79,0,0,1,82.45,99.38Zm-5.18-19q-.35-4.49-.43-8.9,27.56-10,50.8-20.56-23.76,5.27-51.57,9.42a58.42,58.42,0,0,0-.43-7.26q45.61-7.52,85.27-16a43.86,43.86,0,0,1,.43,6.22q-22.37,9.94-46.56,21.86,25-6.31,47.6-13.82.34,2.77.6,5.7Q125.55,73.81,77.26,80.38Z"/><path class="cls-5" d="M47,104.74v0a7.73,7.73,0,0,1,7.9-7.79A8.27,8.27,0,0,1,60.79,99l-2.09,2.52A5.54,5.54,0,0,0,54.76,100a4.52,4.52,0,0,0-4.32,4.69v0A4.51,4.51,0,0,0,55,109.47a5.29,5.29,0,0,0,3.12-.9v-2.15H54.79v-2.86h6.54v6.54a9.78,9.78,0,0,1-6.43,2.39A7.54,7.54,0,0,1,47,104.74Z"/><path class="cls-5" d="M64.27,105.77V97.16h3.31v8.52c0,2.45,1.23,3.72,3.25,3.72s3.25-1.23,3.25-3.61V97.16H77.4v8.5c0,4.56-2.56,6.8-6.6,6.8S64.27,110.2,64.27,105.77Z"/><path class="cls-5" d="M80.93,97.16h3.31v15.06H80.93Z"/><path class="cls-5" d="M87.34,104.74v0a8,8,0,0,1,16,0v0a8,8,0,0,1-16,0Zm12.54,0v0A4.58,4.58,0,0,0,95.32,100a4.5,4.5,0,0,0-4.52,4.69v0a4.58,4.58,0,0,0,4.56,4.73A4.5,4.5,0,0,0,99.88,104.74Z"/><path class="cls-5" d="M106.3,97.16h3.06l7.06,9.27V97.16h3.27v15.06h-2.82l-7.29-9.57v9.57H106.3Z"/><path class="cls-5" d="M129.08,104.74v0a7.65,7.65,0,0,1,7.85-7.79,7.77,7.77,0,0,1,5.94,2.32l-2.11,2.43a5.56,5.56,0,0,0-3.85-1.7,4.46,4.46,0,0,0-4.37,4.69v0a4.47,4.47,0,0,0,4.37,4.73,5.44,5.44,0,0,0,4-1.76l2.11,2.13a7.7,7.7,0,0,1-6.17,2.69A7.6,7.6,0,0,1,129.08,104.74Z"/><path class="cls-5" d="M145.63,97.16h6.88a6,6,0,0,1,4.39,1.53,4.73,4.73,0,0,1,1.29,3.44v0a4.68,4.68,0,0,1-3.23,4.67l3.68,5.38h-3.87l-3.23-4.82h-2.6v4.82h-3.31Zm6.67,7.31c1.61,0,2.54-.86,2.54-2.13v0c0-1.42-1-2.15-2.6-2.15h-3.29v4.32Z"/><path class="cls-5" d="M161.19,97.16h11.36v2.95h-8.07v3.06h7.1v2.95h-7.1v3.16h8.18v2.95H161.19Z"/><path class="cls-5" d="M175.6,97.16H187v2.95h-8.07v3.06H186v2.95h-7.1v3.16h8.18v2.95H175.6Z"/><path class="cls-5" d="M190,97.16h3.31v6.58l6.11-6.58h4l-6.13,6.39,6.41,8.67h-4l-4.67-6.41-1.74,1.81v4.6H190Z"/><path class="cls-5" d="M50.85,117.6H62.21v2.95H54.14v3.06h7.1v2.95h-7.1v3.16h8.18v2.95H50.85Z"/><path class="cls-5" d="M65.26,117.6h3.31v12h7.51v3H65.26Z"/><path class="cls-5" d="M78.58,117.6H89.94v2.95H81.87v3.06H89v2.95h-7.1v3.16h8.18v2.95H78.58Z"/><path class="cls-5" d="M93,117.6h3.57l4,6.37,4-6.37h3.57v15.06h-3.29v-9.83l-4.24,6.43h-.09l-4.2-6.37v9.77H93Z"/><path class="cls-5" d="M111.67,117.6H123v2.95H115v3.06h7.1v2.95H115v3.16h8.18v2.95H111.67Z"/><path class="cls-5" d="M126.09,117.6h3.05l7.06,9.27V117.6h3.27v15.06h-2.82l-7.29-9.57v9.57h-3.27Z"/><path class="cls-5" d="M146.6,120.66H142V117.6h12.48v3.06h-4.58v12H146.6Z"/><path class="cls-5" d="M160.26,117.5h3.06l6.45,15.17H166.3l-1.38-3.38h-6.37l-1.38,3.38H153.8Zm3.49,8.86-2-4.88-2,4.88Z"/><path class="cls-5" d="M172.09,117.6H179a6,6,0,0,1,4.39,1.53,4.73,4.73,0,0,1,1.29,3.44v0a4.68,4.68,0,0,1-3.23,4.67l3.68,5.38h-3.87L178,127.84h-2.6v4.82h-3.31Zm6.67,7.32c1.61,0,2.54-.86,2.54-2.13v0c0-1.42-1-2.15-2.6-2.15h-3.29v4.32Z"/><path class="cls-5" d="M191.35,126.73l-5.79-9.12h3.87l3.59,6,3.66-6h3.76l-5.79,9.06v6h-3.31Z"/><path class="cls-5" d="M66.58,140.22h2.33v10.57H66.58Z"/><path class="cls-5" d="M71.31,142.7h2.3v1.15a2.86,2.86,0,0,1,2.37-1.3c1.74,0,2.75,1.15,2.75,3v5.24h-2.3v-4.52c0-1.09-.51-1.65-1.39-1.65s-1.44.56-1.44,1.65v4.52h-2.3Z"/><path class="cls-5" d="M80.36,146.76v0c0-2.7,1.77-4.18,3.69-4.18a3.11,3.11,0,0,1,2.52,1.21v-4h2.3v11h-2.3v-1.16A3,3,0,0,1,84,150.94C82.16,150.94,80.36,149.46,80.36,146.76Zm6.24,0v0a2,2,0,1,0-3.94,0v0a2,2,0,1,0,3.94,0Z"/><path class="cls-5" d="M91,139.76h2.42v2H91ZM91,142.7h2.3v8.1H91Z"/><path class="cls-5" d="M95,148.47v0c0-1.77,1.34-2.58,3.26-2.58a5.76,5.76,0,0,1,2,.33V146c0-1-.59-1.48-1.74-1.48a6,6,0,0,0-2.24.44l-.57-1.75a7.15,7.15,0,0,1,3.14-.65,3.74,3.74,0,0,1,2.73.91,3.53,3.53,0,0,1,.88,2.58v4.7h-2.22v-.88a3.11,3.11,0,0,1-2.45,1A2.51,2.51,0,0,1,95,148.47Zm5.27-.53v-.41a3.55,3.55,0,0,0-1.47-.3c-1,0-1.59.39-1.59,1.12v0c0,.62.51,1,1.25,1C99.54,149.36,100.27,148.77,100.27,147.94Z"/><path class="cls-5" d="M104.42,142.7h2.3v1.15a2.86,2.86,0,0,1,2.37-1.3c1.74,0,2.75,1.15,2.75,3v5.24h-2.3v-4.52c0-1.09-.51-1.65-1.39-1.65s-1.44.56-1.44,1.65v4.52h-2.3Z"/><path class="cls-5" d="M113.35,148.47v0c0-1.77,1.34-2.58,3.26-2.58a5.76,5.76,0,0,1,2,.33V146c0-1-.59-1.48-1.74-1.48a6,6,0,0,0-2.24.44l-.57-1.75a7.15,7.15,0,0,1,3.14-.65,3.74,3.74,0,0,1,2.73.91,3.53,3.53,0,0,1,.88,2.58v4.7h-2.22v-.88a3.11,3.11,0,0,1-2.45,1A2.51,2.51,0,0,1,113.35,148.47Zm5.27-.53v-.41a3.55,3.55,0,0,0-1.47-.3c-1,0-1.59.39-1.59,1.12v0c0,.62.51,1,1.25,1C117.9,149.36,118.62,148.77,118.62,147.94Z"/><path class="cls-5" d="M122.78,142.7h2.3v1.16a3,3,0,0,1,2.52-1.31c1.89,0,3.69,1.48,3.69,4.18v0c0,2.7-1.77,4.18-3.69,4.18a3.11,3.11,0,0,1-2.52-1.21v3.47h-2.3Zm6.21,4.06v0a2,2,0,1,0-3.94,0v0a2,2,0,1,0,3.94,0Z"/><path class="cls-5" d="M132.58,146.79v0a4.38,4.38,0,0,1,8.76,0v0a4.25,4.25,0,0,1-4.4,4.21A4.21,4.21,0,0,1,132.58,146.79Zm6.5,0v0a2.15,2.15,0,0,0-2.13-2.24,2.07,2.07,0,0,0-2.1,2.21v0A2.15,2.15,0,0,0,137,149,2.07,2.07,0,0,0,139.08,146.79Z"/><path class="cls-5" d="M143.11,139.76h2.3v11h-2.3Z"/><path class="cls-5" d="M147.61,139.76H150v2h-2.42Zm.06,2.93H150v8.1h-2.3Z"/><path class="cls-5" d="M151.49,149.72l1-1.51a4.57,4.57,0,0,0,2.55,1c.66,0,1-.24,1-.6v0c0-.5-.79-.66-1.68-.94-1.13-.33-2.42-.86-2.42-2.43v0c0-1.65,1.33-2.57,3-2.57a5.6,5.6,0,0,1,3,.94L157,145.1a4.8,4.8,0,0,0-2.19-.75c-.56,0-.85.24-.85.56v0c0,.45.77.67,1.65,1,1.13.38,2.45.92,2.45,2.4v0c0,1.8-1.34,2.61-3.1,2.61A5.67,5.67,0,0,1,151.49,149.72Z"/><path class="cls-5" d="M159.08,152.29c1-.11,1.56-.63,1.48-1.5h-.94v-2.42h2.45v2c0,2-1,2.79-2.79,2.83Z"/><path class="cls-5" d="M168.91,140.22h2.33v10.57h-2.33Z"/><path class="cls-5" d="M173.88,140.22H176l5,6.51v-6.51h2.3v10.57h-2l-5.12-6.72v6.72h-2.3Z"/></g></g></svg>