<svg xmlns="http://www.w3.org/2000/svg" viewBox="0 0 250 250"><defs><style>.cls-1{isolation:isolate;}.cls-2{fill:#14a085;}.cls-3{fill:#25b99a;}.cls-3,.cls-4{fill-rule:evenodd;}.cls-4{fill:#231f20;opacity:0.15;mix-blend-mode:multiply;}.cls-5{fill:#fff;}</style></defs><title>Artboard 12</title><g class="cls-1"><g id="Layer_1" data-name="Layer 1"><rect class="cls-2" x="0.03" y="0.2" width="249.99" height="250"/><path class="cls-3" d="M31.84,206.27l-2.33.27q-19.85-17.71-10.36-50Q31,116.3,88.51,53.38l5.32,12.37L227.68,43.51,236,71.6,120,196.78Z"/><path class="cls-4" d="M30.48,144.17l4.23-7.27,7.59,10.85-2.5-18.44,4.88-9.11,14.43,35.14-6.51,9.76L36.77,152.41l3.47,25.82-9.76,14.86-7.27-33.41,3.25-8.46,4.88,17.46Zm16.6-26.9,8-11.93,5.32,5.31-7.27,9.55,2.6,3,6.4-8,6.08,4.56-7.38,8.79,4.23,4.67,10.52-11.82L86,128.77,63.35,151ZM83,80.39l-4.34,6.07-7.16-.87L86,64.88l2.6,5.64-2.17,4.67,63.78-10L128.32,85.92ZM62.81,97.31a8,8,0,0,1,2-2.28,9,9,0,0,1,2.6-2.28,10,10,0,0,1,3-1.52,8.51,8.51,0,0,1,3.58-1,8.21,8.21,0,0,1,3.25,0L71.92,97.2a1.94,1.94,0,0,0-1.63.22l-1.08.87a1.19,1.19,0,0,0-.54.43l-.32.43-.33,1,.11.87c.07.29.47.47,1.19.54a5.59,5.59,0,0,0,1.74-.33l6.72-4.88a21.54,21.54,0,0,1,8.35-3.8,25.18,25.18,0,0,1,10.63-.33,15.87,15.87,0,0,1,9.33,4,9.34,9.34,0,0,1,2.93,8.46,36,36,0,0,1-1.74,3.8L104.57,112a31.71,31.71,0,0,1-5,3.58,28.44,28.44,0,0,1-6.07,2.6,32,32,0,0,1-10.41.43,18.56,18.56,0,0,1-8-2.71l6.51-7.38a6.33,6.33,0,0,0,3.15.65l2.71-.54L90,107a6.74,6.74,0,0,0,1.3-2.28l-.11-1.63-.65-1-.65-.65-2-.54-2.93.22-1.85.76-5.86,3.9a26.42,26.42,0,0,1-3.14,1.74,39.54,39.54,0,0,1-4.34,1.19q-2.06,0-3.69-.11a8.58,8.58,0,0,1-2.82-1.41,4.39,4.39,0,0,1-1.74-2,3.61,3.61,0,0,1-.54-2.49,4.84,4.84,0,0,1,.22-2.49,10.93,10.93,0,0,1,1.3-2.6C62.59,97.42,62.66,97.31,62.81,97.31Z"/><path class="cls-4" d="M58,171.18l5.75-6.62,10.63.16-4.67,6.35Zm81.68-5.64-7.48,6.94-57.6-1,3.8-6.72Zm-15.94,19-6.83,7.27L31.46,199.6l7.27-7.7,50.66-4.55L50,179.53l6.18-7.16Zm-23-35.9a24.19,24.19,0,0,0-4.12,1.08L93,151.54a6.19,6.19,0,0,0-2.6,2l20.39-.11q.32-1,.76-2.06l-.87-1.63a8.51,8.51,0,0,0-2.06-1.19,14.34,14.34,0,0,0-3.69-.43A22.84,22.84,0,0,0,100.77,148.62Zm24.08-41.87-4.23,5.53-9.44.22,5.1-5.53Zm39.92,31.89-8.9,10.09L122,151.65l-2.5,3.14,29.29.76-6.4,6.51L68.55,159.9l6.07-6.51a15.4,15.4,0,0,1,6.08-4.45,44.89,44.89,0,0,1,8.57-3.58,60.56,60.56,0,0,1,10.52-2.6,58.09,58.09,0,0,1,10.74-1,52.36,52.36,0,0,1,10,.87,16.75,16.75,0,0,1,6.18,2.71Zm14-17.14L177,123.67a22.26,22.26,0,0,1-7.16,5.1,69.61,69.61,0,0,1-12.8,4.66,132.1,132.1,0,0,1-16.27,3.36,135.08,135.08,0,0,1-15.62,1,79.46,79.46,0,0,1-13.78-.65,29.53,29.53,0,0,1-10-2.82q-3.58-2-4-4.12-.22-2.38,2.28-4.88a27.4,27.4,0,0,1,7.27-4.77,66.51,66.51,0,0,1,12.15-4.23l8.25,3.69a30.68,30.68,0,0,0-6.73,2.49,8.86,8.86,0,0,0-3.8,2.49,3.44,3.44,0,0,0-1.19,2.71q.11,1.19,2.28,2.17a13.36,13.36,0,0,0,5.32,1.52,48,48,0,0,0,7.48.33q3.91-.11,8.46-.65A79.4,79.4,0,0,0,148,129.2q3.15-1,6.18-2.17a34.5,34.5,0,0,0,4-2.39,4,4,0,0,0,1.3-2.49,2.17,2.17,0,0,0-1.19-2.17l-9.87-.11-5.64,6.07-11.06-.22,10.19-11,43.93-1.41-5.31,6.18-11.72-.76ZM194.27,105l-6.07,6.07-62.91,1.3,4-5.75Zm0-40.57L197,61.08,179.63,63.9ZM155.55,81.26l2.17-4.94,67.36-3.53-7.81,7.38Zm-23.86,8.89,4.66-5.1,77.88-2.17-6.94,5.42-64.76,9.76q22.31-.33,58.57-2.93l-5.42,6.29-75.61,1.74,5.1-5.86,59.87-10.2Zm7.48-8.35L143.62,77l11.61-.65-4.12,5ZM151.86,68l3.9-4.34,65.84-10.63,2.93,4.12-21.91,3-3,4.88,26.36-1.63L228,69.54Z"/><path class="cls-5" d="M79.49,94.49h3.31v12h7.51v3H79.49Z"/><path class="cls-5" d="M93,94.49h3.31v15.06H93Z"/><path class="cls-5" d="M100,94.49h7A5.44,5.44,0,0,1,111,95.82a3.45,3.45,0,0,1,1,2.56v0a3.5,3.5,0,0,1-2,3.25c1.74.67,2.82,1.68,2.82,3.7v0c0,2.75-2.24,4.13-5.64,4.13H100Zm8.67,4.45c0-1-.77-1.55-2.17-1.55h-3.27v3.18h3.06c1.46,0,2.39-.47,2.39-1.59Zm-1.61,4.39h-3.83v3.31h3.94c1.46,0,2.35-.52,2.35-1.64v0C109.55,104,108.8,103.33,107.1,103.33Z"/><path class="cls-5" d="M115.58,94.49h11.36v2.95h-8.07v3.06H126v2.95h-7.1v3.16H127v2.95H115.58Z"/><path class="cls-5" d="M130,94.49h6.88A6,6,0,0,1,141.27,96a4.72,4.72,0,0,1,1.29,3.44v0a4.68,4.68,0,0,1-3.23,4.67l3.68,5.38h-3.87l-3.23-4.82h-2.6v4.82H130Zm6.67,7.31c1.61,0,2.54-.86,2.54-2.13v0c0-1.42-1-2.15-2.6-2.15H133.3v4.32Z"/><path class="cls-5" d="M149.06,97.54h-4.58V94.49H157v3.06h-4.58v12h-3.31Z"/><path class="cls-5" d="M163.73,103.61l-5.79-9.12h3.87l3.59,6,3.66-6h3.76L167,103.54v6h-3.31Z"/><path class="cls-5" d="M75,127.79l2-2.35a6.91,6.91,0,0,0,4.5,1.83c1.35,0,2.17-.54,2.17-1.42v0c0-.84-.52-1.27-3-1.92-3-.77-5-1.61-5-4.6v0c0-2.73,2.2-4.54,5.27-4.54a8.72,8.72,0,0,1,5.59,1.91l-1.72,2.5a7.07,7.07,0,0,0-3.92-1.48c-1.27,0-1.94.58-1.94,1.31v0c0,1,.64,1.31,3.25,2,3.05.8,4.78,1.89,4.78,4.52v0c0,3-2.28,4.67-5.53,4.67A9.58,9.58,0,0,1,75,127.79Z"/><path class="cls-5" d="M89.12,122.5v0A7.65,7.65,0,0,1,97,114.67a7.77,7.77,0,0,1,5.94,2.32l-2.11,2.43a5.56,5.56,0,0,0-3.85-1.7,4.46,4.46,0,0,0-4.37,4.69v0A4.47,4.47,0,0,0,97,127.19a5.43,5.43,0,0,0,4-1.76l2.11,2.13a7.7,7.7,0,0,1-6.18,2.69A7.6,7.6,0,0,1,89.12,122.5Z"/><path class="cls-5" d="M105.67,114.93H109v6h6.11v-6h3.31V130h-3.31v-6H109v6h-3.31Z"/><path class="cls-5" d="M121.35,122.5v0a8,8,0,0,1,16,0v0a8,8,0,0,1-16,0Zm12.54,0v0a4.58,4.58,0,0,0-4.56-4.73,4.5,4.5,0,0,0-4.52,4.69v0a4.58,4.58,0,0,0,4.56,4.73A4.5,4.5,0,0,0,133.9,122.5Z"/><path class="cls-5" d="M139.64,122.5v0a8,8,0,0,1,16,0v0a8,8,0,0,1-16,0Zm12.54,0v0a4.58,4.58,0,0,0-4.56-4.73,4.5,4.5,0,0,0-4.52,4.69v0a4.58,4.58,0,0,0,4.56,4.73A4.5,4.5,0,0,0,152.19,122.5Z"/><path class="cls-5" d="M158.6,114.93h3.31v12h7.51v3H158.6Z"/><path class="cls-5" d="M62.74,142.86v0a5.37,5.37,0,0,1,5.51-5.47A5.46,5.46,0,0,1,72.42,139l-1.48,1.71a3.9,3.9,0,0,0-2.71-1.19,3.13,3.13,0,0,0-3.07,3.29v0a3.14,3.14,0,0,0,3.07,3.32A3.82,3.82,0,0,0,71,144.91l1.48,1.5a5.41,5.41,0,0,1-4.34,1.89A5.34,5.34,0,0,1,62.74,142.86Z"/><path class="cls-5" d="M74.22,137.09h2.3v11h-2.3Z"/><path class="cls-5" d="M78.19,145.79v0c0-1.77,1.35-2.58,3.26-2.58a5.76,5.76,0,0,1,2,.33v-.14c0-1-.59-1.48-1.74-1.48a6,6,0,0,0-2.24.44l-.57-1.75a7.15,7.15,0,0,1,3.14-.65,3.74,3.74,0,0,1,2.73.91,3.53,3.53,0,0,1,.88,2.58v4.7H83.42v-.88a3.11,3.11,0,0,1-2.45,1A2.51,2.51,0,0,1,78.19,145.79Zm5.27-.53v-.41a3.55,3.55,0,0,0-1.46-.3c-1,0-1.59.39-1.59,1.12v0c0,.62.51,1,1.25,1C82.74,146.68,83.46,146.09,83.46,145.26Z"/><path class="cls-5" d="M87.62,140h2.3v1.63a2.5,2.5,0,0,1,2.58-1.78v2.4h-.12c-1.53,0-2.46.92-2.46,2.85v3h-2.3Z"/><path class="cls-5" d="M93.93,137.09h2.3V143L98.92,140h2.75l-3.08,3.19,3.19,4.91H99.12L97,144.79l-.81.86v2.46h-2.3Z"/><path class="cls-5" d="M102.24,147l1-1.51a4.57,4.57,0,0,0,2.55,1c.66,0,1-.24,1-.6v0c0-.5-.79-.66-1.68-.94-1.13-.33-2.42-.86-2.42-2.43v0c0-1.65,1.33-2.57,3-2.57a5.6,5.6,0,0,1,3,.94l-.87,1.59a4.8,4.8,0,0,0-2.19-.75c-.56,0-.85.24-.85.56v0c0,.45.77.67,1.65,1,1.13.38,2.45.92,2.45,2.4v0c0,1.8-1.34,2.61-3.1,2.61A5.67,5.67,0,0,1,102.24,147Z"/><path class="cls-5" d="M112.76,147.06v1.06h-2.3v-11h2.3v4.09a3,3,0,0,1,2.52-1.31c1.89,0,3.69,1.48,3.69,4.18v0c0,2.7-1.77,4.18-3.69,4.18A3.11,3.11,0,0,1,112.76,147.06Zm3.91-3v0a2,2,0,1,0-3.94,0v0a2,2,0,1,0,3.94,0Z"/><path class="cls-5" d="M120.6,145.26V140h2.29v4.52c0,1.09.51,1.65,1.39,1.65s1.44-.56,1.44-1.65V140H128v8.1h-2.29V147a2.87,2.87,0,0,1-2.37,1.3C121.61,148.27,120.6,147.12,120.6,145.26Z"/><path class="cls-5" d="M130.07,140h2.3v1.63a2.5,2.5,0,0,1,2.58-1.78v2.4h-.12c-1.53,0-2.46.92-2.46,2.85v3h-2.3Z"/><path class="cls-5" d="M136.28,149.72l.79-1.72a5.28,5.28,0,0,0,2.73.74c1.57,0,2.31-.75,2.31-2.21v-.39a3.17,3.17,0,0,1-2.64,1.31,3.56,3.56,0,0,1-3.6-3.78v0a3.56,3.56,0,0,1,3.6-3.78,3.28,3.28,0,0,1,2.61,1.21V140h2.3v6.27a4.34,4.34,0,0,1-1,3.19,4.75,4.75,0,0,1-3.49,1.09A7.68,7.68,0,0,1,136.28,149.72Zm5.83-6v0a2,2,0,0,0-3.94,0v0a1.85,1.85,0,0,0,2,1.87A1.87,1.87,0,0,0,142.11,143.67Z"/><path class="cls-5" d="M145.79,149.61c1-.11,1.56-.63,1.48-1.5h-.94V145.7h2.45v2c0,2-1,2.79-2.79,2.83Z"/><path class="cls-5" d="M154.7,137.54h2.49l2.19,7.16,2.37-7.19h2l2.37,7.19,2.19-7.16h2.43l-3.61,10.65h-2l-2.39-6.92-2.39,6.92h-2Z"/><path class="cls-5" d="M171.41,137.54H174l2.76,7.45,2.77-7.45H182l-4.27,10.65h-2.05Z"/></g></g></svg>