<svg xmlns="http://www.w3.org/2000/svg" viewBox="0 0 250 250"><defs><style>.cls-1{isolation:isolate;}.cls-2{fill:#894b9d;}.cls-3{fill:#ad7bb6;}.cls-3,.cls-4{fill-rule:evenodd;}.cls-4{fill:#231f20;opacity:0.2;mix-blend-mode:multiply;}.cls-5{fill:#fff;}</style></defs><title>Artboard 7</title><g class="cls-1"><g id="Layer_1" data-name="Layer 1"><rect class="cls-2" x="0.92" y="-0.44" width="249.99" height="250"/><path class="cls-3" d="M72.33,134.41q-28.2,5-56.57,9.07a174.41,174.41,0,0,0,4.67-35.54q.18-6.5-.11-13.09,85.36-18.67,161.81-41.11,28.5-8.37,55.76-17.26-23.07,37-67.09,77.48-11.38,2.71-22.78,5.26-37.7,8.43-75.68,15.18l-.05-.5Z"/><path class="cls-4" d="M205.82,52.26q9-3,17.87-5.41Q219.42,53,211.56,63.26q-5.73,1.61-11.13,3.16-4.7,6.21-9,11.54,4.32-1.11,8.81-2.31a125.76,125.76,0,0,1-9.73,11q-4.47,1.06-8.71,2.29-4.23,4.3-9.62,9.87,5.07-1.23,10.7-2.55-8.13,8.27-13.24,14.07-8.73,1.89-15.81,3.51,14.66-15.73,26.58-28.08Q192.69,70.87,205.82,52.26Zm-51.37,50.83,9.16-2.23Q156,108.69,151,114.41q-6.94,1.6-12.65,2.73l23.38-26.68q10.78-14,22.13-31.72,9.16-2.84,18.34-5.48-4.1,6-11.44,15.89-5.44,1.63-10.92,3-4.21,5.93-8,11,4.07-1.13,8.36-2.1a135.48,135.48,0,0,1-9.28,10.77q-4,.92-7.84,2Q159.26,97.81,154.46,103.09ZM137.18,71.79a89.53,89.53,0,0,1-4.94,13.07l-9.85,2.41q-1.7,4.71-3,8.8,3.5-.77,7.18-1.64-2,5.31-3.7,9.39-3.15.85-6.2,1.41-1.46,3.23-3.55,7.32,3.27-.67,6.68-1.42a83.28,83.28,0,0,0-6.2,11q-3.13.64-10.22,1.92,9.79-19.58,16.28-47.62Zm16.52-3.28a4.56,4.56,0,0,1,.23,2.9,21,21,0,0,1-1.6,5A58.9,58.9,0,0,1,148.94,83q-2.86.87-5.57,1.44a5.94,5.94,0,0,0,1-2.69,9.18,9.18,0,0,0-.29-.91.17.17,0,0,0-.25,0,.84.84,0,0,0-.55.16,2.05,2.05,0,0,0-1,.77,7.39,7.39,0,0,0-1.36,1.72,9.92,9.92,0,0,0-1.6,3,3.74,3.74,0,0,0-.56,2.2,3.1,3.1,0,0,0,.27,1q.85,1.09,1.69,2.11a8.8,8.8,0,0,1,.22,4.33q-.51,2.54-4.63,7.84T128,113.84a78.72,78.72,0,0,1-6.19,6.25q-.87.62-1.55,1.2l-1.13.46c-.5.12-.83,0-1-.25q-.5-.4-.34-1.51,0-1.91,2-5.5a84.71,84.71,0,0,1,4.69-8.39l4.19-.95a12.72,12.72,0,0,0-1.9,3.17,8.06,8.06,0,0,0-.63,1.47c-.16.43-.09.72.19.86q.4-.2,1.46-.85a9.27,9.27,0,0,1,1.25-1.22,14.15,14.15,0,0,0,1.22-1.43,14.6,14.6,0,0,0,1.06-1.19q.79-1.08,1.38-1.93c.23-.36.46-.73.69-1.13a9.15,9.15,0,0,0,.45-1.1,1.48,1.48,0,0,0,.07-.76,9,9,0,0,0-2.28-2.43,3,3,0,0,1-.48-2.38,16.51,16.51,0,0,1,1.27-4.7,54.9,54.9,0,0,1,2.88-6.67A69.49,69.49,0,0,1,139,78a40.51,40.51,0,0,1,3.61-5.15,20.57,20.57,0,0,1,3.29-3.26A11.17,11.17,0,0,1,149,67.85a7.65,7.65,0,0,1,2.83-.46A2.3,2.3,0,0,1,153.71,68.51ZM154,80.06q2.49-4,5.07-7.5t4.48-5.49a36.82,36.82,0,0,1,3.88-3.49,11.25,11.25,0,0,1,3.28-1.82,7.67,7.67,0,0,1,2.83-.46,1.77,1.77,0,0,1,1.58,1.11,4.59,4.59,0,0,1-.27,3.11A24.82,24.82,0,0,1,172.36,71q-2,3.39-4.42,7.05-3,.68-5.79,1.55a10.73,10.73,0,0,0,1.5-3,3.12,3.12,0,0,1-.1-.94c0-.18-.09-.19-.29,0a.66.66,0,0,0-.51.15,6.2,6.2,0,0,0-1.17.8q-.91,1-1.63,1.9a13.21,13.21,0,0,0-2.14,3.21,4.57,4.57,0,0,0-1,2.4,3.18,3.18,0,0,0,.09,1.15,15.88,15.88,0,0,0,1.32,2.17,8.32,8.32,0,0,1-.57,4.52q-1.19,2.51-6.15,8.29Q146.33,106,141.19,111a67.44,67.44,0,0,1-7.7,6.76L131.61,119a4.28,4.28,0,0,0-1.35.63c-.6.05-1,0-1.16-.29q-.5-.4-.15-1.54.36-2,3-6a94.13,94.13,0,0,1,6.61-9q2.08-.61,4.51-1.07a18,18,0,0,0-2.59,3.42,6.46,6.46,0,0,0-.94,1.65q-.28.66.09.87l1.68-1q.81-.68,1.57-1.34a11.88,11.88,0,0,1,1.55-1.48q.74-.8,1.32-1.37.9-1,1.75-2.05a6.33,6.33,0,0,0,1-1.25,3.54,3.54,0,0,1,.64-1.13,4.78,4.78,0,0,0,.24-.92,3.63,3.63,0,0,0-1.25-1.44,1.56,1.56,0,0,1-.64-1,3,3,0,0,1,.1-2.4,23.73,23.73,0,0,1,2.22-5.13Q151.49,84.07,154,80.06ZM42.12,95q-.5,5-1.15,10.55-2.48.47-5,.87a157.53,157.53,0,0,1-5.67,30.43q-2.26.36-4.53.66a168,168,0,0,0,4.28-30.07q-2.6.35-4.84.85-.08-5.3,0-10.16Zm42,32.61-6,1.11q9.56-18.93,15.55-45.52l6.91-1.8q-.11,15.76.84,26.18,3.44-11.6,8.08-28.64,3.16-.78,6.31-1.63-6.41,28-16.31,47.42-3.34.54-6.7,1.29a74.22,74.22,0,0,0,1-22.73A150,150,0,0,1,84.16,127.59Zm-23.32-26q-5.54,1.3-10.93,2.31-.75,3.74-1.35,7.17l8.53-1.65q-1.11,4.81-2.31,9-4.11.87-8.23,1.67-1,2.89-2,6,4.84-.85,9.86-1.8-1.88,4.53-3.53,9.23l-14.27,2.3q6.29-17.3,8.59-41.33Q54,92.72,63,90.58,62.22,95.55,60.83,101.64ZM67,89.8l7-1.67q.84,14.45,1.64,25.09Q79.21,101.74,83,85.79q3.19-.92,6.4-1.65-5.81,26.57-15.25,45.27l-6.29,1.15a84.58,84.58,0,0,0,.57-21.9A175.34,175.34,0,0,1,59.84,132q-2.91.54-5.5,1Q62.54,114.93,67,89.8Z"/><path class="cls-5" d="M56.57,107.1h3.55l3.12,10.2,3.38-10.24h2.84l3.38,10.24L76,107.1h3.46l-5.14,15.17H71.39L68,112.42l-3.4,9.85H61.71Z"/><path class="cls-5" d="M80.35,114.67v0a8,8,0,0,1,16,0v0a8,8,0,0,1-16,0Zm12.54,0v0a4.58,4.58,0,0,0-4.56-4.73,4.5,4.5,0,0,0-4.52,4.69v0a4.57,4.57,0,0,0,4.56,4.73A4.5,4.5,0,0,0,92.89,114.67Z"/><path class="cls-5" d="M98.64,114.67v0a8,8,0,0,1,16,0v0a8,8,0,0,1-16,0Zm12.54,0v0a4.58,4.58,0,0,0-4.56-4.73,4.5,4.5,0,0,0-4.52,4.69v0a4.57,4.57,0,0,0,4.56,4.73A4.5,4.5,0,0,0,111.18,114.67Z"/><path class="cls-5" d="M117.59,107.1h5.87c4.73,0,8,3.25,8,7.49v0c0,4.24-3.27,7.53-8,7.53h-5.87Zm3.31,3v9.08h2.56a4.29,4.29,0,0,0,4.54-4.5v0a4.33,4.33,0,0,0-4.54-4.54Z"/><path class="cls-5" d="M134.42,107.1h7a5.44,5.44,0,0,1,3.94,1.33,3.45,3.45,0,0,1,1,2.56v0a3.5,3.5,0,0,1-2,3.25c1.74.67,2.82,1.68,2.82,3.7v0c0,2.75-2.24,4.13-5.64,4.13h-7.16Zm8.67,4.45c0-1-.77-1.55-2.17-1.55h-3.27v3.18h3.06c1.46,0,2.39-.47,2.39-1.59Zm-1.61,4.39h-3.83v3.31h3.94c1.46,0,2.34-.52,2.34-1.64v0C143.93,116.57,143.17,115.94,141.48,115.94Z"/><path class="cls-5" d="M149.72,115.71V107.1H153v8.52c0,2.45,1.23,3.72,3.25,3.72s3.25-1.23,3.25-3.61V107.1h3.31v8.5c0,4.56-2.56,6.8-6.6,6.8S149.72,120.14,149.72,115.71Z"/><path class="cls-5" d="M166.22,107.1h6.88a6,6,0,0,1,4.39,1.53,4.73,4.73,0,0,1,1.29,3.44v0a4.68,4.68,0,0,1-3.23,4.67l3.68,5.38h-3.87l-3.23-4.82h-2.6v4.82h-3.31Zm6.67,7.31c1.61,0,2.54-.86,2.54-2.13v0c0-1.42-1-2.15-2.6-2.15h-3.29v4.32Z"/><path class="cls-5" d="M185.48,116.22l-5.79-9.12h3.87l3.59,6,3.66-6h3.76l-5.79,9.06v6h-3.31Z"/><path class="cls-5" d="M15.68,135.12v0a7.73,7.73,0,0,1,7.9-7.79,8.27,8.27,0,0,1,5.92,2.07l-2.09,2.52a5.54,5.54,0,0,0-3.94-1.53A4.52,4.52,0,0,0,19.14,135v0a4.51,4.51,0,0,0,4.56,4.78,5.29,5.29,0,0,0,3.12-.9v-2.15H23.49v-2.86H30v6.54a9.77,9.77,0,0,1-6.43,2.39A7.54,7.54,0,0,1,15.68,135.12Z"/><path class="cls-5" d="M33.22,127.54H40.1a6,6,0,0,1,4.39,1.53,4.73,4.73,0,0,1,1.29,3.44v0a4.68,4.68,0,0,1-3.23,4.67l3.68,5.38H42.36l-3.23-4.82h-2.6v4.82H33.22Zm6.67,7.32c1.61,0,2.54-.86,2.54-2.13v0c0-1.42-1-2.15-2.6-2.15H36.53v4.32Z"/><path class="cls-5" d="M53.94,127.43H57l6.45,15.17H60l-1.38-3.38H52.24l-1.38,3.38H47.48Zm3.49,8.86-2-4.88-2,4.88Z"/><path class="cls-5" d="M65.77,127.54h3.57l4,6.37,4-6.37h3.57V142.6H77.54v-9.83L73.3,139.2h-.09L69,132.83v9.77H65.77Z"/><path class="cls-5" d="M84.45,127.54H88l4,6.37,4-6.37h3.57V142.6H96.22v-9.83L92,139.2h-.09l-4.2-6.37v9.77H84.45Z"/><path class="cls-5" d="M108.29,127.43h3.06l6.45,15.17h-3.46L113,139.22h-6.37l-1.38,3.38h-3.38Zm3.49,8.86-2-4.88-2,4.88Z"/><path class="cls-5" d="M120.12,127.54H127a6,6,0,0,1,4.39,1.53,4.73,4.73,0,0,1,1.29,3.44v0a4.68,4.68,0,0,1-3.23,4.67l3.68,5.38h-3.87L126,137.78h-2.6v4.82h-3.31Zm6.67,7.32c1.61,0,2.54-.86,2.54-2.13v0c0-1.42-1-2.15-2.6-2.15h-3.29v4.32Z"/><path class="cls-5" d="M141.1,140.41l2-2.34a6.91,6.91,0,0,0,4.5,1.83c1.36,0,2.17-.54,2.17-1.42v0c0-.84-.52-1.27-3-1.92-3-.77-5-1.61-5-4.6v0c0-2.73,2.19-4.54,5.27-4.54a8.72,8.72,0,0,1,5.59,1.92l-1.72,2.5a7.07,7.07,0,0,0-3.92-1.48c-1.27,0-1.94.58-1.94,1.31v0c0,1,.65,1.31,3.25,2,3.05.8,4.78,1.89,4.78,4.52v0c0,3-2.28,4.67-5.53,4.67A9.59,9.59,0,0,1,141.1,140.41Z"/><path class="cls-5" d="M155.24,135.12v0a7.65,7.65,0,0,1,7.85-7.79,7.77,7.77,0,0,1,5.94,2.32L166.92,132a5.56,5.56,0,0,0-3.85-1.7A4.46,4.46,0,0,0,158.7,135v0a4.47,4.47,0,0,0,4.37,4.73,5.44,5.44,0,0,0,4-1.76l2.11,2.13a7.7,7.7,0,0,1-6.17,2.69A7.6,7.6,0,0,1,155.24,135.12Z"/><path class="cls-5" d="M171.78,127.54h3.31v6h6.11v-6h3.31V142.6h-3.31v-6H175.1v6h-3.31Z"/><path class="cls-5" d="M187.47,135.12v0a8,8,0,0,1,16,0v0a8,8,0,0,1-16,0Zm12.54,0v0a4.58,4.58,0,0,0-4.56-4.73,4.5,4.5,0,0,0-4.52,4.69v0a4.57,4.57,0,0,0,4.56,4.73A4.5,4.5,0,0,0,200,135.12Z"/><path class="cls-5" d="M205.76,135.12v0a8,8,0,0,1,16,0v0a8,8,0,0,1-16,0Zm12.54,0v0a4.58,4.58,0,0,0-4.56-4.73,4.5,4.5,0,0,0-4.52,4.69v0a4.57,4.57,0,0,0,4.56,4.73A4.5,4.5,0,0,0,218.3,135.12Z"/><path class="cls-5" d="M224.71,127.54H228v12h7.51v3H224.71Z"/><path class="cls-5" d="M70.58,150.16h2.49l2.19,7.16,2.37-7.19h2L82,157.32l2.19-7.16h2.43L83,160.81H81l-2.39-6.92-2.39,6.92h-2Z"/><path class="cls-5" d="M86.73,156.73v0a4.38,4.38,0,0,1,8.76,0v0a4.25,4.25,0,0,1-4.4,4.21A4.21,4.21,0,0,1,86.73,156.73Zm6.5,0v0a2.15,2.15,0,0,0-2.13-2.24,2.07,2.07,0,0,0-2.1,2.21v0a2.15,2.15,0,0,0,2.13,2.24A2.07,2.07,0,0,0,93.23,156.73Z"/><path class="cls-5" d="M96.76,156.73v0a4.38,4.38,0,0,1,8.76,0v0a4.25,4.25,0,0,1-4.4,4.21A4.21,4.21,0,0,1,96.76,156.73Zm6.5,0v0a2.15,2.15,0,0,0-2.13-2.24,2.07,2.07,0,0,0-2.1,2.21v0a2.15,2.15,0,0,0,2.13,2.24A2.07,2.07,0,0,0,103.26,156.73Z"/><path class="cls-5" d="M106.82,156.7v0c0-2.7,1.77-4.18,3.69-4.18a3.11,3.11,0,0,1,2.52,1.21v-4h2.3v11H113v-1.16a3,3,0,0,1-2.52,1.31C108.62,160.88,106.82,159.4,106.82,156.7Zm6.24,0v0a2,2,0,1,0-3.94,0v0a2,2,0,1,0,3.94,0Z"/><path class="cls-5" d="M119.68,159.67v1.06h-2.3v-11h2.3v4.09a3,3,0,0,1,2.52-1.31c1.89,0,3.69,1.48,3.69,4.18v0c0,2.7-1.77,4.18-3.69,4.18A3.11,3.11,0,0,1,119.68,159.67Zm3.91-3v0a2,2,0,1,0-3.94,0v0a2,2,0,1,0,3.94,0Z"/><path class="cls-5" d="M127.52,157.88v-5.24h2.3v4.52c0,1.09.51,1.65,1.39,1.65s1.44-.56,1.44-1.65v-4.52h2.3v8.1h-2.3v-1.15a2.87,2.87,0,0,1-2.37,1.3C128.53,160.88,127.52,159.73,127.52,157.88Z"/><path class="cls-5" d="M137,152.63h2.3v1.63a2.5,2.5,0,0,1,2.58-1.78v2.4h-.12c-1.53,0-2.46.92-2.46,2.85v3H137Z"/><path class="cls-5" d="M148.62,152.63H151l-3.11,8.29c-.62,1.65-1.28,2.27-2.66,2.27a3.8,3.8,0,0,1-2-.56L144,161a2.09,2.09,0,0,0,1,.32.77.77,0,0,0,.8-.53l-3.17-8.13H145l1.84,5.51Z"/><path class="cls-5" d="M150.45,162.23c1-.11,1.56-.63,1.48-1.5H151v-2.42h2.45v2c0,2-1,2.79-2.79,2.83Z"/><path class="cls-5" d="M162.64,152.3h-3.22v-2.14h8.76v2.14H165v8.43h-2.33Z"/><path class="cls-5" d="M170,150.16h2.15l5,6.51v-6.51h2.3v10.57h-2L172.26,154v6.72H170Z"/></g></g></svg>