<svg xmlns="http://www.w3.org/2000/svg" viewBox="0 0 250 250"><defs><style>.cls-1{isolation:isolate;}.cls-2{fill:#f29c1f;}.cls-3{fill:#f0c419;}.cls-3,.cls-4{fill-rule:evenodd;}.cls-4{fill:#231f20;opacity:0.1;mix-blend-mode:multiply;}.cls-5{fill:#fff;}</style></defs><title>Artboard 3</title><g class="cls-1"><g id="Layer_1" data-name="Layer 1"><rect class="cls-2" x="0.74" width="249.99" height="250"/><path class="cls-3" d="M40.68,157.5s21.81,27.53,49.83,29,51.44-13,51.44-13l58.7,25L239.53,85.31,89.07,45.39a23,23,0,0,1-2.3,9.34c-2.37,5,4.38,5.53,3.16,9.91s-4.67,2.94-2.23,7.25S94.46,83,91.58,87.7s-2.66,8.62-6.9,6.11-6.25,5.75-5.6,5.75-5.24,18-11.28,16-7.25-14-3.23-21.12,1.58-7,1.58-7-7-1.94-5.32-5.67,5.6.57,1.65-3.74S52.65,68.88,49.85,69s-5.32,1.15-8.19-1-19-17.89-19-17.89S24.2,68.74,22,75s-5.53,23.49-5.53,23.49,10.13,1.08,8.33,6.82-3.66,8-3.66,8,1.58,9.05-5.1,11.28S49.76,130,40.68,157.5"/><path class="cls-4" d="M26.71,65.41a18.82,18.82,0,0,0,5.72,3.16q2.43,19.79,4,34.28A292.3,292.3,0,0,0,40,70.71,7.08,7.08,0,0,1,45,72.43q2.64,21.8,2.31,36.14Q51.21,97.1,52.57,75.3a36.74,36.74,0,0,1,5.77,2.15q-3,36.72-15.85,60.24a26.91,26.91,0,0,0-3.38-4.59q4.65-19.08,3-30.69Q40.87,113,34.65,129.81a29.88,29.88,0,0,0-4.41-2.15A268.1,268.1,0,0,0,26.71,65.41Z"/><path class="cls-4" d="M63.42,164.06l-9.12-5.82L51,163.13l-6-5.32,18-39,5.53-.86.86,57.11-7-4Zm-3.59-15.16,4.81,2.23-.36-10.85Zm25.29-41.38a13,13,0,0,1,2.23-3.45,14.5,14.5,0,0,1,1.58-2.37q.79-1,1.58-.57t1.72,2.8A49.66,49.66,0,0,1,94.17,111Q95,116.37,95.75,122l-4.81,5a12.46,12.46,0,0,0-.72-4l-.86-1.15c-.14,0-.22,0-.22.07l-.5.36-.5,1.15-.43,2.73a20.21,20.21,0,0,0,.07,4.53,8.31,8.31,0,0,0,.86,3.09L93,138.06a11.94,11.94,0,0,1,2.8,5.46A61.24,61.24,0,0,1,95,155.3a81.28,81.28,0,0,1-4.38,15.44q-3.16,6.46-6.68,8.55a15.7,15.7,0,0,1-2.59.93H79.23a4.14,4.14,0,0,1-2.08-1.51,6.85,6.85,0,0,1-1.37-3.09,22.38,22.38,0,0,1-.5-8.84,36.35,36.35,0,0,1,1.65-10.85l6.46.36a24.89,24.89,0,0,0-.72,4.31,5.34,5.34,0,0,0,.29,2.3q.36,1.44.93,1.44.57.22,1.65-.79L86.7,162l1.51-3.59.65-2.66.07-3.3-.43-1.15-4.24-3.81a8.76,8.76,0,0,1-1.65-3.23A26.52,26.52,0,0,1,81.53,138a71.42,71.42,0,0,1-.36-8.76,53.79,53.79,0,0,1,.5-9.27,28.39,28.39,0,0,1,1.51-7.18A18.49,18.49,0,0,1,85.12,107.53ZM97.76,61.05,98.26,51q12.93,39.08,18.89,71.47,1.65,24.71,1.51,55.17l-7.26,2.3,1.29-41.52-7.61,5.89-3.88,37-8.12-.07q4.45-23.06,6.82-41.23a319.17,319.17,0,0,0-6-52.37l2.23-11.57,9.12,49.71,6-8.33Z"/><path class="cls-4" d="M137.84,63.5q2.23.65,5,1.58,4.81,46.33.36,105.88a27.36,27.36,0,0,0-3.23.22,380.67,380.67,0,0,0-6.25-65.58q1.65,29.59,1,66.59l-4,1.15q1.58-63.64-11.49-115.22L128,60.69q11.42,33.76,13.65,61.42A442.71,442.71,0,0,0,137.84,63.5ZM107.1,54.45q2.51.57,6.39,1.65,14.87,53.3,14.15,118.09a40.35,40.35,0,0,0-3.88,1.58Q124.05,109.4,107.1,54.45Zm40.15,42.88a81,81,0,0,1,2.23-16.59q1.72-6.61,4.89-8.91a6.24,6.24,0,0,1,6.46-1.15q3.16.72,5.67,4.81,2.23,4,3,11.71-3,7.4-5.82,14.73A20.41,20.41,0,0,0,162,95.39a5.15,5.15,0,0,0-2.59-2.73,3.28,3.28,0,0,0-3,1A17.14,17.14,0,0,0,153.86,99a37.28,37.28,0,0,0-1.65,8.4,51,51,0,0,0-.86,9,82,82,0,0,0-.14,9.91q.07,5.67.43,11.06a36,36,0,0,0,.93,7.18,9.09,9.09,0,0,0,1.51,3.52q.79.65,1.87-.72a13.84,13.84,0,0,0,2.3-4.38l.72-5.89-4-1.44q1.36-14.08,2.08-22.77,5.17,1.51,9.48,2.94-3.52,28-8.26,59.69a28.32,28.32,0,0,0-4-1.8,9.28,9.28,0,0,1,.22-2.08,11.69,11.69,0,0,0-1.58,1.22,3.21,3.21,0,0,0-1.22-.14q-1.8-.43-2.73-3.81-1.08-3.59-1.65-12.36-.57-9.19-.57-21-.36-12.21.07-20.4Q146.75,107,147.25,97.33Z"/><path class="cls-4" d="M190.35,92.73q2.73-6.54,5.46-9.34,2.8-3,5.24-2.08t3.52,5a45.61,45.61,0,0,1,.65,11.42q-.65,7.83-2.51,18.46-2.3,10.77-4.6,19.47-2.66,8.76-6,18.89a162.79,162.79,0,0,1-6.61,16.81,44.13,44.13,0,0,1-5.17,9.19q-2.15,2.66-3.23,2.37-1.29-.43-1.51-4.31t.29-11.13q.65-7.76,2.08-18.68t2.87-20q1.51-9.41,4.09-19.18A116.79,116.79,0,0,1,190.35,92.73Zm5.32,11.85q-1.29-.5-2.66,1.51a30.17,30.17,0,0,0-3.09,5.82q-1.44,3.81-2.87,8.69a89.92,89.92,0,0,0-2.3,9.77q-.93,4.45-1.65,10.06-.72,5.24-1.15,9.55a48.57,48.57,0,0,0-.29,7q.21,2.66,1,2.94t2-1.72a52,52,0,0,0,3-6q1.51-3.81,3.23-8.76a92.71,92.71,0,0,0,2.95-9.48q1.22-4.6,2.08-9.84a61.94,61.94,0,0,0,1.29-9.48,25.77,25.77,0,0,0-.07-7Q196.75,104.87,195.67,104.58Zm-20-7.18q-2.15-.57-4-1.22,1.44-12.86,2.59-22.84,6.61,1.72,14,3.74-1.72,9.91-3.81,23.2L180.58,99q-5.17,38.14-12.14,80.31-1.58-.72-3.52-1.51Q171.46,135.62,175.7,97.4Zm38.65-11.78,5.75,1.15q-5.6,32.54-11.28,61.34,8.76-27.87,18.89-60.12,2.59.5,5.39,1.29-18.32,53.3-34.34,103.65a24.71,24.71,0,0,1-3.3-1.44q6.39-32,11.35-60.84-8.19,27.8-16.67,58.18a31.62,31.62,0,0,1-4-1.94Q199.69,136.84,214.34,85.62Z"/><path class="cls-5" d="M57.16,101.85v0A7.65,7.65,0,0,1,65,94,7.77,7.77,0,0,1,71,96.35l-2.11,2.43A5.56,5.56,0,0,0,65,97.08a4.46,4.46,0,0,0-4.37,4.69v0A4.47,4.47,0,0,0,65,106.55a5.44,5.44,0,0,0,4-1.76l2.11,2.13a7.7,7.7,0,0,1-6.17,2.69A7.6,7.6,0,0,1,57.16,101.85Z"/><path class="cls-5" d="M72.61,101.85v0a8,8,0,0,1,16,0v0a8,8,0,0,1-16,0Zm12.54,0v0a4.58,4.58,0,0,0-4.56-4.73,4.5,4.5,0,0,0-4.52,4.69v0a4.57,4.57,0,0,0,4.56,4.73A4.5,4.5,0,0,0,85.15,101.85Z"/><path class="cls-5" d="M89.31,94.28H93l3.94,10.61,3.94-10.61h3.57l-6.09,15.17H95.39Z"/><path class="cls-5" d="M106.88,94.28h3.31v15.06h-3.31Z"/><path class="cls-5" d="M114,94.28H117l7.06,9.27V94.28h3.27v15.06h-2.82l-7.29-9.57v9.57H114Z"/><path class="cls-5" d="M130.29,101.85v0a7.73,7.73,0,0,1,7.9-7.79,8.27,8.27,0,0,1,5.92,2.07L142,98.61a5.55,5.55,0,0,0-3.94-1.53,4.52,4.52,0,0,0-4.32,4.69v0a4.51,4.51,0,0,0,4.56,4.78,5.29,5.29,0,0,0,3.12-.9v-2.15H138.1v-2.86h6.54v6.54a9.77,9.77,0,0,1-6.43,2.39A7.54,7.54,0,0,1,130.29,101.85Z"/><path class="cls-5" d="M151.12,97.34h-4.58V94.28H159v3.06h-4.58v12h-3.31Z"/><path class="cls-5" d="M160.25,101.85v0a8,8,0,0,1,16,0v0a8,8,0,0,1-16,0Zm12.54,0v0a4.58,4.58,0,0,0-4.56-4.73,4.5,4.5,0,0,0-4.52,4.69v0a4.57,4.57,0,0,0,4.56,4.73A4.5,4.5,0,0,0,172.79,101.85Z"/><path class="cls-5" d="M179.2,94.28h3.05l7.06,9.27V94.28h3.27v15.06h-2.82l-7.29-9.57v9.57H179.2Z"/><path class="cls-5" d="M51.18,114.72H62.54v2.95H54.47v3.06h7.1v2.95h-7.1v3.16h8.18v2.95H51.18Z"/><path class="cls-5" d="M65.59,114.72h3.31v12h7.51v3H65.59Z"/><path class="cls-5" d="M78.91,114.72H90.27v2.95H82.2v3.06h7.1v2.95H82.2v3.16h8.18v2.95H78.91Z"/><path class="cls-5" d="M93.33,114.72H96.9l4,6.37,4-6.37h3.57v15.06H105.1V120l-4.24,6.43h-.09L96.58,120v9.77H93.33Z"/><path class="cls-5" d="M112,114.72h11.36v2.95H115.3v3.06h7.1v2.95h-7.1v3.16h8.18v2.95H112Z"/><path class="cls-5" d="M126.42,114.72h3.05l7.06,9.27v-9.27h3.27v15.06H137l-7.29-9.57v9.57h-3.27Z"/><path class="cls-5" d="M146.93,117.78h-4.58v-3.06h12.48v3.06h-4.58v12h-3.31Z"/><path class="cls-5" d="M160.59,114.62h3.06l6.45,15.17h-3.46l-1.38-3.38h-6.37l-1.38,3.38h-3.38Zm3.49,8.86-2-4.88-2,4.88Z"/><path class="cls-5" d="M172.42,114.72h6.88a6,6,0,0,1,4.39,1.53,4.73,4.73,0,0,1,1.29,3.44v0a4.68,4.68,0,0,1-3.23,4.67l3.68,5.38h-3.87L178.34,125h-2.6v4.82h-3.31Zm6.67,7.32c1.61,0,2.54-.86,2.54-2.13v0c0-1.42-1-2.15-2.6-2.15h-3.29V122Z"/><path class="cls-5" d="M191.68,123.85l-5.79-9.12h3.87l3.59,6,3.66-6h3.76L195,123.78v6h-3.31Z"/><path class="cls-5" d="M68.17,142.65v0a5.37,5.37,0,0,1,5.51-5.47,5.45,5.45,0,0,1,4.17,1.63l-1.48,1.71a3.9,3.9,0,0,0-2.7-1.19,3.13,3.13,0,0,0-3.07,3.29v0a3.14,3.14,0,0,0,3.07,3.32,3.82,3.82,0,0,0,2.78-1.24l1.48,1.5a5.41,5.41,0,0,1-4.34,1.89A5.34,5.34,0,0,1,68.17,142.65Z"/><path class="cls-5" d="M79,143.91v0a4.38,4.38,0,0,1,8.76,0v0a4.25,4.25,0,0,1-4.4,4.21A4.21,4.21,0,0,1,79,143.91Zm6.5,0v0a2.15,2.15,0,0,0-2.13-2.24,2.07,2.07,0,0,0-2.1,2.21v0a2.15,2.15,0,0,0,2.13,2.24A2.07,2.07,0,0,0,85.5,143.91Z"/><path class="cls-5" d="M88.25,139.81h2.43l1.81,5.42,1.83-5.42h2.39L93.52,148H91.44Z"/><path class="cls-5" d="M98.08,136.88h2.42v2H98.08Zm.06,2.93h2.3v8.1h-2.3Z"/><path class="cls-5" d="M102.6,139.81h2.3V141a2.87,2.87,0,0,1,2.37-1.3c1.74,0,2.75,1.15,2.75,3v5.24h-2.3v-4.52c0-1.09-.51-1.65-1.39-1.65s-1.44.56-1.44,1.65v4.52h-2.3Z"/><path class="cls-5" d="M112.06,149.51l.79-1.72a5.28,5.28,0,0,0,2.73.74c1.57,0,2.31-.75,2.31-2.21v-.39a3.17,3.17,0,0,1-2.64,1.31,3.56,3.56,0,0,1-3.59-3.78v0a3.56,3.56,0,0,1,3.59-3.78,3.28,3.28,0,0,1,2.61,1.21v-1.06h2.3v6.27a4.34,4.34,0,0,1-1,3.19,4.75,4.75,0,0,1-3.49,1.09A7.68,7.68,0,0,1,112.06,149.51Zm5.83-6v0a2,2,0,0,0-3.94,0v0a1.85,1.85,0,0,0,2,1.87A1.87,1.87,0,0,0,117.89,143.47Z"/><path class="cls-5" d="M122.58,145.62v-3.84h-1v-2h1v-2.07h2.3v2.07h1.9v2h-1.9v3.46c0,.53.23.79.74.79a2.34,2.34,0,0,0,1.13-.29v1.84a3.38,3.38,0,0,1-1.81.47C123.54,148,122.58,147.49,122.58,145.62Z"/><path class="cls-5" d="M127.86,143.91v0a4.38,4.38,0,0,1,8.76,0v0a4.25,4.25,0,0,1-4.4,4.21A4.21,4.21,0,0,1,127.86,143.91Zm6.5,0v0a2.15,2.15,0,0,0-2.13-2.24,2.07,2.07,0,0,0-2.1,2.21v0a2.15,2.15,0,0,0,2.13,2.24A2.07,2.07,0,0,0,134.35,143.91Z"/><path class="cls-5" d="M138.28,139.81h2.3V141a2.87,2.87,0,0,1,2.37-1.3c1.74,0,2.75,1.15,2.75,3v5.24h-2.3v-4.52c0-1.09-.51-1.65-1.39-1.65s-1.44.56-1.44,1.65v4.52h-2.3Z"/><path class="cls-5" d="M147.06,149.41c1-.11,1.56-.63,1.48-1.5h-.94v-2.42H150v2c0,2-1,2.79-2.79,2.83Z"/><path class="cls-5" d="M156,137.34h2.49l2.19,7.16,2.37-7.19h2l2.37,7.19,2.19-7.16H172L168.4,148h-2L164,141.07,161.6,148h-2Z"/><path class="cls-5" d="M176,137.26h2.14l4.53,10.65h-2.43l-1-2.37h-4.47l-1,2.37h-2.37Zm2.45,6.22L177,140.06l-1.4,3.43Z"/></g></g></svg>