<svg xmlns="http://www.w3.org/2000/svg" viewBox="0 0 250 250"><defs><style>.cls-1{isolation:isolate;}.cls-2{fill:#2880ba;}.cls-3{fill:#3b97d3;}.cls-3,.cls-4{fill-rule:evenodd;}.cls-4{fill:#231f20;opacity:0.19;mix-blend-mode:multiply;}.cls-5{fill:#fff;}</style></defs><title>Artboard 6</title><g class="cls-1"><g id="Layer_1" data-name="Layer 1"><rect class="cls-2" x="-0.4" y="-0.4" width="249.99" height="250"/><polygon class="cls-3" points="174.17 146.9 174.9 141.67 184.12 144.67 192.31 140.93 189.58 137.55 184.46 136.8 188.22 130.8 191.97 133.8 191.97 127.8 188.9 125.17 199.83 112.05 206.65 112.05 206.65 109.05 212.81 109.05 210.76 101.55 213.14 101.17 219.97 113.17 222.37 105.3 218.26 100.05 214.85 95.18 209.39 91.42 211.09 86.92 221.34 89.93 222.7 86.55 217.24 84.3 209.04 83.92 207.68 79.05 215.53 75.67 221.68 83.17 225.78 83.17 223.38 72.3 225.78 67.43 231.24 68.92 231.92 67.43 228.16 64.05 227.14 59.92 224.75 57.3 220.31 62.55 218.94 56.17 215.19 56.55 215.87 64.42 213.14 64.42 210.76 56.92 211.44 53.17 219.63 46.05 225.78 52.8 230.9 59.55 234.31 71.17 239.44 66.68 236.71 63.3 236.71 58.43 232.27 53.17 230.9 47.92 229.19 47.92 228.51 43.05 227.48 43.05 222.7 43.43 222.7 34.05 218.26 33.67 218.56 32.68 193.63 37.74 89.74 68.03 74.57 66.81 78 79.87 69.69 75.3 65.95 81.69 56.4 81.69 53.9 91.73 44.34 88.08 38.11 99.5 28.13 110.91 20.23 106.8 19.41 115.47 20.23 124.14 11.09 122.77 10.93 130.86 16.64 129.59 47.74 126.7 40.41 127.38 49.75 123.06 65.38 114.98 98.01 109.94 97.55 116.5 106.29 109.94 108.12 116.5 106.75 126.6 127.44 117.51 147.66 128.11 174.17 146.9 174.17 146.9"/><path class="cls-4" d="M73,98.2a21.68,21.68,0,0,0-2.58-.14q-1.67.19-3.23.42a20.35,20.35,0,0,0-3.18.75,20.93,20.93,0,0,0-3,1,12.09,12.09,0,0,0-2.37,1.17,2.43,2.43,0,0,0-1.06,1.12q-.4.51.05.84a1.91,1.91,0,0,0,1.31.56,13.84,13.84,0,0,0,2.63,0,17.87,17.87,0,0,0,3.08-.33,23.82,23.82,0,0,0,3.28-.79,19.38,19.38,0,0,0,3-1,13.66,13.66,0,0,0,2.27-1.17,3.27,3.27,0,0,0,1.21-1.12,1.41,1.41,0,0,0-.15-.84A3.57,3.57,0,0,0,73,98.2Zm1.57-6.78.05-.61a1.13,1.13,0,0,0-.4-.37,3.11,3.11,0,0,0-1,0,11.28,11.28,0,0,0-1.31.19L70.52,91l-1.36.7a6.34,6.34,0,0,0-1.21.75l6-.37A3,3,0,0,0,74.56,91.42Zm6.62,5.33a1.29,1.29,0,0,1,.35,1.54,6.57,6.57,0,0,1-2.07,2.1,24.13,24.13,0,0,1-4.34,2.2q-2.58,1-5.4,1.92a60.67,60.67,0,0,1-6.06,1.36,43.5,43.5,0,0,1-6,.75,18.74,18.74,0,0,1-4.7-.23,5,5,0,0,1-2.52-.89,1.16,1.16,0,0,1-.25-1.64,4.57,4.57,0,0,1,2.17-2.1,23.67,23.67,0,0,1,4.34-2.2,53.88,53.88,0,0,1,5.45-1.87q2.88-.79,6.21-1.4a45,45,0,0,1,5.71-.65,30.22,30.22,0,0,1,4.65.14A5.66,5.66,0,0,1,81.18,96.75ZM76.23,88a9.15,9.15,0,0,1,2.73.19,2.42,2.42,0,0,1,1.26.84l13.13-2.9-3.84,3.65L79.61,91l-.76.75,8.69-.28-2.27,3.13-25.2.56,3-2.43A12.12,12.12,0,0,1,65.78,91a36.49,36.49,0,0,1,3.38-1.49,29.54,29.54,0,0,1,3.59-1.08A26.14,26.14,0,0,1,76.23,88Zm-.91-1.68-3.84.19,6.72-6.12,4.7-.28L80.57,82,98.4,81l-2.27,2.62-18.48.7ZM85.88,74.13l2.68-2.2,22.72-2.76-5,3.78-7.68.42-3.48,2.85,9.09-.56-2.63,2.52L79.46,79.32,82.24,77l8.13-.47,3.38-2.85ZM30.68,117.78l5.55-3.18L53.71,110l-12.93.84L44,108.24l25.5-.93-6.82,2.34-17.42,4.58,13-.79-3.18,2.66Z"/><path class="cls-4" d="M104.46,89.13l1.67-.09L113.4,80Zm22-14.72.25-.89q-.15-.42-.45-.33l-8.38,10.23,1.16-.56,1.62-1.31,1.87-1.64q.86-1.07,1.77-2.06A14.57,14.57,0,0,1,125.72,76Zm-2.78-7.2,2.12-.28-30.4,38.93-2.58-.28,4.95-6.17-3.18-.19-5.2,5.7-2.93,0Zm-14,8.36a12.66,12.66,0,0,0-2.58,1.87q-1.62,1.31-3.23,2.85Q102,82,100.27,83.94a31.8,31.8,0,0,0-3.38,3.6,27.1,27.1,0,0,0-2.73,3.32,7.85,7.85,0,0,0-1.46,2.48q-.3.7.15.79a7.67,7.67,0,0,0,1.72-.79q1.06-.89,3-2.48l-4.95,7q-3.89,3.32-6.31,5.14a8.88,8.88,0,0,1-3.43,1.54q-.86-.14.05-1.92a24.29,24.29,0,0,1,3.33-5A64.12,64.12,0,0,1,91.83,91q2.88-3.36,6.46-7,3.33-3.55,6.51-6.36a59.52,59.52,0,0,1,5.55-4.91,30.6,30.6,0,0,1,4.44-3.32,6.09,6.09,0,0,1,2.47-1.26q.86-.23.76.75a15.23,15.23,0,0,1-1.46,2.94L110.52,77a12.53,12.53,0,0,0,.91-1.78q.05-.56-.35-.42A2.89,2.89,0,0,0,109.66,75.58ZM192,56.14l11.77-2.52-20.45,64-6.77-3.13,8.23-22.94-6.26.84-14.74,33.13-6.31-4.3ZM181.57,87.5l4.85-.89,8.84-24.25Zm-25-18.22h3.06l-21.23,37.9-3.84.75Zm-24.39-3.18q.81-.23,1,.51a11.55,11.55,0,0,1-.61,2.34,38.6,38.6,0,0,1-2.07,3.69q-1.51,2.15-3.59,5-2.53,3.08-5,5.84-2.63,2.8-5.1,5.19L104.91,108l-3.33-.93,9.24-14-1.11.33-10.55,12.8-2.68-.28,33.33-39.49Zm6,8.74a8,8,0,0,0,.61-2.1q-.15-.79-.76-.56a3.29,3.29,0,0,0-1.87.89,12.44,12.44,0,0,0-2.83,2.38,39,39,0,0,0-3.28,3.36,44,44,0,0,0-3.89,4.72,52.07,52.07,0,0,0-3.43,4.72,24.55,24.55,0,0,0-2.47,4.16,9,9,0,0,0-1.21,3q-.2,1,.5,1.08a6.29,6.29,0,0,0,2.32-1q1.57-1.36,3.48-3.13L129.25,88l4-5q1.67-2.57,3-4.77T138.19,74.83Zm6-10.89q1.11-.19,1.21,1a8.06,8.06,0,0,1-.66,3.36q-1,2.38-2.83,6-2.32,3.64-5.45,8.27-3.64,5.14-7.47,9.81-4.29,5-8.08,9.16a79.87,79.87,0,0,1-7.17,6.59q-3.28,2.34-4.7,2.43-1.46-.33-.66-2.94a29.7,29.7,0,0,1,2.93-6.5,80.34,80.34,0,0,1,5.35-8.51q3-4.44,6.72-9.06,3.48-4.49,6.77-8a62.37,62.37,0,0,1,6-6,33.06,33.06,0,0,1,4.54-3.83A7.84,7.84,0,0,1,144.2,63.94Zm7.27-1.12,3-.47-27,40,11-4.77L132,107.73l-15.15,6.5Zm15.25-2.34,3.94-.56L165,84l10.86-25,10.45-1.68L155.21,119l-5-3.13,12.32-39.67L145,112.92l-3.89-2.62Zm-5.66.89,3.33-.61L161,66.89h-3Z"/><path class="cls-5" d="M43,102.46v0a8,8,0,0,1,16,0v0a8,8,0,0,1-16,0Zm12.54,0v0A4.58,4.58,0,0,0,51,97.69a4.5,4.5,0,0,0-4.52,4.69v0A4.57,4.57,0,0,0,51,107.15,4.51,4.51,0,0,0,55.56,102.46Z"/><path class="cls-5" d="M64.92,104l-5.79-9.12H63l3.59,6,3.66-6H74l-5.79,9.06v6H64.92Z"/><path class="cls-5" d="M74.3,107.75l2-2.35a6.91,6.91,0,0,0,4.5,1.83c1.35,0,2.17-.54,2.17-1.42v0c0-.84-.52-1.27-3-1.92-3-.77-5-1.61-5-4.6v0c0-2.73,2.2-4.54,5.27-4.54a8.72,8.72,0,0,1,5.59,1.91l-1.72,2.5a7.07,7.07,0,0,0-3.92-1.48c-1.27,0-1.94.58-1.94,1.31v0c0,1,.64,1.31,3.25,2,3.05.8,4.78,1.89,4.78,4.52v0c0,3-2.28,4.67-5.53,4.67A9.58,9.58,0,0,1,74.3,107.75Z"/><path class="cls-5" d="M92.29,97.94H87.71V94.89h12.48v3.06H95.61v12H92.29Z"/><path class="cls-5" d="M102.73,94.89h11.36v2.95H106v3.06h7.1v2.95H106V107h8.18v2.95H102.73Z"/><path class="cls-5" d="M117.14,94.89H124a6,6,0,0,1,4.39,1.53,4.73,4.73,0,0,1,1.29,3.44v0a4.68,4.68,0,0,1-3.23,4.67l3.68,5.38h-3.87l-3.23-4.82h-2.6v4.82h-3.31Zm6.67,7.31c1.62,0,2.54-.86,2.54-2.13v0c0-1.42-1-2.15-2.6-2.15h-3.29v4.32Z"/><path class="cls-5" d="M139.16,94.89H146a6,6,0,0,1,4.39,1.53,4.73,4.73,0,0,1,1.29,3.44v0a4.68,4.68,0,0,1-3.23,4.67l3.68,5.38H148.3l-3.23-4.82h-2.6v4.82h-3.31Zm6.67,7.31c1.62,0,2.54-.86,2.54-2.13v0c0-1.42-1-2.15-2.6-2.15h-3.29v4.32Z"/><path class="cls-5" d="M154.86,94.89h3.31v15.06h-3.31Z"/><path class="cls-5" d="M160.65,94.89h3.66l3.94,10.61,3.94-10.61h3.57l-6.09,15.17h-2.93Z"/><path class="cls-5" d="M178.08,94.89h11.36v2.95h-8.07v3.06h7.1v2.95h-7.1V107h8.18v2.95H178.08Z"/><path class="cls-5" d="M192.5,94.89h6.88a6,6,0,0,1,4.39,1.53,4.73,4.73,0,0,1,1.29,3.44v0a4.68,4.68,0,0,1-3.23,4.67l3.68,5.38h-3.87l-3.23-4.82h-2.6v4.82H192.5Zm6.67,7.31c1.62,0,2.54-.86,2.54-2.13v0c0-1.42-1-2.15-2.6-2.15h-3.29v4.32Z"/><path class="cls-5" d="M31,115.33h3.57l4,6.37,4-6.37h3.57v15.06H42.81v-9.83L38.58,127h-.09l-4.2-6.37v9.77H31Z"/><path class="cls-5" d="M49.87,115.33h3.31v15.06H49.87Z"/><path class="cls-5" d="M57,115.33h5.87c4.73,0,8,3.25,8,7.49v0c0,4.24-3.27,7.53-8,7.53H57Zm3.31,3v9.08h2.56a4.29,4.29,0,0,0,4.54-4.5v0a4.33,4.33,0,0,0-4.54-4.54Z"/><path class="cls-5" d="M73.78,115.33h5.87c4.73,0,8,3.25,8,7.49v0c0,4.24-3.27,7.53-8,7.53H73.78Zm3.31,3v9.08h2.56a4.29,4.29,0,0,0,4.54-4.5v0a4.33,4.33,0,0,0-4.54-4.54Z"/><path class="cls-5" d="M90.6,115.33h3.31v12h7.51v3H90.6Z"/><path class="cls-5" d="M103.92,115.33h11.36v2.95h-8.07v3.06h7.1v2.95h-7.1v3.16h8.18v2.95H103.92Z"/><path class="cls-5" d="M123.76,128.2l2-2.35a6.91,6.91,0,0,0,4.5,1.83c1.36,0,2.17-.54,2.17-1.42v0c0-.84-.52-1.27-3-1.92-3-.77-5-1.61-5-4.6v0c0-2.73,2.19-4.54,5.27-4.54a8.72,8.72,0,0,1,5.59,1.91l-1.72,2.5a7.07,7.07,0,0,0-3.91-1.48c-1.27,0-1.94.58-1.94,1.31v0c0,1,.65,1.31,3.25,2,3.05.8,4.78,1.89,4.78,4.52v0c0,3-2.28,4.67-5.53,4.67A9.59,9.59,0,0,1,123.76,128.2Z"/><path class="cls-5" d="M137.9,122.9v0a7.65,7.65,0,0,1,7.85-7.79,7.77,7.77,0,0,1,5.94,2.32l-2.11,2.43a5.56,5.56,0,0,0-3.85-1.7,4.46,4.46,0,0,0-4.37,4.69v0a4.47,4.47,0,0,0,4.37,4.73,5.44,5.44,0,0,0,4-1.76l2.11,2.13a7.7,7.7,0,0,1-6.17,2.69A7.6,7.6,0,0,1,137.9,122.9Z"/><path class="cls-5" d="M154.44,115.33h3.31v6h6.11v-6h3.31v15.06h-3.31v-6h-6.11v6h-3.31Z"/><path class="cls-5" d="M170.13,122.9v0a8,8,0,0,1,16,0v0a8,8,0,0,1-16,0Zm12.54,0v0a4.58,4.58,0,0,0-4.56-4.73,4.5,4.5,0,0,0-4.52,4.69v0a4.57,4.57,0,0,0,4.56,4.73A4.51,4.51,0,0,0,182.67,122.9Z"/><path class="cls-5" d="M188.42,122.9v0a8,8,0,0,1,16,0v0a8,8,0,0,1-16,0Zm12.54,0v0a4.58,4.58,0,0,0-4.56-4.73,4.5,4.5,0,0,0-4.52,4.69v0a4.57,4.57,0,0,0,4.56,4.73A4.51,4.51,0,0,0,201,122.9Z"/><path class="cls-5" d="M207.37,115.33h3.31v12h7.51v3H207.37Z"/><path class="cls-5" d="M79.24,137.94h4.13A5.27,5.27,0,0,1,89,143.2v0a5.29,5.29,0,0,1-5.62,5.29H79.24Zm2.33,2.1v6.38h1.8a3,3,0,0,0,3.19-3.16v0A3,3,0,0,0,83.37,140Z"/><path class="cls-5" d="M90.75,145.66v-5.24H93v4.52c0,1.09.51,1.65,1.39,1.65s1.44-.56,1.44-1.65v-4.52h2.3v8.1h-2.3v-1.15a2.86,2.86,0,0,1-2.37,1.3C91.76,148.67,90.75,147.52,90.75,145.66Z"/><path class="cls-5" d="M100.22,140.42h2.29v1.63a2.5,2.5,0,0,1,2.58-1.78v2.4H105c-1.53,0-2.46.92-2.46,2.85v3h-2.29Z"/><path class="cls-5" d="M106.54,137.49h2.29v4.08a2.87,2.87,0,0,1,2.37-1.3c1.74,0,2.75,1.15,2.75,3v5.24h-2.29V144c0-1.09-.51-1.65-1.39-1.65s-1.44.56-1.44,1.65v4.52h-2.29Z"/><path class="cls-5" d="M115.47,146.19v0c0-1.77,1.34-2.58,3.26-2.58a5.76,5.76,0,0,1,2,.33v-.14c0-1-.59-1.48-1.74-1.48a6,6,0,0,0-2.24.44l-.57-1.75a7.15,7.15,0,0,1,3.14-.65,3.74,3.74,0,0,1,2.73.91,3.52,3.52,0,0,1,.88,2.58v4.7h-2.22v-.88a3.11,3.11,0,0,1-2.45,1A2.51,2.51,0,0,1,115.47,146.19Zm5.27-.53v-.41a3.55,3.55,0,0,0-1.46-.3c-1,0-1.59.39-1.59,1.12v0c0,.62.51,1,1.25,1C120,147.08,120.74,146.49,120.74,145.66Z"/><path class="cls-5" d="M124.89,140.42h2.29v1.15a2.89,2.89,0,0,1,2.39-1.3,2.42,2.42,0,0,1,2.28,1.28,3.34,3.34,0,0,1,2.66-1.28c1.71,0,2.73,1,2.73,3v5.27H135V144c0-1.09-.48-1.65-1.35-1.65s-1.39.56-1.39,1.65v4.52h-2.3V144c0-1.09-.48-1.65-1.34-1.65s-1.39.56-1.39,1.65v4.52h-2.29Z"/><path class="cls-5" d="M138.61,150c1-.11,1.56-.63,1.48-1.5h-.94V146.1h2.45v2c0,2-1,2.79-2.79,2.83Z"/><path class="cls-5" d="M148.34,137.94h2.14l5,6.51v-6.51h2.3v10.57h-2l-5.12-6.72v6.72h-2.3Z"/><path class="cls-5" d="M159.8,143.26v0a5.37,5.37,0,0,1,5.51-5.47,5.46,5.46,0,0,1,4.17,1.63L168,141.1a3.9,3.9,0,0,0-2.71-1.19,3.13,3.13,0,0,0-3.07,3.29v0a3.14,3.14,0,0,0,3.07,3.32,3.82,3.82,0,0,0,2.78-1.24l1.48,1.5a5.41,5.41,0,0,1-4.34,1.89A5.34,5.34,0,0,1,159.8,143.26Z"/></g></g></svg>