<svg xmlns="http://www.w3.org/2000/svg" viewBox="0 0 250 250"><defs><style>.cls-1{isolation:isolate;}.cls-2{fill:#d25627;}.cls-3{fill:#e57e25;}.cls-3,.cls-4{fill-rule:evenodd;}.cls-4{fill:#231f20;opacity:0.15;mix-blend-mode:multiply;}.cls-5{fill:#fff;}</style></defs><title>Artboard 10</title><g class="cls-1"><g id="Layer_1" data-name="Layer 1"><rect class="cls-2" x="0.38" y="-0.5" width="249.99" height="250"/><path class="cls-3" d="M139.72,73l-1-.65-1,.35,1-.35Zm-1-.65,41.54-15.05,62.25,46.75A16.42,16.42,0,0,1,239,107.2q-7.85,5.07-10.63,8.45-4.27,5.57-10.93,15.3-5.27,7.85-6.26,9.64a6.13,6.13,0,0,0-.89,3,9.08,9.08,0,0,0,2.78,6.46,55.17,55.17,0,0,1-5.07,8.45,11,11,0,0,0-8-3.48q-4.57,0-6.76,5.47a36.07,36.07,0,0,0-2,9.44q-1,9.24-2.48,11.13l-.4.3q-5.46,5.76-9.24,9.24-5.46,5-9.14,5.47l-.7-.69q-3.67-4.77-11.13-4.77a30,30,0,0,0-8.35,1.09,35.6,35.6,0,0,0-6.66,2.68,4.86,4.86,0,0,0-2.58,3.18,4.77,4.77,0,0,0,.69,4.07q2.48,3.78,12.92,8.94l4.37,2.39a24.05,24.05,0,0,1-3.08.3l-6.36-.8a76,76,0,0,0-11.33-.79,31.28,31.28,0,0,1-3.78-3,61.38,61.38,0,0,1-4.77-5.76,4.76,4.76,0,0,0-2.78-2,5.41,5.41,0,0,0-3.38.3,10.82,10.82,0,0,0-3.83,3.33L11.53,88.71A127.76,127.76,0,0,1,23.41,75.35Q70.88,29,138.72,72.37Z"/><path class="cls-4" d="M45.83,68.7l2-1.16q14,11,23.05,19.56a23.67,23.67,0,0,0,5,3.68q2.42,1.26,3.68.7a1.73,1.73,0,0,0,.33-1,11.24,11.24,0,0,0-.84-1.77q-.75-.93-1.86-2.19L74.7,84.35Q64.87,76,50.39,66L53,64.65Q67.94,74,78.33,81.93q3.63,2.65,7.08,5.68a28.11,28.11,0,0,1,4.52,5.45,5.56,5.56,0,0,1,.65,4.05,3.6,3.6,0,0,1-2,2.28l0,0a4.11,4.11,0,0,1-3.12.65,16.78,16.78,0,0,1-4-1.77,50,50,0,0,1-6.19-4.1,49.6,49.6,0,0,1-6.61-5.4Q59.84,80.25,45.83,68.7ZM64.54,70q-6.52-3.82-9.87-6.1,4.33-1.91,9.55-3.77,3.59,1.68,10.52,4.84-1.72.84-3.31,1.54,14.9,7.64,37,22-2.75,1.44-5.35,2.89-21-14.57-35.58-23Q65.94,69.17,64.54,70ZM49.78,81.28a3.37,3.37,0,0,0-2.38.14,1.76,1.76,0,0,0-.56,2,19.34,19.34,0,0,0,1.21,3.45,33.94,33.94,0,0,0,2.38,4.05q1.4,2.1,2.38,3.31a13.65,13.65,0,0,0,2.93,2.89,24.64,24.64,0,0,0,3.73,2.51,10.7,10.7,0,0,0,3.58,1.3,3.57,3.57,0,0,0,2.61-.37,2.33,2.33,0,0,0,.93-2,8.59,8.59,0,0,0-.88-3.26,33.89,33.89,0,0,0-2.28-3.77q-1.54-2-2.56-3.31a24.24,24.24,0,0,0-3.17-2.66,34.66,34.66,0,0,0-4.19-2.65A15.57,15.57,0,0,0,49.78,81.28Zm12.53,27A45.7,45.7,0,0,1,55,103a38,38,0,0,1-5.82-6q-2.09-2.52-5.35-7.26a45.9,45.9,0,0,1-5.26-8.34q-1.68-3.59-1.35-5.64a3.25,3.25,0,0,1,1.67-3Q40,72,42.43,72.43a28.81,28.81,0,0,1,5.82,2.47q3.63,2,8.52,5.4a60,60,0,0,1,7,5.68q2.38,2.56,6,6.61A44.84,44.84,0,0,1,74.88,100q1.4,3.21.75,5.31A5.44,5.44,0,0,1,73,108.7a7.32,7.32,0,0,1-4.61,1.21A15.41,15.41,0,0,1,62.31,108.24Zm-21-3.35a5.65,5.65,0,0,1-2.65-.65,19.46,19.46,0,0,1-3.86-2.7A33.4,33.4,0,0,1,30.18,97,32.08,32.08,0,0,1,26,91.75a11.51,11.51,0,0,1-2-4.05,5.4,5.4,0,0,1-.23-3,3.6,3.6,0,0,1,1-2,4.51,4.51,0,0,1,1.77-1.21A5.08,5.08,0,0,1,29,81.37,10.71,10.71,0,0,1,32,82.77a22.21,22.21,0,0,1,4,3q2.24,2,4.42,4.24-1.72,1.49-3.49,3a6,6,0,0,0-2.14-1.63A6.29,6.29,0,0,0,33.53,91c-.16,0-.25,0-.28.09a1.18,1.18,0,0,1-.37.33,6.76,6.76,0,0,1,0,.79l.75,1.4a8.41,8.41,0,0,0,1.86,2.19,5.25,5.25,0,0,0,2,1.26,6.07,6.07,0,0,0,1.4.23q2.09.14,4,.09a16,16,0,0,1,5.08,1.58,24.32,24.32,0,0,1,5.54,5.26,40.73,40.73,0,0,1,4.75,7.68q1.21,3.45.51,5.45-.47.7-.79,1.26c-.4.37-.76.68-1.07.93a3.91,3.91,0,0,1-1.68.65,4.26,4.26,0,0,1-2.14-.09,12.11,12.11,0,0,1-4.66-2.75A39.6,39.6,0,0,1,43,111.78q1.3-1.26,3-2.65a10.18,10.18,0,0,0,2.09,2.19,2.72,2.72,0,0,0,1.44.79,1.69,1.69,0,0,0,1.3.18,2.35,2.35,0,0,0,.56-1.12q-.09-.61-.19-1.16l-.47-1.21q-.28-.51-.56-1l-1.07-1.4q-.42-.42-.84-.79l-.93-.65a10.63,10.63,0,0,0-1.07-.32,19.4,19.4,0,0,0-3.17.23A8.55,8.55,0,0,0,41.31,104.88ZM74.74,57.15q1.82-.37,3.63-.7Q91,59.3,102.5,62.93q14.39,5.73,29,12.62l-4.7,2.7q-8.52-4.61-22.49-10.85-2.61,1.44-5.4,2.93,13.41,6.57,21.61,11.45-2.61,1.54-5.26,2.93Q87.46,67.59,66,59.58q2-.61,3.91-1.16Q78,61.3,89.55,65.86q2.56-1.35,5.12-2.47Q82.94,59.43,74.74,57.15Z"/><path class="cls-4" d="M209.08,94.58l1.39-1.19-13.91-9.74ZM214.34,97l-1.39,1.59L228.75,112,227,114.15,174.5,67.85l2.29-1,56.44,39.65-1.59,2ZM140,153.1l3.77-3.08-20.87-17.69Zm8.35-26.43-1-2.78a27,27,0,0,0-2.28-3.68,32.08,32.08,0,0,0-3.68-3.68,28.34,28.34,0,0,0-4-3.38q-2.08-1.29-3.77-2.28l-3.28-1.29q-1.69-.49-2.19.1l19.67,18.88A3.48,3.48,0,0,0,148.36,126.67ZM75.92,113.85a43.07,43.07,0,0,1,11,5l5.86,12.82A23.64,23.64,0,0,0,86.75,129q-2.88-.79-4,.2-1.39.79-1.19,3-.5,2.19,1.09,5.76A38.45,38.45,0,0,0,87,145.65a76,76,0,0,0,6.76,8.64,71.85,71.85,0,0,0,8.15,8,56.29,56.29,0,0,0,8,6.26,22.6,22.6,0,0,0,6.86,2.78,5.38,5.38,0,0,0,4.07-.5q1.19-1.19.8-4a22.25,22.25,0,0,0-2.39-6.56l16,9.94a51.6,51.6,0,0,1,5.17,13q1.09,5.37-.89,8.25-2.29,2.78-7.55,1.59-5.27-.89-13.31-5.66a94.08,94.08,0,0,1-15.8-12.32,153.8,153.8,0,0,1-15.6-15.9,129.08,129.08,0,0,1-12.42-16.69,66,66,0,0,1-7.45-13.91Q65,122.3,65.79,118.52,66,114.85,69,114,71.16,112.46,75.92,113.85Zm56.94-24.44q-1.09-3.38,1-3.68,1.59-1.09,5.76.5a44.62,44.62,0,0,1,8.84,4.17A118.51,118.51,0,0,1,160,98.06a146.7,146.7,0,0,1,12.92,10.43,145.18,145.18,0,0,1,12.32,11.33A140.27,140.27,0,0,1,195.06,131a45.63,45.63,0,0,1,5.86,9.14q1.69,3.58.5,5.47-1.39,1.59-5.56.5a68.18,68.18,0,0,1-10.43-5q-6.36-3.87-13.61-9.24-7.35-5.66-14.61-12.22-7.45-6.86-12.62-12.62a102.1,102.1,0,0,1-8.35-10.33A25.4,25.4,0,0,1,132.86,89.41ZM148,98.15q-1.09.5-.5,2.19a19.89,19.89,0,0,0,2.28,4.17q1.59,2.29,4.47,5.66,2.88,3,7,6.66,3.48,3.08,7.45,6.26,3.87,2.78,7.05,4.67a22.36,22.36,0,0,0,5.47,2.78,8.68,8.68,0,0,0,3.08-.1,2.73,2.73,0,0,0,0-2.68,30.37,30.37,0,0,0-2.88-4.57,66.62,66.62,0,0,0-5.07-6.06q-3.18-3.28-6.66-6.26-3.87-3.48-7.25-6.06a36.27,36.27,0,0,0-6.36-4.08,15.89,15.89,0,0,0-5.07-2.38Q148.66,97.36,148,98.15Zm-3.88-16.89,3.38-1.69,55.25,46.7,2.88-4.67,9.24,7.55-6.26,7.75Zm17.69,1.29L164,80.27l54.25,44.81L216,127.77Zm-1.69-8.15L163.27,73l35.87,23.85L167,71l2.68-1.19,56.64,45.11-2,2.48L185.82,91.6l35.77,29-2,2.59Zm-5.47,2.09,3.08-1.39,5.07,4.17-2.68,1.59Zm-63.3,27.92L97.19,102l83.37,69.75-4.37,5.67L149.46,156,146,161.75l25.24,27.82L156,187.49Zm16.49-6.56L113,95.37q1.69-1.09,5.67.2A51.85,51.85,0,0,1,126.4,99a51.3,51.3,0,0,1,9.44,6.26A128.7,128.7,0,0,1,146,113.85a90.85,90.85,0,0,1,9.74,9.84,73.88,73.88,0,0,1,6.86,9.54L194,155l-4.07,5.27-23.55-16.69-.8,1.89,20.57,19.28-3.87,5.07Z"/><path class="cls-5" d="M65,106.36v0a7.73,7.73,0,0,1,7.9-7.79,8.27,8.27,0,0,1,5.92,2.07l-2.09,2.52a5.55,5.55,0,0,0-3.94-1.53,4.52,4.52,0,0,0-4.32,4.69v0A4.51,4.51,0,0,0,73,111.09a5.29,5.29,0,0,0,3.12-.9V108H72.81v-2.86h6.54v6.54a9.78,9.78,0,0,1-6.43,2.39A7.54,7.54,0,0,1,65,106.36Z"/><path class="cls-5" d="M81.87,106.36v0a8,8,0,0,1,16,0v0a8,8,0,0,1-16,0Zm12.54,0v0a4.58,4.58,0,0,0-4.56-4.73,4.5,4.5,0,0,0-4.52,4.69v0A4.57,4.57,0,0,0,89.9,111,4.5,4.5,0,0,0,94.42,106.36Z"/><path class="cls-5" d="M100.83,98.78h3.31v12h7.51v3H100.83Z"/><path class="cls-5" d="M114.15,98.78H120c4.73,0,8,3.25,8,7.49v0c0,4.24-3.27,7.53-8,7.53h-5.87Zm3.31,3v9.08H120a4.29,4.29,0,0,0,4.54-4.5v0a4.33,4.33,0,0,0-4.54-4.54Z"/><path class="cls-5" d="M137.43,98.78h3.31v6h6.11v-6h3.31v15.06h-3.31v-6h-6.11v6h-3.31Z"/><path class="cls-5" d="M153.93,98.78h3.31v15.06h-3.31Z"/><path class="cls-5" d="M161,98.78h3.31v12h7.51v3H161Z"/><path class="cls-5" d="M174.33,98.78h3.31v12h7.51v3H174.33Z"/><path class="cls-5" d="M50.82,119.22H62.18v2.95H54.11v3.06h7.1v2.95h-7.1v3.16h8.18v2.95H50.82Z"/><path class="cls-5" d="M65.24,119.22h3.31v12h7.51v3H65.24Z"/><path class="cls-5" d="M78.56,119.22H89.92v2.95H81.85v3.06h7.1v2.95h-7.1v3.16H90v2.95H78.56Z"/><path class="cls-5" d="M93,119.22h3.57l4,6.37,4-6.37H108v15.06h-3.29v-9.83l-4.24,6.43h-.09l-4.2-6.37v9.77H93Z"/><path class="cls-5" d="M111.65,119.22H123v2.95h-8.07v3.06H122v2.95h-7.1v3.16h8.18v2.95H111.65Z"/><path class="cls-5" d="M126.07,119.22h3.05l7.06,9.27v-9.27h3.27v15.06h-2.82l-7.29-9.57v9.57h-3.27Z"/><path class="cls-5" d="M146.57,122.28H142v-3.06h12.48v3.06h-4.58v12h-3.31Z"/><path class="cls-5" d="M160.23,119.12h3.06l6.45,15.17h-3.46l-1.38-3.38h-6.37l-1.38,3.38h-3.38Zm3.49,8.86-2-4.88-2,4.88Z"/><path class="cls-5" d="M172.07,119.22H179a6,6,0,0,1,4.39,1.53,4.73,4.73,0,0,1,1.29,3.44v0a4.68,4.68,0,0,1-3.23,4.67l3.68,5.38h-3.87L178,129.46h-2.6v4.82h-3.31Zm6.67,7.32c1.61,0,2.54-.86,2.54-2.13v0c0-1.42-1-2.15-2.6-2.15h-3.29v4.32Z"/><path class="cls-5" d="M191.33,128.35l-5.79-9.12h3.87l3.59,6,3.66-6h3.76l-5.79,9.06v6h-3.31Z"/><path class="cls-5" d="M81.74,141.84h8.05V144H84.06v2.25h5v2.12h-5v4.09H81.74Z"/><path class="cls-5" d="M90.79,148.41v0a4.38,4.38,0,0,1,8.76,0v0a4.25,4.25,0,0,1-4.4,4.21A4.21,4.21,0,0,1,90.79,148.41Zm6.5,0v0a2.15,2.15,0,0,0-2.13-2.24,2.07,2.07,0,0,0-2.1,2.21v0a2.15,2.15,0,0,0,2.13,2.24A2.07,2.07,0,0,0,97.28,148.41Z"/><path class="cls-5" d="M101.21,144.32h2.3v1.63a2.5,2.5,0,0,1,2.58-1.78v2.4H106c-1.53,0-2.46.92-2.46,2.85v3h-2.3Z"/><path class="cls-5" d="M107.9,150.12v-3.84h-1v-2h1v-2.07h2.3v2.07h1.9v2h-1.9v3.46c0,.53.23.79.74.79a2.34,2.34,0,0,0,1.13-.29v1.84a3.38,3.38,0,0,1-1.81.47C108.85,152.55,107.9,152,107.9,150.12Z"/><path class="cls-5" d="M118.56,141.84h2.51l2.78,4.47,2.78-4.47h2.51v10.57h-2.31v-6.9l-3,4.52h-.06l-2.95-4.47v6.86h-2.28Z"/><path class="cls-5" d="M131.48,141.38h2.42v2h-2.42Zm.06,2.93h2.3v8.1h-2.3Z"/><path class="cls-5" d="M136.1,141.38h2.3v11h-2.3Z"/><path class="cls-5" d="M140.66,141.38H143v11h-2.3Z"/><path class="cls-5" d="M144.49,153.91c1-.11,1.56-.63,1.48-1.5H145V150h2.45v2c0,2-1,2.79-2.79,2.83Z"/><path class="cls-5" d="M153.49,150.87l1.38-1.65a4.85,4.85,0,0,0,3.16,1.28c1,0,1.53-.38,1.53-1v0c0-.59-.36-.89-2.13-1.34-2.13-.54-3.5-1.13-3.5-3.23v0c0-1.92,1.54-3.19,3.7-3.19a6.12,6.12,0,0,1,3.93,1.34l-1.21,1.75a5,5,0,0,0-2.75-1c-.89,0-1.36.41-1.36.92v0c0,.7.45.92,2.28,1.39,2.14.56,3.35,1.33,3.35,3.17v0c0,2.1-1.6,3.28-3.88,3.28A6.73,6.73,0,0,1,153.49,150.87Z"/><path class="cls-5" d="M163.41,147.16v0a5.37,5.37,0,0,1,5.51-5.47,5.45,5.45,0,0,1,4.17,1.63L171.62,145a3.9,3.9,0,0,0-2.7-1.19,3.13,3.13,0,0,0-3.07,3.29v0a3.14,3.14,0,0,0,3.07,3.32,3.82,3.82,0,0,0,2.78-1.24l1.48,1.5a5.41,5.41,0,0,1-4.34,1.89A5.34,5.34,0,0,1,163.41,147.16Z"/></g></g></svg>