<svg xmlns="http://www.w3.org/2000/svg" viewBox="0 0 250 250"><defs><style>.cls-1{isolation:isolate;}.cls-2{fill:#d25627;}.cls-3{fill:#e57e25;}.cls-3,.cls-4{fill-rule:evenodd;}.cls-4{fill:#231f20;opacity:0.15;mix-blend-mode:multiply;}.cls-5{fill:#fff;}</style></defs><title>Artboard 2</title><g class="cls-1"><g id="Layer_1" data-name="Layer 1"><rect class="cls-2" width="249.99" height="250"/><path class="cls-3" d="M106.44,228.24l-11-8.92s7.48-44.78-30.69-72S38,95.13,41.92,85.92,52.82,63,52.82,63l1.65-30.92L94,16.42s9.65,3,2.28,6.84-1.49,9.39,9.83,10.79,10.62,1.23,10.62,1.23l2-1.9S156,45.56,174,58.94s36.85,38.83,36.85,41.46-10.75,15.14-6.36,21.28,11.41,6.8,14.92,3.51a48,48,0,0,0,6.36-7.68s-3.22,13.89-7,21.21-14.33,33.34-11.11,50,8.77,25.21,8,29.86-1.32,12.28-1.32,12.28l-107.9-2.63h0"/><path class="cls-4" d="M104.49,199.73q-.53-2.63-1.32-5.26,53-3,98.36-3.86.61,3.33,1,6.67Q157.83,197.62,104.49,199.73Zm1.67,9a49.71,49.71,0,0,0-.79-5.26q53.44-1.49,97.49-1.67.53,3.34,1.14,6.67-29.39,4-51,8,22.38-.17,52.91-.09.7,2.54,1.14,5-43.87.35-99.94.17a41.44,41.44,0,0,0-.18-5.44q34.84-3.51,56.42-8.07Q140.55,208.5,106.15,208.76Zm7.72-19.13q-8.77-.61-12.2-2.37a21.65,21.65,0,0,0-2.11-1.4,3.52,3.52,0,0,0-1.23-1.67,5.55,5.55,0,0,1,.09-2.19,4.67,4.67,0,0,1,2.19-2.28q3.25-2.19,11.49-4,9.13-1.84,19.66-3,1,2.81,1.93,5.7a36.54,36.54,0,0,0-7.46,1.14,16.17,16.17,0,0,0-3.6,1.05,5.57,5.57,0,0,0-1.84,1.4,5.1,5.1,0,0,0,1.93,1.32q1.23.18,2.81.53,1.32.18,3,.26a22.17,22.17,0,0,1,2.81,0q2.28-.09,4.21-.26,1.32-.26,2.63-.44l2.54-.61q1-.44,1.93-1a32.8,32.8,0,0,0,3.68-4.12,11,11,0,0,1,2.37-2.19,12,12,0,0,1,4.74-2.9,53,53,0,0,1,8.86-2.19,95,95,0,0,1,12-1.05,93.24,93.24,0,0,1,12.2.09,28.07,28.07,0,0,1,8.07,1.32,10.45,10.45,0,0,1,4.65,2.19,4.22,4.22,0,0,1,1.67,2.81,5.17,5.17,0,0,1-.17,3.25,6.94,6.94,0,0,1-2.46,3,15.87,15.87,0,0,1-5.09,2.37,45.48,45.48,0,0,1-8.51,1.67q-4.83.53-10.7.79-.44-3.33-1.14-6.58a13.33,13.33,0,0,0,4.74-.7,18.52,18.52,0,0,0,1.75-1.14c.18-.18.23-.29.18-.35a2.81,2.81,0,0,1-.09-.7,2.72,2.72,0,0,0-1.14-.7,17.23,17.23,0,0,0-2.81-.53,26,26,0,0,0-5.18.18,12.57,12.57,0,0,0-4,1q-.88.61-2,1.32-2.11,2.28-4.21,4.3a38.94,38.94,0,0,1-8,4.56q-5.09,1.75-16.85,2.37A181.62,181.62,0,0,1,113.87,189.64Zm-25.18-26.5a25.48,25.48,0,0,0-2.9-3.95Q143,146.2,214,136.11l-3.68,10.35q-46.68,8-71,16.5,26.15-4.39,67.92-8.51l-2,9.3q-55.72,2.72-109.86,10.62a53,53,0,0,0-2.72-5.09q32.29-8.25,58.7-17.64Q123.7,156.91,88.69,163.14Zm51.51-22.46q4.91-1.49,10.53-3,5.79-1.49,10.18-3a38.47,38.47,0,0,0,7.55-3.07q2.46-1.58,2.46-2.72t-3-1.67a49.37,49.37,0,0,0-8.25-.26A87.81,87.81,0,0,0,148.27,128a75.13,75.13,0,0,0-11.93,2.54q-5.26,1.75-11.85,3.77Q118.35,136.29,114,138a56.1,56.1,0,0,0-6.93,3.07q-2.28,1.32-1.67,2.19t3.95,1.05a73.76,73.76,0,0,0,8.6-.17q5.18-.35,11.14-1.23A106.21,106.21,0,0,0,140.2,140.67Zm-62.74,9.74q-1.84-1.23,1.23-3.69,2.81-2.54,10.53-6.05,8.69-3.51,21-7.28,12.46-3.95,24-7.37a123.77,123.77,0,0,1,24.66-4.74,231.29,231.29,0,0,1,23.25-1.58q9.13-.09,13.34,1t3.77,3.42q0,2.28-4.47,5.44a53.37,53.37,0,0,1-12.11,5.79q-8.34,2.81-20.18,5.53-11.67,2.46-20.53,4.65a192.12,192.12,0,0,1-21.59,3.86q-12.37,1.32-21.94,1.93-9,.61-14.13.44Q78.86,151.64,77.46,150.41ZM42.62,104.17l-.18-7.11q63.44-25.89,126.44-35.63,2.9,2.63,5.88,5.53Q109.57,77.67,42.62,104.17Zm110.21,2.28a115.65,115.65,0,0,0-13.25,1.14,73.13,73.13,0,0,0-12.9,3.07q-6.23,2-12.46,4.39a97.37,97.37,0,0,0-11.49,4.83,32.84,32.84,0,0,0-7.37,4.39q-1.93,1.75-1.32,3,.7,1.05,3.95,1.58,3.77.17,14-2.54l1.23,2.72q-37.14,9.91-42.73,9.65-5.35-.35-6.84-2.37t1.84-5.62q2.81-3.51,12-8.42A157.06,157.06,0,0,1,99.31,113q12.28-4.56,24.3-8.42a120.55,120.55,0,0,1,25.71-5.35,181.54,181.54,0,0,1,25.45-1.67q11.58-.09,16.93,1.49,5.62,1.32,6.05,4,.88,2.46-2.81,5.79-3.69,3.16-37.82,10.44L155.55,116q6.93-2.11,9.21-3.77,2.63-1.84,1.75-3.07-.7-1.32-3.86-2.11A62.51,62.51,0,0,0,152.83,106.45ZM91.59,91.1q1.32,3.25,2.63,6.58a63.12,63.12,0,0,0-8.16,3,19.56,19.56,0,0,0-3.86,2.19,5.2,5.2,0,0,0-1.93,2.28,3.65,3.65,0,0,0,2.19,1.05h3.16q1.84-.26,3.42-.44a14.34,14.34,0,0,1,3.16-.7q2.63-.79,4.91-1.4a12.16,12.16,0,0,1,3.07-1.14q1.67-.79,3.07-1.4a16.64,16.64,0,0,0,2.19-1.67,52.74,52.74,0,0,0,4.39-5.88,41.92,41.92,0,0,0,3.25-3.42,33.51,33.51,0,0,1,7.2-5.09,63.7,63.7,0,0,1,11.49-4.39,124.54,124.54,0,0,1,14.74-3.33,151.08,151.08,0,0,1,15.36-1.93A98.11,98.11,0,0,1,173.63,75a39.56,39.56,0,0,1,8.16.7,9.69,9.69,0,0,1,4.56,1.84,3.26,3.26,0,0,1,1.05,3.16q-.09,1.58-2.9,3.6A28.06,28.06,0,0,1,177.75,88a77.18,77.18,0,0,1-11.14,3.51q-6.49,1.67-14,3.16-1.67-3.07-3.6-6.23a20.33,20.33,0,0,0,5.88-1.75,13.78,13.78,0,0,1,1.93-1.4.44.44,0,0,0,.09-.44c-.17-.23-.32-.44-.44-.61a16.68,16.68,0,0,0-1.75-.53h-3.86A29.93,29.93,0,0,0,144.15,85a12.65,12.65,0,0,0-4.83,1.84,91.38,91.38,0,0,0-6.93,7.37A73.76,73.76,0,0,1,120,102.42a136.31,136.31,0,0,1-22.38,8.16q-13.69,3.77-29.88,7.9t-23.73-1q2.79-6.78,4.91-8.47a43.37,43.37,0,0,1,6.93-4.12q4.83-2.44,14.52-6.36T91.59,91.1Zm52.73-45.45q3.69,1.49,7.37,3.42a319,319,0,0,0-55.1,14.48A603.89,603.89,0,0,1,161,54.86,73.51,73.51,0,0,1,167.92,60Q101.06,66,47.45,85.3L50.61,76Q75.35,64.25,97.82,55.65q-24.31,5.53-44,12l2.11-7.37Q92,37.83,125.37,40.47A66.28,66.28,0,0,1,133.88,42a151.5,151.5,0,0,0-43.35,9A416.26,416.26,0,0,1,144.32,45.64Z"/><path class="cls-5" d="M55.88,85.28h6.88a6,6,0,0,1,4.39,1.53,4.73,4.73,0,0,1,1.29,3.44v0A4.68,4.68,0,0,1,65.22,95l3.68,5.38H65L61.8,95.52h-2.6v4.82H55.88Zm6.67,7.31c1.61,0,2.54-.86,2.54-2.13v0c0-1.42-1-2.15-2.6-2.15H59.19V92.6Z"/><path class="cls-5" d="M70.77,92.86v0a8,8,0,0,1,16,0v0a8,8,0,0,1-16,0Zm12.54,0v0a4.58,4.58,0,0,0-4.56-4.73,4.5,4.5,0,0,0-4.52,4.69v0a4.57,4.57,0,0,0,4.56,4.73A4.5,4.5,0,0,0,83.31,92.86Z"/><path class="cls-5" d="M89.06,92.86v0A7.65,7.65,0,0,1,96.91,85a7.77,7.77,0,0,1,5.94,2.32l-2.11,2.43a5.56,5.56,0,0,0-3.85-1.7,4.46,4.46,0,0,0-4.37,4.69v0a4.47,4.47,0,0,0,4.37,4.73,5.44,5.44,0,0,0,4-1.76L103,97.91a7.7,7.7,0,0,1-6.17,2.69A7.6,7.6,0,0,1,89.06,92.86Z"/><path class="cls-5" d="M105.61,85.28h3.31v6.58L115,85.28h4l-6.13,6.39,6.41,8.67h-4l-4.67-6.41-1.74,1.81v4.6h-3.31Z"/><path class="cls-5" d="M127.77,85.28h6.88A6,6,0,0,1,139,86.81a4.73,4.73,0,0,1,1.29,3.44v0A4.68,4.68,0,0,1,137.11,95l3.68,5.38h-3.87l-3.23-4.82h-2.6v4.82h-3.31Zm6.67,7.31c1.61,0,2.54-.86,2.54-2.13v0c0-1.42-1-2.15-2.6-2.15h-3.29V92.6Z"/><path class="cls-5" d="M143.48,85.28h3.31v15.06h-3.31Z"/><path class="cls-5" d="M149.26,85.28h3.66l3.94,10.61,3.94-10.61h3.57l-6.09,15.17h-2.93Z"/><path class="cls-5" d="M166.69,85.28h11.36v2.95H170v3.06h7.1v2.95H170V97.4h8.18v2.95H166.69Z"/><path class="cls-5" d="M181.11,85.28H188a6,6,0,0,1,4.39,1.53,4.73,4.73,0,0,1,1.29,3.44v0A4.68,4.68,0,0,1,190.45,95l3.68,5.38h-3.87L187,95.52h-2.6v4.82h-3.31Zm6.67,7.31c1.61,0,2.54-.86,2.54-2.13v0c0-1.42-1-2.15-2.6-2.15h-3.29V92.6Z"/><path class="cls-5" d="M42.07,105.72h3.31v15.06H42.07Z"/><path class="cls-5" d="M49.15,105.72H52.2L59.26,115v-9.27h3.27v15.06H59.71l-7.29-9.57v9.57H49.15Z"/><path class="cls-5" d="M69.65,108.78H65.07v-3.06H77.55v3.06H73v12H69.65Z"/><path class="cls-5" d="M80.09,105.72H91.45v2.95H83.38v3.06h7.1v2.95h-7.1v3.16h8.18v2.95H80.09Z"/><path class="cls-5" d="M94.5,105.72h6.88a6,6,0,0,1,4.39,1.53,4.73,4.73,0,0,1,1.29,3.44v0a4.68,4.68,0,0,1-3.23,4.67l3.68,5.38h-3.87L100.42,116h-2.6v4.82H94.5Zm6.67,7.32c1.61,0,2.54-.86,2.54-2.13v0c0-1.42-1-2.15-2.6-2.15H97.82V113Z"/><path class="cls-5" d="M110.06,105.72h3.57l4,6.37,4-6.37h3.57v15.06h-3.29V111l-4.24,6.43h-.09l-4.2-6.37v9.77h-3.25Z"/><path class="cls-5" d="M128.74,105.72H140.1v2.95H132v3.06h7.1v2.95H132v3.16h8.18v2.95H128.74Z"/><path class="cls-5" d="M143.15,105.72H149c4.73,0,8,3.25,8,7.49v0c0,4.24-3.27,7.53-8,7.53h-5.87Zm3.31,3v9.08H149a4.29,4.29,0,0,0,4.54-4.5v0a4.33,4.33,0,0,0-4.54-4.54Z"/><path class="cls-5" d="M160.13,105.72h3.31v15.06h-3.31Z"/><path class="cls-5" d="M172.37,105.62h3.06l6.45,15.17h-3.46L177,117.41h-6.37l-1.38,3.38h-3.38Zm3.49,8.86-2-4.88-2,4.88Z"/><path class="cls-5" d="M185.78,108.78h-4.58v-3.06h12.48v3.06h-4.58v12h-3.31Z"/><path class="cls-5" d="M196.21,105.72h11.36v2.95H199.5v3.06h7.1v2.95h-7.1v3.16h8.18v2.95H196.21Z"/><path class="cls-5" d="M77.29,139l2-2.35a6.91,6.91,0,0,0,4.5,1.83c1.35,0,2.17-.54,2.17-1.42v0c0-.84-.52-1.27-3-1.92-3-.77-5-1.61-5-4.6v0c0-2.73,2.19-4.54,5.27-4.54a8.72,8.72,0,0,1,5.59,1.92L87,130.36a7.07,7.07,0,0,0-3.92-1.48c-1.27,0-1.94.58-1.94,1.31v0c0,1,.65,1.31,3.25,2,3.06.8,4.78,1.89,4.78,4.52v0c0,3-2.28,4.67-5.53,4.67A9.59,9.59,0,0,1,77.29,139Z"/><path class="cls-5" d="M91.43,133.74v0a7.65,7.65,0,0,1,7.85-7.79,7.77,7.77,0,0,1,5.94,2.32l-2.11,2.43a5.56,5.56,0,0,0-3.85-1.7,4.46,4.46,0,0,0-4.37,4.69v0a4.47,4.47,0,0,0,4.37,4.73,5.43,5.43,0,0,0,4-1.76l2.11,2.13a7.7,7.7,0,0,1-6.17,2.69A7.6,7.6,0,0,1,91.43,133.74Z"/><path class="cls-5" d="M108,126.17h3.31v6h6.11v-6h3.31v15.06H117.4v-6h-6.11v6H108Z"/><path class="cls-5" d="M123.66,133.74v0a8,8,0,0,1,16,0v0a8,8,0,0,1-16,0Zm12.54,0v0a4.58,4.58,0,0,0-4.56-4.73,4.5,4.5,0,0,0-4.52,4.69v0a4.57,4.57,0,0,0,4.56,4.73A4.5,4.5,0,0,0,136.2,133.74Z"/><path class="cls-5" d="M141.95,133.74v0a8,8,0,0,1,16,0v0a8,8,0,0,1-16,0Zm12.54,0v0a4.58,4.58,0,0,0-4.56-4.73,4.5,4.5,0,0,0-4.52,4.69v0a4.57,4.57,0,0,0,4.56,4.73A4.5,4.5,0,0,0,154.49,133.74Z"/><path class="cls-5" d="M160.9,126.17h3.31v12h7.51v3H160.9Z"/><path class="cls-5" d="M77.85,148.78h2.49l2.19,7.16,2.37-7.19h2l2.37,7.19,2.19-7.16h2.43l-3.61,10.65h-2l-2.39-6.92-2.39,6.92h-2Z"/><path class="cls-5" d="M93.83,157v0c0-1.77,1.34-2.58,3.26-2.58a5.76,5.76,0,0,1,2,.33v-.14c0-1-.59-1.48-1.74-1.48a6,6,0,0,0-2.24.44l-.57-1.75a7.15,7.15,0,0,1,3.14-.65,3.74,3.74,0,0,1,2.73.91,3.53,3.53,0,0,1,.88,2.58v4.7H99.06v-.88a3.11,3.11,0,0,1-2.45,1A2.5,2.5,0,0,1,93.83,157Zm5.27-.53v-.41a3.55,3.55,0,0,0-1.46-.3c-1,0-1.59.39-1.59,1.12v0c0,.62.51,1,1.25,1C98.38,157.92,99.1,157.33,99.1,156.5Z"/><path class="cls-5" d="M103.2,156.5v-5.24h2.3v4.52c0,1.09.51,1.65,1.39,1.65s1.44-.56,1.44-1.65v-4.52h2.3v8.1h-2.3v-1.15a2.87,2.87,0,0,1-2.37,1.3C104.21,159.5,103.2,158.36,103.2,156.5Z"/><path class="cls-5" d="M112.67,151.26H115v1.16a3,3,0,0,1,2.52-1.31c1.89,0,3.69,1.48,3.69,4.18v0c0,2.7-1.77,4.18-3.69,4.18A3.11,3.11,0,0,1,115,158.3v3.47h-2.3Zm6.21,4.06v0a2,2,0,1,0-3.94,0v0a2,2,0,1,0,3.94,0Z"/><path class="cls-5" d="M122.8,156.5v-5.24h2.3v4.52c0,1.09.51,1.65,1.39,1.65s1.44-.56,1.44-1.65v-4.52h2.3v8.1h-2.3v-1.15a2.87,2.87,0,0,1-2.37,1.3C123.82,159.5,122.8,158.36,122.8,156.5Z"/><path class="cls-5" d="M132.28,151.26h2.3v1.15a2.87,2.87,0,0,1,2.37-1.3c1.74,0,2.75,1.15,2.75,3v5.24h-2.3v-4.52c0-1.09-.51-1.65-1.39-1.65s-1.44.56-1.44,1.65v4.52h-2.3Z"/><path class="cls-5" d="M141.05,160.85c1-.11,1.56-.63,1.48-1.5h-.94v-2.42H144v2c0,2-1,2.79-2.79,2.83Z"/><path class="cls-5" d="M150,148.78h2.49l2.19,7.16,2.37-7.19h2l2.37,7.19,2.19-7.16H166l-3.61,10.65h-2L158,152.51l-2.39,6.92h-2Z"/><path class="cls-5" d="M167.83,148.78h2.33v10.57h-2.33Z"/></g></g></svg>