<svg xmlns="http://www.w3.org/2000/svg" viewBox="0 0 250 250"><defs><style>.cls-1{isolation:isolate;}.cls-2{fill:#c03b2b;}.cls-2,.cls-3,.cls-4{fill-rule:evenodd;}.cls-3{fill:#e64c3c;}.cls-4{fill:#231f20;opacity:0.15;mix-blend-mode:multiply;}.cls-5{fill:#fff;}</style></defs><title>Artboard 17</title><g class="cls-1"><g id="Layer_1" data-name="Layer 1"><polyline class="cls-2" points="0 0 249.99 0 249.99 250 0 250"/><polygon class="cls-3" points="54.07 48.99 214.74 59.48 233.12 90.74 235.97 167.68 12.02 156.28 25.35 47.1 54.07 48.99"/><path class="cls-4" d="M76.88,116.56,74.57,92.38l-4.23,24Zm63.36-58.74q.13-.32.51,0a5.65,5.65,0,0,1,3.4,1,10.45,10.45,0,0,1,3.59,3.46,30.79,30.79,0,0,1,3.21,5.77,38,38,0,0,1,2.44,7.44,73.2,73.2,0,0,1,1.41,8.91L146,84a7.92,7.92,0,0,0-1.09-4.17l-1.28-1.48a.47.47,0,0,0-.58-.19l-.9-.13-1,.83L140.56,81a10.66,10.66,0,0,0,.26,4.3A7.52,7.52,0,0,0,142,88.73l7.7,7.31q3.78,4,6.54,11.93a81.63,81.63,0,0,1,3.66,17.83,78.08,78.08,0,0,1-.32,18.85q-1.54,8.27-4.81,12.89-1.47,1.47-2.89,2.82l-3.08.64a9.61,9.61,0,0,1-4.1-1.8,16.57,16.57,0,0,1-4-4.81,49.32,49.32,0,0,1-5.58-14,83.61,83.61,0,0,1-2.69-17.51l9.36.64a21.6,21.6,0,0,0,1,6.48,10.63,10.63,0,0,0,1.67,3.14,5.21,5.21,0,0,0,2.18,2.31,2.81,2.81,0,0,0,2.37-1l1-2.44.71-4.68-.32-3.78-.45-2.31-1-2.63-1.35-2-6-5.45a31,31,0,0,1-3.21-3.65A46.28,46.28,0,0,1,135,99.82a46.86,46.86,0,0,1-2.44-9.43,70.1,70.1,0,0,1-1-9.88,41.37,41.37,0,0,1,.64-9.43,23.89,23.89,0,0,1,1.92-7,12.61,12.61,0,0,1,2.76-4.62A5,5,0,0,1,140.24,57.82Zm-45-.83,9.17.71,13.72,54.57L116.45,58l8.4.51,4.62,98.88-10.65-.51L104.2,95l.64,61.24-9.75-.71ZM27.7,52.69l12.5.51L33.4,81.48,48,53.84l16.8.71L37.19,99.18,53.6,151.25,71.82,55.38l8,.45L91,155.42l-10.39-.51-2.24-31.1-9.49-1.09-5.07,31L40.2,152.6,29.75,117.52l-3.27,34.24-9.88-.51Zm148.9,69.64,6.48.19L177,98.35ZM168.45,61l8.08.71L203.15,162l-10.45-.64-8-31.74-8.14.06-.64,30.65-10.45-.64Zm40.85,5A31.65,31.65,0,0,1,213,71.54a51.31,51.31,0,0,1,3.14,7.63,73.28,73.28,0,0,1,2.31,8.91l-8.72-.64a9.76,9.76,0,0,0-1.47-3.78l-1.6-1.54a.89.89,0,0,0-.58-.32h-.83l-.83.64-.51,2.18a12.05,12.05,0,0,0,.58,4.3,10.77,10.77,0,0,0,1.67,3.66l8.34,7.12q4.1,4,7.63,11.86a84.28,84.28,0,0,1,5.51,18.21A77,77,0,0,1,229,148.43q-.51,8.78-3.46,13.27a21.9,21.9,0,0,1-2.57,2.44l-2.89,1a15,15,0,0,1-4.36-2,15.89,15.89,0,0,1-4.49-4.81,54.84,54.84,0,0,1-6.93-13.92,103.2,103.2,0,0,1-4.36-17.63l9.3.45a29.33,29.33,0,0,0,1.79,6.48,15.29,15.29,0,0,0,1.8,3.46q1.28,2,2.57,2.18a2.32,2.32,0,0,0,2.12-1.22l.9-2.12.13-4.94-.64-3.53L216,122.52l-1.67-2.37L208,115a25.59,25.59,0,0,1-3.53-3.78,40.63,40.63,0,0,1-4.23-7.76,53.77,53.77,0,0,1-3.4-9.23,87.1,87.1,0,0,1-1.8-10.13,40.74,40.74,0,0,1-.38-9.55,30.9,30.9,0,0,1,1.15-6.8,10.13,10.13,0,0,1,2.31-4.62,4.67,4.67,0,0,1,3.21-1.86q.19-.32.51,0a6,6,0,0,1,3.53,1A12.6,12.6,0,0,1,209.3,66Z"/><path class="cls-5" d="M75.67,88.16h7A5.44,5.44,0,0,1,86.6,89.5a3.45,3.45,0,0,1,1,2.56v0a3.5,3.5,0,0,1-2,3.25C87.39,96,88.47,97,88.47,99v0c0,2.75-2.24,4.13-5.64,4.13H75.67Zm8.67,4.45c0-1-.78-1.55-2.17-1.55H78.89v3.18h3.05c1.46,0,2.39-.47,2.39-1.59ZM82.72,97H78.89v3.31h3.94c1.46,0,2.34-.52,2.34-1.64v0C85.18,97.63,84.42,97,82.72,97Z"/><path class="cls-5" d="M91.2,88.16h11.36v2.95H94.49v3.06h7.1v2.95h-7.1v3.16h8.18v2.95H91.2Z"/><path class="cls-5" d="M105.62,88.16h3.06l7.06,9.27V88.16H119v15.06h-2.82l-7.29-9.57v9.57h-3.27Z"/><path class="cls-5" d="M126.12,91.22h-4.58V88.16H134v3.06h-4.58v12h-3.31Z"/><path class="cls-5" d="M136.56,88.16h3.31v12h7.51v3H136.56Z"/><path class="cls-5" d="M149.88,88.16h11.36v2.95h-8.07v3.06h7.1v2.95h-7.1v3.16h8.18v2.95H149.88Z"/><path class="cls-5" d="M168.53,97.29l-5.79-9.12h3.87l3.59,6,3.66-6h3.76l-5.79,9.06v6h-3.31Z"/><path class="cls-5" d="M76.05,108.6h6.15c3.59,0,5.77,2.13,5.77,5.21v0c0,3.49-2.71,5.29-6.09,5.29H79.37v4.52H76.05ZM82,116.2a2.33,2.33,0,0,0,2.63-2.28v0c0-1.48-1-2.28-2.69-2.28H79.37v4.6Z"/><path class="cls-5" d="M90.43,108.6h6.88a6,6,0,0,1,4.39,1.53,4.73,4.73,0,0,1,1.29,3.44v0a4.68,4.68,0,0,1-3.23,4.67l3.68,5.38H99.57l-3.23-4.82h-2.6v4.82H90.43Zm6.67,7.32c1.61,0,2.54-.86,2.54-2.13v0c0-1.42-1-2.15-2.6-2.15H93.74v4.32Z"/><path class="cls-5" d="M106.13,108.6h3.31v15.06h-3.31Z"/><path class="cls-5" d="M113.21,108.6h3.57l4,6.37,4-6.37h3.57v15.06H125v-9.83l-4.24,6.43h-.09l-4.19-6.37v9.77h-3.25Z"/><path class="cls-5" d="M137.05,108.5h3.06l6.45,15.17H143.1l-1.38-3.38h-6.37L134,123.66H130.6Zm3.49,8.86-2-4.88-2,4.88Z"/><path class="cls-5" d="M148.89,108.6h6.88a6,6,0,0,1,4.39,1.53,4.73,4.73,0,0,1,1.29,3.44v0a4.68,4.68,0,0,1-3.23,4.67l3.68,5.38H158l-3.23-4.82h-2.6v4.82h-3.31Zm6.67,7.32c1.61,0,2.54-.86,2.54-2.13v0c0-1.42-1-2.15-2.6-2.15H152.2v4.32Z"/><path class="cls-5" d="M168.15,117.73l-5.79-9.12h3.87l3.59,6,3.66-6h3.76l-5.79,9.06v6h-3.31Z"/><path class="cls-5" d="M78.7,141.91l2-2.35a6.91,6.91,0,0,0,4.5,1.83c1.36,0,2.17-.54,2.17-1.42v0c0-.84-.52-1.27-3-1.92-3-.77-5-1.61-5-4.6v0c0-2.73,2.2-4.54,5.27-4.54a8.71,8.71,0,0,1,5.59,1.92l-1.72,2.5a7.07,7.07,0,0,0-3.92-1.48c-1.27,0-1.94.58-1.94,1.31v0c0,1,.64,1.31,3.25,2,3.05.8,4.78,1.89,4.78,4.52v0c0,3-2.28,4.67-5.53,4.67A9.58,9.58,0,0,1,78.7,141.91Z"/><path class="cls-5" d="M92.84,136.62v0a7.65,7.65,0,0,1,7.85-7.79,7.77,7.77,0,0,1,5.94,2.32l-2.11,2.43a5.56,5.56,0,0,0-3.85-1.7,4.46,4.46,0,0,0-4.37,4.69v0a4.47,4.47,0,0,0,4.37,4.73,5.43,5.43,0,0,0,4-1.76l2.11,2.13a7.7,7.7,0,0,1-6.18,2.69A7.6,7.6,0,0,1,92.84,136.62Z"/><path class="cls-5" d="M109.38,129h3.31v6h6.11v-6h3.31v15.06h-3.31v-6H112.7v6h-3.31Z"/><path class="cls-5" d="M125.07,136.62v0a8,8,0,0,1,16,0v0a8,8,0,0,1-16,0Zm12.54,0v0a4.58,4.58,0,0,0-4.56-4.73,4.5,4.5,0,0,0-4.52,4.69v0a4.57,4.57,0,0,0,4.56,4.73A4.5,4.5,0,0,0,137.61,136.62Z"/><path class="cls-5" d="M143.36,136.62v0a8,8,0,0,1,16,0v0a8,8,0,0,1-16,0Zm12.54,0v0a4.58,4.58,0,0,0-4.56-4.73,4.5,4.5,0,0,0-4.52,4.69v0a4.57,4.57,0,0,0,4.56,4.73A4.5,4.5,0,0,0,155.9,136.62Z"/><path class="cls-5" d="M162.31,129h3.31v12h7.51v3H162.31Z"/><path class="cls-5" d="M86.18,151.66h4.91a3.82,3.82,0,0,1,2.77.94,2.43,2.43,0,0,1,.72,1.8v0a2.46,2.46,0,0,1-1.39,2.28,2.59,2.59,0,0,1,2,2.6v0c0,1.93-1.57,2.9-4,2.9h-5Zm6.09,3.13c0-.7-.54-1.09-1.53-1.09h-2.3v2.24h2.14c1,0,1.68-.33,1.68-1.12Zm-1.13,3.08H88.44v2.33h2.76c1,0,1.65-.36,1.65-1.15v0C92.85,158.3,92.33,157.87,91.13,157.87Z"/><path class="cls-5" d="M96.45,158.23v0a4,4,0,0,1,4-4.21c2.7,0,3.94,2.1,3.94,4.4,0,.18,0,.39,0,.6H98.73a1.88,1.88,0,0,0,2,1.59,2.65,2.65,0,0,0,2-.83L104,160.9a4.28,4.28,0,0,1-7.54-2.67Zm5.71-.68a1.74,1.74,0,0,0-1.71-1.72,1.81,1.81,0,0,0-1.75,1.72Z"/><path class="cls-5" d="M106.1,154.14h2.3v1.15a2.86,2.86,0,0,1,2.37-1.3c1.74,0,2.75,1.15,2.75,3v5.24h-2.3v-4.52c0-1.09-.51-1.65-1.39-1.65s-1.43.56-1.43,1.65v4.52h-2.3Z"/><path class="cls-5" d="M115.89,159.94V156.1h-1v-2h1v-2.07h2.3v2.07h1.9v2h-1.9v3.46c0,.53.23.79.74.79a2.33,2.33,0,0,0,1.13-.29v1.84a3.38,3.38,0,0,1-1.81.47C116.84,162.37,115.89,161.81,115.89,159.94Z"/><path class="cls-5" d="M121.89,151.21h2.3v11h-2.3Z"/><path class="cls-5" d="M126,158.23v0a4,4,0,0,1,4-4.21c2.7,0,3.94,2.1,3.94,4.4,0,.18,0,.39,0,.6h-5.63a1.88,1.88,0,0,0,2,1.59,2.65,2.65,0,0,0,2-.83l1.31,1.16a4.28,4.28,0,0,1-7.54-2.67Zm5.71-.68a1.74,1.74,0,0,0-1.71-1.72,1.8,1.8,0,0,0-1.75,1.72Z"/><path class="cls-5" d="M140.54,154.14h2.39l-3.11,8.29c-.62,1.65-1.28,2.27-2.66,2.27a3.8,3.8,0,0,1-2-.56l.77-1.66a2.1,2.1,0,0,0,1,.32.77.77,0,0,0,.8-.53l-3.17-8.13h2.43l1.84,5.51Z"/><path class="cls-5" d="M142.37,163.73c1-.11,1.56-.63,1.48-1.5h-.94v-2.42h2.45v2c0,2-1,2.79-2.79,2.83Z"/><path class="cls-5" d="M152.1,151.66h2.33v4.62l4.29-4.62h2.81l-4.31,4.49,4.5,6.09h-2.79l-3.28-4.5L154.42,159v3.23H152.1Z"/><path class="cls-5" d="M162.25,160.69l1.38-1.65a4.85,4.85,0,0,0,3.16,1.28c1,0,1.53-.38,1.53-1v0c0-.59-.36-.89-2.13-1.34-2.13-.54-3.5-1.13-3.5-3.23v0c0-1.92,1.54-3.19,3.7-3.19a6.12,6.12,0,0,1,3.93,1.34l-1.21,1.75a5,5,0,0,0-2.75-1c-.89,0-1.36.41-1.36.92v0c0,.7.45.92,2.28,1.39,2.15.56,3.35,1.33,3.35,3.17v0c0,2.1-1.6,3.28-3.88,3.28A6.73,6.73,0,0,1,162.25,160.69Z"/></g></g></svg>