<svg xmlns="http://www.w3.org/2000/svg" viewBox="0 0 250 250"><defs><style>.cls-1{isolation:isolate;}.cls-2{fill:#2880ba;}.cls-2,.cls-3,.cls-4{fill-rule:evenodd;}.cls-3{fill:#3b97d3;}.cls-4{fill:#231f20;opacity:0.15;mix-blend-mode:multiply;}.cls-5{fill:#fff;}</style></defs><title>Artboard 14</title><g class="cls-1"><g id="Layer_1" data-name="Layer 1"><polyline class="cls-2" points="-0.41 -0.4 249.59 -0.4 249.59 249.6 -0.41 249.6"/><path class="cls-3" d="M32.22,206.79l-2.33.27q-19.85-17.71-10.36-50Q31.38,116.82,88.89,53.9l5.32,12.37L228.06,44l8.35,28.09L120.35,197.3Z"/><path class="cls-4" d="M30.86,144.69l4.23-7.27,7.59,10.85-2.5-18.44,4.88-9.11L59.5,155.87,53,165.63,37.15,152.94l3.47,25.82-9.76,14.86-7.27-33.41,3.25-8.46,4.88,17.46Zm16.6-26.9,8-11.93,5.32,5.31-7.27,9.55,2.6,3,6.4-8,6.08,4.56-7.38,8.79,4.23,4.67L76,121.92l10.41,7.38L63.73,151.53Zm35.9-36.88L79,87l-7.16-.87L86.4,65.4,89,71l-2.17,4.67,63.78-10L128.7,86.45ZM63.19,97.83a8,8,0,0,1,2-2.28,9,9,0,0,1,2.6-2.28,10,10,0,0,1,3-1.52,8.51,8.51,0,0,1,3.58-1,8.21,8.21,0,0,1,3.25,0L72.3,97.73a1.94,1.94,0,0,0-1.63.22l-1.08.87a1.19,1.19,0,0,0-.54.43l-.32.43-.33,1,.11.87c.07.29.47.47,1.19.54a5.59,5.59,0,0,0,1.74-.33l6.72-4.88a21.54,21.54,0,0,1,8.35-3.8,25.18,25.18,0,0,1,10.63-.33,15.87,15.87,0,0,1,9.33,4,9.34,9.34,0,0,1,2.93,8.46,36,36,0,0,1-1.74,3.8l-2.71,3.47a31.71,31.71,0,0,1-5,3.58,28.44,28.44,0,0,1-6.07,2.6,32,32,0,0,1-10.41.43,18.56,18.56,0,0,1-8-2.71L82,109a6.33,6.33,0,0,0,3.15.65l2.71-.54,2.6-1.63a6.74,6.74,0,0,0,1.3-2.28l-.11-1.63-.65-1L90.3,102l-2-.54-2.93.22-1.85.76-5.86,3.9A26.42,26.42,0,0,1,74.58,108a39.54,39.54,0,0,1-4.34,1.19q-2.06,0-3.69-.11a8.58,8.58,0,0,1-2.82-1.41,4.39,4.39,0,0,1-1.74-2,3.61,3.61,0,0,1-.54-2.49,4.84,4.84,0,0,1,.22-2.49,10.93,10.93,0,0,1,1.3-2.6C63,97.94,63,97.83,63.19,97.83Z"/><path class="cls-4" d="M58.41,171.7l5.75-6.62,10.63.16-4.67,6.35Zm81.68-5.64L132.61,173,75,172l3.8-6.72Zm-15.94,19-6.83,7.27-85.47,7.81,7.27-7.7,50.66-4.55-39.38-7.81,6.18-7.16Zm-23-35.9A24.19,24.19,0,0,0,97,150.23l-3.69,1.84a6.19,6.19,0,0,0-2.6,2l20.39-.11q.32-1,.76-2.06l-.87-1.63A8.51,8.51,0,0,0,109,149a14.34,14.34,0,0,0-3.69-.43A22.84,22.84,0,0,0,101.15,149.14Zm24.08-41.87L121,112.8l-9.44.22,5.1-5.53Zm39.92,31.89-8.9,10.09-33.84,2.93-2.5,3.14,29.29.76-6.4,6.51-73.87-2.17L75,153.91a15.4,15.4,0,0,1,6.08-4.45,44.89,44.89,0,0,1,8.57-3.58,60.56,60.56,0,0,1,10.52-2.6,58.09,58.09,0,0,1,10.74-1,52.36,52.36,0,0,1,10,.87,16.75,16.75,0,0,1,6.18,2.71Zm14-17.14-1.74,2.17a22.26,22.26,0,0,1-7.16,5.1,69.61,69.61,0,0,1-12.8,4.66,132.1,132.1,0,0,1-16.27,3.36,135.08,135.08,0,0,1-15.62,1,79.46,79.46,0,0,1-13.78-.65,29.53,29.53,0,0,1-10-2.82q-3.58-2-4-4.12-.22-2.38,2.28-4.88a27.4,27.4,0,0,1,7.27-4.77,66.51,66.51,0,0,1,12.15-4.23l8.25,3.69A30.68,30.68,0,0,0,121,123a8.86,8.86,0,0,0-3.8,2.49,3.44,3.44,0,0,0-1.19,2.71q.11,1.19,2.28,2.17a13.36,13.36,0,0,0,5.32,1.52,48,48,0,0,0,7.48.33q3.91-.11,8.46-.65a79.4,79.4,0,0,0,8.79-1.84q3.15-1,6.18-2.17a34.5,34.5,0,0,0,4-2.39,4,4,0,0,0,1.3-2.49,2.17,2.17,0,0,0-1.19-2.17l-9.87-.11-5.64,6.07-11.06-.22,10.19-11,43.93-1.41-5.31,6.18-11.72-.76Zm15.51-16.49-6.07,6.07-62.91,1.3,4-5.75Zm0-40.57,2.71-3.36L180,64.43ZM155.93,81.78l2.17-4.94,67.36-3.53-7.81,7.38Zm-23.86,8.89,4.66-5.1,77.88-2.17-6.94,5.42-64.76,9.76q22.31-.33,58.57-2.93L196.06,102l-75.61,1.74,5.1-5.86,59.87-10.2Zm7.48-8.35L144,77.55l11.61-.65-4.12,5Zm12.69-13.78,3.9-4.34L222,53.58l2.93,4.12-21.91,3-3,4.88L226.32,64l2.06,6.07Z"/><path class="cls-5" d="M62.71,95.89H66v6h6.11v-6h3.31v15.06H72.13v-6H66v6H62.71Z"/><path class="cls-5" d="M79.21,95.89h3.31v15.06H79.21Z"/><path class="cls-5" d="M85.62,103.46v0a7.73,7.73,0,0,1,7.9-7.79,8.27,8.27,0,0,1,5.92,2.07l-2.09,2.52a5.55,5.55,0,0,0-3.94-1.53,4.52,4.52,0,0,0-4.32,4.69v0a4.51,4.51,0,0,0,4.56,4.78,5.28,5.28,0,0,0,3.12-.9v-2.15H93.43v-2.86H100v6.54a9.78,9.78,0,0,1-6.43,2.39A7.54,7.54,0,0,1,85.62,103.46Z"/><path class="cls-5" d="M103.16,95.89h3.31v6h6.11v-6h3.31v15.06h-3.31v-6h-6.11v6h-3.31Z"/><path class="cls-5" d="M119.51,95.89h3.31v12h7.51v3H119.51Z"/><path class="cls-5" d="M138,95.78H141l6.46,15.17H144l-1.38-3.38h-6.37l-1.38,3.38h-3.38Zm3.48,8.86-2-4.88-2,4.88Z"/><path class="cls-5" d="M146.73,95.89h3.55l3.12,10.2,3.38-10.24h2.84L163,106.09l3.12-10.2h3.46l-5.14,15.17h-2.88l-3.4-9.85-3.4,9.85h-2.88Z"/><path class="cls-5" d="M172,95.89h3.05l7.06,9.27V95.89h3.27v15.06H182.6l-7.29-9.57v9.57H172Z"/><path class="cls-5" d="M50,116.33H61.39v2.95H53.32v3.06h7.1v2.95h-7.1v3.16H61.5v2.95H50Z"/><path class="cls-5" d="M64.45,116.33h3.31v12h7.51v3H64.45Z"/><path class="cls-5" d="M77.77,116.33H89.13v2.95H81.06v3.06h7.1v2.95h-7.1v3.16h8.18v2.95H77.77Z"/><path class="cls-5" d="M92.18,116.33h3.57l4,6.37,4-6.37h3.57v15.06H104v-9.83L99.71,128h-.09l-4.2-6.37v9.77H92.18Z"/><path class="cls-5" d="M110.86,116.33h11.36v2.95h-8.07v3.06h7.1v2.95h-7.1v3.16h8.18v2.95H110.86Z"/><path class="cls-5" d="M125.28,116.33h3.05l7.06,9.27v-9.27h3.27v15.06h-2.82l-7.29-9.57v9.57h-3.27Z"/><path class="cls-5" d="M145.78,119.38H141.2v-3.06h12.48v3.06H149.1v12h-3.31Z"/><path class="cls-5" d="M159.44,116.22h3.06L169,131.39h-3.46L164.11,128h-6.37l-1.38,3.38H153Zm3.49,8.86-2-4.88-2,4.88Z"/><path class="cls-5" d="M171.28,116.33h6.88a6,6,0,0,1,4.39,1.53,4.73,4.73,0,0,1,1.29,3.44v0a4.68,4.68,0,0,1-3.23,4.67l3.68,5.38h-3.87l-3.23-4.82h-2.6v4.82h-3.31Zm6.67,7.32c1.62,0,2.54-.86,2.54-2.13v0c0-1.42-1-2.15-2.6-2.15h-3.29v4.32Z"/><path class="cls-5" d="M190.54,125.45l-5.79-9.12h3.87l3.59,6,3.66-6h3.77l-5.79,9.06v6h-3.31Z"/><path class="cls-5" d="M63.73,138.94h2.33v4.18h4.29v-4.18h2.33v10.57H70.34v-4.25H66.05v4.25H63.73Z"/><path class="cls-5" d="M74.91,146.66v-5.24H77.2v4.52c0,1.09.51,1.65,1.39,1.65S80,147,80,145.94v-4.52h2.29v8.1H80v-1.15a2.87,2.87,0,0,1-2.37,1.3C75.92,149.67,74.91,148.52,74.91,146.66Z"/><path class="cls-5" d="M84.38,141.42h2.3v1.15a2.87,2.87,0,0,1,2.37-1.3c1.74,0,2.75,1.15,2.75,3v5.24H89.5V145c0-1.09-.51-1.65-1.39-1.65s-1.44.56-1.44,1.65v4.52h-2.3Z"/><path class="cls-5" d="M94.17,147.22v-3.84h-1v-2h1v-2.07h2.3v2.07h1.9v2h-1.9v3.46c0,.53.23.79.74.79a2.34,2.34,0,0,0,1.13-.29v1.84a3.39,3.39,0,0,1-1.81.47C95.12,149.65,94.17,149.09,94.17,147.22Z"/><path class="cls-5" d="M100.1,138.49h2.42v2H100.1Zm.06,2.93h2.3v8.1h-2.3Z"/><path class="cls-5" d="M104.62,141.42h2.29v1.15a2.87,2.87,0,0,1,2.37-1.3c1.74,0,2.75,1.15,2.75,3v5.24h-2.29V145c0-1.09-.51-1.65-1.39-1.65s-1.44.56-1.44,1.65v4.52h-2.29Z"/><path class="cls-5" d="M114.07,151.12l.79-1.72a5.27,5.27,0,0,0,2.73.74c1.57,0,2.31-.75,2.31-2.21v-.39a3.17,3.17,0,0,1-2.64,1.31,3.56,3.56,0,0,1-3.59-3.78v0a3.56,3.56,0,0,1,3.59-3.78,3.28,3.28,0,0,1,2.61,1.21v-1.06h2.3v6.27a4.34,4.34,0,0,1-1,3.19,4.74,4.74,0,0,1-3.49,1.09A7.69,7.69,0,0,1,114.07,151.12Zm5.83-6v0a2,2,0,0,0-3.94,0v0a1.85,1.85,0,0,0,2,1.87A1.87,1.87,0,0,0,119.91,145.08Z"/><path class="cls-5" d="M124.6,147.22v-3.84h-1v-2h1v-2.07h2.3v2.07h1.9v2h-1.9v3.46c0,.53.23.79.74.79a2.34,2.34,0,0,0,1.13-.29v1.84a3.39,3.39,0,0,1-1.81.47C125.55,149.65,124.6,149.09,124.6,147.22Z"/><path class="cls-5" d="M129.88,145.51v0a4.38,4.38,0,0,1,8.76,0v0a4.38,4.38,0,0,1-8.76,0Zm6.5,0v0a2.15,2.15,0,0,0-2.13-2.24,2.07,2.07,0,0,0-2.1,2.21v0a2.15,2.15,0,0,0,2.13,2.24A2.07,2.07,0,0,0,136.37,145.51Z"/><path class="cls-5" d="M140.3,141.42h2.29v1.15a2.87,2.87,0,0,1,2.37-1.3c1.74,0,2.75,1.15,2.75,3v5.24h-2.29V145c0-1.09-.51-1.65-1.39-1.65s-1.44.56-1.44,1.65v4.52H140.3Z"/><path class="cls-5" d="M149.07,151c1-.11,1.56-.63,1.48-1.5h-.94V147.1h2.45v2c0,2-1,2.79-2.79,2.83Z"/><path class="cls-5" d="M158,138.94h2.49l2.19,7.16,2.37-7.19h2l2.37,7.19,2.19-7.16H174l-3.61,10.65h-2L166,142.67l-2.39,6.92h-2Z"/><path class="cls-5" d="M174.69,138.94h2.57l2.77,7.45,2.76-7.45h2.51L181,149.59H179Z"/></g></g></svg>