<svg xmlns="http://www.w3.org/2000/svg" viewBox="0 0 250 250"><defs><style>.cls-1{isolation:isolate;}.cls-2{fill:#d25627;}.cls-2,.cls-3,.cls-4{fill-rule:evenodd;}.cls-3{fill:#e57e25;}.cls-4{fill:#231f20;opacity:0.15;mix-blend-mode:multiply;}.cls-5{fill:#fff;}</style></defs><title>Artboard 18</title><g class="cls-1"><g id="Layer_1" data-name="Layer 1"><polyline class="cls-2" points="250.38 249.5 0.39 249.5 0.39 -0.5 250.38 -0.5"/><polygon class="cls-3" points="212.57 206.05 212.18 205.3 216.34 190.98 209.4 184.97 215.87 174.35 224.64 170.19 214.02 162.34 219.56 154.49 221.86 143.02 210.28 138.88 210.28 127.04 206.13 125.26 191.91 102.74 178.88 98 178.88 82.01 152.81 67.8 140.96 58.91 138 50.61 135.04 46.47 119.64 52.98 120.82 44.1 118.45 36.4 127.93 27.51 85.87 31.06 33.73 41.73 56.25 137.11 74.61 145.4 74.02 164.36 66.9 169.69 69.28 182.13 74.61 195.75 71.66 201.09 82.31 212.34 74.17 212.84 87.06 227.15 117.27 223.01 169.4 211.75 180.66 217.08 184.21 225.38 190.73 224.19 193.1 208.79 188.35 204.05 193.1 201.09 199.02 206.42 212.57 206.05 212.57 206.05"/><path class="cls-4" d="M131.44,183.9l3.09,7.59L174,181.76Zm59.86-28.65-1.17-11.4,14.24-2.23L208.15,153ZM81.22,184.44l1.22-10.65,115.22.62,7,10.5L94.22,214.44,85.69,204l38.12-9.37L120.6,184.4Zm1.92-14.71,1.8-9.32,100.34-15.79,1.16,11.29Zm36.95-42.58a54.36,54.36,0,0,0-8.61,3.34,16.77,16.77,0,0,0-4.26,3.51,6.8,6.8,0,0,0-1.39,3.21,7.29,7.29,0,0,0,2.32,3,16.58,16.58,0,0,0,5.52,2.2l5.37-.78-3-6.68L141,131l8.18,15-62,9-2.62-8.1,2.27-.39-3-2.23-1-2.66q-1.15-3.26,1.33-6.66t9.22-6.78a76.82,76.82,0,0,1,14.89-6.06,156.57,156.57,0,0,1,18.51-4.2,164.21,164.21,0,0,1,20.51-2.18,129.66,129.66,0,0,1,19.95.33,67,67,0,0,1,16.13,3.11q6.34,2.19,8.55,5.5a6.14,6.14,0,0,1,.74,7.22q-2,3.74-8.91,7.67l-23.26-2.84q3.67-2.07,4.8-4.1a2.7,2.7,0,0,0-.16-3.75,8.57,8.57,0,0,0-4.34-3,31.85,31.85,0,0,0-8.1-1.86,53.63,53.63,0,0,0-11-.33,85.89,85.89,0,0,0-11.37,1.17A70.53,70.53,0,0,0,120.09,127.16Zm-7.88-23.69q1.05.81,2.34,1.68l3.9.91a50.71,50.71,0,0,0,5.25.31q3.26-.26,6.13-.55,3-.69,5.16-1.37,2.5-1,4.07-1.8l2.39-2.17a1.58,1.58,0,0,0-.13-2ZM64.8,111.64l-2.08-5.78,98.52-17.48,4.63,5.9q2,2.1.09,4.52a19.15,19.15,0,0,1-6.18,5.17,58.79,58.79,0,0,1-11.24,4.61,110.43,110.43,0,0,1-15,3.46,153.23,153.23,0,0,1-16.68,1.71,109.71,109.71,0,0,1-13.7-.51L69.5,125.44,66.86,118l23.8-8.66-1.6-1.83ZM95,73.51a127.73,127.73,0,0,1,16.61-2.39,108.13,108.13,0,0,1,14.93-.61,48.09,48.09,0,0,1,11.63,1.42Q143.7,73,145,75.21q1.93,2.11-.61,5-1.88,2.73-7.33,5.59A91.43,91.43,0,0,1,124,91.2a144,144,0,0,1-17.26,4.08q-9.53,1.59-17.89,2.3a130,130,0,0,1-15.06.09,43.5,43.5,0,0,1-10.28-2q-3.88-1.52-4.7-3.66t1.74-4.86a26.49,26.49,0,0,1,7.19-4.81,91.51,91.51,0,0,1,12-4.84A111.52,111.52,0,0,1,95,73.51Zm2.63,4.57a58.48,58.48,0,0,0-8.57,2.26A35.43,35.43,0,0,0,82.52,83a12.35,12.35,0,0,0-4,2.72,2.44,2.44,0,0,0-.78,2.54,5,5,0,0,0,2.81,1.94,44,44,0,0,0,5.71,1.1q3.59.09,8-.05,4.57-.55,9.71-1.3,4.74-1,8.94-2.3a38.78,38.78,0,0,0,6.94-2.86,11.68,11.68,0,0,0,4-2.87q1.19-1.5.32-2.64-.57-1.17-3.18-1.9a33.74,33.74,0,0,0-6.27-.81,33.25,33.25,0,0,0-7.8.26A73.11,73.11,0,0,0,97.68,78.08Zm13.44-9.29-7.33-8.16L93.31,63.09l3.32,6.19-16,3.48-2.74-6.32-10.2,2.35,2.74,7.78L55.14,80,51.67,68.06l65.44-15,13.44,11.06ZM62.71,54.94a26.23,26.23,0,0,0,3.53,1l3.16-.48L67.55,52l14.82-2.75,4.3,7.39L50.2,63.14l-1.95-4.06,1.5-.31-2-1-.92-1.29a4.5,4.5,0,0,1-.24-.55,2.9,2.9,0,0,1,.89-3q1.51-2.21,5.62-4.11a50.15,50.15,0,0,1,9.39-3.69,85.31,85.31,0,0,1,11.87-2.79,91.93,91.93,0,0,1,12.44-1.62q2.1-.19,4.3-.25a55.34,55.34,0,0,1,7.33.17,31.29,31.29,0,0,1,9,1.46q3.4.84,4.19,2.68a2.22,2.22,0,0,1,.54,1.25,4.08,4.08,0,0,1-.88,2.28,16.1,16.1,0,0,1-5.54,4.14l-12.23-.74a9.22,9.22,0,0,0,2.9-2.26q.84-1.25.21-1.94A3.4,3.4,0,0,0,94.42,46a15.67,15.67,0,0,0-4.93-.76,29,29,0,0,0-6.37,0,45,45,0,0,0-6.63.8,33.94,33.94,0,0,0-6.4,1.62,18.8,18.8,0,0,0-5.2,2.07,6.35,6.35,0,0,0-2.72,1.89,3.17,3.17,0,0,0-.85,1.85A4.32,4.32,0,0,0,62.71,54.94Z"/><path class="cls-5" d="M76.31,105.36v0a7.65,7.65,0,0,1,7.85-7.79,7.77,7.77,0,0,1,5.94,2.32L88,102.28a5.56,5.56,0,0,0-3.85-1.7,4.46,4.46,0,0,0-4.37,4.69v0A4.47,4.47,0,0,0,84.14,110a5.44,5.44,0,0,0,4-1.76l2.11,2.13A7.7,7.7,0,0,1,84,113.1,7.6,7.6,0,0,1,76.31,105.36Z"/><path class="cls-5" d="M92.86,97.78h3.31v12h7.51v3H92.86Z"/><path class="cls-5" d="M111.34,97.68h3.06l6.45,15.17h-3.46L116,109.47h-6.37l-1.38,3.38h-3.38Zm3.49,8.86-2-4.88-2,4.88Z"/><path class="cls-5" d="M125,106.91l-5.79-9.12h3.87l3.59,6,3.66-6h3.76l-5.79,9.06v6H125Z"/><path class="cls-5" d="M139.72,100.84h-4.58V97.78h12.48v3.06H143v12h-3.31Z"/><path class="cls-5" d="M148.84,105.36v0a8,8,0,0,1,16,0v0a8,8,0,0,1-16,0Zm12.54,0v0a4.58,4.58,0,0,0-4.56-4.73,4.5,4.5,0,0,0-4.52,4.69v0a4.57,4.57,0,0,0,4.56,4.73A4.5,4.5,0,0,0,161.38,105.36Z"/><path class="cls-5" d="M167.8,97.78h3.05l7.06,9.27V97.78h3.27v15.06h-2.82l-7.29-9.57v9.57H167.8Z"/><path class="cls-5" d="M51.82,118.22H63.18v2.95H55.11v3.06h7.1v2.95h-7.1v3.16h8.18v2.95H51.82Z"/><path class="cls-5" d="M66.24,118.22h3.31v12h7.51v3H66.24Z"/><path class="cls-5" d="M79.56,118.22H90.92v2.95H82.85v3.06h7.1v2.95h-7.1v3.16H91v2.95H79.56Z"/><path class="cls-5" d="M94,118.22h3.57l4,6.37,4-6.37H109v15.06h-3.29v-9.83l-4.24,6.43h-.09l-4.2-6.37v9.77H94Z"/><path class="cls-5" d="M112.65,118.22H124v2.95h-8.07v3.06H123v2.95h-7.1v3.16h8.18v2.95H112.65Z"/><path class="cls-5" d="M127.07,118.22h3.05l7.06,9.27v-9.27h3.27v15.06h-2.82l-7.29-9.57v9.57h-3.27Z"/><path class="cls-5" d="M147.57,121.28H143v-3.06h12.48v3.06h-4.58v12h-3.31Z"/><path class="cls-5" d="M161.23,118.12h3.06l6.45,15.17h-3.46l-1.38-3.38h-6.37l-1.38,3.38h-3.38Zm3.49,8.86-2-4.88-2,4.88Z"/><path class="cls-5" d="M173.07,118.22H180a6,6,0,0,1,4.39,1.53,4.73,4.73,0,0,1,1.29,3.44v0a4.68,4.68,0,0,1-3.23,4.67l3.68,5.38h-3.87L179,128.46h-2.6v4.82h-3.31Zm6.67,7.32c1.61,0,2.54-.86,2.54-2.13v0c0-1.42-1-2.15-2.6-2.15h-3.29v4.32Z"/><path class="cls-5" d="M192.33,127.35l-5.79-9.12h3.87l3.59,6,3.66-6h3.76l-5.79,9.06v6h-3.31Z"/><path class="cls-5" d="M78.68,151.53l2-2.35a6.91,6.91,0,0,0,4.5,1.83c1.35,0,2.17-.54,2.17-1.42v0c0-.84-.52-1.27-3-1.92-3-.77-5-1.61-5-4.6v0c0-2.73,2.19-4.54,5.27-4.54a8.72,8.72,0,0,1,5.59,1.92l-1.72,2.5a7.07,7.07,0,0,0-3.92-1.48c-1.27,0-1.94.58-1.94,1.31v0c0,1,.65,1.31,3.25,2,3.06.8,4.78,1.89,4.78,4.52v0c0,3-2.28,4.67-5.53,4.67A9.59,9.59,0,0,1,78.68,151.53Z"/><path class="cls-5" d="M92.81,146.24v0a7.65,7.65,0,0,1,7.85-7.79,7.77,7.77,0,0,1,5.94,2.32l-2.11,2.43a5.56,5.56,0,0,0-3.85-1.7,4.46,4.46,0,0,0-4.37,4.69v0a4.47,4.47,0,0,0,4.37,4.73,5.43,5.43,0,0,0,4-1.76l2.11,2.13a7.7,7.7,0,0,1-6.17,2.69A7.6,7.6,0,0,1,92.81,146.24Z"/><path class="cls-5" d="M109.36,138.67h3.31v6h6.11v-6h3.31v15.06h-3.31v-6h-6.11v6h-3.31Z"/><path class="cls-5" d="M125,146.24v0a8,8,0,0,1,16,0v0a8,8,0,0,1-16,0Zm12.54,0v0a4.58,4.58,0,0,0-4.56-4.73,4.5,4.5,0,0,0-4.52,4.69v0a4.57,4.57,0,0,0,4.56,4.73A4.5,4.5,0,0,0,137.59,146.24Z"/><path class="cls-5" d="M143.33,146.24v0a8,8,0,0,1,16,0v0a8,8,0,0,1-16,0Zm12.54,0v0a4.58,4.58,0,0,0-4.56-4.73,4.5,4.5,0,0,0-4.52,4.69v0a4.57,4.57,0,0,0,4.56,4.73A4.5,4.5,0,0,0,155.88,146.24Z"/><path class="cls-5" d="M162.29,138.67h3.31v12h7.51v3H162.29Z"/><path class="cls-5" d="M82.84,166.6v0a5.37,5.37,0,0,1,5.51-5.47,5.45,5.45,0,0,1,4.17,1.63L91,164.44a3.9,3.9,0,0,0-2.7-1.19,3.13,3.13,0,0,0-3.07,3.29v0a3.14,3.14,0,0,0,3.07,3.32,3.82,3.82,0,0,0,2.78-1.24l1.48,1.5A5.41,5.41,0,0,1,88.27,172,5.34,5.34,0,0,1,82.84,166.6Z"/><path class="cls-5" d="M93.74,169.53v0c0-1.77,1.34-2.58,3.26-2.58a5.76,5.76,0,0,1,2,.33v-.14c0-1-.59-1.48-1.74-1.48a6,6,0,0,0-2.24.44l-.57-1.75a7.15,7.15,0,0,1,3.14-.65,3.74,3.74,0,0,1,2.73.91,3.53,3.53,0,0,1,.88,2.58v4.7H99V171a3.11,3.11,0,0,1-2.45,1A2.5,2.5,0,0,1,93.74,169.53ZM99,169v-.41a3.55,3.55,0,0,0-1.46-.3c-1,0-1.59.39-1.59,1.12v0c0,.62.51,1,1.25,1C98.28,170.42,99,169.83,99,169Z"/><path class="cls-5" d="M103.16,163.76h2.3v1.15a2.87,2.87,0,0,1,2.37-1.3c1.74,0,2.75,1.15,2.75,3v5.24h-2.3v-4.52c0-1.09-.51-1.65-1.39-1.65s-1.44.56-1.44,1.65v4.52h-2.3Z"/><path class="cls-5" d="M113,169.56v-3.84h-1v-2h1v-2.07h2.3v2.07h1.9v2h-1.9v3.46c0,.53.23.79.74.79a2.33,2.33,0,0,0,1.13-.29v1.84a3.38,3.38,0,0,1-1.81.47C113.9,172,113,171.43,113,169.56Z"/><path class="cls-5" d="M118.22,167.85v0a4.38,4.38,0,0,1,8.76,0v0a4.25,4.25,0,0,1-4.4,4.21A4.21,4.21,0,0,1,118.22,167.85Zm6.5,0v0a2.15,2.15,0,0,0-2.13-2.24,2.07,2.07,0,0,0-2.1,2.21v0a2.15,2.15,0,0,0,2.13,2.24A2.07,2.07,0,0,0,124.72,167.85Z"/><path class="cls-5" d="M128.64,163.76h2.3v1.15a2.87,2.87,0,0,1,2.37-1.3c1.74,0,2.75,1.15,2.75,3v5.24h-2.3v-4.52c0-1.09-.51-1.65-1.39-1.65s-1.44.56-1.44,1.65v4.52h-2.3Z"/><path class="cls-5" d="M137.42,173.35c1-.11,1.56-.63,1.48-1.5H138v-2.42h2.45v2c0,2-1,2.79-2.79,2.83Z"/><path class="cls-5" d="M146.68,166.6v0a5.43,5.43,0,0,1,5.54-5.47,5.81,5.81,0,0,1,4.15,1.45l-1.47,1.77a3.89,3.89,0,0,0-2.76-1.07,3.18,3.18,0,0,0-3,3.29v0a3.17,3.17,0,0,0,3.2,3.35,3.72,3.72,0,0,0,2.19-.63v-1.51h-2.34v-2h4.59v4.59a6.86,6.86,0,0,1-4.52,1.68A5.29,5.29,0,0,1,146.68,166.6Z"/><path class="cls-5" d="M162.62,161.2h2.14l4.53,10.65h-2.43l-1-2.37h-4.47l-1,2.37h-2.37Zm2.45,6.22L163.66,164l-1.4,3.43Z"/></g></g></svg>