<svg xmlns="http://www.w3.org/2000/svg" viewBox="0 0 250 250"><defs><style>.cls-1{isolation:isolate;}.cls-2,.cls-5{fill:#14a085;}.cls-3{fill:#25b99a;}.cls-3,.cls-4,.cls-5{fill-rule:evenodd;}.cls-4{fill:#231f20;opacity:0.15;mix-blend-mode:multiply;}.cls-6{fill:#fff;}</style></defs><title>Artboard 4</title><g class="cls-1"><g id="Layer_1" data-name="Layer 1"><rect class="cls-2" x="-0.26" width="249.99" height="250"/><path class="cls-3" d="M229.32,138.28l.31-4.2,3.19-21.77L228.3,101.9l-11.83,2.86-18.9.54-1.06-14L190,69.68,180.3,36.75l-4.52-1.8-1.95,2.89L89.64,51.33,68.4,55.72l9.89,7,13.53.62,4.92,4.92L92.7,84l5.89-2.78,16,11.06,17.84,9.84-6.15,12.3,11.68,14.13L133,135.88l27,4.3,24-.61,45.31-1.28ZM9.81,67.86,61.9,57.07,56.78,72,46.94,61.5,36.5,73.8,31,91l-5.54-5.53L12.52,92.85l-2.71-25Z"/><path class="cls-4" d="M152.62,53.11l-1.6.25,1.46,4.82,1.09-.69q.45-.36,1-.83l.89-1.08,0-1-.51-.86-1.24-.51Q152.84,52.8,152.62,53.11Zm-2.73-4,3.38-.31,3,.6a3.94,3.94,0,0,1,2.26,1.41,9.07,9.07,0,0,1,1.36,2.38A13.2,13.2,0,0,1,160,56a8.07,8.07,0,0,1-1.4,2.72l6,4.42L159.28,65l-4.44-3.38-.64.23-.52.37,1.14,4.35-4.61,1.48-4.89-17.41Zm16-5,6,6.31,1.4-8.59,4.74-1.3-3.3,19.28-4.54,1.68L171,56,161,45.5ZM135.64,66.11l3.46-1.29-2.9-3.68Zm-3.72-11.58,4.41-1.46,12,15.62-5.05,1.64-1.39-1.82-6.62,2.19-.12,2.36-5,1.53Zm-25,27.86-4.59-18.72,5.29-1.77,8.66,9.86L117.47,59l5.41-1.63,6.37,17.43-5,1.73-2.66-7.17-.76,8.41-5,1.53-5.5-6.57,1.51,7.77Z"/><path class="cls-4" d="M155.82,129.25a6.67,6.67,0,0,0,6,.18q.87-.41,1.72-.93a9.37,9.37,0,0,0,3.38-4.9,41.44,41.44,0,0,1-12.7,4.62A6.17,6.17,0,0,0,155.82,129.25Zm16-12.47.28,4.76a11.06,11.06,0,0,1-1.23,5.76q-4.63,8.83-14.66,6.08a17,17,0,0,1-10-7.45,56.56,56.56,0,0,0,10.06-2.86Q164.11,120.27,171.84,116.78ZM169.7,99.28l.74,4.4a156.31,156.31,0,0,0-14,11.31,146.57,146.57,0,0,0,14.79-5.08q.16,2.12.46,4.64a201.87,201.87,0,0,1-26.42,9.26,39.38,39.38,0,0,1-1.32-5.76q9.14-7,15.39-11.78-6,.74-15.48,2.71a54.29,54.29,0,0,1,1-7.77Q159.16,100.68,169.7,99.28Zm-12.13-9.94q-2.2.37-8.52,1.25l1.71,3.16A30.12,30.12,0,0,0,157.56,89.34Zm-12.46,2.44Q137,94.1,136,94.33q-2.68-1.1-5.78-2.25l36.46-8.86q.32,1.8.73,4.3L144.71,100.2a4.88,4.88,0,0,0-1.82-2.33A35.6,35.6,0,0,1,148,95.71Zm-18.48-.9q-5.61-2.48-13.24-6.44Q142.87,76,163.61,68.71a7.77,7.77,0,0,1,.91,3.26q-17.24,6.7-34.17,11.74A68.93,68.93,0,0,0,138,88.06Z"/><path class="cls-5" d="M179.65,140.38l-1.33-18.56V115.2l-4.64-20.54S173,77.43,173,75.44s7.29-7.29,7.29-7.29-2.65,10.6-2.65,13.25S185,110.56,185,110.56l6,19.88,13.25,9.94s2,8-2.65,9.28S177.66,156.29,179.65,140.38Z"/><path class="cls-6" d="M47.51,103.85v0A7.65,7.65,0,0,1,55.36,96a7.77,7.77,0,0,1,5.94,2.32l-2.11,2.43a5.56,5.56,0,0,0-3.85-1.7A4.46,4.46,0,0,0,51,103.77v0a4.47,4.47,0,0,0,4.37,4.73,5.44,5.44,0,0,0,4-1.76l2.11,2.13a7.7,7.7,0,0,1-6.17,2.69A7.6,7.6,0,0,1,47.51,103.85Z"/><path class="cls-6" d="M64.06,96.28h3.31v6h6.11v-6h3.31v15.06H73.48v-6H67.37v6H64.06Z"/><path class="cls-6" d="M80.41,96.28H91.77v2.95H83.7v3.06h7.1v2.95H83.7v3.16h8.18v2.95H80.41Z"/><path class="cls-6" d="M93.79,109.15l2-2.35a6.91,6.91,0,0,0,4.5,1.83c1.35,0,2.17-.54,2.17-1.42v0c0-.84-.52-1.27-3-1.92-3-.77-5-1.61-5-4.6v0c0-2.73,2.19-4.54,5.27-4.54A8.72,8.72,0,0,1,105.26,98l-1.72,2.5A7.07,7.07,0,0,0,99.62,99c-1.27,0-1.94.58-1.94,1.31v0c0,1,.65,1.31,3.25,2,3.06.8,4.78,1.89,4.78,4.52v0c0,3-2.28,4.67-5.53,4.67A9.59,9.59,0,0,1,93.79,109.15Z"/><path class="cls-6" d="M113.44,96.17h3.06l6.45,15.17h-3.46L118.11,108h-6.37l-1.38,3.38H107Zm3.49,8.86-2-4.88-2,4.88Z"/><path class="cls-6" d="M125.27,96.28h6.15c3.59,0,5.77,2.13,5.77,5.21v0c0,3.49-2.71,5.29-6.09,5.29h-2.52v4.52h-3.31Zm5.94,7.59a2.33,2.33,0,0,0,2.63-2.28v0c0-1.48-1-2.28-2.69-2.28h-2.56v4.6Z"/><path class="cls-6" d="M139.64,96.28H151v2.95h-8.07v3.06H150v2.95h-7.1v3.16h8.18v2.95H139.64Z"/><path class="cls-6" d="M159.22,96.17h3.06l6.45,15.17h-3.46L163.89,108h-6.37l-1.38,3.38h-3.38Zm3.49,8.86-2-4.88-2,4.88Z"/><path class="cls-6" d="M171.06,96.28h3.31v6.58l6.11-6.58h4l-6.13,6.39,6.41,8.67h-4l-4.67-6.41-1.74,1.81v4.6h-3.31Z"/><path class="cls-6" d="M186.77,96.28h11.36v2.95h-8.07v3.06h7.1v2.95h-7.1v3.16h8.18v2.95H186.77Z"/><path class="cls-6" d="M25.8,116.72H32c3.59,0,5.77,2.13,5.77,5.21v0c0,3.49-2.71,5.29-6.09,5.29H29.11v4.52H25.8Zm5.94,7.59A2.33,2.33,0,0,0,34.36,122v0c0-1.48-1-2.28-2.69-2.28H29.11v4.6Z"/><path class="cls-6" d="M39.94,125.33v-8.61h3.31v8.52c0,2.45,1.23,3.72,3.25,3.72s3.25-1.23,3.25-3.61v-8.63h3.31v8.5c0,4.56-2.56,6.8-6.6,6.8S39.94,129.76,39.94,125.33Z"/><path class="cls-6" d="M56.44,116.72h7a5.44,5.44,0,0,1,3.94,1.33,3.45,3.45,0,0,1,1,2.56v0a3.5,3.5,0,0,1-2,3.25c1.74.67,2.82,1.68,2.82,3.7v0c0,2.75-2.24,4.13-5.64,4.13H56.44Zm8.67,4.45c0-1-.77-1.55-2.17-1.55H59.67v3.18h3.06c1.46,0,2.39-.47,2.39-1.59Zm-1.61,4.39H59.67v3.31h3.94c1.46,0,2.34-.52,2.34-1.64v0C66,126.19,65.2,125.57,63.5,125.57Z"/><path class="cls-6" d="M72,116.72h3.31v12H82.8v3H72Z"/><path class="cls-6" d="M85.45,116.72h3.31v15.06H85.45Z"/><path class="cls-6" d="M91.86,124.3v0a7.65,7.65,0,0,1,7.85-7.79,7.77,7.77,0,0,1,5.94,2.32l-2.11,2.43a5.56,5.56,0,0,0-3.85-1.7,4.46,4.46,0,0,0-4.37,4.69v0A4.47,4.47,0,0,0,99.69,129a5.43,5.43,0,0,0,4-1.76l2.11,2.13A7.7,7.7,0,0,1,99.58,132,7.6,7.6,0,0,1,91.86,124.3Z"/><path class="cls-6" d="M114.19,124.3v0a7.65,7.65,0,0,1,7.85-7.79,7.77,7.77,0,0,1,5.94,2.32l-2.11,2.43a5.56,5.56,0,0,0-3.85-1.7,4.46,4.46,0,0,0-4.37,4.69v0A4.47,4.47,0,0,0,122,129a5.43,5.43,0,0,0,4-1.76l2.11,2.13a7.7,7.7,0,0,1-6.17,2.69A7.6,7.6,0,0,1,114.19,124.3Z"/><path class="cls-6" d="M130.74,116.72H134v6h6.11v-6h3.31v15.06h-3.31v-6H134v6h-3.31Z"/><path class="cls-6" d="M152.25,116.62h3.06l6.45,15.17H158.3l-1.38-3.38h-6.37l-1.38,3.38H145.8Zm3.49,8.86-2-4.88-2,4.88Z"/><path class="cls-6" d="M164.09,116.72H171a6,6,0,0,1,4.39,1.53,4.73,4.73,0,0,1,1.29,3.44v0a4.68,4.68,0,0,1-3.23,4.67l3.68,5.38h-3.87L170,127h-2.6v4.82h-3.31Zm6.67,7.32c1.61,0,2.54-.86,2.54-2.13v0c0-1.42-1-2.15-2.6-2.15H167.4V124Z"/><path class="cls-6" d="M183.15,119.78h-4.58v-3.06H191v3.06h-4.58v12h-3.31Z"/><path class="cls-6" d="M193.59,116.72h11.36v2.95h-8.07v3.06H204v2.95h-7.1v3.16h8.18v2.95H193.59Z"/><path class="cls-6" d="M208,116.72h6.88a6,6,0,0,1,4.39,1.53,4.73,4.73,0,0,1,1.29,3.44v0a4.68,4.68,0,0,1-3.23,4.67l3.68,5.38h-3.87L213.92,127h-2.6v4.82H208Zm6.67,7.32c1.61,0,2.54-.86,2.54-2.13v0c0-1.42-1-2.15-2.6-2.15h-3.29V124Z"/><path class="cls-6" d="M75.7,150l2-2.35a6.91,6.91,0,0,0,4.5,1.83c1.35,0,2.17-.54,2.17-1.42v0c0-.84-.52-1.27-3-1.92-3-.77-5-1.61-5-4.6v0c0-2.73,2.19-4.54,5.27-4.54a8.72,8.72,0,0,1,5.59,1.92l-1.72,2.5a7.07,7.07,0,0,0-3.92-1.48c-1.27,0-1.94.58-1.94,1.31v0c0,1,.65,1.31,3.25,2,3.06.8,4.78,1.89,4.78,4.52v0c0,3-2.28,4.67-5.53,4.67A9.59,9.59,0,0,1,75.7,150Z"/><path class="cls-6" d="M89.83,144.74v0a7.65,7.65,0,0,1,7.85-7.79,7.77,7.77,0,0,1,5.94,2.32l-2.11,2.43a5.56,5.56,0,0,0-3.85-1.7,4.46,4.46,0,0,0-4.37,4.69v0a4.47,4.47,0,0,0,4.37,4.73,5.43,5.43,0,0,0,4-1.76l2.11,2.13a7.7,7.7,0,0,1-6.17,2.69A7.6,7.6,0,0,1,89.83,144.74Z"/><path class="cls-6" d="M106.38,137.16h3.31v6h6.11v-6h3.31v15.06H115.8v-6h-6.11v6h-3.31Z"/><path class="cls-6" d="M122.07,144.74v0a8,8,0,0,1,16,0v0a8,8,0,0,1-16,0Zm12.54,0v0A4.58,4.58,0,0,0,130,140a4.5,4.5,0,0,0-4.52,4.69v0a4.57,4.57,0,0,0,4.56,4.73A4.5,4.5,0,0,0,134.61,144.74Z"/><path class="cls-6" d="M140.36,144.74v0a8,8,0,0,1,16,0v0a8,8,0,0,1-16,0Zm12.54,0v0a4.58,4.58,0,0,0-4.56-4.73,4.5,4.5,0,0,0-4.52,4.69v0a4.57,4.57,0,0,0,4.56,4.73A4.5,4.5,0,0,0,152.9,144.74Z"/><path class="cls-6" d="M159.31,137.16h3.31v12h7.51v3H159.31Z"/><path class="cls-6" d="M69,159.78h2.33v8.46h5.27v2.12H69Z"/><path class="cls-6" d="M77.58,166.35v0a4,4,0,0,1,4-4.21c2.7,0,3.94,2.1,3.94,4.4,0,.18,0,.39,0,.6H79.86a1.88,1.88,0,0,0,2,1.59,2.65,2.65,0,0,0,2-.83L85.12,169a4.28,4.28,0,0,1-7.54-2.67Zm5.71-.68a1.74,1.74,0,0,0-1.71-1.72,1.8,1.8,0,0,0-1.75,1.72Z"/><path class="cls-6" d="M90.17,164.63l1.53-2.37h2.4l-2.73,4,2.86,4.14H91.76l-1.63-2.52-1.63,2.52H86.1l2.84-4.11-2.73-4h2.46Z"/><path class="cls-6" d="M95.64,159.32h2.42v2H95.64Zm.06,2.93H98v8.1H95.7Z"/><path class="cls-6" d="M100.16,162.25h2.3v1.15a2.87,2.87,0,0,1,2.37-1.3c1.74,0,2.75,1.15,2.75,3v5.24h-2.3v-4.52c0-1.09-.51-1.65-1.39-1.65s-1.44.56-1.44,1.65v4.52h-2.3Z"/><path class="cls-6" d="M109.62,172l.79-1.72a5.28,5.28,0,0,0,2.73.74c1.57,0,2.31-.75,2.31-2.21v-.39a3.17,3.17,0,0,1-2.64,1.31,3.56,3.56,0,0,1-3.59-3.78v0a3.56,3.56,0,0,1,3.59-3.78,3.28,3.28,0,0,1,2.61,1.21v-1.06h2.3v6.27a4.34,4.34,0,0,1-1,3.19,4.75,4.75,0,0,1-3.49,1.09A7.68,7.68,0,0,1,109.62,172Zm5.83-6v0a2,2,0,0,0-3.94,0v0a1.85,1.85,0,0,0,2,1.87A1.87,1.87,0,0,0,115.45,165.91Z"/><path class="cls-6" d="M120.15,168.06v-3.84h-1v-2h1v-2.07h2.3v2.07h1.9v2h-1.9v3.46c0,.53.23.79.74.79a2.33,2.33,0,0,0,1.13-.29V170a3.38,3.38,0,0,1-1.81.47C121.1,170.49,120.15,169.93,120.15,168.06Z"/><path class="cls-6" d="M125.42,166.35v0a4.38,4.38,0,0,1,8.76,0v0a4.25,4.25,0,0,1-4.4,4.21A4.21,4.21,0,0,1,125.42,166.35Zm6.5,0v0a2.15,2.15,0,0,0-2.13-2.24,2.07,2.07,0,0,0-2.1,2.21v0a2.15,2.15,0,0,0,2.13,2.24A2.07,2.07,0,0,0,131.91,166.35Z"/><path class="cls-6" d="M135.84,162.25h2.3v1.15a2.87,2.87,0,0,1,2.37-1.3c1.74,0,2.75,1.15,2.75,3v5.24H141v-4.52c0-1.09-.51-1.65-1.39-1.65s-1.44.56-1.44,1.65v4.52h-2.3Z"/><path class="cls-6" d="M144.62,171.85c1-.11,1.56-.63,1.48-1.5h-.94v-2.42h2.45v2c0,2-1,2.79-2.79,2.83Z"/><path class="cls-6" d="M154.34,159.78h2.51l2.78,4.47,2.78-4.47h2.51v10.57h-2.31v-6.9l-3,4.52h-.06l-2.95-4.47v6.86h-2.28Z"/><path class="cls-6" d="M167.46,159.78h4.12A5.27,5.27,0,0,1,177.2,165v0a5.29,5.29,0,0,1-5.62,5.29h-4.12Zm2.33,2.1v6.38h1.8a3,3,0,0,0,3.19-3.16v0a3,3,0,0,0-3.19-3.19Z"/></g></g></svg>