<svg xmlns="http://www.w3.org/2000/svg" viewBox="0 0 250 250"><defs><style>.cls-1{isolation:isolate;}.cls-2{fill:#2c3e50;}.cls-3{fill:#48627c;}.cls-3,.cls-4{fill-rule:evenodd;}.cls-4{fill:#231f20;opacity:0.27;mix-blend-mode:multiply;}.cls-5{fill:#fff;}</style></defs><title>Artboard 24</title><g class="cls-1"><g id="Layer_1" data-name="Layer 1"><rect class="cls-2" x="0.32" y="-0.34" width="249.99" height="250"/><path class="cls-3" d="M154,19.1q0,5.14,8.55,18.13,5.34,8,8.36,11a10.23,10.23,0,0,0,2.47,1.9L179.53,160l-11.89,35.58h-.1Q162.25,216.55,143,232.8L73.07,138.1q-12.22-7.66-10.45-26.33Q64,97.52,73.52,76.83q39.43-23.54.71-57.73Z"/><path class="cls-4" d="M159.48,169.38v8q-21,10.33-46.09,3.41-3.28-4.31-6.75-8.61Q135,179,159.48,169.38Zm-5.4-19.32a5.08,5.08,0,0,0-2.25-3.28,18.68,18.68,0,0,0-5.34-2.31,36,36,0,0,0-8-1.35,105.43,105.43,0,0,0-10.54-.58,96.81,96.81,0,0,0-10.09.13,23,23,0,0,0-6.75,1.48,6.3,6.3,0,0,0-3.34,2.76,4.21,4.21,0,0,0,.51,3.79,16.38,16.38,0,0,0,3.86,4.18,38.35,38.35,0,0,0,6.3,3.66,39.56,39.56,0,0,0,7.71,2.76,50.55,50.55,0,0,0,9.26,1.16,32.74,32.74,0,0,0,8.55-1.35A16.07,16.07,0,0,0,149.7,158a8.84,8.84,0,0,0,3.54-3.92A6.22,6.22,0,0,0,154.07,150.06Zm11.12,31.69a2,2,0,0,1,1.93.9,2.63,2.63,0,0,1,.19,2.44,11.14,11.14,0,0,1-1.35,4,31.22,31.22,0,0,1-2.25,4.82q-1.35,2.7-2.7,5.08t-2.38,4.63a14.54,14.54,0,0,1-2.38,3.41q.58-4.31.77-8.42a3.33,3.33,0,0,0,1.22-1.86q.32-.84.71-1.74a.46.46,0,0,0,.07-.51v-.77a1.41,1.41,0,0,0-.19-.71,1.72,1.72,0,0,0-.77-.19,3.2,3.2,0,0,0-1.48,1.09,5.61,5.61,0,0,0-1.35,1.86q-1.22,4-2.44,7.91a9.86,9.86,0,0,1-5.79,5.85,11.55,11.55,0,0,1-7.07.83,22.28,22.28,0,0,1-5.59-3.41q-3-2.25-6.75-5.08a31,31,0,0,0-2.38-2.38,13.82,13.82,0,0,0-1.8-2.38,7.43,7.43,0,0,1-1-3.28,6.16,6.16,0,0,1,.39-3.09,5.47,5.47,0,0,1,4-3.6,13.09,13.09,0,0,1,7-.51,66.15,66.15,0,0,1,3.34,8.23,2.83,2.83,0,0,0-2.38.19,3.17,3.17,0,0,0-.64,1,1.9,1.9,0,0,0,0,1.67,5.37,5.37,0,0,0,1.09,2.06,6.84,6.84,0,0,1,1.09,1.22,2.8,2.8,0,0,1,.9.77,1.78,1.78,0,0,1,.9.45l1.29.26a2,2,0,0,1,.9-.19,2.16,2.16,0,0,0,.84-.45,9.24,9.24,0,0,1,.64-1,78.06,78.06,0,0,1,2.76-7.39,14.33,14.33,0,0,1,4.11-3.21q2.57-1.61,4.76-3l4.5-2.7a35.65,35.65,0,0,1,4.31-2.12A7.8,7.8,0,0,1,165.2,181.75Zm5.53-17.81q-.45,3.54-1.22,7.33a72.5,72.5,0,0,1-7.14,4.6v-7.68A88.59,88.59,0,0,0,170.73,163.94Zm-2.12-24.37q3.67,2.06,3.54,5.4t-3.41,7.2a67.19,67.19,0,0,1-7.14,8,46.29,46.29,0,0,1-9.39,7.27q-4.89,3-13.5,3.41a55.81,55.81,0,0,1-15-2.25q-6.36-2.19-13.44-5.21-6.36-3-12.6-6.62a35.13,35.13,0,0,1-9.39-7.65q-2.89-4.11-1.16-7.46t6.36-5.34a51.55,51.55,0,0,1,13-2.44,114.47,114.47,0,0,1,18.84,0q11.12.26,19.29.77,8.36.58,14.4,1.61A25.49,25.49,0,0,1,168.6,139.58ZM156.13,92V84.1q5.91-.73,11.76-1.67.45,3.66.64,7.84Q162.37,91.27,156.13,92Zm-4.76-64.71a45,45,0,0,1,4.24,6.56q-4.27.18-8.55.32V27.33ZM99.88,58.64a29.91,29.91,0,0,0,2.83-18.51q27.84.45,55.29-1.48,1.41,3.22,2.83,6.62a313.5,313.5,0,0,1-44.36,2.06,37.36,37.36,0,0,1-1.8,11.38Q107.66,58.58,99.88,58.64Zm4.76,22.69q-9.06-.51-19.09-.58A215.49,215.49,0,0,0,97.89,62.37a334.88,334.88,0,0,0,67.05-2.7q.58,3.41,1.22,7.07a245.58,245.58,0,0,1-55.87,3Q107.66,75.55,104.64,81.33ZM73,105.38a55.1,55.1,0,0,1,2.57-7.91q48.34,5.85,93-1.22.39,4.37.84,9.19a194.57,194.57,0,0,1-55.55,15.94q31.18,2,57.09-3.79.45,4.18.64,8.1-46,9.45-96.5.84a66.75,66.75,0,0,1-2.44-9.32q27.84-3.21,58-8.49Q101,107.69,73,105.38ZM78.41,92a76.72,76.72,0,0,1,4.44-7.39,331.87,331.87,0,0,0,69.3-.06v7.94A333.17,333.17,0,0,1,78.41,92Zm22.31-57.15a27.35,27.35,0,0,0-5.21-7.52h48.15v7Q122.31,35,100.72,34.85Z"/><path class="cls-5" d="M48,96.2h3.55l3.12,10.2L58,96.16h2.84l3.38,10.24,3.12-10.2h3.46l-5.14,15.17H62.79l-3.4-9.85L56,111.37H53.11Z"/><path class="cls-5" d="M73.28,96.2H84.63v2.95H76.57v3.06h7.1v2.95h-7.1v3.16h8.18v2.95H73.28Z"/><path class="cls-5" d="M87.69,96.2h3.05l7.06,9.27V96.2h3.27v15.06H98.26L91,101.69v9.57H87.69Z"/><path class="cls-5" d="M108.2,99.26h-4.58V96.2h12.48v3.06h-4.58v12H108.2Z"/><path class="cls-5" d="M117.47,96.2H121l3.12,10.2,3.38-10.24h2.84l3.38,10.24,3.12-10.2h3.46l-5.14,15.17h-2.88l-3.4-9.85-3.4,9.85h-2.88Z"/><path class="cls-5" d="M141.25,103.78v0a8,8,0,0,1,16,0v0a8,8,0,0,1-16,0Zm12.54,0v0A4.58,4.58,0,0,0,149.23,99a4.5,4.5,0,0,0-4.52,4.69v0a4.57,4.57,0,0,0,4.56,4.73A4.5,4.5,0,0,0,153.79,103.78Z"/><path class="cls-5" d="M160.2,96.2h6.88a6,6,0,0,1,4.39,1.53,4.73,4.73,0,0,1,1.29,3.44v0a4.68,4.68,0,0,1-3.23,4.67l3.68,5.38h-3.87l-3.23-4.82h-2.6v4.82H160.2Zm6.67,7.31c1.62,0,2.54-.86,2.54-2.13v0c0-1.42-1-2.15-2.6-2.15h-3.29v4.32Z"/><path class="cls-5" d="M179.27,99.26h-4.58V96.2h12.48v3.06h-4.58v12h-3.31Z"/><path class="cls-5" d="M189.7,96.2H193v6h6.11v-6h3.31v15.06h-3.31v-6H193v6H189.7Z"/><path class="cls-5" d="M51.22,129.66l2.09-2.32a3.72,3.72,0,0,0,2.75,1.51c1.25,0,2-.75,2-2.5v-9.7h3.4v9.85a5.47,5.47,0,0,1-1.42,4,5.38,5.38,0,0,1-3.91,1.4A6.16,6.16,0,0,1,51.22,129.66Z"/><path class="cls-5" d="M64.63,125.25v-8.61h3.31v8.52c0,2.45,1.23,3.72,3.25,3.72s3.25-1.23,3.25-3.61v-8.63h3.31v8.5c0,4.56-2.56,6.8-6.61,6.8S64.63,129.68,64.63,125.25Z"/><path class="cls-5" d="M81.13,116.65h3.05l7.06,9.27v-9.27h3.27v15.06H91.69l-7.29-9.57v9.57H81.13Z"/><path class="cls-5" d="M98.28,116.65h3.31v15.06H98.28Z"/><path class="cls-5" d="M104.69,124.22v0a8,8,0,0,1,16,0v0a8,8,0,0,1-16,0Zm12.54,0v0a4.58,4.58,0,0,0-4.56-4.73,4.5,4.5,0,0,0-4.52,4.69v0a4.57,4.57,0,0,0,4.56,4.73A4.5,4.5,0,0,0,117.23,124.22Z"/><path class="cls-5" d="M123.65,116.65h6.88a6,6,0,0,1,4.39,1.53,4.73,4.73,0,0,1,1.29,3.44v0a4.68,4.68,0,0,1-3.23,4.67l3.68,5.38h-3.87l-3.23-4.82H127v4.82h-3.31Zm6.67,7.32c1.62,0,2.54-.86,2.54-2.13v0c0-1.42-1-2.15-2.6-2.15H127V124Z"/><path class="cls-5" d="M145.66,116.65H149v6h6.11v-6h3.31v15.06h-3.31v-6H149v6h-3.31Z"/><path class="cls-5" d="M162.16,116.65h3.31v15.06h-3.31Z"/><path class="cls-5" d="M168.57,124.22v0a7.73,7.73,0,0,1,7.9-7.79,8.27,8.27,0,0,1,5.92,2.07L180.3,121a5.55,5.55,0,0,0-3.94-1.53,4.52,4.52,0,0,0-4.32,4.69v0A4.51,4.51,0,0,0,176.6,129a5.28,5.28,0,0,0,3.12-.9V125.9h-3.33V123h6.54v6.54a9.77,9.77,0,0,1-6.43,2.39A7.54,7.54,0,0,1,168.57,124.22Z"/><path class="cls-5" d="M186.11,116.65h3.31v6h6.11v-6h3.31v15.06h-3.31v-6h-6.11v6h-3.31Z"/><path class="cls-5" d="M78.61,150l2-2.35a6.91,6.91,0,0,0,4.5,1.83c1.36,0,2.17-.54,2.17-1.42v0c0-.84-.52-1.27-3-1.92-3-.77-5-1.61-5-4.6v0c0-2.73,2.19-4.54,5.27-4.54a8.72,8.72,0,0,1,5.59,1.92l-1.72,2.5a7.07,7.07,0,0,0-3.91-1.48c-1.27,0-1.94.58-1.94,1.31v0c0,1,.65,1.31,3.25,2,3.06.8,4.78,1.89,4.78,4.52v0c0,3-2.28,4.67-5.53,4.67A9.59,9.59,0,0,1,78.61,150Z"/><path class="cls-5" d="M92.75,144.66v0a7.65,7.65,0,0,1,7.85-7.79,7.77,7.77,0,0,1,5.94,2.32l-2.11,2.43a5.56,5.56,0,0,0-3.85-1.7,4.46,4.46,0,0,0-4.37,4.69v0a4.47,4.47,0,0,0,4.37,4.73,5.44,5.44,0,0,0,4-1.76l2.11,2.13a7.69,7.69,0,0,1-6.17,2.69A7.6,7.6,0,0,1,92.75,144.66Z"/><path class="cls-5" d="M109.29,137.09h3.31v6h6.11v-6H122v15.06h-3.31v-6h-6.11v6h-3.31Z"/><path class="cls-5" d="M125,144.66v0a8,8,0,0,1,16,0v0a8,8,0,0,1-16,0Zm12.54,0v0a4.58,4.58,0,0,0-4.56-4.73,4.5,4.5,0,0,0-4.52,4.69v0a4.57,4.57,0,0,0,4.56,4.73A4.51,4.51,0,0,0,137.52,144.66Z"/><path class="cls-5" d="M143.27,144.66v0a8,8,0,0,1,16,0v0a8,8,0,0,1-16,0Zm12.54,0v0a4.58,4.58,0,0,0-4.56-4.73,4.5,4.5,0,0,0-4.52,4.69v0a4.57,4.57,0,0,0,4.56,4.73A4.51,4.51,0,0,0,155.81,144.66Z"/><path class="cls-5" d="M162.22,137.09h3.31v12H173v3H162.22Z"/><path class="cls-5" d="M83,165v0a5.37,5.37,0,0,1,5.51-5.47,5.45,5.45,0,0,1,4.17,1.63l-1.48,1.71a3.9,3.9,0,0,0-2.7-1.19A3.13,3.13,0,0,0,85.41,165v0a3.14,3.14,0,0,0,3.07,3.32,3.82,3.82,0,0,0,2.78-1.24l1.48,1.5a5.41,5.41,0,0,1-4.34,1.89A5.34,5.34,0,0,1,83,165Z"/><path class="cls-5" d="M93.87,167.95v0c0-1.77,1.35-2.58,3.26-2.58a5.76,5.76,0,0,1,2,.33v-.14c0-1-.59-1.48-1.74-1.48a6,6,0,0,0-2.24.44l-.57-1.75a7.15,7.15,0,0,1,3.14-.65,3.74,3.74,0,0,1,2.73.91,3.53,3.53,0,0,1,.88,2.58v4.7H99.09v-.88a3.11,3.11,0,0,1-2.45,1A2.5,2.5,0,0,1,93.87,167.95Zm5.27-.53V167a3.55,3.55,0,0,0-1.46-.3c-1,0-1.59.39-1.59,1.12v0c0,.62.51,1,1.25,1C98.41,168.84,99.14,168.25,99.14,167.42Z"/><path class="cls-5" d="M103.4,159.25h2.3v11h-2.3Z"/><path class="cls-5" d="M107.79,167.42v-5.24h2.29v4.52c0,1.09.51,1.65,1.39,1.65s1.44-.56,1.44-1.65v-4.52h2.29v8.1h-2.29v-1.15a2.87,2.87,0,0,1-2.37,1.3C108.81,170.43,107.79,169.28,107.79,167.42Z"/><path class="cls-5" d="M117.27,162.18h2.3v1.15a2.89,2.89,0,0,1,2.39-1.3,2.43,2.43,0,0,1,2.28,1.28,3.33,3.33,0,0,1,2.66-1.28c1.71,0,2.73,1,2.73,3v5.27h-2.3v-4.52c0-1.09-.48-1.65-1.34-1.65s-1.39.56-1.39,1.65v4.52H122.3v-4.52c0-1.09-.48-1.65-1.35-1.65s-1.39.56-1.39,1.65v4.52h-2.3Z"/><path class="cls-5" d="M131.22,166.27v0a4,4,0,0,1,4-4.21c2.71,0,3.94,2.1,3.94,4.4,0,.18,0,.39,0,.6H133.5a1.88,1.88,0,0,0,2,1.59,2.65,2.65,0,0,0,2-.83l1.31,1.16a4.28,4.28,0,0,1-7.54-2.67Zm5.71-.68a1.74,1.74,0,0,0-1.71-1.72,1.81,1.81,0,0,0-1.75,1.72Z"/><path class="cls-5" d="M141.25,168v-3.84h-1v-2h1v-2.07h2.3v2.07h1.9v2h-1.9v3.46c0,.53.23.79.74.79a2.33,2.33,0,0,0,1.13-.29v1.84a3.39,3.39,0,0,1-1.81.47C142.21,170.41,141.25,169.85,141.25,168Z"/><path class="cls-5" d="M146.51,171.77c1-.11,1.56-.63,1.48-1.5h-.94v-2.42h2.45v2c0,2-1,2.79-2.79,2.83Z"/><path class="cls-5" d="M156.34,159.7h2.33v10.57h-2.33Z"/><path class="cls-5" d="M161.31,159.7h2.33v8.46h5.27v2.12h-7.6Z"/></g></g></svg>