<svg xmlns="http://www.w3.org/2000/svg" viewBox="0 0 250 250"><defs><style>.cls-1{isolation:isolate;}.cls-2{fill:#24ae5f;}.cls-3{fill:#71c063;}.cls-3,.cls-5{fill-rule:evenodd;}.cls-4{opacity:0.15;mix-blend-mode:multiply;}.cls-5{fill:#231f20;}.cls-6{fill:#fff;}</style></defs><title>Artboard 21</title><g class="cls-1"><g id="Layer_1" data-name="Layer 1"><rect class="cls-2" x="-0.23" y="0.09" width="249.99" height="250"/><path class="cls-3" d="M73.85,12.09l.24.58L70.23,25.83l-.2,7.7-7.29,4.05-4.25,7.29,6.28,11.75L61.93,67.16l1.42,2.63-1.62,6.69,2.63,4.46,5.06,9.32L67.8,96.53v.81l3.44,6.28,1.22-2.84.81,3.24L71,110.51l2.63,1.22-1.42,8.71,8.51,3.24-4.05,1.62,1.22,6.89.2,8.3,4.05,11.35L86,155.68v6.07L88.67,166l-3,5.06,2.23,8.51,8.51,1.62L102,183l1.22,3,3-.81,2.43,3.44,1.22,5.67L114.6,196l.81,4.66,4.05,1.42,7.09-.61-.81,6.89,3.24-.2-1,4.05,4.86,3.44-1.42,7.09,2.43,3.85-2.23,3.24,3.24,1.82,44.05,4.29,4.48-4.66-6.14-6.14,1.75-1.75L177.25,219l4.39-1.32v-7l12.28-5.7-9.21-9.21.44-4.83L119.35,85.65l18.86-57.46L82.95,12.4l-9.1-.31Z"/><g class="cls-4"><polygon class="cls-5" points="114.92 83.35 115.12 88.52 92.07 93.69 91.34 86.1 114.92 83.35"/><path class="cls-5" d="M121.82,148.49a17.54,17.54,0,0,0,2.65-1.19,12.5,12.5,0,0,0,2.45-1.79,13.13,13.13,0,0,0,1.89-2.09q.46-1,.93-2.09a1.76,1.76,0,0,0-.2-1.79q-8.13,4.61-12.94,7.5a13,13,0,0,0,1.26,1.23q.86.27,1.76.5A6.72,6.72,0,0,0,121.82,148.49Zm29.45,53.14a37.43,37.43,0,0,0,6.7-5.8,66,66,0,0,0-8.43,2.09Q150.48,199.77,151.28,201.63Zm-3.52,2.65-2.65-5.17q-11.11,3.25-12.54,2.82-1.56-3-3.48-6.2,24.18-3.85,43.09-12.5,1.59,2.39,3.05,4.61-15,16.12-38.44,28.66a23,23,0,0,0-.63-5.11Q137.25,210.81,147.76,204.28Zm13.77-37.08q1.89,2.79,3.81,5.71a161.39,161.39,0,0,1-37.91,20.33,59.49,59.49,0,0,0-4.28-5.74A165.5,165.5,0,0,0,161.52,167.2ZM140.1,133.27a5.13,5.13,0,0,1,.8,3.78,10.2,10.2,0,0,1-1.86,4.41,23.29,23.29,0,0,1-4.91,4.91,49.12,49.12,0,0,1-6.9,4.58,28.27,28.27,0,0,1-6,2.79,51.38,51.38,0,0,1-7,1.59,173.24,173.24,0,0,0-15.46,11,13.89,13.89,0,0,1-5-2.82,121.94,121.94,0,0,1,11.61-9q-.63-.66-1.36-1.33-8.82,3.95-13.63,6a44.73,44.73,0,0,1-2.79-5.84q28.76-11.54,49.85-24.81Q138.8,130.94,140.1,133.27Zm7,11.58q1.49,2.49,3.28,5.24a205.07,205.07,0,0,0-16.15,20q9.49-5,21.1-12.44,1.82,2.72,3.68,5.67a174.76,174.76,0,0,1-39,20.4q-2.65-3-5.41-5.7,2.29-3.12,9.78-9.06,6.77-5.54,8.39-9.12A110.4,110.4,0,0,1,121,165.7q-9.39,4.25-14,5.8a50,50,0,0,0-5.37-3.55Q127.83,157.61,147.06,144.84Zm-36.85-28.79a15.26,15.26,0,0,0-3.91.8,22.43,22.43,0,0,0-4,1.92A36.4,36.4,0,0,0,98,122a13.43,13.43,0,0,0-2.92,3.85,5.78,5.78,0,0,0-.56,3.85,4.57,4.57,0,0,0,2.06,3.05,10.82,10.82,0,0,0,4.31,1.46,18.93,18.93,0,0,0,5.44-.2,14.87,14.87,0,0,0,4.71-1.39,27.84,27.84,0,0,0,3.91-2.65,18.9,18.9,0,0,0,3.52-3.52,8.31,8.31,0,0,0,2-3.55,4.88,4.88,0,0,0-.07-3.18,5.2,5.2,0,0,0-2.12-2.26,14.1,14.1,0,0,0-3.72-1.19A14.88,14.88,0,0,0,110.21,116.05ZM87.59,119.1a37,37,0,0,1,8.76-5.51,42.54,42.54,0,0,1,8.39-3.28,28.47,28.47,0,0,1,7.56-1.13,42.43,42.43,0,0,1,8.29.27,16.56,16.56,0,0,1,6,2.16,10.91,10.91,0,0,1,3.68,3.78,8.17,8.17,0,0,1,1.06,5,13.18,13.18,0,0,1-2.65,5.94,44.28,44.28,0,0,1-7.1,6.9,69.21,69.21,0,0,1-8.16,5.61,39.09,39.09,0,0,1-10.18,3.48,38.2,38.2,0,0,1-11.11.73,10.8,10.8,0,0,1-6.77-3.28,13.19,13.19,0,0,1-2.75-6.4,16.15,16.15,0,0,1,.56-7.5A14.77,14.77,0,0,1,87.59,119.1Zm-6.27-16.39q.4-2.75.83-4.94A334.7,334.7,0,0,0,117,92.1q2.92,5.21,6.5,11.38-3.22.86-8.66,2.39-1.76-4.48-3.12-8.19-3,.66-5.74,1.23.76,3,1.79,6.8-3.45,1-7.93,2-.63-4.08-1-7.36Q88.16,101.92,81.32,102.72Z"/><path class="cls-5" d="M119.5,70.54l-1,4-32.61.73L85,82.68l-12.34.76.76-13.17ZM93.93,60.46l11.81-1L94.46,56.71Zm28.56-1.86-1.06,4.21L73.56,68l.33-5.94,7.33-.63.66-7.89-7.43-1.82.4-6.87Zm-26-34.83a48,48,0,0,1,10.61,1.79,44.39,44.39,0,0,1,9.12,3.68,25,25,0,0,1,6.4,4.64A14,14,0,0,1,126.1,39a8,8,0,0,1,.3,4.58A8.84,8.84,0,0,1,124,47.39a14.74,14.74,0,0,1-5.14,2.92L113,45.67a8.08,8.08,0,0,0,3-1.72,4.48,4.48,0,0,0,1.33-2.26,5,5,0,0,0-.3-2.59,9.38,9.38,0,0,0-2.09-2.79A18.41,18.41,0,0,0,111,33.79,23.5,23.5,0,0,0,106,32a18.17,18.17,0,0,0-5.41-.66,15.12,15.12,0,0,0-5,.53,8.43,8.43,0,0,0-3.81,1.82,4.34,4.34,0,0,0-1.46,2.65A5.06,5.06,0,0,0,91,39.46a11.28,11.28,0,0,0,3.05,3l-9.82,3a24.8,24.8,0,0,1-6.57-5.84,9.86,9.86,0,0,1-2.22-6.24,7.44,7.44,0,0,1,3-5.41,15.81,15.81,0,0,1,7.7-3.55A33.13,33.13,0,0,1,96.51,23.77Z"/></g><path class="cls-6" d="M60.88,96.37H72.24v2.95H64.17v3.06h7.1v2.95h-7.1v3.16h8.18v2.95H60.88Z"/><path class="cls-6" d="M75.29,96.37h3.57l4,6.37,4-6.37h3.57v15.06H87.06V101.6L82.83,108h-.09l-4.2-6.37v9.77H75.29Z"/><path class="cls-6" d="M94,96.37h3.57l4,6.37,4-6.37H109v15.06h-3.29V101.6L101.5,108h-.09l-4.2-6.37v9.77H94Z"/><path class="cls-6" d="M112.65,96.37H124v2.95h-8.07v3.06H123v2.95h-7.1v3.16h8.18v2.95H112.65Z"/><path class="cls-6" d="M127.06,96.37h6.88a6,6,0,0,1,4.39,1.53,4.73,4.73,0,0,1,1.29,3.44v0a4.68,4.68,0,0,1-3.23,4.67l3.68,5.38h-3.87L133,106.61h-2.6v4.82h-3.31Zm6.67,7.31c1.61,0,2.54-.86,2.54-2.13v0c0-1.42-1-2.15-2.6-2.15h-3.29v4.32Z"/><path class="cls-6" d="M146.13,99.43h-4.58V96.37H154v3.06h-4.58v12h-3.31Z"/><path class="cls-6" d="M155.25,103.95v0a8,8,0,0,1,16,0v0a8,8,0,0,1-16,0Zm12.54,0v0a4.58,4.58,0,0,0-4.56-4.73,4.5,4.5,0,0,0-4.52,4.69v0a4.57,4.57,0,0,0,4.56,4.73A4.5,4.5,0,0,0,167.79,103.95Z"/><path class="cls-6" d="M174.21,96.37h3.05l7.06,9.27V96.37h3.27v15.06h-2.82l-7.29-9.57v9.57h-3.27Z"/><path class="cls-6" d="M50.21,116.81H61.57v2.95H53.5v3.06h7.1v2.95H53.5v3.16h8.18v2.95H50.21Z"/><path class="cls-6" d="M64.62,116.81h3.31v12h7.51v3H64.62Z"/><path class="cls-6" d="M77.94,116.81H89.3v2.95H81.23v3.06h7.1v2.95h-7.1v3.16h8.18v2.95H77.94Z"/><path class="cls-6" d="M92.36,116.81h3.57l4,6.37,4-6.37h3.57v15.06h-3.29V122l-4.24,6.43H99.8l-4.2-6.37v9.77H92.36Z"/><path class="cls-6" d="M111,116.81h11.36v2.95h-8.07v3.06h7.1v2.95h-7.1v3.16h8.18v2.95H111Z"/><path class="cls-6" d="M125.45,116.81h3.05l7.06,9.27v-9.27h3.27v15.06H136l-7.29-9.57v9.57h-3.27Z"/><path class="cls-6" d="M146,119.87h-4.58v-3.06h12.48v3.06h-4.58v12H146Z"/><path class="cls-6" d="M159.62,116.71h3.06l6.45,15.17h-3.46l-1.38-3.38h-6.37l-1.38,3.38h-3.38Zm3.49,8.86-2-4.88-2,4.88Z"/><path class="cls-6" d="M171.45,116.81h6.88a6,6,0,0,1,4.39,1.53,4.73,4.73,0,0,1,1.29,3.44v0a4.68,4.68,0,0,1-3.23,4.67l3.68,5.38H180.6l-3.23-4.82h-2.6v4.82h-3.31Zm6.67,7.32c1.61,0,2.54-.86,2.54-2.13v0c0-1.42-1-2.15-2.6-2.15h-3.29v4.32Z"/><path class="cls-6" d="M190.71,125.94l-5.79-9.12h3.87l3.59,6,3.66-6h3.76L194,125.87v6h-3.31Z"/><path class="cls-6" d="M77.06,150.12l2-2.35a6.91,6.91,0,0,0,4.5,1.83c1.35,0,2.17-.54,2.17-1.42v0c0-.84-.52-1.27-3-1.92-3-.77-5-1.61-5-4.6v0c0-2.73,2.19-4.54,5.27-4.54A8.72,8.72,0,0,1,88.53,139l-1.72,2.5A7.07,7.07,0,0,0,82.89,140c-1.27,0-1.94.58-1.94,1.31v0c0,1,.65,1.31,3.25,2,3.06.8,4.78,1.89,4.78,4.52v0c0,3-2.28,4.67-5.53,4.67A9.59,9.59,0,0,1,77.06,150.12Z"/><path class="cls-6" d="M91.2,144.83v0A7.65,7.65,0,0,1,99,137a7.77,7.77,0,0,1,5.94,2.32l-2.11,2.43a5.56,5.56,0,0,0-3.85-1.7,4.46,4.46,0,0,0-4.37,4.69v0A4.47,4.47,0,0,0,99,149.52a5.43,5.43,0,0,0,4-1.76l2.11,2.13a7.7,7.7,0,0,1-6.17,2.69A7.6,7.6,0,0,1,91.2,144.83Z"/><path class="cls-6" d="M107.74,137.26h3.31v6h6.11v-6h3.31v15.06h-3.31v-6h-6.11v6h-3.31Z"/><path class="cls-6" d="M123.43,144.83v0a8,8,0,0,1,16,0v0a8,8,0,0,1-16,0Zm12.54,0v0a4.58,4.58,0,0,0-4.56-4.73,4.5,4.5,0,0,0-4.52,4.69v0a4.57,4.57,0,0,0,4.56,4.73A4.5,4.5,0,0,0,136,144.83Z"/><path class="cls-6" d="M141.72,144.83v0a8,8,0,0,1,16,0v0a8,8,0,0,1-16,0Zm12.54,0v0a4.58,4.58,0,0,0-4.56-4.73,4.5,4.5,0,0,0-4.52,4.69v0a4.57,4.57,0,0,0,4.56,4.73A4.5,4.5,0,0,0,154.26,144.83Z"/><path class="cls-6" d="M160.67,137.26H164v12h7.51v3H160.67Z"/><path class="cls-6" d="M52.35,168.9l1.38-1.65a4.85,4.85,0,0,0,3.16,1.28c1,0,1.53-.38,1.53-1v0c0-.59-.36-.89-2.13-1.34-2.13-.54-3.5-1.13-3.5-3.23v0c0-1.92,1.54-3.19,3.7-3.19a6.12,6.12,0,0,1,3.93,1.34l-1.21,1.75a5,5,0,0,0-2.75-1c-.89,0-1.36.41-1.36.92v0c0,.7.45.92,2.28,1.39,2.15.56,3.35,1.33,3.35,3.17v0c0,2.1-1.6,3.28-3.88,3.28A6.73,6.73,0,0,1,52.35,168.9Z"/><path class="cls-6" d="M62,168.12v0c0-1.77,1.34-2.58,3.26-2.58a5.76,5.76,0,0,1,2,.33v-.14c0-1-.59-1.48-1.74-1.48a6,6,0,0,0-2.24.44l-.57-1.75a7.15,7.15,0,0,1,3.14-.65,3.74,3.74,0,0,1,2.73.91,3.53,3.53,0,0,1,.88,2.58v4.7H67.25v-.88a3.11,3.11,0,0,1-2.45,1A2.5,2.5,0,0,1,62,168.12Zm5.27-.53v-.41a3.55,3.55,0,0,0-1.46-.3c-1,0-1.59.39-1.59,1.12v0c0,.62.51,1,1.25,1C66.57,169,67.29,168.42,67.29,167.59Z"/><path class="cls-6" d="M71.45,162.35h2.3v1.15a2.87,2.87,0,0,1,2.37-1.3c1.74,0,2.75,1.15,2.75,3v5.24h-2.3v-4.52c0-1.09-.51-1.65-1.39-1.65s-1.44.56-1.44,1.65v4.52h-2.3Z"/><path class="cls-6" d="M85.63,159.87h4.91a3.82,3.82,0,0,1,2.76.94,2.43,2.43,0,0,1,.72,1.8v0a2.46,2.46,0,0,1-1.39,2.28,2.58,2.58,0,0,1,2,2.6v0c0,1.93-1.57,2.9-4,2.9h-5ZM91.72,163c0-.7-.54-1.09-1.53-1.09H87.9v2.24H90c1,0,1.68-.33,1.68-1.12Zm-1.13,3.08H87.9v2.33h2.76c1,0,1.65-.36,1.65-1.15v0C92.31,166.52,91.78,166.08,90.58,166.08Z"/><path class="cls-6" d="M95.9,166.44v0a4,4,0,0,1,4-4.21c2.7,0,3.94,2.1,3.94,4.4,0,.18,0,.39,0,.6H98.18a1.88,1.88,0,0,0,2,1.59,2.65,2.65,0,0,0,2-.83l1.31,1.16a4.28,4.28,0,0,1-7.54-2.67Zm5.71-.68A1.74,1.74,0,0,0,99.9,164a1.8,1.8,0,0,0-1.75,1.72Z"/><path class="cls-6" d="M105.55,162.35h2.3V164a2.5,2.5,0,0,1,2.58-1.78v2.4h-.12c-1.53,0-2.46.92-2.46,2.85v3h-2.3Z"/><path class="cls-6" d="M111.87,162.35h2.3v1.15a2.87,2.87,0,0,1,2.37-1.3c1.74,0,2.75,1.15,2.75,3v5.24H117v-4.52c0-1.09-.51-1.65-1.39-1.65s-1.44.56-1.44,1.65v4.52h-2.3Z"/><path class="cls-6" d="M120.8,168.12v0c0-1.77,1.34-2.58,3.26-2.58a5.76,5.76,0,0,1,2,.33v-.14c0-1-.59-1.48-1.74-1.48a6,6,0,0,0-2.24.44l-.57-1.75a7.15,7.15,0,0,1,3.14-.65,3.74,3.74,0,0,1,2.73.91,3.53,3.53,0,0,1,.88,2.58v4.7H126v-.88a3.11,3.11,0,0,1-2.45,1A2.5,2.5,0,0,1,120.8,168.12Zm5.27-.53v-.41a3.55,3.55,0,0,0-1.46-.3c-1,0-1.59.39-1.59,1.12v0c0,.62.51,1,1.25,1C125.34,169,126.07,168.42,126.07,167.59Z"/><path class="cls-6" d="M130.22,162.35h2.3V164a2.5,2.5,0,0,1,2.58-1.78v2.4H135c-1.53,0-2.46.92-2.46,2.85v3h-2.3Z"/><path class="cls-6" d="M136,166.41v0c0-2.7,1.77-4.18,3.69-4.18a3.11,3.11,0,0,1,2.52,1.21v-4h2.3v11h-2.3v-1.16a3,3,0,0,1-2.52,1.31C137.82,170.59,136,169.11,136,166.41Zm6.24,0v0a2,2,0,1,0-3.94,0v0a2,2,0,1,0,3.94,0Z"/><path class="cls-6" d="M146.63,159.42H149v2h-2.42Zm.06,2.93H149v8.1h-2.3Z"/><path class="cls-6" d="M151.14,162.35h2.3v1.15a2.87,2.87,0,0,1,2.37-1.3c1.74,0,2.75,1.15,2.75,3v5.24h-2.3v-4.52c0-1.09-.51-1.65-1.39-1.65s-1.44.56-1.44,1.65v4.52h-2.3Z"/><path class="cls-6" d="M160.16,166.44v0a4.38,4.38,0,0,1,8.76,0v0a4.25,4.25,0,0,1-4.4,4.21A4.21,4.21,0,0,1,160.16,166.44Zm6.5,0v0a2.15,2.15,0,0,0-2.13-2.24,2.07,2.07,0,0,0-2.1,2.21v0a2.15,2.15,0,0,0,2.13,2.24A2.07,2.07,0,0,0,166.66,166.44Z"/><path class="cls-6" d="M169.65,171.94c1-.11,1.56-.63,1.48-1.5h-.94V168h2.45v2c0,2-1,2.79-2.79,2.83Z"/><path class="cls-6" d="M178.91,165.19v0a5.37,5.37,0,0,1,5.51-5.47,5.45,5.45,0,0,1,4.17,1.63L187.11,163a3.9,3.9,0,0,0-2.7-1.19,3.13,3.13,0,0,0-3.07,3.29v0a3.14,3.14,0,0,0,3.07,3.32,3.82,3.82,0,0,0,2.78-1.24l1.48,1.5a5.41,5.41,0,0,1-4.34,1.89A5.34,5.34,0,0,1,178.91,165.19Z"/><path class="cls-6" d="M194.15,159.79h2.14l4.53,10.65h-2.43l-1-2.37H193l-1,2.37h-2.37ZM196.6,166l-1.41-3.43-1.4,3.43Z"/></g></g></svg>