<svg xmlns="http://www.w3.org/2000/svg" viewBox="0 0 250 250"><defs><style>.cls-1{isolation:isolate;}.cls-2{fill:#c03b2b;}.cls-3{fill:#e64c3c;}.cls-4{fill:#231f20;fill-rule:evenodd;opacity:0.15;mix-blend-mode:multiply;}.cls-5{fill:#fff;}</style></defs><title>Artboard 9</title><g class="cls-1"><g id="Layer_1" data-name="Layer 1"><rect class="cls-2" width="249.99" height="250"/><path class="cls-3" d="M113.39,240.94c1.06-1.61,2.3-3.48,3.76-5.66q8.11-11.63,8.11-14.09a3.72,3.72,0,0,0-2-3.28q-2-1.31-2-2.29,0-1.8,3.6-3.69,3.52-2,3.52-3.85a3.75,3.75,0,0,0-1.56-2.87,3.59,3.59,0,0,1-1.64-2.7,2.12,2.12,0,0,1,1.23-1.8,3.27,3.27,0,0,1,2-.66q3.44,0,5.9,4.1,2.46,4.26,4,4.26,4.67,0,5.65-3.69a34.9,34.9,0,0,0,.16-8.11q-.24-5.9.9-8.19,2-3.69,7.95-3.69,1.47,0,2.21-2.7a10.07,10.07,0,0,0,.74-3.85,20.36,20.36,0,0,0-2.29-8.19,21.28,21.28,0,0,1-2.21-8,11.14,11.14,0,0,1,1.31-5.16q1.56-2.87,3.19-3.44,1.72,1.56,4.1,6.39.82,1.8,6.14,1.8,7.78,0,8.27-1.23a28.31,28.31,0,0,1-.57-6.14,1.82,1.82,0,0,1,1-1.47,2.82,2.82,0,0,1,1.23-.74,9.71,9.71,0,0,1,4.18,1.39,11.89,11.89,0,0,0,3.52,1.23q4.34,0,11.14-10.89a9.65,9.65,0,0,1,4.91-5.49,39.36,39.36,0,0,1,6.55-2.21A5,5,0,0,0,210.2,133q1.23-3.28,1.8-4.59l-1-.66a23.45,23.45,0,0,1-4.59-4.51,46.5,46.5,0,0,1-1.15-6,23,23,0,0,0-2.54-8.19Q194.63,96.6,191.6,95.62a13.37,13.37,0,0,0-4.83,0,48.72,48.72,0,0,1-8.52.82q-8.52,0-15.73-16.55Q154.09,57,150.73,49.58q-3.85-10-5.82-14-2.95-6-6.88-7.13a34.71,34.71,0,0,0-6.72-.66,44.5,44.5,0,0,1-6.8-.57q-.24-.08-4.1-2a10.82,10.82,0,0,0-5.82-1.8q-.66,0-6,4.91Q103.47,33,101.5,33q-1,0-4.1-3.85-3.28-3.77-4.51-3.77-2.13,0-6.22,11.06-2.54,6.88-5.57,16.46L76.52,65.47q-2.46,7.37-2.46,11.3,0,4.59,3.19,13.35t3.11,11.63a9.57,9.57,0,0,1-1.31,3.69,13.51,13.51,0,0,0-1.23,3.11,4.75,4.75,0,0,0,1.64,2.87,5.85,5.85,0,0,1,1.64,3.85q0,2.62-3.28,4.51-3.28,2-3.28,3.52a10.23,10.23,0,0,0,.74,2.87,10.07,10.07,0,0,1,.57,2.87q0,5.73-1.8,8.36-1.8,2.46-5.82,2.46a4.67,4.67,0,0,1-.5-.07Z"/><path class="cls-4" d="M143.69,157.87,140.16,153l-23.1,23.59,13.52,12q-16.83,10.94-19,34L96.91,187.28,181,103.89Q191.21,118,199,124.53l-17.69,17.86L174,119l-21.38,21.05,6.72,6.47Q150.38,145.85,143.69,157.87ZM84.46,159l-5.9-13.52,75.69-63.15,5.08,8.93-44.81,60,50.13-54.14,7.54,7-78,76.34L89.79,170,128,114.13Zm-.33-24.49L85.2,122,147.53,71l3.93,7.29Zm3.77-29.41,20.31-15-.82-7.45L88.15,94.39l-3.11-6,58.24-34,4,8.11-58.81,51Zm24.33-26.29,1.23,4,14.42-13.19ZM92.49,41.39l28.26-7.7,9.42,3.19L102.48,58.51l32.85-17.45,5.82,5.49L84.63,86l-.82-9.26,27.28-14.33-26.21,9,2.29-10.08,30.72-20.23L90,52.28Z"/><path class="cls-5" d="M86.58,89.06h3.05l6.46,15.17H92.62l-1.38-3.38H84.88l-1.38,3.38H80.12Zm3.48,8.86-2-4.88-2,4.88Z"/><path class="cls-5" d="M100,92.22H95.4V89.16h12.48v3.06h-4.58v12H100Z"/><path class="cls-5" d="M110.42,89.16h3.31v6h6.11v-6h3.31v15.06h-3.31v-6h-6.11v6h-3.31Z"/><path class="cls-5" d="M126.77,89.16h11.36v2.95h-8.07v3.06h7.1v2.95h-7.1v3.16h8.18v2.95H126.77Z"/><path class="cls-5" d="M141.19,89.16h3.05l7.06,9.27V89.16h3.27v15.06h-2.82l-7.29-9.57v9.57h-3.27Z"/><path class="cls-5" d="M157.15,102l2-2.35a6.91,6.91,0,0,0,4.5,1.83c1.35,0,2.17-.54,2.17-1.42v0c0-.84-.52-1.27-3-1.92-3-.77-5-1.61-5-4.6v0c0-2.73,2.19-4.54,5.27-4.54a8.72,8.72,0,0,1,5.59,1.91l-1.72,2.5A7.07,7.07,0,0,0,163,91.87c-1.27,0-1.94.58-1.94,1.31v0c0,1,.65,1.31,3.25,2,3.06.8,4.78,1.89,4.78,4.52v0c0,3-2.28,4.67-5.53,4.67A9.59,9.59,0,0,1,157.15,102Z"/><path class="cls-5" d="M55.55,117.18v0a7.66,7.66,0,0,1,7.85-7.79,7.77,7.77,0,0,1,5.94,2.32l-2.11,2.43a5.56,5.56,0,0,0-3.85-1.7A4.46,4.46,0,0,0,59,117.09v0a4.47,4.47,0,0,0,4.37,4.73,5.44,5.44,0,0,0,4-1.76l2.11,2.13a7.7,7.7,0,0,1-6.17,2.69A7.6,7.6,0,0,1,55.55,117.18Z"/><path class="cls-5" d="M71,117.18v0a8,8,0,0,1,16,0v0a8,8,0,0,1-16,0Zm12.54,0v0A4.58,4.58,0,0,0,79,112.4a4.5,4.5,0,0,0-4.52,4.69v0A4.57,4.57,0,0,0,79,121.87,4.5,4.5,0,0,0,83.54,117.18Z"/><path class="cls-5" d="M90,109.6h3.57l4,6.37,4-6.37H105v15.06h-3.29v-9.83l-4.24,6.43H97.4l-4.2-6.37v9.77H90Z"/><path class="cls-5" d="M108.63,109.6h3.57l4,6.37,4-6.37h3.57v15.06H120.4v-9.83l-4.24,6.43h-.09l-4.2-6.37v9.77h-3.25Z"/><path class="cls-5" d="M127.07,118.21V109.6h3.31v8.52c0,2.45,1.23,3.72,3.25,3.72s3.25-1.23,3.25-3.61V109.6h3.31v8.5c0,4.56-2.56,6.8-6.6,6.8S127.07,122.64,127.07,118.21Z"/><path class="cls-5" d="M143.58,109.6h3.05l7.06,9.27V109.6H157v15.06h-2.82l-7.29-9.57v9.57h-3.27Z"/><path class="cls-5" d="M160.72,109.6H164v15.06h-3.31Z"/><path class="cls-5" d="M171.31,112.66h-4.58V109.6h12.48v3.06h-4.58v12h-3.31Z"/><path class="cls-5" d="M186,118.73l-5.79-9.12h3.87l3.59,6,3.66-6h3.76l-5.79,9.06v6H186Z"/><path class="cls-5" d="M77.7,142.91l2-2.35a6.91,6.91,0,0,0,4.5,1.83c1.36,0,2.17-.54,2.17-1.42v0c0-.84-.52-1.27-3-1.92-3-.77-5-1.61-5-4.6v0c0-2.73,2.2-4.54,5.27-4.54a8.71,8.71,0,0,1,5.59,1.92l-1.72,2.5a7.07,7.07,0,0,0-3.92-1.48c-1.27,0-1.94.58-1.94,1.31v0c0,1,.64,1.31,3.25,2,3.05.8,4.78,1.89,4.78,4.52v0c0,3-2.28,4.67-5.53,4.67A9.58,9.58,0,0,1,77.7,142.91Z"/><path class="cls-5" d="M91.84,137.62v0a7.65,7.65,0,0,1,7.85-7.79,7.77,7.77,0,0,1,5.94,2.32l-2.11,2.43a5.56,5.56,0,0,0-3.85-1.7,4.46,4.46,0,0,0-4.37,4.69v0a4.47,4.47,0,0,0,4.37,4.73,5.43,5.43,0,0,0,4-1.76l2.11,2.13a7.7,7.7,0,0,1-6.18,2.69A7.6,7.6,0,0,1,91.84,137.62Z"/><path class="cls-5" d="M108.38,130h3.31v6h6.11v-6h3.31v15.06h-3.31v-6H111.7v6h-3.31Z"/><path class="cls-5" d="M124.07,137.62v0a8,8,0,0,1,16,0v0a8,8,0,0,1-16,0Zm12.54,0v0a4.58,4.58,0,0,0-4.56-4.73,4.5,4.5,0,0,0-4.52,4.69v0a4.57,4.57,0,0,0,4.56,4.73A4.5,4.5,0,0,0,136.61,137.62Z"/><path class="cls-5" d="M142.36,137.62v0a8,8,0,0,1,16,0v0a8,8,0,0,1-16,0Zm12.54,0v0a4.58,4.58,0,0,0-4.56-4.73,4.5,4.5,0,0,0-4.52,4.69v0a4.57,4.57,0,0,0,4.56,4.73A4.5,4.5,0,0,0,154.9,137.62Z"/><path class="cls-5" d="M161.31,130h3.31v12h7.51v3H161.31Z"/><path class="cls-5" d="M87,152.58h2.15l4.53,10.65H91.27l-1-2.37H85.83l-1,2.37H82.49Zm2.45,6.22-1.41-3.43-1.4,3.43Z"/><path class="cls-5" d="M95,160.94V157.1H94v-2h1v-2.07h2.3v2.07h1.9v2h-1.9v3.46c0,.53.23.79.74.79a2.34,2.34,0,0,0,1.13-.29v1.84a3.39,3.39,0,0,1-1.81.47C96,163.37,95,162.81,95,160.94Z"/><path class="cls-5" d="M100.9,152.21h2.3v4.08a2.87,2.87,0,0,1,2.37-1.3c1.74,0,2.75,1.15,2.75,3v5.24H106v-4.52c0-1.09-.51-1.65-1.39-1.65s-1.44.56-1.44,1.65v4.52h-2.3Z"/><path class="cls-5" d="M109.92,159.23v0a4,4,0,0,1,4-4.21c2.7,0,3.94,2.1,3.94,4.4,0,.18,0,.39,0,.6H112.2a1.88,1.88,0,0,0,2,1.59,2.65,2.65,0,0,0,2-.83l1.31,1.16a4.28,4.28,0,0,1-7.54-2.67Zm5.71-.68a1.74,1.74,0,0,0-1.71-1.72,1.81,1.81,0,0,0-1.75,1.72Z"/><path class="cls-5" d="M119.57,155.14h2.3v1.15a2.87,2.87,0,0,1,2.37-1.3c1.74,0,2.75,1.15,2.75,3v5.24h-2.3v-4.52c0-1.09-.51-1.65-1.39-1.65s-1.44.56-1.44,1.65v4.52h-2.3Z"/><path class="cls-5" d="M128.35,162.16l1-1.51a4.57,4.57,0,0,0,2.55,1c.67,0,1-.24,1-.6v0c0-.5-.79-.66-1.68-.94-1.13-.33-2.42-.86-2.42-2.43v0c0-1.65,1.33-2.57,3-2.57a5.6,5.6,0,0,1,3,.94l-.88,1.59a4.8,4.8,0,0,0-2.19-.75c-.56,0-.85.24-.85.56v0c0,.45.77.67,1.65,1,1.13.38,2.45.92,2.45,2.4v0c0,1.8-1.34,2.61-3.1,2.61A5.67,5.67,0,0,1,128.35,162.16Z"/><path class="cls-5" d="M135.93,164.73c1-.11,1.56-.63,1.48-1.5h-.94v-2.42h2.45v2c0,2-1,2.79-2.79,2.83Z"/><path class="cls-5" d="M145.66,152.66h2.51l2.78,4.47,2.78-4.47h2.51v10.57h-2.31v-6.9l-3,4.52h-.06l-2.95-4.47v6.86h-2.28Z"/><path class="cls-5" d="M158.77,152.66h8v2.07h-5.67v2.15h5v2.07h-5v2.22h5.74v2.07h-8.05Z"/></g></g></svg>