<svg xmlns="http://www.w3.org/2000/svg" viewBox="0 0 250 250"><defs><style>.cls-1{isolation:isolate;}.cls-2{fill:#2880ba;}.cls-2,.cls-3,.cls-5{fill-rule:evenodd;}.cls-3{fill:#3b97d3;}.cls-4{opacity:0.15;mix-blend-mode:multiply;}.cls-5{fill:#231f20;}.cls-6{fill:#fff;}</style></defs><title>Artboard 22</title><g class="cls-1"><g id="Layer_1" data-name="Layer 1"><polyline class="cls-2" points="-0.41 0.12 249.58 0.12 249.58 250.12 -0.41 250.12"/><path class="cls-3" d="M79.11,10.59l.24.58L75.5,24.34,75.3,32,68,36.08l-4.25,7.29L70,55.13,67.19,65.66l1.42,2.63L67,75l2.63,4.46,5.06,9.32L73.07,95v.81l3.44,6.28,1.22-2.84.81,3.24L76.31,109l2.63,1.22-1.42,8.71L86,122.18,82,123.8l1.22,6.89.2,8.3,4.05,11.35,3.85,3.85v6.07l2.63,4.26-3,5.06,2.23,8.51,8.51,1.62,5.67,1.82,1.22,3,3-.81L114,187.2l1.22,5.67,4.66,1.62.81,4.66,4.05,1.42,7.09-.61-.81,6.89,3.24-.2-1,4.05,4.86,3.44-1.42,7.09,2.43,3.85-2.23,3.24,3.24,1.82,44.05,4.29,4.48-4.66-6.14-6.14,1.75-1.75-1.75-4.38,4.39-1.32v-7l12.28-5.7L190,194.24l.44-4.83L124.62,84.15l18.86-57.46L88.21,10.9l-9.1-.31Z"/><g class="cls-4"><polygon class="cls-5" points="120.19 81.85 120.39 87.02 97.33 92.2 96.61 84.6 120.19 81.85"/><path class="cls-5" d="M127.09,147a17.54,17.54,0,0,0,2.65-1.19A12.5,12.5,0,0,0,132.2,144a13.13,13.13,0,0,0,1.89-2.09q.46-1,.93-2.09a1.76,1.76,0,0,0-.2-1.79q-8.13,4.61-12.94,7.5a13,13,0,0,0,1.26,1.23q.86.27,1.76.5A6.72,6.72,0,0,0,127.09,147Zm29.45,53.14a37.43,37.43,0,0,0,6.7-5.8,66,66,0,0,0-8.43,2.09Q155.75,198.27,156.54,200.13ZM153,202.78l-2.65-5.17q-11.11,3.25-12.54,2.82-1.56-3-3.48-6.2,24.18-3.85,43.09-12.5,1.59,2.39,3.05,4.61Q165.5,202.45,142,215a23,23,0,0,0-.63-5.11Q142.51,209.32,153,202.78Zm13.77-37.08q1.89,2.79,3.81,5.71a161.39,161.39,0,0,1-37.91,20.33,59.49,59.49,0,0,0-4.28-5.74A165.5,165.5,0,0,0,166.79,165.7Zm-21.43-33.93a5.13,5.13,0,0,1,.8,3.78A10.2,10.2,0,0,1,144.3,140a23.29,23.29,0,0,1-4.91,4.91,49.12,49.12,0,0,1-6.9,4.58,28.27,28.27,0,0,1-6,2.79,51.38,51.38,0,0,1-7,1.59,173.24,173.24,0,0,0-15.46,11,13.89,13.89,0,0,1-5-2.82,121.94,121.94,0,0,1,11.61-9q-.63-.66-1.36-1.33-8.82,3.95-13.63,6a44.73,44.73,0,0,1-2.79-5.84q28.76-11.54,49.85-24.81Q144.07,129.45,145.36,131.77Zm7,11.58q1.49,2.49,3.28,5.24a205.07,205.07,0,0,0-16.15,20q9.49-5,21.1-12.44,1.82,2.72,3.68,5.67a174.76,174.76,0,0,1-39,20.4q-2.65-3-5.41-5.7,2.29-3.12,9.78-9.06,6.77-5.54,8.39-9.12a110.4,110.4,0,0,1-11.74,5.87q-9.39,4.25-14,5.8a50,50,0,0,0-5.37-3.55Q133.09,156.11,152.33,143.34Zm-36.85-28.79a15.26,15.26,0,0,0-3.91.8,22.43,22.43,0,0,0-4,1.92,36.4,36.4,0,0,0-4.28,3.18,13.43,13.43,0,0,0-2.92,3.85,5.78,5.78,0,0,0-.56,3.85,4.57,4.57,0,0,0,2.06,3.05,10.82,10.82,0,0,0,4.31,1.46,18.93,18.93,0,0,0,5.44-.2,14.87,14.87,0,0,0,4.71-1.39,27.84,27.84,0,0,0,3.91-2.65,18.9,18.9,0,0,0,3.52-3.52,8.31,8.31,0,0,0,2-3.55,4.88,4.88,0,0,0-.07-3.18,5.2,5.2,0,0,0-2.12-2.26,14.1,14.1,0,0,0-3.72-1.19A14.88,14.88,0,0,0,115.48,114.55ZM92.86,117.6a37,37,0,0,1,8.76-5.51,42.54,42.54,0,0,1,8.39-3.28,28.47,28.47,0,0,1,7.56-1.13,42.43,42.43,0,0,1,8.29.27,16.56,16.56,0,0,1,6,2.16,10.91,10.91,0,0,1,3.68,3.78,8.17,8.17,0,0,1,1.06,5,13.18,13.18,0,0,1-2.65,5.94,44.28,44.28,0,0,1-7.1,6.9,69.21,69.21,0,0,1-8.16,5.61,39.09,39.09,0,0,1-10.18,3.48,38.2,38.2,0,0,1-11.11.73,10.8,10.8,0,0,1-6.77-3.28,13.19,13.19,0,0,1-2.75-6.4,16.15,16.15,0,0,1,.56-7.5A14.77,14.77,0,0,1,92.86,117.6Zm-6.27-16.39q.4-2.75.83-4.94a334.7,334.7,0,0,0,34.83-5.67q2.92,5.21,6.5,11.38-3.22.86-8.66,2.39-1.76-4.48-3.12-8.19-3,.66-5.74,1.23.76,3,1.79,6.8-3.45,1-7.93,2-.63-4.08-1-7.36Q93.42,100.42,86.59,101.22Z"/><path class="cls-5" d="M124.77,69l-1,4-32.61.73-.86,7.43-12.34.76.76-13.17ZM99.19,59,111,58,99.72,55.21Zm28.56-1.86-1.06,4.21L78.83,66.52l.33-5.94L86.49,60l.66-7.89-7.43-1.82.4-6.87Zm-26-34.83a48,48,0,0,1,10.61,1.79,44.39,44.39,0,0,1,9.12,3.68,25,25,0,0,1,6.4,4.64,14,14,0,0,1,3.45,5.08,8,8,0,0,1,.3,4.58,8.84,8.84,0,0,1-2.39,3.85,14.74,14.74,0,0,1-5.14,2.92l-5.9-4.64a8.08,8.08,0,0,0,3-1.72,4.48,4.48,0,0,0,1.33-2.26,5,5,0,0,0-.3-2.59,9.38,9.38,0,0,0-2.09-2.79,18.41,18.41,0,0,0-3.81-2.52,23.5,23.5,0,0,0-5-1.79,18.17,18.17,0,0,0-5.41-.66,15.12,15.12,0,0,0-5,.53A8.43,8.43,0,0,0,97,32.19a4.34,4.34,0,0,0-1.46,2.65A5.06,5.06,0,0,0,96.31,38a11.28,11.28,0,0,0,3.05,3l-9.82,3A24.8,24.8,0,0,1,83,38.13a9.86,9.86,0,0,1-2.22-6.24,7.44,7.44,0,0,1,3-5.41,15.81,15.81,0,0,1,7.7-3.55A33.13,33.13,0,0,1,101.78,22.28Z"/></g><path class="cls-6" d="M29,109.42l2.09-2.32a3.72,3.72,0,0,0,2.75,1.51c1.25,0,2-.75,2-2.5V96.4h3.4v9.85a5.47,5.47,0,0,1-1.42,4,5.38,5.38,0,0,1-3.91,1.4A6.16,6.16,0,0,1,29,109.42Z"/><path class="cls-6" d="M41.95,104v0a7.79,7.79,0,0,1,8-7.79,7.72,7.72,0,0,1,8,7.75v0a7.79,7.79,0,0,1-8,7.79A7.72,7.72,0,0,1,41.95,104Zm12.54,0v0a4.58,4.58,0,0,0-4.56-4.73,4.5,4.5,0,0,0-4.52,4.69v0A4.57,4.57,0,0,0,50,108.66,4.5,4.5,0,0,0,54.49,104Z"/><path class="cls-6" d="M60.9,96.4h3.31v6h6.11v-6h3.31v15.06H70.33v-6H64.22v6H60.9Z"/><path class="cls-6" d="M77.26,96.4h3.05l7.06,9.27V96.4h3.27v15.06H87.82l-7.29-9.57v9.57H77.26Z"/><path class="cls-6" d="M100.71,96.4h3.57l4,6.37,4-6.37h3.57v15.06h-3.29v-9.83l-4.24,6.43h-.09l-4.2-6.37v9.77h-3.25Z"/><path class="cls-6" d="M124.55,96.29h3.06l6.45,15.17H130.6l-1.38-3.38h-6.37l-1.38,3.38H118.1Zm3.49,8.86-2-4.88-2,4.88Z"/><path class="cls-6" d="M136.38,96.4h6.88a6,6,0,0,1,4.39,1.53,4.73,4.73,0,0,1,1.29,3.44v0a4.68,4.68,0,0,1-3.23,4.67l3.68,5.38h-3.87l-3.23-4.82h-2.6v4.82h-3.31Zm6.67,7.31c1.62,0,2.54-.86,2.54-2.13v0c0-1.42-1-2.15-2.6-2.15H139.7v4.32Z"/><path class="cls-6" d="M150.91,109.27l2-2.35a6.91,6.91,0,0,0,4.5,1.83c1.35,0,2.17-.54,2.17-1.42v0c0-.84-.52-1.27-3-1.92-3-.77-5-1.61-5-4.6v0c0-2.73,2.2-4.54,5.27-4.54a8.72,8.72,0,0,1,5.59,1.91l-1.72,2.5a7.07,7.07,0,0,0-3.92-1.48c-1.27,0-1.94.58-1.94,1.31v0c0,1,.64,1.31,3.25,2,3.05.8,4.78,1.89,4.78,4.52v0c0,3-2.28,4.67-5.53,4.67A9.58,9.58,0,0,1,150.91,109.27Z"/><path class="cls-6" d="M165.71,96.4H169v6h6.11v-6h3.31v15.06h-3.31v-6H169v6h-3.31Z"/><path class="cls-6" d="M187.23,96.29h3.06l6.45,15.17h-3.46l-1.38-3.38h-6.37l-1.38,3.38h-3.38Zm3.49,8.86-2-4.88-2,4.88Z"/><path class="cls-6" d="M199.06,96.4h3.31v12h7.51v3H199.06Z"/><path class="cls-6" d="M212.38,96.4h3.31v12h7.51v3H212.38Z"/><path class="cls-6" d="M49,116.84H60.38v2.95H52.32v3.06h7.1v2.95h-7.1V129h8.18v2.95H49Z"/><path class="cls-6" d="M63.44,116.84h3.31v12h7.51v3H63.44Z"/><path class="cls-6" d="M76.76,116.84H88.12v2.95H80.05v3.06h7.1v2.95h-7.1V129h8.18v2.95H76.76Z"/><path class="cls-6" d="M91.18,116.84h3.57l4,6.37,4-6.37h3.57V131.9h-3.29v-9.83l-4.24,6.43h-.09l-4.2-6.37v9.77H91.18Z"/><path class="cls-6" d="M109.85,116.84h11.36v2.95h-8.07v3.06h7.1v2.95h-7.1V129h8.18v2.95H109.85Z"/><path class="cls-6" d="M124.27,116.84h3.05l7.06,9.27v-9.27h3.27V131.9h-2.82l-7.29-9.57v9.57h-3.27Z"/><path class="cls-6" d="M144.77,119.9h-4.58v-3.06h12.48v3.06h-4.58v12h-3.31Z"/><path class="cls-6" d="M158.44,116.73h3.06l6.45,15.17h-3.46l-1.38-3.38h-6.37l-1.38,3.38H152Zm3.49,8.86-2-4.88-2,4.88Z"/><path class="cls-6" d="M170.27,116.84h6.88a6,6,0,0,1,4.39,1.53,4.73,4.73,0,0,1,1.29,3.44v0a4.68,4.68,0,0,1-3.23,4.67l3.68,5.38h-3.87l-3.23-4.82h-2.6v4.82h-3.31Zm6.67,7.32c1.62,0,2.54-.86,2.54-2.13v0c0-1.42-1-2.15-2.6-2.15h-3.29v4.32Z"/><path class="cls-6" d="M189.53,126l-5.79-9.12h3.87l3.59,6,3.66-6h3.77l-5.79,9.06v6h-3.31Z"/><path class="cls-6" d="M75.88,150.15l2-2.35a6.91,6.91,0,0,0,4.5,1.83c1.35,0,2.17-.54,2.17-1.42v0c0-.84-.52-1.27-3-1.92-3-.77-5-1.61-5-4.6v0c0-2.73,2.2-4.54,5.27-4.54A8.71,8.71,0,0,1,87.35,139l-1.72,2.5A7.07,7.07,0,0,0,81.71,140c-1.27,0-1.94.58-1.94,1.31v0c0,1,.64,1.31,3.25,2,3.05.8,4.78,1.89,4.78,4.52v0c0,3-2.28,4.67-5.53,4.67A9.58,9.58,0,0,1,75.88,150.15Z"/><path class="cls-6" d="M90,144.86v0A7.65,7.65,0,0,1,97.87,137a7.77,7.77,0,0,1,5.94,2.32l-2.11,2.43a5.56,5.56,0,0,0-3.85-1.7,4.46,4.46,0,0,0-4.37,4.69v0a4.47,4.47,0,0,0,4.37,4.73,5.43,5.43,0,0,0,4-1.76l2.11,2.13a7.7,7.7,0,0,1-6.18,2.69A7.6,7.6,0,0,1,90,144.86Z"/><path class="cls-6" d="M106.56,137.28h3.31v6H116v-6h3.31v15.06H116v-6h-6.11v6h-3.31Z"/><path class="cls-6" d="M122.25,144.86v0a8,8,0,0,1,16,0v0a8,8,0,0,1-16,0Zm12.54,0v0a4.57,4.57,0,0,0-4.56-4.73,4.5,4.5,0,0,0-4.52,4.69v0a4.57,4.57,0,0,0,4.56,4.73A4.5,4.5,0,0,0,134.79,144.86Z"/><path class="cls-6" d="M140.54,144.86v0a8,8,0,0,1,16,0v0a8,8,0,0,1-16,0Zm12.54,0v0a4.57,4.57,0,0,0-4.56-4.73,4.5,4.5,0,0,0-4.52,4.69v0a4.57,4.57,0,0,0,4.56,4.73A4.5,4.5,0,0,0,153.08,144.86Z"/><path class="cls-6" d="M159.49,137.28h3.31v12h7.51v3H159.49Z"/><path class="cls-6" d="M60.07,159.9h2.49l2.19,7.16,2.37-7.19h2l2.37,7.19,2.19-7.16h2.43L72.5,170.55h-2l-2.39-6.92-2.39,6.92h-2Z"/><path class="cls-6" d="M76.22,166.47v0a4,4,0,0,1,4-4.21c2.7,0,3.94,2.1,3.94,4.4,0,.18,0,.39,0,.6H78.5a1.88,1.88,0,0,0,2,1.59,2.65,2.65,0,0,0,2-.83l1.31,1.16a4.28,4.28,0,0,1-7.54-2.67Zm5.71-.68a1.74,1.74,0,0,0-1.71-1.72,1.8,1.8,0,0,0-1.75,1.72Z"/><path class="cls-6" d="M85.23,169.4l1-1.51a4.58,4.58,0,0,0,2.55,1c.67,0,1-.24,1-.6v0c0-.5-.79-.66-1.68-.94-1.13-.33-2.42-.86-2.42-2.43v0c0-1.65,1.33-2.57,3-2.57a5.61,5.61,0,0,1,3,.94l-.88,1.59a4.8,4.8,0,0,0-2.19-.75c-.56,0-.85.24-.85.56v0c0,.45.77.67,1.65,1,1.13.38,2.45.92,2.45,2.4v0c0,1.8-1.35,2.61-3.1,2.61A5.67,5.67,0,0,1,85.23,169.4Z"/><path class="cls-6" d="M93.68,168.17v-3.84h-1v-2h1V160.3H96v2.07h1.9v2H96v3.46c0,.53.23.79.74.79a2.33,2.33,0,0,0,1.13-.29v1.84a3.38,3.38,0,0,1-1.81.47C94.63,170.61,93.68,170,93.68,168.17Z"/><path class="cls-6" d="M99.57,162.37h2.29v1.15a2.89,2.89,0,0,1,2.39-1.3,2.42,2.42,0,0,1,2.28,1.28,3.34,3.34,0,0,1,2.66-1.28c1.71,0,2.73,1,2.73,3v5.27h-2.29V166c0-1.09-.48-1.65-1.35-1.65s-1.39.56-1.39,1.65v4.52h-2.3V166c0-1.09-.48-1.65-1.34-1.65s-1.39.56-1.39,1.65v4.52H99.57Z"/><path class="cls-6" d="M114,159.44h2.42v2H114Zm.06,2.93h2.3v8.1H114Z"/><path class="cls-6" d="M118.48,162.37h2.29v1.15a2.87,2.87,0,0,1,2.37-1.3c1.74,0,2.75,1.15,2.75,3v5.24H123.6V166c0-1.09-.51-1.65-1.39-1.65s-1.44.56-1.44,1.65v4.52h-2.29Z"/><path class="cls-6" d="M127.26,169.4l1-1.51a4.58,4.58,0,0,0,2.55,1c.67,0,1-.24,1-.6v0c0-.5-.79-.66-1.68-.94-1.13-.33-2.42-.86-2.42-2.43v0c0-1.65,1.33-2.57,3-2.57a5.61,5.61,0,0,1,3,.94l-.88,1.59a4.8,4.8,0,0,0-2.19-.75c-.56,0-.85.24-.85.56v0c0,.45.77.67,1.65,1,1.13.38,2.45.92,2.45,2.4v0c0,1.8-1.35,2.61-3.1,2.61A5.67,5.67,0,0,1,127.26,169.4Z"/><path class="cls-6" d="M135.7,168.17v-3.84h-1v-2h1V160.3H138v2.07h1.9v2H138v3.46c0,.53.23.79.74.79a2.33,2.33,0,0,0,1.13-.29v1.84a3.39,3.39,0,0,1-1.81.47C136.65,170.61,135.7,170,135.7,168.17Z"/><path class="cls-6" d="M141,166.47v0a4,4,0,0,1,4-4.21c2.7,0,3.94,2.1,3.94,4.4,0,.18,0,.39,0,.6h-5.63a1.88,1.88,0,0,0,2,1.59,2.65,2.65,0,0,0,2-.83l1.31,1.16a4.28,4.28,0,0,1-7.54-2.67Zm5.71-.68a1.74,1.74,0,0,0-1.71-1.72,1.8,1.8,0,0,0-1.75,1.72Z"/><path class="cls-6" d="M150.63,162.37h2.3V164a2.5,2.5,0,0,1,2.58-1.78v2.4h-.12c-1.53,0-2.46.92-2.46,2.85v3h-2.3Z"/><path class="cls-6" d="M154.95,172c1-.11,1.55-.63,1.48-1.5h-.94v-2.42h2.45v2c0,2-1,2.79-2.79,2.83Z"/><path class="cls-6" d="M164.21,165.21v0a5.37,5.37,0,0,1,5.51-5.47,5.45,5.45,0,0,1,4.17,1.63l-1.48,1.71a3.9,3.9,0,0,0-2.7-1.19,3.13,3.13,0,0,0-3.07,3.29v0a3.14,3.14,0,0,0,3.07,3.32,3.82,3.82,0,0,0,2.78-1.24l1.48,1.5a5.41,5.41,0,0,1-4.34,1.89A5.34,5.34,0,0,1,164.21,165.21Z"/><path class="cls-6" d="M179.45,159.82h2.14l4.53,10.65h-2.43l-1-2.37h-4.47l-1,2.37h-2.37ZM181.9,166l-1.41-3.43-1.4,3.43Z"/></g></g></svg>