<svg xmlns="http://www.w3.org/2000/svg" viewBox="0 0 250 250"><defs><style>.cls-1{isolation:isolate;}.cls-2{fill:#14a085;}.cls-3{fill:#25b99a;}.cls-3,.cls-4{fill-rule:evenodd;}.cls-4{fill:#231f20;opacity:0.15;mix-blend-mode:multiply;}.cls-5{fill:#fff;}</style></defs><title>Artboard 20</title><g class="cls-1"><g id="Layer_1" data-name="Layer 1"><rect class="cls-2" x="0.2" y="0.47" width="249.99" height="250"/><path class="cls-3" d="M136.74,58.27l-1-.65-1,.35,1-.35Zm-1-.65,41.54-15.05,62.25,46.75A16.42,16.42,0,0,1,236,92.45q-7.85,5.07-10.63,8.45-4.27,5.57-10.93,15.3-5.27,7.85-6.26,9.64a6.13,6.13,0,0,0-.89,3,9.08,9.08,0,0,0,2.78,6.46,55.17,55.17,0,0,1-5.07,8.45,11,11,0,0,0-8-3.48q-4.57,0-6.76,5.47a36.07,36.07,0,0,0-2,9.44q-1,9.24-2.48,11.13l-.4.3q-5.46,5.76-9.24,9.24-5.46,5-9.14,5.47l-.7-.69q-3.67-4.77-11.13-4.77a30,30,0,0,0-8.35,1.09,35.6,35.6,0,0,0-6.66,2.68,4.86,4.86,0,0,0-2.58,3.18,4.77,4.77,0,0,0,.69,4.07q2.48,3.78,12.92,8.94l4.37,2.39a24.05,24.05,0,0,1-3.08.3l-6.36-.8a76,76,0,0,0-11.33-.79,31.28,31.28,0,0,1-3.78-3,61.38,61.38,0,0,1-4.77-5.76,4.76,4.76,0,0,0-2.78-2,5.41,5.41,0,0,0-3.38.3,10.82,10.82,0,0,0-3.83,3.33L8.56,74A127.76,127.76,0,0,1,20.43,60.6Q67.9,14.24,135.75,57.62Z"/><path class="cls-4" d="M42.85,54l2-1.16q14,11,23.05,19.56a23.67,23.67,0,0,0,5,3.68q2.42,1.26,3.68.7a1.73,1.73,0,0,0,.33-1,11.24,11.24,0,0,0-.84-1.77q-.75-.93-1.86-2.19L71.72,69.6q-9.83-8.33-24.31-18.35l2.65-1.35Q65,59.26,75.35,67.18q3.63,2.65,7.08,5.68a28.11,28.11,0,0,1,4.52,5.45,5.56,5.56,0,0,1,.65,4.05,3.6,3.6,0,0,1-2,2.28l0,0a4.11,4.11,0,0,1-3.12.65,16.78,16.78,0,0,1-4-1.77,50,50,0,0,1-6.19-4.1,49.6,49.6,0,0,1-6.61-5.4Q56.86,65.5,42.85,54Zm18.72,1.26q-6.52-3.82-9.87-6.1Q56,47.2,61.24,45.34,64.83,47,71.76,50.18,70,51,68.46,51.72q14.9,7.64,37,22-2.75,1.44-5.35,2.89-21-14.57-35.58-23Q63,54.42,61.57,55.21ZM46.8,66.53a3.37,3.37,0,0,0-2.38.14,1.76,1.76,0,0,0-.56,2,19.34,19.34,0,0,0,1.21,3.45,33.94,33.94,0,0,0,2.38,4.05q1.4,2.1,2.38,3.31a13.65,13.65,0,0,0,2.93,2.89,24.64,24.64,0,0,0,3.73,2.51,10.7,10.7,0,0,0,3.58,1.3,3.57,3.57,0,0,0,2.61-.37,2.33,2.33,0,0,0,.93-2,8.59,8.59,0,0,0-.88-3.26,33.89,33.89,0,0,0-2.28-3.77q-1.54-2-2.56-3.31a24.24,24.24,0,0,0-3.17-2.66,34.66,34.66,0,0,0-4.19-2.65A15.57,15.57,0,0,0,46.8,66.53Zm12.53,27A45.7,45.7,0,0,1,52,88.27a38,38,0,0,1-5.82-6Q44.11,79.8,40.84,75a45.9,45.9,0,0,1-5.26-8.34q-1.68-3.59-1.35-5.64a3.25,3.25,0,0,1,1.67-3q1.12-.88,3.54-.42a28.81,28.81,0,0,1,5.82,2.47q3.63,2,8.52,5.4a60,60,0,0,1,7,5.68q2.38,2.56,6,6.61a44.84,44.84,0,0,1,5.12,7.45q1.4,3.21.75,5.31A5.44,5.44,0,0,1,70,94a7.32,7.32,0,0,1-4.61,1.21A15.41,15.41,0,0,1,59.33,93.49Zm-21-3.35a5.65,5.65,0,0,1-2.65-.65,19.46,19.46,0,0,1-3.86-2.7,33.4,33.4,0,0,1-4.61-4.56A32.08,32.08,0,0,1,23.06,77,11.51,11.51,0,0,1,21,73a5.4,5.4,0,0,1-.23-3,3.6,3.6,0,0,1,1-2,4.51,4.51,0,0,1,1.77-1.21A5.08,5.08,0,0,1,26,66.62,10.71,10.71,0,0,1,29.06,68a22.21,22.21,0,0,1,4,3q2.24,2,4.42,4.24-1.72,1.49-3.49,3a6,6,0,0,0-2.14-1.63,6.29,6.29,0,0,0-1.26-.37c-.16,0-.25,0-.28.09a1.18,1.18,0,0,1-.37.33,6.76,6.76,0,0,1,0,.79l.75,1.4A8.41,8.41,0,0,0,32.46,81a5.25,5.25,0,0,0,2,1.26,6.07,6.07,0,0,0,1.4.23q2.09.14,4,.09a16,16,0,0,1,5.08,1.58,24.32,24.32,0,0,1,5.54,5.26,40.73,40.73,0,0,1,4.75,7.68q1.21,3.45.51,5.45-.47.7-.79,1.26c-.4.37-.76.68-1.07.93a3.91,3.91,0,0,1-1.68.65,4.26,4.26,0,0,1-2.14-.09,12.11,12.11,0,0,1-4.66-2.75A39.6,39.6,0,0,1,40.05,97q1.3-1.26,3-2.65a10.18,10.18,0,0,0,2.09,2.19,2.72,2.72,0,0,0,1.44.79,1.69,1.69,0,0,0,1.3.18,2.35,2.35,0,0,0,.56-1.12q-.09-.61-.19-1.16L47.78,94q-.28-.51-.56-1l-1.07-1.4q-.42-.42-.84-.79l-.93-.65a10.63,10.63,0,0,0-1.07-.32,19.4,19.4,0,0,0-3.17.23A8.55,8.55,0,0,0,38.33,90.14ZM71.76,42.4q1.82-.37,3.63-.7Q88,44.55,99.52,48.18q14.39,5.73,29,12.62l-4.7,2.7q-8.52-4.61-22.49-10.85-2.61,1.44-5.4,2.93Q109.29,62.15,117.49,67q-2.61,1.54-5.26,2.93Q84.48,52.84,63.06,44.83q2-.61,3.91-1.16,8.05,2.88,19.6,7.45,2.56-1.35,5.12-2.47Q80,44.69,71.76,42.4Z"/><path class="cls-4" d="M206.1,79.83l1.39-1.19L193.58,68.9Zm5.27,2.39L210,83.8l15.8,13.41L224,99.4,171.52,53.1l2.29-1,56.44,39.65-1.59,2ZM137,138.36l3.77-3.08-20.87-17.69Zm8.35-26.43-1-2.78a27,27,0,0,0-2.28-3.68,32.08,32.08,0,0,0-3.68-3.68,28.34,28.34,0,0,0-4-3.38q-2.08-1.29-3.77-2.28l-3.28-1.29q-1.69-.49-2.19.1l19.67,18.88A3.48,3.48,0,0,0,145.38,111.92ZM72.95,99.11a43.07,43.07,0,0,1,11,5l5.86,12.82a23.64,23.64,0,0,0-6.06-2.68q-2.88-.79-4,.2-1.39.79-1.19,3-.5,2.19,1.09,5.76A38.45,38.45,0,0,0,84,130.9a76,76,0,0,0,6.76,8.64,71.85,71.85,0,0,0,8.15,8,56.29,56.29,0,0,0,8,6.26,22.6,22.6,0,0,0,6.86,2.78,5.38,5.38,0,0,0,4.07-.5q1.19-1.19.8-4a22.25,22.25,0,0,0-2.39-6.56l16,9.94a51.6,51.6,0,0,1,5.17,13q1.09,5.37-.89,8.25-2.29,2.78-7.55,1.59-5.27-.89-13.31-5.66a94.08,94.08,0,0,1-15.8-12.32,153.8,153.8,0,0,1-15.6-15.9,129.08,129.08,0,0,1-12.42-16.69,66,66,0,0,1-7.45-13.91q-2.38-6.36-1.59-10.14Q63,100.1,66,99.21,68.18,97.71,72.95,99.11Zm56.94-24.44q-1.09-3.38,1-3.68,1.59-1.09,5.76.5a44.62,44.62,0,0,1,8.84,4.17A118.51,118.51,0,0,1,157,83.31a146.7,146.7,0,0,1,12.92,10.43,145.18,145.18,0,0,1,12.32,11.33,140.27,140.27,0,0,1,9.84,11.23,45.63,45.63,0,0,1,5.86,9.14q1.69,3.58.5,5.47-1.39,1.59-5.56.5a68.18,68.18,0,0,1-10.43-5q-6.36-3.87-13.61-9.24-7.35-5.66-14.61-12.22-7.45-6.86-12.62-12.62A102.1,102.1,0,0,1,133.26,82,25.4,25.4,0,0,1,129.88,74.66ZM145,83.41q-1.09.5-.5,2.19a19.89,19.89,0,0,0,2.28,4.17q1.59,2.29,4.47,5.66,2.88,3,7,6.66,3.48,3.08,7.45,6.26,3.87,2.78,7.05,4.67a22.36,22.36,0,0,0,5.47,2.78,8.68,8.68,0,0,0,3.08-.1,2.73,2.73,0,0,0,0-2.68,30.37,30.37,0,0,0-2.88-4.57,66.62,66.62,0,0,0-5.07-6.06q-3.18-3.28-6.66-6.26-3.87-3.48-7.25-6.06A36.27,36.27,0,0,0,153,86,15.89,15.89,0,0,0,148,83.61Q145.68,82.61,145,83.41Zm-3.88-16.89,3.38-1.69,55.25,46.7,2.88-4.67,9.24,7.55-6.26,7.75Zm17.69,1.29L161,65.52l54.25,44.81L213.05,113Zm-1.69-8.15,3.18-1.39,35.87,23.85-32.1-25.84,2.68-1.19,56.64,45.11-2,2.48L182.85,76.85l35.77,29-2,2.59Zm-5.47,2.09,3.08-1.39,5.07,4.17-2.68,1.59ZM88.35,89.67l5.86-2.39L177.58,157l-4.37,5.67-26.73-21.46L143,147l25.24,27.82L153,172.74Zm16.49-6.56L110,80.62q1.69-1.09,5.67.2a51.85,51.85,0,0,1,7.75,3.48,51.3,51.3,0,0,1,9.44,6.26A128.7,128.7,0,0,1,143,99.11a90.85,90.85,0,0,1,9.74,9.84,73.88,73.88,0,0,1,6.86,9.54L191,140.24l-4.07,5.27-23.55-16.69-.8,1.89L183.14,150,179.27,155Z"/><path class="cls-5" d="M37.63,94.75h3.31v6h6.11v-6h3.31v15.06H47.05v-6H40.94v6H37.63Z"/><path class="cls-5" d="M59.14,94.65H62.2l6.45,15.17H65.19l-1.38-3.38H57.44l-1.38,3.38H52.69Zm3.49,8.86-2-4.88-2,4.88Z"/><path class="cls-5" d="M71,94.75h3.57l4,6.37,4-6.37H86v15.06H82.75V100l-4.24,6.43h-.09L74.23,100v9.77H71Z"/><path class="cls-5" d="M89.65,94.75h3.57l4,6.37,4-6.37h3.57v15.06h-3.29V100l-4.24,6.43H97.1L92.9,100v9.77H89.65Z"/><path class="cls-5" d="M107.66,102.33v0a8,8,0,0,1,16,0v0a8,8,0,0,1-16,0Zm12.54,0v0a4.58,4.58,0,0,0-4.56-4.73,4.5,4.5,0,0,0-4.52,4.69v0a4.57,4.57,0,0,0,4.56,4.73A4.5,4.5,0,0,0,120.21,102.33Z"/><path class="cls-5" d="M126.62,94.75h3.05l7.06,9.27V94.75H140v15.06h-2.82l-7.29-9.57v9.57h-3.27Z"/><path class="cls-5" d="M143.62,94.75h5.87c4.73,0,8,3.25,8,7.49v0c0,4.24-3.27,7.53-8,7.53h-5.87Zm3.31,3v9.08h2.56a4.29,4.29,0,0,0,4.54-4.5v0a4.32,4.32,0,0,0-4.54-4.54Z"/><path class="cls-5" d="M166.9,94.75h3.31v6h6.11v-6h3.31v15.06h-3.31v-6h-6.11v6H166.9Z"/><path class="cls-5" d="M183.4,94.75h3.31v15.06H183.4Z"/><path class="cls-5" d="M190.48,94.75h3.31v12h7.51v3H190.48Z"/><path class="cls-5" d="M203.8,94.75h3.31v12h7.51v3H203.8Z"/><path class="cls-5" d="M48.31,115.19H59.67v2.95H51.6v3.06h7.1v2.95H51.6v3.16h8.18v2.95H48.31Z"/><path class="cls-5" d="M62.73,115.19H66v12h7.51v3H62.73Z"/><path class="cls-5" d="M76,115.19H87.4v2.95H79.34v3.06h7.1v2.95h-7.1v3.16h8.18v2.95H76Z"/><path class="cls-5" d="M90.46,115.19H94l4,6.37,4-6.37h3.57v15.06h-3.29v-9.83L98,126.85H97.9l-4.2-6.37v9.77H90.46Z"/><path class="cls-5" d="M109.14,115.19H120.5v2.95h-8.07v3.06h7.1v2.95h-7.1v3.16h8.18v2.95H109.14Z"/><path class="cls-5" d="M123.55,115.19h3.05l7.06,9.27v-9.27h3.27v15.06h-2.82l-7.29-9.57v9.57h-3.27Z"/><path class="cls-5" d="M144.06,118.25h-4.58v-3.06H152v3.06h-4.58v12h-3.31Z"/><path class="cls-5" d="M157.72,115.09h3.05l6.46,15.17h-3.46l-1.38-3.38H156l-1.38,3.38h-3.38Zm3.48,8.86-2-4.88-2,4.88Z"/><path class="cls-5" d="M169.55,115.19h6.88a6,6,0,0,1,4.39,1.53,4.72,4.72,0,0,1,1.29,3.44v0a4.68,4.68,0,0,1-3.23,4.67l3.68,5.38H178.7l-3.23-4.82h-2.6v4.82h-3.31Zm6.67,7.32c1.61,0,2.54-.86,2.54-2.13v0c0-1.42-1-2.15-2.6-2.15h-3.29v4.32Z"/><path class="cls-5" d="M188.81,124.32,183,115.19h3.87l3.59,6,3.66-6h3.76l-5.79,9.06v6h-3.31Z"/><path class="cls-5" d="M52.8,137.81h2.14l5,6.51v-6.51h2.3v10.57h-2l-5.12-6.72v6.72H52.8Z"/><path class="cls-5" d="M64.1,144.38v0a4.38,4.38,0,0,1,8.76,0v0a4.38,4.38,0,0,1-8.76,0Zm6.5,0v0a2.15,2.15,0,0,0-2.13-2.24,2.07,2.07,0,0,0-2.1,2.21v0a2.15,2.15,0,0,0,2.13,2.24A2.07,2.07,0,0,0,70.6,144.38Z"/><path class="cls-5" d="M74.53,140.29h2.29v1.63a2.5,2.5,0,0,1,2.58-1.78v2.4h-.12c-1.53,0-2.46.92-2.46,2.85v3H74.53Z"/><path class="cls-5" d="M81.22,146.09v-3.84h-1v-2h1v-2.07h2.3v2.07h1.9v2h-1.9v3.46c0,.53.23.79.74.79a2.34,2.34,0,0,0,1.13-.29V148a3.39,3.39,0,0,1-1.81.47C82.17,148.52,81.22,148,81.22,146.09Z"/><path class="cls-5" d="M87.11,137.35h2.3v4.08a2.87,2.87,0,0,1,2.37-1.3c1.74,0,2.75,1.15,2.75,3v5.24h-2.3v-4.52c0-1.09-.51-1.65-1.39-1.65s-1.44.56-1.44,1.65v4.52h-2.3Z"/><path class="cls-5" d="M104.92,137.73h2.14l4.53,10.65h-2.43l-1-2.37h-4.47l-1,2.37h-2.37Zm2.45,6.22L106,140.53l-1.4,3.43Z"/><path class="cls-5" d="M112.77,145.53v-5.24h2.3v4.52c0,1.09.51,1.65,1.39,1.65s1.44-.56,1.44-1.65v-4.52h2.3v8.1h-2.3v-1.15a2.87,2.87,0,0,1-2.37,1.3C113.79,148.53,112.77,147.38,112.77,145.53Z"/><path class="cls-5" d="M122.29,150l.79-1.72a5.28,5.28,0,0,0,2.73.74c1.57,0,2.31-.75,2.31-2.21v-.39a3.17,3.17,0,0,1-2.64,1.31,3.56,3.56,0,0,1-3.6-3.78v0a3.56,3.56,0,0,1,3.6-3.78,3.28,3.28,0,0,1,2.61,1.21v-1.06h2.3v6.27a4.34,4.34,0,0,1-1,3.19,4.75,4.75,0,0,1-3.49,1.09A7.68,7.68,0,0,1,122.29,150Zm5.83-6v0a2,2,0,0,0-3.94,0v0a1.85,1.85,0,0,0,2,1.87A1.87,1.87,0,0,0,128.12,143.94Z"/><path class="cls-5" d="M132.38,145.53v-5.24h2.3v4.52c0,1.09.51,1.65,1.39,1.65s1.44-.56,1.44-1.65v-4.52h2.3v8.1h-2.3v-1.15a2.87,2.87,0,0,1-2.37,1.3C133.39,148.53,132.38,147.38,132.38,145.53Z"/><path class="cls-5" d="M141.22,147.31l1-1.51a4.57,4.57,0,0,0,2.55,1c.66,0,1-.24,1-.6v0c0-.5-.79-.66-1.68-.94-1.13-.33-2.42-.86-2.42-2.43v0c0-1.65,1.33-2.57,3-2.57a5.6,5.6,0,0,1,3,.94l-.87,1.59a4.8,4.8,0,0,0-2.19-.75c-.56,0-.85.24-.85.56v0c0,.45.77.67,1.65,1,1.13.38,2.45.92,2.45,2.4v0c0,1.8-1.34,2.61-3.1,2.61A5.67,5.67,0,0,1,141.22,147.31Z"/><path class="cls-5" d="M149.66,146.09v-3.84h-1v-2h1v-2.07H152v2.07h1.9v2H152v3.46c0,.53.23.79.74.79a2.34,2.34,0,0,0,1.13-.29V148a3.38,3.38,0,0,1-1.81.47C150.62,148.52,149.66,148,149.66,146.09Z"/><path class="cls-5" d="M155.07,146.06v0c0-1.77,1.35-2.58,3.26-2.58a5.76,5.76,0,0,1,2,.33v-.14c0-1-.59-1.48-1.74-1.48a6,6,0,0,0-2.24.44l-.57-1.75a7.15,7.15,0,0,1,3.14-.65,3.74,3.74,0,0,1,2.73.91,3.53,3.53,0,0,1,.88,2.58v4.7H160.3v-.88a3.11,3.11,0,0,1-2.45,1A2.51,2.51,0,0,1,155.07,146.06Zm5.27-.53v-.41a3.55,3.55,0,0,0-1.46-.3c-1,0-1.59.39-1.59,1.12v0c0,.62.51,1,1.25,1C159.62,146.95,160.34,146.36,160.34,145.53Z"/><path class="cls-5" d="M163.86,149.88c1-.11,1.56-.63,1.48-1.5h-.94V146h2.45v2c0,2-1,2.79-2.79,2.83Z"/><path class="cls-5" d="M172.87,146.84l1.38-1.65a4.85,4.85,0,0,0,3.16,1.28c1,0,1.53-.38,1.53-1v0c0-.59-.36-.89-2.13-1.34-2.13-.54-3.51-1.13-3.51-3.23v0c0-1.92,1.54-3.19,3.7-3.19a6.12,6.12,0,0,1,3.93,1.34l-1.21,1.75a5,5,0,0,0-2.75-1c-.89,0-1.36.41-1.36.92v0c0,.7.45.92,2.28,1.39,2.15.56,3.36,1.33,3.36,3.17v0c0,2.1-1.6,3.28-3.88,3.28A6.73,6.73,0,0,1,172.87,146.84Z"/><path class="cls-5" d="M182.79,143.13v0a5.37,5.37,0,0,1,5.51-5.47,5.46,5.46,0,0,1,4.17,1.63L191,141a3.9,3.9,0,0,0-2.71-1.19,3.13,3.13,0,0,0-3.07,3.29v0a3.14,3.14,0,0,0,3.07,3.32,3.82,3.82,0,0,0,2.78-1.24l1.48,1.5a5.41,5.41,0,0,1-4.34,1.89A5.34,5.34,0,0,1,182.79,143.13Z"/></g></g></svg>