<svg xmlns="http://www.w3.org/2000/svg" viewBox="0 0 250 250"><defs><style>.cls-1{isolation:isolate;}.cls-2{fill:#894b9d;}.cls-2,.cls-3,.cls-4{fill-rule:evenodd;}.cls-3{fill:#ad7bb6;}.cls-4{fill:#231f20;opacity:0.2;mix-blend-mode:multiply;}.cls-5{fill:#fff;}</style></defs><title>Artboard 23</title><g class="cls-1"><g id="Layer_1" data-name="Layer 1"><polyline class="cls-2" points="249.9 250.07 -0.09 250.07 -0.09 0.07 249.9 0.07"/><path class="cls-3" d="M39.49,147.06s21.81,27.53,49.83,29,51.44-13,51.44-13l58.7,25L238.34,74.87,87.88,35a23,23,0,0,1-2.3,9.34c-2.37,5,4.38,5.53,3.16,9.91s-4.67,2.94-2.23,7.25,6.75,11.13,3.88,15.8-2.66,8.62-6.9,6.11-6.25,5.75-5.6,5.75-5.24,18-11.28,16-7.25-14-3.23-21.12S65,77,65,77,58,75,59.65,71.3s5.6.57,1.65-3.74-9.84-9.12-12.64-9.05-5.32,1.15-8.19-1-19-17.89-19-17.89S23,58.3,20.78,64.55,15.25,88,15.25,88s10.13,1.08,8.33,6.82-3.66,8-3.66,8,1.58,9.05-5.1,11.28,33.74,5.35,24.67,32.88"/><path class="cls-4" d="M25.51,55a18.82,18.82,0,0,0,5.72,3.16q2.43,19.79,4,34.28a292.3,292.3,0,0,0,3.5-32.13A7.08,7.08,0,0,1,43.84,62q2.64,21.8,2.31,36.14Q50,86.66,51.37,64.86A36.74,36.74,0,0,1,57.14,67q-3,36.72-15.85,60.24a26.91,26.91,0,0,0-3.38-4.59q4.65-19.08,3-30.69-1.24,10.62-7.45,27.39a29.88,29.88,0,0,0-4.41-2.15A268.1,268.1,0,0,0,25.51,55Z"/><path class="cls-4" d="M62.23,153.62l-9.12-5.82-3.3,4.88-6-5.32,18-39,5.53-.86.86,57.11-7-4Zm-3.59-15.16,4.81,2.23-.36-10.85ZM83.92,97.09a13,13,0,0,1,2.23-3.45,14.5,14.5,0,0,1,1.58-2.37q.79-1,1.58-.57T91,93.49A49.66,49.66,0,0,1,93,100.61q.79,5.32,1.58,10.92l-4.81,5a12.46,12.46,0,0,0-.72-4l-.86-1.15c-.14,0-.22,0-.22.07l-.5.36-.5,1.15-.43,2.73a20.21,20.21,0,0,0,.07,4.53,8.31,8.31,0,0,0,.86,3.09l4.38,4.31a11.94,11.94,0,0,1,2.8,5.46,61.24,61.24,0,0,1-.86,11.78,81.28,81.28,0,0,1-4.38,15.44q-3.16,6.46-6.68,8.55a15.7,15.7,0,0,1-2.59.93H78A4.14,4.14,0,0,1,76,168.27a6.85,6.85,0,0,1-1.37-3.09,22.38,22.38,0,0,1-.5-8.84,36.35,36.35,0,0,1,1.65-10.85l6.46.36a24.89,24.89,0,0,0-.72,4.31,5.34,5.34,0,0,0,.29,2.3q.36,1.44.93,1.44.57.22,1.65-.79l1.15-1.58L87,147.94l.65-2.66.07-3.3-.43-1.15L83.06,137a8.76,8.76,0,0,1-1.65-3.23,26.52,26.52,0,0,1-1.08-6.25,71.42,71.42,0,0,1-.36-8.76,53.79,53.79,0,0,1,.5-9.27A28.39,28.39,0,0,1,82,102.33,18.49,18.49,0,0,1,83.92,97.09ZM96.57,50.61l.5-10.06Q110,79.63,116,112q1.65,24.71,1.51,55.17l-7.26,2.3L111.51,128l-7.61,5.89-3.88,37-8.12-.07q4.45-23.06,6.82-41.23a319.17,319.17,0,0,0-6-52.37l2.23-11.57L104,115.33l6-8.33Z"/><path class="cls-4" d="M136.65,53.05q2.23.65,5,1.58,4.81,46.33.36,105.88a27.36,27.36,0,0,0-3.23.22,380.67,380.67,0,0,0-6.25-65.58q1.65,29.59,1,66.59l-4,1.15Q131,99.24,118,47.67l8.84,2.59Q138.23,84,140.46,111.67A442.71,442.71,0,0,0,136.65,53.05ZM105.91,44q2.51.57,6.39,1.65Q127.17,99,126.45,163.75a40.35,40.35,0,0,0-3.88,1.58Q122.86,99,105.91,44Zm40.15,42.88a81,81,0,0,1,2.23-16.59q1.72-6.61,4.89-8.91a6.24,6.24,0,0,1,6.46-1.15q3.16.72,5.67,4.81,2.23,4,3,11.71-3,7.4-5.82,14.73a20.41,20.41,0,0,0-1.65-6.54,5.15,5.15,0,0,0-2.59-2.73,3.28,3.28,0,0,0-3,1,17.14,17.14,0,0,0-2.59,5.32,37.28,37.28,0,0,0-1.65,8.4,51,51,0,0,0-.86,9,82,82,0,0,0-.14,9.91q.07,5.67.43,11.06a36,36,0,0,0,.93,7.18,9.09,9.09,0,0,0,1.51,3.52q.79.65,1.87-.72a13.84,13.84,0,0,0,2.3-4.38l.72-5.89-4-1.44q1.36-14.08,2.08-22.77,5.17,1.51,9.48,2.94-3.52,28-8.26,59.69a28.32,28.32,0,0,0-4-1.8,9.28,9.28,0,0,1,.22-2.08,11.69,11.69,0,0,0-1.58,1.22,3.21,3.21,0,0,0-1.22-.14q-1.8-.43-2.73-3.81-1.08-3.59-1.65-12.36-.57-9.19-.57-21-.36-12.21.07-20.4Q145.56,96.51,146.06,86.89Z"/><path class="cls-4" d="M189.16,82.29q2.73-6.54,5.46-9.34,2.8-3,5.24-2.08t3.52,5A45.61,45.61,0,0,1,204,87.32q-.65,7.83-2.51,18.46-2.3,10.77-4.6,19.47-2.66,8.76-6,18.89a162.79,162.79,0,0,1-6.61,16.81,44.13,44.13,0,0,1-5.17,9.19q-2.15,2.66-3.23,2.37-1.29-.43-1.51-4.31t.29-11.13q.65-7.76,2.08-18.68t2.87-20q1.51-9.41,4.09-19.18A116.79,116.79,0,0,1,189.16,82.29Zm5.32,11.85q-1.29-.5-2.66,1.51a30.17,30.17,0,0,0-3.09,5.82q-1.44,3.81-2.87,8.69a89.92,89.92,0,0,0-2.3,9.77q-.93,4.45-1.65,10.06-.72,5.24-1.15,9.55a48.57,48.57,0,0,0-.29,7q.21,2.66,1,2.94t2-1.72a52,52,0,0,0,3-6q1.51-3.81,3.23-8.76a92.71,92.71,0,0,0,2.95-9.48q1.22-4.6,2.08-9.84a61.94,61.94,0,0,0,1.29-9.48,25.77,25.77,0,0,0-.07-7Q195.55,94.43,194.48,94.14Zm-20-7.18q-2.15-.57-4-1.22,1.44-12.86,2.59-22.84,6.61,1.72,14,3.74-1.72,9.91-3.81,23.2l-3.88-1.29q-5.17,38.14-12.14,80.31-1.58-.72-3.52-1.51Q170.27,125.17,174.51,87Zm38.65-11.78,5.75,1.15q-5.6,32.54-11.28,61.34,8.76-27.87,18.89-60.12,2.59.5,5.39,1.29-18.32,53.3-34.34,103.65a24.71,24.71,0,0,1-3.3-1.44q6.39-32,11.35-60.84-8.19,27.8-16.67,58.18a31.62,31.62,0,0,1-4-1.94Q198.5,126.4,213.15,75.18Z"/><path class="cls-5" d="M66,105.61h7a5.44,5.44,0,0,1,3.94,1.33,3.46,3.46,0,0,1,1,2.56v0a3.5,3.5,0,0,1-2,3.25c1.74.67,2.82,1.68,2.82,3.7v0c0,2.75-2.24,4.13-5.64,4.13H66Zm8.67,4.45c0-1-.77-1.55-2.17-1.55H69.18v3.18h3.06c1.46,0,2.39-.47,2.39-1.59ZM73,114.46H69.18v3.31h3.94c1.46,0,2.34-.52,2.34-1.64v0C75.47,115.08,74.71,114.46,73,114.46Z"/><path class="cls-5" d="M81.49,105.61H92.85v2.95H84.78v3.06h7.1v2.95h-7.1v3.16H93v2.95H81.49Z"/><path class="cls-5" d="M95.91,105.61H99l7.06,9.27v-9.27h3.27v15.06h-2.82l-7.29-9.57v9.57H95.91Z"/><path class="cls-5" d="M111.4,118.63l2.09-2.32a3.72,3.72,0,0,0,2.75,1.51c1.25,0,2-.75,2-2.5v-9.7h3.4v9.85a5.47,5.47,0,0,1-1.42,4,5.38,5.38,0,0,1-3.92,1.4A6.16,6.16,0,0,1,111.4,118.63Z"/><path class="cls-5" d="M129.67,105.51h3.06l6.45,15.17h-3.46l-1.38-3.38H128l-1.38,3.38h-3.38Zm3.49,8.86-2-4.88-2,4.88Z"/><path class="cls-5" d="M141.5,105.61h3.57l4,6.37,4-6.37h3.57v15.06h-3.29v-9.83L149,117.27h-.09l-4.2-6.37v9.77H141.5Z"/><path class="cls-5" d="M160.33,105.61h3.31v15.06h-3.31Z"/><path class="cls-5" d="M167.41,105.61h3.05l7.06,9.27v-9.27h3.27v15.06H178l-7.29-9.57v9.57h-3.27Z"/><path class="cls-5" d="M66.72,126.05H78.19v3H70v3.21h7.19v3H70v5.83H66.72Z"/><path class="cls-5" d="M80.84,126.05h6.88a6,6,0,0,1,4.39,1.53A4.73,4.73,0,0,1,93.4,131v0a4.68,4.68,0,0,1-3.23,4.67l3.68,5.38H90l-3.23-4.82h-2.6v4.82H80.84Zm6.67,7.32c1.61,0,2.54-.86,2.54-2.13v0c0-1.42-1-2.15-2.6-2.15H84.15v4.32Z"/><path class="cls-5" d="M101.56,125.95h3.06l6.45,15.17H107.6l-1.38-3.38H99.86l-1.38,3.38H95.1Zm3.49,8.86-2-4.88-2,4.88Z"/><path class="cls-5" d="M113.39,126.05h3.05l7.06,9.27v-9.27h3.27v15.06H124l-7.29-9.57v9.57h-3.27Z"/><path class="cls-5" d="M130.39,126.05h3.31v6.58l6.11-6.58h4l-6.13,6.39,6.41,8.67h-4l-4.67-6.41-1.74,1.81v4.6h-3.31Z"/><path class="cls-5" d="M146.1,126.05h3.31v12h7.51v3H146.1Z"/><path class="cls-5" d="M159.56,126.05h3.31v15.06h-3.31Z"/><path class="cls-5" d="M166.64,126.05h3.05l7.06,9.27v-9.27H180v15.06h-2.82l-7.29-9.57v9.57h-3.27Z"/><path class="cls-5" d="M49.35,146.5H60.71v2.95H52.64v3.06h7.1v2.95h-7.1v3.16h8.18v2.95H49.35Z"/><path class="cls-5" d="M63.76,146.5h3.31v12h7.51v3H63.76Z"/><path class="cls-5" d="M77.08,146.5H88.44v2.95H80.37v3.06h7.1v2.95h-7.1v3.16h8.18v2.95H77.08Z"/><path class="cls-5" d="M91.5,146.5h3.57l4,6.37,4-6.37h3.57v15.06h-3.29v-9.83L99,158.16h-.09l-4.2-6.37v9.77H91.5Z"/><path class="cls-5" d="M110.17,146.5h11.36v2.95h-8.07v3.06h7.1v2.95h-7.1v3.16h8.18v2.95H110.17Z"/><path class="cls-5" d="M124.59,146.5h3.05l7.06,9.27V146.5H138v15.06h-2.82L127.86,152v9.57h-3.27Z"/><path class="cls-5" d="M145.09,149.55h-4.58V146.5H153v3.06h-4.58v12h-3.31Z"/><path class="cls-5" d="M158.76,146.39h3.06l6.45,15.17H164.8l-1.38-3.38h-6.37l-1.38,3.38H152.3Zm3.49,8.86-2-4.88-2,4.88Z"/><path class="cls-5" d="M170.59,146.5h6.88a6,6,0,0,1,4.39,1.53,4.73,4.73,0,0,1,1.29,3.44v0a4.68,4.68,0,0,1-3.23,4.67l3.68,5.38h-3.87l-3.23-4.82h-2.6v4.82h-3.31Zm6.67,7.32c1.61,0,2.54-.86,2.54-2.13v0c0-1.42-1-2.15-2.6-2.15H173.9v4.33Z"/><path class="cls-5" d="M189.85,155.62l-5.79-9.12h3.87l3.59,6,3.66-6h3.76l-5.79,9.06v6h-3.31Z"/><path class="cls-5" d="M74.48,169.11H76.8v4.62l4.29-4.62H83.9L79.6,173.6l4.5,6.09H81.3L78,175.18l-1.22,1.27v3.23H74.48Z"/><path class="cls-5" d="M85.31,168.66h2.42v2H85.31Zm.06,2.93h2.3v8.1h-2.3Z"/><path class="cls-5" d="M89.82,171.59h2.3v1.63a2.5,2.5,0,0,1,2.58-1.78v2.4h-.12c-1.53,0-2.46.92-2.46,2.85v3h-2.3Z"/><path class="cls-5" d="M96.14,168.66h2.3v5.88l2.69-2.95h2.75l-3.08,3.19,3.19,4.91h-2.66l-2.07-3.32-.82.86v2.46h-2.3Z"/><path class="cls-5" d="M105.19,168.66h2.3v11h-2.3Z"/><path class="cls-5" d="M109.16,177.36v0c0-1.77,1.34-2.58,3.26-2.58a5.76,5.76,0,0,1,2,.33v-.14c0-1-.59-1.48-1.74-1.48a6,6,0,0,0-2.24.44l-.57-1.75a7.15,7.15,0,0,1,3.14-.65,3.74,3.74,0,0,1,2.73.91,3.53,3.53,0,0,1,.88,2.58v4.7h-2.22v-.88a3.11,3.11,0,0,1-2.45,1A2.5,2.5,0,0,1,109.16,177.36Zm5.27-.53v-.41a3.55,3.55,0,0,0-1.46-.3c-1,0-1.59.39-1.59,1.12v0c0,.62.51,1,1.25,1C113.71,178.25,114.43,177.66,114.43,176.83Z"/><path class="cls-5" d="M118.58,171.59h2.3v1.15a2.87,2.87,0,0,1,2.37-1.3c1.74,0,2.75,1.15,2.75,3v5.24h-2.3v-4.52c0-1.09-.51-1.65-1.39-1.65s-1.44.56-1.44,1.65v4.52h-2.3Z"/><path class="cls-5" d="M127.63,175.65v0c0-2.7,1.77-4.18,3.69-4.18a3.11,3.11,0,0,1,2.52,1.21v-4h2.3v11h-2.3v-1.16a3,3,0,0,1-2.52,1.31C129.43,179.83,127.63,178.35,127.63,175.65Zm6.24,0v0a2,2,0,1,0-3.94,0v0a2,2,0,1,0,3.94,0Z"/><path class="cls-5" d="M137.56,181.18c1-.11,1.56-.63,1.48-1.5h-.94v-2.42h2.45v2c0,2-1,2.79-2.79,2.83Z"/><path class="cls-5" d="M146.47,169.11H149l2.19,7.16,2.37-7.19h2l2.37,7.19,2.19-7.16h2.43l-3.61,10.65h-2l-2.39-6.92-2.39,6.92h-2Z"/><path class="cls-5" d="M166.5,169h2.14l4.53,10.65h-2.43l-1-2.37h-4.47l-1,2.37H162Zm2.45,6.22-1.41-3.43-1.4,3.43Z"/></g></g></svg>