<svg xmlns="http://www.w3.org/2000/svg" viewBox="0 0 250 250"><defs><style>.cls-1{isolation:isolate;}.cls-2{fill:#894b9d;}.cls-2,.cls-3,.cls-4{fill-rule:evenodd;}.cls-3{fill:#ad7bb6;}.cls-4{fill:#231f20;opacity:0.2;mix-blend-mode:multiply;}.cls-5{fill:#fff;}</style></defs><title>Artboard 15</title><g class="cls-1"><g id="Layer_1" data-name="Layer 1"><polyline class="cls-2" points="249.91 249.56 -0.08 249.56 -0.08 -0.44 249.91 -0.44"/><path class="cls-3" d="M229.71,63.3l-.9,93.79Q191,136.73,155,143.64q-44-4.08-68-30.33L89.9,59.1,18.54,48.31l.8-17.87q12.23,1.54,24.49,3,91.92,10.92,186,17.52Z"/><path class="cls-4" d="M71.8,45.06a17.83,17.83,0,0,0-4.18-1.67,60.61,60.61,0,0,0-6-1.51q-3.56-.71-7.38-1.13T47,40.14a52.27,52.27,0,0,0-5.75.06,15.76,15.76,0,0,0-3.83.58q-1.35.44-1.36,1.14t1.28,1.47A18.05,18.05,0,0,0,41,44.92a45.87,45.87,0,0,0,5.58,1.46q3.11.69,7,1.23t7.37.73q3.52.19,6.14.09a27.32,27.32,0,0,0,4.41-.6q1.58-.46,1.78-1.18Q73.26,45.93,71.8,45.06ZM31,36.92q4.46-.31,10.22-.13,6,.12,13.11.95t13.87,2.11a118.18,118.18,0,0,1,11.9,2.8,43.87,43.87,0,0,1,8.34,3.22q3,1.69,3,3.12-.34,1.41-3.53,2.24a48.49,48.49,0,0,1-8.73,1.06q-5.3.15-12.11-.31-6.66-.44-13.66-1.45T40.51,48.22q-5.72-1.33-9.86-2.7a31,31,0,0,1-6.23-2.77q-2.27-1.38-2.28-2.62t2.37-2A28.45,28.45,0,0,1,31,36.92Z"/><path class="cls-4" d="M133.3,102.07q1.71.44,3.53.83-.36-11.14-.78-17.3A160.44,160.44,0,0,0,133.3,102.07Zm15.53-53.29q2.41.16,4.81.47-.7,13.72-1.83,37.45,3,.29,6.07.37,1.13-23.73,1.81-37.19,2.45.32,4.75.57-2.23,43.21-4.15,87.69-2.27.32-4.69.43.61-12.83,1.5-36-3,.08-6.08-.11-.89,23.06-1.45,36.05a45.32,45.32,0,0,1-5-.69Q146.44,93.19,148.82,48.78Zm-12.91-1.24,4.6.41q.82,44.39,2.54,89.66-2.65-.53-5.24-1.33-.35-2.85-.91-27.54l-4.36-2.34q-2.79,24.45-3.42,27-2.58-1-5.31-2.22Q129.58,90.84,135.91,47.54Zm-20.75-2q2.36.15,4.86.47-.94,12.09-2.34,33.6-.73,8.37-2.16,36.76l7.19,3.67a85.34,85.34,0,0,1,0,10.65A131.31,131.31,0,0,1,110,124.16Q112.12,85.68,115.16,45.49Zm-7.78-.86,7,.72q-6.92,19.17-13.47,36.06,4.09,19.65,8.26,42.24-3.48-2.14-6.75-4.12a197.3,197.3,0,0,1-5-27.14q-.94,15.71-1.32,23.2a46.48,46.48,0,0,0-4.24-2.81Q93.33,79.51,96,43.36q2.35.21,4.7.57-.48,7.54-1.73,24.28Q103.43,52.23,107.38,44.63Zm69.89,28.52q-.9-2.35-2.1-2.4T173,72.92a44.51,44.51,0,0,0-2.05,6.26,79.3,79.3,0,0,0-1.57,8.33q-.6,4.28-.75,6.48a44.81,44.81,0,0,0,0,6.61q.33,4.48.89,8.49a35.65,35.65,0,0,0,1.61,6.53q1,2.3,2.1,2.45,1.26,0,2.36-2.31a35.59,35.59,0,0,0,2-6.42q.91-4,1.52-8.49t.8-6.37a63,63,0,0,0-.2-6.36,64.57,64.57,0,0,0-.84-8.43A31.1,31.1,0,0,0,177.27,73.16Zm39.47,20.7q-.94,4.68-1.91,16.24l3.32.88Q217.42,98.77,216.74,93.86Zm-2-39.45q2.25.15,4.45.24.69,5.8,1.47,23.16.74,17,1.54,22.69.63,6,1.29,24.78.62,18.35,1.3,24.73-2.36-1.2-4.68-2.25-.31-2.48-2.29-28.34l-4-1.69q-1.23,24.88-1.68,26.8l-5.13-1.59q1-5.26,1.95-22.07,1-17.28,2-22.64.85-5.16,1.87-21.44Q213.9,60,214.77,54.41ZM188,52.63l4.76.42q.71,7.8,1.56,28.36.77,15,1.69,22.8,1.38-7.55,2.75-22.29,1.41-20.46,2.69-28.33,2.25.2,4.66.36,0,5.36.11,21.84,0,16.17.07,21.58,0,5.56,0,22.83,0,17.06.08,22.57-2.43-.74-4.93-1.32,0-14.28,0-39.52-1.81,25-3.56,38.69-2.55-.58-5.05-1-1.27-15.64-2.3-40.31Q189.84,123.83,189,139q-2.5-.42-5.06-.64.5-5.49,1-21.53.5-16.51,1.05-21.95t1-21Q187.59,58,188,52.63Zm-11.92-1a4.77,4.77,0,0,1,3.79,2.11q1.75,2,2.83,8.57a171.36,171.36,0,0,1,1.71,17.5q.48,10.78.25,15t-1.34,15.27a150.34,150.34,0,0,1-2.91,17.67q-1.64,6.38-3.72,8.29a6.51,6.51,0,0,1-4.32,1.7,5.35,5.35,0,0,1-4.06-1.91q-1.9-2.08-2.94-8.58a166.57,166.57,0,0,1-1.55-17.6,141.05,141.05,0,0,1,0-15.64q.21-4.82,1.61-15.47a152.15,152.15,0,0,1,3-17.35Q170.08,54.9,172,53A4.25,4.25,0,0,1,176.1,51.59Z"/><path class="cls-5" d="M34.26,112.67v0a7.65,7.65,0,0,1,7.85-7.79,7.77,7.77,0,0,1,5.94,2.32l-2.11,2.43a5.56,5.56,0,0,0-3.85-1.7,4.46,4.46,0,0,0-4.37,4.69v0a4.47,4.47,0,0,0,4.37,4.73,5.44,5.44,0,0,0,4-1.76l2.11,2.13A7.7,7.7,0,0,1,42,120.42,7.6,7.6,0,0,1,34.26,112.67Z"/><path class="cls-5" d="M50.81,105.1h6.88a6,6,0,0,1,4.39,1.53,4.73,4.73,0,0,1,1.29,3.44v0a4.68,4.68,0,0,1-3.23,4.67l3.68,5.38H59.95l-3.23-4.82h-2.6v4.82H50.81Zm6.67,7.31c1.61,0,2.54-.86,2.54-2.13v0c0-1.42-1-2.15-2.6-2.15H54.12v4.32Z"/><path class="cls-5" d="M65.7,112.67v0a8,8,0,0,1,16,0v0a8,8,0,0,1-16,0Zm12.54,0v0a4.58,4.58,0,0,0-4.56-4.73,4.5,4.5,0,0,0-4.52,4.69v0a4.57,4.57,0,0,0,4.56,4.73A4.5,4.5,0,0,0,78.24,112.67Z"/><path class="cls-5" d="M83.51,118l2-2.35a6.91,6.91,0,0,0,4.5,1.83c1.36,0,2.17-.54,2.17-1.42v0c0-.84-.52-1.27-3-1.92-3-.77-5-1.61-5-4.6v0c0-2.73,2.19-4.54,5.27-4.54A8.72,8.72,0,0,1,95,106.8l-1.72,2.5a7.07,7.07,0,0,0-3.92-1.48c-1.27,0-1.94.58-1.94,1.31v0c0,1,.65,1.31,3.25,2,3.05.8,4.78,1.89,4.78,4.52v0c0,3-2.28,4.67-5.53,4.67A9.59,9.59,0,0,1,83.51,118Z"/><path class="cls-5" d="M97.07,118l2-2.35a6.91,6.91,0,0,0,4.5,1.83c1.35,0,2.17-.54,2.17-1.42v0c0-.84-.52-1.27-3-1.92-3-.77-5-1.61-5-4.6v0c0-2.73,2.19-4.54,5.27-4.54a8.72,8.72,0,0,1,5.59,1.91l-1.72,2.5a7.07,7.07,0,0,0-3.92-1.48c-1.27,0-1.94.58-1.94,1.31v0c0,1,.65,1.31,3.25,2,3.06.8,4.78,1.89,4.78,4.52v0c0,3-2.28,4.67-5.53,4.67A9.59,9.59,0,0,1,97.07,118Z"/><path class="cls-5" d="M121.83,108.16h-4.58V105.1h12.48v3.06h-4.58v12h-3.31Z"/><path class="cls-5" d="M132.42,105.1h3.31v15.06h-3.31Z"/><path class="cls-5" d="M139.5,105.1h3.57l4,6.37,4-6.37h3.57v15.06h-3.29v-9.83L147,116.76h-.09l-4.2-6.37v9.77H139.5Z"/><path class="cls-5" d="M158.17,105.1h7a5.44,5.44,0,0,1,3.94,1.33,3.46,3.46,0,0,1,1,2.56v0a3.5,3.5,0,0,1-2,3.25C169.9,113,171,114,171,116v0c0,2.75-2.24,4.13-5.64,4.13h-7.16Zm8.67,4.45c0-1-.77-1.55-2.17-1.55H161.4v3.18h3.06c1.46,0,2.39-.47,2.39-1.59Zm-1.61,4.39H161.4v3.31h3.94c1.46,0,2.34-.52,2.34-1.64v0C167.68,114.57,166.93,113.94,165.23,113.94Z"/><path class="cls-5" d="M173.71,105.1h11.36V108H177v3.06h7.1v2.95H177v3.16h8.18v2.95H173.71Z"/><path class="cls-5" d="M188.13,105.1H195a6,6,0,0,1,4.39,1.53,4.73,4.73,0,0,1,1.29,3.44v0a4.68,4.68,0,0,1-3.23,4.67l3.68,5.38h-3.87L194,115.34h-2.6v4.82h-3.31Zm6.67,7.31c1.61,0,2.54-.86,2.54-2.13v0c0-1.42-1-2.15-2.6-2.15h-3.29v4.32Z"/><path class="cls-5" d="M202.65,118l2-2.35a6.91,6.91,0,0,0,4.5,1.83c1.35,0,2.17-.54,2.17-1.42v0c0-.84-.52-1.27-3-1.92-3-.77-5-1.61-5-4.6v0c0-2.73,2.19-4.54,5.27-4.54a8.72,8.72,0,0,1,5.59,1.91l-1.72,2.5a7.07,7.07,0,0,0-3.92-1.48c-1.27,0-1.94.58-1.94,1.31v0c0,1,.65,1.31,3.25,2,3.06.8,4.78,1.89,4.78,4.52v0c0,3-2.28,4.67-5.53,4.67A9.59,9.59,0,0,1,202.65,118Z"/><path class="cls-5" d="M50.35,125.54H61.71v2.95H53.65v3.05h7.1v2.95h-7.1v3.16h8.18v2.95H50.35Z"/><path class="cls-5" d="M64.77,125.54h3.31v12h7.51v3H64.77Z"/><path class="cls-5" d="M78.09,125.54H89.45v2.95H81.38v3.05h7.1v2.95h-7.1v3.16h8.18v2.95H78.09Z"/><path class="cls-5" d="M92.5,125.54h3.57l4,6.37,4-6.37h3.57V140.6h-3.29v-9.83L100,137.2h-.09l-4.2-6.37v9.77H92.5Z"/><path class="cls-5" d="M111.18,125.54h11.36v2.95h-8.07v3.05h7.1v2.95h-7.1v3.16h8.18v2.95H111.18Z"/><path class="cls-5" d="M125.6,125.54h3.05l7.06,9.27v-9.27H139V140.6h-2.82L128.87,131v9.57H125.6Z"/><path class="cls-5" d="M146.1,128.6h-4.58v-3.06H154v3.06h-4.58v12H146.1Z"/><path class="cls-5" d="M159.76,125.43h3.06l6.45,15.17h-3.46l-1.38-3.38h-6.37l-1.38,3.38h-3.38Zm3.49,8.86-2-4.88-2,4.88Z"/><path class="cls-5" d="M171.6,125.54h6.88a6,6,0,0,1,4.39,1.53,4.73,4.73,0,0,1,1.29,3.44v0a4.68,4.68,0,0,1-3.23,4.67l3.68,5.38h-3.87l-3.23-4.82h-2.6v4.82H171.6Zm6.67,7.32c1.61,0,2.54-.86,2.54-2.13v0c0-1.42-1-2.15-2.6-2.15h-3.29v4.32Z"/><path class="cls-5" d="M190.86,134.67l-5.79-9.12h3.87l3.59,6,3.66-6H200l-5.79,9.06v6h-3.31Z"/><path class="cls-5" d="M77.21,158.85l2-2.35a6.91,6.91,0,0,0,4.5,1.83c1.35,0,2.17-.54,2.17-1.42v0c0-.84-.52-1.27-3-1.92-3-.77-5-1.61-5-4.6v0c0-2.73,2.19-4.54,5.27-4.54a8.72,8.72,0,0,1,5.59,1.92L87,150.18A7.07,7.07,0,0,0,83,148.69c-1.27,0-1.94.58-1.94,1.31v0c0,1,.65,1.31,3.25,2,3.06.8,4.78,1.89,4.78,4.52v0c0,3-2.28,4.67-5.53,4.67A9.59,9.59,0,0,1,77.21,158.85Z"/><path class="cls-5" d="M91.34,153.56v0a7.65,7.65,0,0,1,7.85-7.79,7.77,7.77,0,0,1,5.94,2.32L103,150.48a5.56,5.56,0,0,0-3.85-1.7,4.46,4.46,0,0,0-4.37,4.69v0a4.47,4.47,0,0,0,4.37,4.73,5.43,5.43,0,0,0,4-1.76l2.11,2.13a7.7,7.7,0,0,1-6.17,2.69A7.6,7.6,0,0,1,91.34,153.56Z"/><path class="cls-5" d="M107.89,146h3.31v6h6.11v-6h3.31V161h-3.31v-6H111.2v6h-3.31Z"/><path class="cls-5" d="M123.58,153.56v0a8,8,0,0,1,16,0v0a8,8,0,0,1-16,0Zm12.54,0v0a4.58,4.58,0,0,0-4.56-4.73,4.5,4.5,0,0,0-4.52,4.69v0a4.57,4.57,0,0,0,4.56,4.73A4.5,4.5,0,0,0,136.12,153.56Z"/><path class="cls-5" d="M141.86,153.56v0a8,8,0,0,1,16,0v0a8,8,0,0,1-16,0Zm12.54,0v0a4.58,4.58,0,0,0-4.56-4.73,4.5,4.5,0,0,0-4.52,4.69v0a4.57,4.57,0,0,0,4.56,4.73A4.5,4.5,0,0,0,154.41,153.56Z"/><path class="cls-5" d="M160.82,146h3.31v12h7.51v3H160.82Z"/><path class="cls-5" d="M76,170.74H72.75V168.6h8.76v2.14H78.29v8.43H76Z"/><path class="cls-5" d="M81.07,175.17v0a4,4,0,0,1,4-4.21c2.7,0,3.94,2.1,3.94,4.4,0,.18,0,.39,0,.6H83.35a1.88,1.88,0,0,0,2,1.59,2.65,2.65,0,0,0,2-.83l1.31,1.16a4.28,4.28,0,0,1-7.54-2.67Zm5.71-.68a1.74,1.74,0,0,0-1.71-1.72,1.8,1.8,0,0,0-1.75,1.72Z"/><path class="cls-5" d="M90.33,175.17v0a4.16,4.16,0,0,1,4.24-4.21,4,4,0,0,1,3.23,1.36l-1.41,1.51a2.37,2.37,0,0,0-1.84-.89,2.07,2.07,0,0,0-2,2.21v0a2.07,2.07,0,0,0,2.05,2.24,2.56,2.56,0,0,0,1.86-.86l1.34,1.36a4.08,4.08,0,0,1-3.31,1.48A4.13,4.13,0,0,1,90.33,175.17Z"/><path class="cls-5" d="M99.29,176.32v-5.24h2.3v4.52c0,1.09.51,1.65,1.39,1.65s1.44-.56,1.44-1.65v-4.52h2.3v8.1h-2.3V178a2.87,2.87,0,0,1-2.37,1.3C100.3,179.32,99.29,178.17,99.29,176.32Z"/><path class="cls-5" d="M108.76,171.07h2.3v1.15a2.89,2.89,0,0,1,2.39-1.3,2.42,2.42,0,0,1,2.28,1.28,3.33,3.33,0,0,1,2.66-1.28c1.71,0,2.73,1,2.73,3v5.27h-2.3v-4.52c0-1.09-.48-1.65-1.34-1.65s-1.39.56-1.39,1.65v4.52h-2.3v-4.52c0-1.09-.48-1.65-1.34-1.65s-1.39.56-1.39,1.65v4.52h-2.3Z"/><path class="cls-5" d="M122.48,178.1l1-1.51a4.57,4.57,0,0,0,2.55,1c.66,0,1-.24,1-.6v0c0-.5-.79-.66-1.68-.94-1.13-.33-2.42-.86-2.42-2.43v0c0-1.65,1.33-2.57,3-2.57a5.6,5.6,0,0,1,3,.94l-.88,1.59a4.8,4.8,0,0,0-2.19-.75c-.56,0-.85.24-.85.56v0c0,.45.77.67,1.65,1,1.13.38,2.45.92,2.45,2.4v0c0,1.8-1.34,2.61-3.1,2.61A5.67,5.67,0,0,1,122.48,178.1Z"/><path class="cls-5" d="M130.3,175.17v0a4,4,0,0,1,4-4.21c2.7,0,3.94,2.1,3.94,4.4,0,.18,0,.39,0,.6h-5.63a1.88,1.88,0,0,0,2,1.59,2.65,2.65,0,0,0,2-.83l1.31,1.16a4.28,4.28,0,0,1-7.54-2.67Zm5.71-.68a1.74,1.74,0,0,0-1.71-1.72,1.8,1.8,0,0,0-1.75,1.72Z"/><path class="cls-5" d="M140,168.14h2.3v4.08a2.87,2.87,0,0,1,2.37-1.3c1.74,0,2.75,1.15,2.75,3v5.24h-2.3v-4.52c0-1.09-.51-1.65-1.39-1.65s-1.44.56-1.44,1.65v4.52H140Z"/><path class="cls-5" d="M148.73,180.67c1-.11,1.56-.63,1.48-1.5h-.94v-2.42h2.45v2c0,2-1,2.79-2.79,2.83Z"/><path class="cls-5" d="M158,173.91v0a5.62,5.62,0,0,1,11.24,0v0a5.62,5.62,0,0,1-11.24,0Zm8.81,0v0a3.21,3.21,0,0,0-3.2-3.32,3.16,3.16,0,0,0-3.17,3.29v0a3.21,3.21,0,0,0,3.2,3.32A3.16,3.16,0,0,0,166.8,173.91Z"/><path class="cls-5" d="M171.3,168.6h2.33v4.62l4.29-4.62h2.81l-4.31,4.49,4.5,6.09h-2.79l-3.28-4.5-1.22,1.27v3.23H171.3Z"/></g></g></svg>