<svg id="Layer_1" data-name="Layer 1" xmlns="http://www.w3.org/2000/svg" viewBox="0 0 250 250"><defs><style>.cls-1{fill:#f29c1f;}.cls-2{fill:#f0c419;}.cls-2,.cls-3{fill-rule:evenodd;}.cls-3{fill:#231f20;opacity:0.15;}.cls-4{fill:#fff;}</style></defs><title>Artboard 27</title><rect class="cls-1" x="-0.26" y="0.32" width="249.99" height="250"/><path class="cls-2" d="M197.34,43,168.56,176.82l-4.82,22.38q-33.82-18.77-15.85,47.68L55,91.85l23.56-79q31.66,8.64,63.51,16.69Q169.64,36.47,197.34,43Z"/><path class="cls-3" d="M147.61,148.44l6.84,6.61L161.65,110Zm-46.25-47.59,3.13,3.29,6.4-29.53Zm35.43-32.19q-.48-4-1.81-5.31l-20.1,72.51q1.41,1,3.6-.71a19.21,19.21,0,0,0,4.51-6,89.09,89.09,0,0,0,4.61-9.9q2.18-5.83,4.47-13.45,2-7.42,3.34-14.53,1.1-7.22,1.6-13.14A74.66,74.66,0,0,0,136.79,68.66ZM121.39,29l5.1,1.15L99.36,157.68l-4.82-7.88L98,133.63l-5.67-8.11-4.73,13-3.83-6.18Zm15.12,3,6.77,1.65q2.73,1.59,4.21,8a72.14,72.14,0,0,1,.87,16.79,185.41,185.41,0,0,1-2.47,24.22Q143.6,96.52,139.45,112q-4.23,15.31-8.89,27.42a193,193,0,0,1-9.5,20.08q-4.76,7.12-8.54,9.8-3.93,2-6.58-.94l-5.27-8.56Zm37.57,10.13,10.56,2.54-24.9,146q-6.09-3-10.25-1.83l3.29-22.29-10-9.12-15.68,45.43-7.95-13.07ZM79.49,125.28l-2.8-4.61,24.12-96.92,4.42,1.13L89.6,84l20.86-57.72,4.8,1Zm-.85-52L74.51,87l4.68,5.62-6.44,21.54L66.28,103.7,91.2,21.38l8.58,2.12L93.72,43.71,88.38,41.1,84.55,53.8l4.09,2.73L82.55,77.15ZM80.9,19l2.45.61L73.24,65.28l13.68-45,2.66.64L65,101.65l-2.14-3.39,11-48.34L60.4,94.06l-1.67-2.68Z"/><path class="cls-4" d="M66.34,79.6h6.88a6,6,0,0,1,4.39,1.53,4.72,4.72,0,0,1,1.29,3.44v0a4.68,4.68,0,0,1-3.23,4.67l3.68,5.38H75.48l-3.23-4.82h-2.6v4.82H66.34ZM73,86.92c1.61,0,2.54-.86,2.54-2.13v0c0-1.42-1-2.15-2.6-2.15H69.65v4.32Z"/><path class="cls-4" d="M81.89,79.6H93.25v2.95H85.18V85.6h7.1v2.95h-7.1v3.16h8.18v2.95H81.89Z"/><path class="cls-4" d="M100.55,88.72,94.76,79.6h3.87l3.59,6,3.66-6h3.77l-5.79,9.06v6h-3.31Z"/><path class="cls-4" d="M111.71,79.6h3.05l7.06,9.27V79.6h3.27V94.66h-2.82L115,85.09v9.57h-3.27Z"/><path class="cls-4" d="M133.88,79.49h3.05l6.46,15.17h-3.46l-1.38-3.38h-6.37l-1.38,3.38h-3.38Zm3.48,8.86-2-4.88-2,4.88Z"/><path class="cls-4" d="M145.71,79.6H149v12h7.51v3H145.71Z"/><path class="cls-4" d="M159,79.6h5.87c4.73,0,8,3.25,8,7.49v0c0,4.24-3.27,7.53-8,7.53H159Zm3.31,3v9.08h2.56a4.29,4.29,0,0,0,4.54-4.5v0a4.33,4.33,0,0,0-4.54-4.54Z"/><path class="cls-4" d="M175.19,87.17v0a8,8,0,0,1,16,0v0a8,8,0,0,1-16,0Zm12.54,0v0a4.58,4.58,0,0,0-4.56-4.73,4.5,4.5,0,0,0-4.52,4.69v0a4.57,4.57,0,0,0,4.56,4.73A4.51,4.51,0,0,0,187.73,87.17Z"/><path class="cls-4" d="M67.49,100h3.57l4,6.37L79,100h3.57V115.1H79.26v-9.83L75,111.7h-.09l-4.2-6.37v9.77H67.49Z"/><path class="cls-4" d="M91.33,99.94h3.05l6.46,15.17H97.37L96,111.73H89.63l-1.38,3.38H84.87Zm3.48,8.86-2-4.88-2,4.88Z"/><path class="cls-4" d="M103.16,100H110a6,6,0,0,1,4.39,1.53,4.72,4.72,0,0,1,1.29,3.44v0a4.68,4.68,0,0,1-3.23,4.67l3.68,5.38h-3.87l-3.23-4.82h-2.6v4.82h-3.31Zm6.67,7.32c1.61,0,2.54-.86,2.54-2.13v0c0-1.42-1-2.15-2.6-2.15h-3.29v4.32Z"/><path class="cls-4" d="M122.23,103.1h-4.58V100h12.48v3.06h-4.58v12h-3.31Z"/><path class="cls-4" d="M132.81,100h3.31V115.1h-3.31Z"/><path class="cls-4" d="M139.89,100h3.05l7.06,9.27V100h3.27V115.1h-2.82l-7.29-9.57v9.57h-3.27Z"/><path class="cls-4" d="M156.89,100h11.36V103h-8.07V106h7.1V109h-7.1v3.16h8.18v2.95H156.89Z"/><path class="cls-4" d="M170.85,112.59l8.28-9.64h-8V100H183.4v2.52l-8.28,9.64h8.28v2.9H170.85Z"/><path class="cls-4" d="M51.18,120.48H62.54v2.95H54.47v3.06h7.1v2.95h-7.1v3.16h8.18v2.95H51.18Z"/><path class="cls-4" d="M65.59,120.48h3.31v12h7.51v3H65.59Z"/><path class="cls-4" d="M78.91,120.48H90.27v2.95H82.2v3.06h7.1v2.95H82.2v3.16h8.18v2.95H78.91Z"/><path class="cls-4" d="M93.33,120.48H96.9l4,6.37,4-6.37h3.57v15.06H105.1v-9.83l-4.24,6.43h-.09l-4.2-6.37v9.77H93.33Z"/><path class="cls-4" d="M112,120.48h11.36v2.95H115.3v3.06h7.1v2.95h-7.1v3.16h8.18v2.95H112Z"/><path class="cls-4" d="M126.42,120.48h3.05l7.06,9.27v-9.27h3.27v15.06H137L129.69,126v9.57h-3.27Z"/><path class="cls-4" d="M146.93,123.54h-4.58v-3.06h12.48v3.06h-4.58v12h-3.31Z"/><path class="cls-4" d="M160.59,120.38h3.06l6.45,15.17h-3.46l-1.38-3.38h-6.37l-1.38,3.38h-3.38Zm3.49,8.86-2-4.88-2,4.88Z"/><path class="cls-4" d="M172.42,120.48h6.88A6,6,0,0,1,183.7,122a4.73,4.73,0,0,1,1.29,3.44v0a4.68,4.68,0,0,1-3.23,4.67l3.68,5.38h-3.87l-3.23-4.82h-2.6v4.82h-3.31Zm6.67,7.32c1.62,0,2.54-.86,2.54-2.13v0c0-1.42-1-2.15-2.6-2.15h-3.29v4.33Z"/><path class="cls-4" d="M191.68,129.61l-5.79-9.12h3.87l3.59,6,3.66-6h3.77L195,129.54v6h-3.31Z"/><path class="cls-4" d="M78,153.79l2-2.35a6.91,6.91,0,0,0,4.5,1.83c1.35,0,2.17-.54,2.17-1.42v0c0-.84-.52-1.27-3-1.92-3-.77-5-1.61-5-4.6v0c0-2.73,2.2-4.54,5.27-4.54a8.71,8.71,0,0,1,5.59,1.92l-1.72,2.5a7.07,7.07,0,0,0-3.92-1.48c-1.27,0-1.94.58-1.94,1.31v0c0,1,.64,1.31,3.25,2,3.05.8,4.78,1.89,4.78,4.52v0c0,3-2.28,4.67-5.53,4.67A9.58,9.58,0,0,1,78,153.79Z"/><path class="cls-4" d="M92.17,148.5v0a7.65,7.65,0,0,1,7.85-7.79A7.77,7.77,0,0,1,106,143l-2.11,2.43a5.56,5.56,0,0,0-3.85-1.7,4.46,4.46,0,0,0-4.37,4.69v0a4.47,4.47,0,0,0,4.37,4.73,5.43,5.43,0,0,0,4-1.76l2.11,2.13a7.7,7.7,0,0,1-6.18,2.69A7.6,7.6,0,0,1,92.17,148.5Z"/><path class="cls-4" d="M108.71,140.92H112v6h6.11v-6h3.31V156h-3.31v-6H112v6h-3.31Z"/><path class="cls-4" d="M124.4,148.5v0a8,8,0,0,1,16,0v0a8,8,0,0,1-16,0Zm12.54,0v0a4.57,4.57,0,0,0-4.56-4.73,4.5,4.5,0,0,0-4.52,4.69v0a4.57,4.57,0,0,0,4.56,4.73A4.5,4.5,0,0,0,136.94,148.5Z"/><path class="cls-4" d="M142.69,148.5v0a8,8,0,0,1,16,0v0a8,8,0,0,1-16,0Zm12.54,0v0a4.57,4.57,0,0,0-4.56-4.73,4.5,4.5,0,0,0-4.52,4.69v0a4.57,4.57,0,0,0,4.56,4.73A4.5,4.5,0,0,0,155.23,148.5Z"/><path class="cls-4" d="M161.64,140.92H165v12h7.51v3H161.64Z"/><path class="cls-4" d="M72.08,163.54h2.33V172h5.27v2.12h-7.6Z"/><path class="cls-4" d="M80.71,171.79v0c0-1.77,1.34-2.58,3.26-2.58a5.76,5.76,0,0,1,2,.33v-.14c0-1-.59-1.48-1.74-1.48a6,6,0,0,0-2.24.44l-.57-1.75a7.15,7.15,0,0,1,3.14-.65,3.74,3.74,0,0,1,2.73.91,3.52,3.52,0,0,1,.88,2.58v4.7H85.94v-.88a3.11,3.11,0,0,1-2.45,1A2.5,2.5,0,0,1,80.71,171.79Zm5.27-.53v-.41a3.55,3.55,0,0,0-1.46-.3c-1,0-1.59.39-1.59,1.12v0c0,.62.51,1,1.25,1C85.26,172.68,86,172.09,86,171.26Z"/><path class="cls-4" d="M89.5,173l1-1.51a4.57,4.57,0,0,0,2.55,1c.66,0,1-.24,1-.6v0c0-.5-.79-.66-1.68-.94-1.13-.33-2.42-.86-2.42-2.43v0c0-1.65,1.33-2.57,3-2.57a5.6,5.6,0,0,1,3,.94L95,168.42a4.8,4.8,0,0,0-2.19-.75c-.56,0-.85.24-.85.56v0c0,.45.77.67,1.65,1,1.13.38,2.45.92,2.45,2.4v0c0,1.8-1.34,2.61-3.1,2.61A5.67,5.67,0,0,1,89.5,173Z"/><path class="cls-4" d="M101.59,163.54h2.57l2.76,7.45,2.77-7.45h2.51l-4.27,10.65h-2.05Z"/><path class="cls-4" d="M112.13,170.11v0a4,4,0,0,1,4-4.21c2.71,0,3.94,2.1,3.94,4.4,0,.18,0,.39,0,.6h-5.63a1.88,1.88,0,0,0,2,1.59,2.65,2.65,0,0,0,2-.83l1.31,1.16a4.28,4.28,0,0,1-7.54-2.67Zm5.71-.68a1.74,1.74,0,0,0-1.71-1.72,1.81,1.81,0,0,0-1.75,1.72Z"/><path class="cls-4" d="M121.83,175.71l.79-1.72a5.28,5.28,0,0,0,2.73.74c1.57,0,2.31-.75,2.31-2.21v-.39a3.17,3.17,0,0,1-2.64,1.31,3.56,3.56,0,0,1-3.6-3.78v0a3.56,3.56,0,0,1,3.6-3.78,3.28,3.28,0,0,1,2.61,1.21V166h2.3v6.27a4.34,4.34,0,0,1-1,3.19,4.75,4.75,0,0,1-3.49,1.09A7.68,7.68,0,0,1,121.83,175.71Zm5.83-6v0a2,2,0,0,0-3.94,0v0a1.85,1.85,0,0,0,2,1.87A1.87,1.87,0,0,0,127.66,169.67Z"/><path class="cls-4" d="M131.5,171.79v0c0-1.77,1.34-2.58,3.26-2.58a5.76,5.76,0,0,1,2,.33v-.14c0-1-.59-1.48-1.74-1.48a6,6,0,0,0-2.24.44l-.57-1.75a7.15,7.15,0,0,1,3.14-.65,3.74,3.74,0,0,1,2.73.91,3.52,3.52,0,0,1,.88,2.58v4.7h-2.22v-.88a3.11,3.11,0,0,1-2.45,1A2.5,2.5,0,0,1,131.5,171.79Zm5.27-.53v-.41a3.55,3.55,0,0,0-1.46-.3c-1,0-1.59.39-1.59,1.12v0c0,.62.51,1,1.25,1C136,172.68,136.77,172.09,136.77,171.26Z"/><path class="cls-4" d="M140.29,173l1-1.51a4.57,4.57,0,0,0,2.55,1c.66,0,1-.24,1-.6v0c0-.5-.79-.66-1.68-.94-1.13-.33-2.42-.86-2.42-2.43v0c0-1.65,1.33-2.57,3-2.57a5.6,5.6,0,0,1,3,.94l-.87,1.59a4.8,4.8,0,0,0-2.19-.75c-.56,0-.85.24-.85.56v0c0,.45.77.67,1.65,1,1.13.38,2.45.92,2.45,2.4v0c0,1.8-1.34,2.61-3.1,2.61A5.67,5.67,0,0,1,140.29,173Z"/><path class="cls-4" d="M147.87,175.61c1-.11,1.56-.63,1.48-1.5h-.94V171.7h2.45v2c0,2-1,2.79-2.79,2.83Z"/><path class="cls-4" d="M157.6,163.54h2.14l5,6.51v-6.51H167v10.57h-2l-5.12-6.72v6.72h-2.3Z"/><path class="cls-4" d="M168.63,163.54h2.57L174,171l2.77-7.45h2.51L175,174.19H172.9Z"/></svg>