<svg xmlns="http://www.w3.org/2000/svg" viewBox="0 0 250 250"><defs><style>.cls-1{isolation:isolate;}.cls-2{fill:#c03b2b;}.cls-2,.cls-3,.cls-4{fill-rule:evenodd;}.cls-3{fill:#e64c3c;}.cls-4{fill:#231f20;opacity:0.15;mix-blend-mode:multiply;}.cls-5{fill:#fff;}</style></defs><title>Artboard 25</title><g class="cls-1"><g id="Layer_1" data-name="Layer 1"><polyline class="cls-2" points="0.49 0.01 250.49 0.01 250.49 250.01 0.49 250.01"/><polygon class="cls-3" points="157.64 33.3 156.45 70.55 214.31 81.14 188.37 228.79 36.07 213.2 78.21 17.46 157.64 33.3 157.64 33.3"/><path class="cls-4" d="M136.35,165.05l6.16.91,3.85-33.83Zm16.91-85.29,7.6,1.34L146,220.92l-9.54-1.44,2-19.07-12.35-2-5.53,18.51-9.75-1.44ZM193.1,86l8.22,1.28L179.25,226.36l-9.32-1.44,9.5-56.81-11.13-1.81-10.1,56.56L149,221.42,174.78,83l8,1.5L174,134.57l10.66,1.66Z"/><path class="cls-4" d="M82.83,35l10.38,2.19-22.92,104a61.84,61.84,0,0,0-1.78,17.41q.49,7.28,3.25,8,1.2.44,2.94-1.53A20.91,20.91,0,0,0,78,160.43a50.18,50.18,0,0,0,3.1-7.44q1.44-4.46,2.56-9.5L106.75,39.9,117.25,42,93.93,145.61a210.54,210.54,0,0,1-6.47,23.48,162.87,162.87,0,0,1-8,18.95,56.77,56.77,0,0,1-8.32,12.26q-4.08,4.24-7.54,3.5l-.19-.06q-3.28-.71-5.31-5.81-2.07-5-2.53-14.13a123.47,123.47,0,0,1,.66-20.67A190.44,190.44,0,0,1,60,139.29Zm59.56,52.24-8.91-1.59-29.23,127.4-10.13-2.34,28.8-127.37-8.57-1.88L123,42.65l28.26,5.75Z"/><path class="cls-5" d="M67.61,88.17h6.88a6,6,0,0,1,4.39,1.53,4.73,4.73,0,0,1,1.29,3.44v0a4.68,4.68,0,0,1-3.23,4.67l3.68,5.38H76.75l-3.23-4.82h-2.6v4.82H67.61Zm6.67,7.31c1.61,0,2.54-.86,2.54-2.13v0c0-1.42-1-2.15-2.6-2.15H70.92v4.32Z"/><path class="cls-5" d="M83.31,88.17h3.31v15.06H83.31Z"/><path class="cls-5" d="M89.1,88.17h3.66L96.7,98.78l3.94-10.61h3.57l-6.09,15.17H95.19Z"/><path class="cls-5" d="M106.53,88.17h11.36v2.95h-8.07v3.06h7.1v2.95h-7.1v3.16H118v2.95H106.53Z"/><path class="cls-5" d="M120.95,88.17h6.88a6,6,0,0,1,4.39,1.53,4.73,4.73,0,0,1,1.29,3.44v0a4.68,4.68,0,0,1-3.23,4.67l3.68,5.38h-3.87l-3.23-4.82h-2.6v4.82h-3.31Zm6.67,7.31c1.61,0,2.54-.86,2.54-2.13v0c0-1.42-1-2.15-2.6-2.15h-3.29v4.32Z"/><path class="cls-5" d="M135.47,101l2-2.35a6.91,6.91,0,0,0,4.5,1.83c1.36,0,2.17-.54,2.17-1.42v0c0-.84-.52-1.27-3-1.92-3-.77-5-1.61-5-4.6v0c0-2.73,2.19-4.54,5.27-4.54a8.72,8.72,0,0,1,5.59,1.91l-1.72,2.5a7.07,7.07,0,0,0-3.92-1.48c-1.27,0-1.94.58-1.94,1.31v0c0,1,.65,1.31,3.25,2,3.05.8,4.78,1.89,4.78,4.52v0c0,3-2.28,4.67-5.53,4.67A9.59,9.59,0,0,1,135.47,101Z"/><path class="cls-5" d="M150.42,88.17h3.31v15.06h-3.31Z"/><path class="cls-5" d="M157.5,88.17h5.87c4.73,0,8,3.25,8,7.49v0c0,4.24-3.27,7.53-8,7.53H157.5Zm3.31,3v9.08h2.56a4.29,4.29,0,0,0,4.54-4.5v0a4.33,4.33,0,0,0-4.54-4.54Z"/><path class="cls-5" d="M174.33,88.17h11.36v2.95h-8.07v3.06h7.1v2.95h-7.1v3.16h8.18v2.95H174.33Z"/><path class="cls-5" d="M52.34,108.61H63.7v2.95H55.63v3.06h7.1v2.95h-7.1v3.16h8.18v2.95H52.34Z"/><path class="cls-5" d="M66.76,108.61h3.31v12h7.51v3H66.76Z"/><path class="cls-5" d="M80.07,108.61H91.43v2.95H83.37v3.06h7.1v2.95h-7.1v3.16h8.18v2.95H80.07Z"/><path class="cls-5" d="M94.49,108.61h3.57l4,6.37,4-6.37h3.57v15.06h-3.29v-9.83L102,120.28h-.09l-4.2-6.37v9.77H94.49Z"/><path class="cls-5" d="M113.17,108.61h11.36v2.95h-8.07v3.06h7.1v2.95h-7.1v3.16h8.18v2.95H113.17Z"/><path class="cls-5" d="M127.58,108.61h3.05l7.06,9.27v-9.27H141v15.06h-2.82l-7.29-9.57v9.57h-3.27Z"/><path class="cls-5" d="M148.09,111.67h-4.58v-3.06H156v3.06H151.4v12h-3.31Z"/><path class="cls-5" d="M161.75,108.51h3.06l6.45,15.17H167.8l-1.38-3.38h-6.37l-1.38,3.38H155.3Zm3.49,8.86-2-4.88-2,4.88Z"/><path class="cls-5" d="M173.59,108.61h6.88a6,6,0,0,1,4.39,1.53,4.73,4.73,0,0,1,1.29,3.44v0a4.68,4.68,0,0,1-3.23,4.67l3.68,5.38h-3.87l-3.23-4.82h-2.6v4.82h-3.31Zm6.67,7.32c1.61,0,2.54-.86,2.54-2.13v0c0-1.42-1-2.15-2.6-2.15H176.9v4.32Z"/><path class="cls-5" d="M192.84,117.74l-5.79-9.12h3.87l3.59,6,3.66-6h3.76l-5.79,9.06v6h-3.31Z"/><path class="cls-5" d="M66,131.23h2.49l2.19,7.16,2.37-7.19h2l2.37,7.19,2.19-7.16h2.43l-3.61,10.65h-2L74.07,135l-2.39,6.92h-2Z"/><path class="cls-5" d="M82,139.48v0c0-1.77,1.34-2.58,3.26-2.58a5.76,5.76,0,0,1,2,.33v-.14c0-1-.59-1.48-1.74-1.48a6,6,0,0,0-2.24.44l-.57-1.75a7.15,7.15,0,0,1,3.14-.65,3.74,3.74,0,0,1,2.73.91,3.53,3.53,0,0,1,.88,2.58v4.7H87.26v-.88a3.12,3.12,0,0,1-2.45,1A2.51,2.51,0,0,1,82,139.48Zm5.27-.53v-.41a3.55,3.55,0,0,0-1.46-.3c-1,0-1.59.39-1.59,1.12v0c0,.62.51,1,1.25,1C86.58,140.37,87.3,139.78,87.3,138.95Z"/><path class="cls-5" d="M90.82,140.73l1-1.51a4.57,4.57,0,0,0,2.55,1c.66,0,1-.24,1-.6v0c0-.5-.79-.66-1.68-.94-1.13-.33-2.42-.86-2.42-2.43v0c0-1.65,1.33-2.57,3-2.57a5.61,5.61,0,0,1,3,.94l-.88,1.59a4.8,4.8,0,0,0-2.19-.75c-.56,0-.85.24-.85.56v0c0,.45.77.67,1.65,1,1.13.38,2.45.92,2.45,2.4v0c0,1.8-1.34,2.61-3.1,2.61A5.67,5.67,0,0,1,90.82,140.73Z"/><path class="cls-5" d="M99,130.78h2.29v4.08a2.87,2.87,0,0,1,2.37-1.3c1.74,0,2.75,1.15,2.75,3v5.24h-2.29v-4.52c0-1.09-.51-1.65-1.39-1.65s-1.44.56-1.44,1.65v4.52H99Z"/><path class="cls-5" d="M108.5,130.78h2.42v2H108.5Zm.06,2.93h2.3v8.1h-2.3Z"/><path class="cls-5" d="M113,133.71h2.3v1.15a2.86,2.86,0,0,1,2.37-1.3c1.74,0,2.75,1.15,2.75,3v5.24h-2.3v-4.52c0-1.09-.51-1.65-1.39-1.65s-1.43.56-1.43,1.65v4.52H113Z"/><path class="cls-5" d="M122.47,143.4l.79-1.72a5.28,5.28,0,0,0,2.73.74c1.57,0,2.31-.75,2.31-2.21v-.39a3.17,3.17,0,0,1-2.64,1.31,3.56,3.56,0,0,1-3.59-3.78v0a3.56,3.56,0,0,1,3.59-3.78,3.28,3.28,0,0,1,2.61,1.21v-1.06h2.3V140a4.34,4.34,0,0,1-1,3.19,4.75,4.75,0,0,1-3.49,1.09A7.68,7.68,0,0,1,122.47,143.4Zm5.83-6v0a2,2,0,0,0-3.94,0v0a1.85,1.85,0,0,0,2,1.87A1.87,1.87,0,0,0,128.3,137.36Z"/><path class="cls-5" d="M133,139.51v-3.84h-1v-2h1v-2.07h2.3v2.07h1.9v2h-1.9v3.46c0,.53.23.79.74.79a2.34,2.34,0,0,0,1.13-.29v1.84a3.38,3.38,0,0,1-1.81.47C134,141.94,133,141.38,133,139.51Z"/><path class="cls-5" d="M138.27,137.8v0a4.38,4.38,0,0,1,8.76,0v0a4.25,4.25,0,0,1-4.4,4.21A4.21,4.21,0,0,1,138.27,137.8Zm6.5,0v0a2.15,2.15,0,0,0-2.13-2.24,2.07,2.07,0,0,0-2.1,2.21v0a2.15,2.15,0,0,0,2.13,2.24A2.07,2.07,0,0,0,144.77,137.8Z"/><path class="cls-5" d="M148.69,133.71H151v1.15a2.87,2.87,0,0,1,2.37-1.3c1.74,0,2.75,1.15,2.75,3v5.24h-2.3v-4.52c0-1.09-.51-1.65-1.39-1.65s-1.44.56-1.44,1.65v4.52h-2.3Z"/><path class="cls-5" d="M157.47,143.3c1-.11,1.56-.63,1.48-1.5H158v-2.42h2.45v2c0,2-1,2.79-2.79,2.83Z"/><path class="cls-5" d="M167,137.27v-6h2.33v6c0,1.72.86,2.61,2.28,2.61s2.28-.86,2.28-2.54v-6.06h2.33v6c0,3.2-1.8,4.77-4.64,4.77S167,140.38,167,137.27Z"/><path class="cls-5" d="M181.08,133.37h-3.22v-2.14h8.76v2.14h-3.22v8.43h-2.33Z"/></g></g></svg>