<svg xmlns="http://www.w3.org/2000/svg" viewBox="0 0 250 250"><defs><style>.cls-1{isolation:isolate;}.cls-2{fill:#24ae5f;}.cls-3{fill:#71c063;}.cls-3,.cls-4{fill-rule:evenodd;}.cls-4{fill:#231f20;opacity:0.15;mix-blend-mode:multiply;}.cls-5{fill:#fff;}</style></defs><title>Artboard 13</title><g class="cls-1"><g id="Layer_1" data-name="Layer 1"><rect class="cls-2" x="0.78" y="-0.42" width="249.99" height="250"/><path class="cls-3" d="M41.76,153.59s21.81,27.53,49.83,29,51.44-13,51.44-13l58.7,25L240.61,81.4,90.15,41.48a23,23,0,0,1-2.3,9.34c-2.37,5,4.38,5.53,3.16,9.91S86.34,63.68,88.78,68s6.75,11.13,3.88,15.8S90,92.41,85.76,89.9s-6.25,5.75-5.6,5.75-5.24,18-11.28,16-7.25-14-3.23-21.12,1.58-7,1.58-7-7-1.94-5.32-5.67,5.6.57,1.65-3.74S53.73,65,50.93,65s-5.32,1.15-8.19-1-19-17.89-19-17.89,1.58,18.68-.65,24.93-5.53,23.49-5.53,23.49,10.13,1.08,8.33,6.82-3.66,8-3.66,8,1.58,9.05-5.1,11.28,33.74,5.35,24.67,32.88"/><path class="cls-4" d="M27.78,61.5a18.82,18.82,0,0,0,5.72,3.16q2.43,19.79,4,34.28A292.3,292.3,0,0,0,41,66.8a7.08,7.08,0,0,1,5.06,1.72q2.64,21.8,2.31,36.14,3.87-11.47,5.23-33.28a36.74,36.74,0,0,1,5.77,2.15q-3,36.72-15.85,60.24a26.91,26.91,0,0,0-3.38-4.59q4.65-19.08,3-30.69-1.24,10.62-7.45,27.39a29.88,29.88,0,0,0-4.41-2.15A268.1,268.1,0,0,0,27.78,61.5Z"/><path class="cls-4" d="M64.5,160.15l-9.12-5.82-3.3,4.88-6-5.32,18-39L69.6,114l.86,57.11-7-4ZM60.91,145l4.81,2.23-.36-10.85ZM86.2,103.62a13,13,0,0,1,2.23-3.45A14.5,14.5,0,0,1,90,97.8q.79-1,1.58-.57t1.72,2.8a49.66,49.66,0,0,1,1.94,7.11q.79,5.32,1.58,10.92l-4.81,5a12.46,12.46,0,0,0-.72-4l-.86-1.15c-.14,0-.22,0-.22.07l-.5.36-.5,1.15-.43,2.73a20.21,20.21,0,0,0,.07,4.53,8.31,8.31,0,0,0,.86,3.09l4.38,4.31a11.94,11.94,0,0,1,2.8,5.46A61.24,61.24,0,0,1,96,151.39a81.28,81.28,0,0,1-4.38,15.44q-3.16,6.46-6.68,8.55a15.7,15.7,0,0,1-2.59.93H80.31a4.14,4.14,0,0,1-2.08-1.51,6.85,6.85,0,0,1-1.37-3.09,22.38,22.38,0,0,1-.5-8.84A36.35,36.35,0,0,1,78,152l6.46.36a24.89,24.89,0,0,0-.72,4.31A5.34,5.34,0,0,0,84,159q.36,1.44.93,1.44.57.22,1.65-.79l1.15-1.58,1.51-3.59.65-2.66.07-3.3-.43-1.15-4.24-3.81a8.76,8.76,0,0,1-1.65-3.23,26.52,26.52,0,0,1-1.08-6.25,71.42,71.42,0,0,1-.36-8.76,53.79,53.79,0,0,1,.5-9.27,28.39,28.39,0,0,1,1.51-7.18A18.49,18.49,0,0,1,86.2,103.62ZM98.84,57.14l.5-10.06q12.93,39.08,18.89,71.47,1.65,24.71,1.51,55.17l-7.26,2.3,1.29-41.52-7.61,5.89-3.88,37-8.12-.07q4.45-23.06,6.82-41.23a319.17,319.17,0,0,0-6-52.37l2.23-11.57,9.12,49.71,6-8.33Z"/><path class="cls-4" d="M138.92,59.58q2.23.65,5,1.58,4.81,46.33.36,105.88a27.36,27.36,0,0,0-3.23.22,380.67,380.67,0,0,0-6.25-65.58q1.65,29.59,1,66.59l-4,1.15q1.58-63.64-11.49-115.22l8.84,2.59q11.42,33.76,13.65,61.42A442.71,442.71,0,0,0,138.92,59.58Zm-30.75-9.05q2.51.57,6.39,1.65,14.87,53.3,14.15,118.09a40.35,40.35,0,0,0-3.88,1.58Q125.13,105.49,108.18,50.53Zm40.15,42.88a81,81,0,0,1,2.23-16.59q1.72-6.61,4.89-8.91a6.24,6.24,0,0,1,6.46-1.15q3.16.72,5.67,4.81,2.23,4,3,11.71-3,7.4-5.82,14.73a20.41,20.41,0,0,0-1.65-6.54,5.15,5.15,0,0,0-2.59-2.73,3.28,3.28,0,0,0-3,1,17.14,17.14,0,0,0-2.59,5.32,37.28,37.28,0,0,0-1.65,8.4,51,51,0,0,0-.86,9,82,82,0,0,0-.14,9.91q.07,5.67.43,11.06a36,36,0,0,0,.93,7.18,9.09,9.09,0,0,0,1.51,3.52q.79.65,1.87-.72a13.84,13.84,0,0,0,2.3-4.38l.72-5.89-4-1.44q1.36-14.08,2.08-22.77,5.17,1.51,9.48,2.94-3.52,28-8.26,59.69a28.32,28.32,0,0,0-4-1.8,9.28,9.28,0,0,1,.22-2.08,11.69,11.69,0,0,0-1.58,1.22,3.21,3.21,0,0,0-1.22-.14q-1.8-.43-2.73-3.81-1.08-3.59-1.65-12.36-.57-9.19-.57-21-.36-12.21.07-20.4Q147.83,103,148.33,93.42Z"/><path class="cls-4" d="M191.43,88.82q2.73-6.54,5.46-9.34,2.8-3,5.24-2.08t3.52,5a45.61,45.61,0,0,1,.65,11.42q-.65,7.83-2.51,18.46-2.3,10.77-4.6,19.47-2.66,8.76-6,18.89a162.79,162.79,0,0,1-6.61,16.81,44.13,44.13,0,0,1-5.17,9.19q-2.15,2.66-3.23,2.37-1.29-.43-1.51-4.31T177,163.6q.65-7.76,2.08-18.68t2.87-20q1.51-9.41,4.09-19.18A116.79,116.79,0,0,1,191.43,88.82Zm5.32,11.85q-1.29-.5-2.66,1.51A30.17,30.17,0,0,0,191,108q-1.44,3.81-2.87,8.69a89.92,89.92,0,0,0-2.3,9.77q-.93,4.45-1.65,10.06-.72,5.24-1.15,9.55a48.57,48.57,0,0,0-.29,7q.21,2.66,1,2.94t2-1.72a52,52,0,0,0,3-6q1.51-3.81,3.23-8.76a92.71,92.71,0,0,0,2.95-9.48q1.22-4.6,2.08-9.84a61.94,61.94,0,0,0,1.29-9.48,25.77,25.77,0,0,0-.07-7Q197.82,101,196.75,100.67Zm-20-7.18q-2.15-.57-4-1.22,1.44-12.86,2.59-22.84,6.61,1.72,14,3.74-1.72,9.91-3.81,23.2l-3.88-1.29q-5.17,38.14-12.14,80.31-1.58-.72-3.52-1.51Q172.54,131.7,176.78,93.49Zm38.65-11.78,5.75,1.15q-5.6,32.54-11.28,61.34,8.76-27.87,18.89-60.12,2.59.5,5.39,1.29Q215.85,138.67,199.84,189a24.71,24.71,0,0,1-3.3-1.44q6.39-32,11.35-60.84-8.19,27.8-16.67,58.18a31.62,31.62,0,0,1-4-1.94Q200.77,132.93,215.42,81.71Z"/><path class="cls-5" d="M79.2,103.43v0a8,8,0,0,1,16,0v0a8,8,0,0,1-16,0Zm12.54,0v0a4.58,4.58,0,0,0-4.56-4.73,4.5,4.5,0,0,0-4.52,4.69v0a4.57,4.57,0,0,0,4.56,4.73A4.5,4.5,0,0,0,91.74,103.43Z"/><path class="cls-5" d="M97.49,103.43v0a7.65,7.65,0,0,1,7.85-7.79,7.77,7.77,0,0,1,5.94,2.32l-2.11,2.43a5.56,5.56,0,0,0-3.85-1.7,4.46,4.46,0,0,0-4.37,4.69v0a4.47,4.47,0,0,0,4.37,4.73,5.44,5.44,0,0,0,4-1.76l2.11,2.13a7.7,7.7,0,0,1-6.17,2.69A7.6,7.6,0,0,1,97.49,103.43Z"/><path class="cls-5" d="M112.93,103.43v0a8,8,0,0,1,16,0v0a8,8,0,0,1-16,0Zm12.54,0v0a4.58,4.58,0,0,0-4.56-4.73,4.5,4.5,0,0,0-4.52,4.69v0a4.57,4.57,0,0,0,4.56,4.73A4.5,4.5,0,0,0,125.48,103.43Z"/><path class="cls-5" d="M130.75,108.73l2-2.35a6.91,6.91,0,0,0,4.5,1.83c1.36,0,2.17-.54,2.17-1.42v0c0-.84-.52-1.27-3-1.92-3-.77-5-1.61-5-4.6v0c0-2.73,2.19-4.54,5.27-4.54a8.72,8.72,0,0,1,5.59,1.91l-1.72,2.5a7.07,7.07,0,0,0-3.92-1.48c-1.27,0-1.94.58-1.94,1.31v0c0,1,.65,1.31,3.25,2,3.05.8,4.78,1.89,4.78,4.52v0c0,3-2.28,4.67-5.53,4.67A9.59,9.59,0,0,1,130.75,108.73Z"/><path class="cls-5" d="M148.74,98.92h-4.58V95.86h12.48v3.06h-4.58v12h-3.31Z"/><path class="cls-5" d="M162.4,95.75h3.06l6.45,15.17h-3.46l-1.38-3.38H160.7l-1.38,3.38h-3.38Zm3.49,8.86-2-4.88-2,4.88Z"/><path class="cls-5" d="M51.21,116.3H62.57v2.95H54.51v3.06h7.1v2.95h-7.1v3.16h8.18v2.95H51.21Z"/><path class="cls-5" d="M65.63,116.3h3.31v12h7.51v3H65.63Z"/><path class="cls-5" d="M78.95,116.3H90.31v2.95H82.24v3.06h7.1v2.95h-7.1v3.16h8.18v2.95H78.95Z"/><path class="cls-5" d="M93.37,116.3h3.57l4,6.37,4-6.37h3.57v15.06h-3.29v-9.83L100.9,128h-.09l-4.2-6.37v9.77H93.37Z"/><path class="cls-5" d="M112,116.3H123.4v2.95h-8.07v3.06h7.1v2.95h-7.1v3.16h8.18v2.95H112Z"/><path class="cls-5" d="M126.46,116.3h3.05l7.06,9.27V116.3h3.27v15.06H137l-7.29-9.57v9.57h-3.27Z"/><path class="cls-5" d="M147,119.36h-4.58V116.3h12.48v3.06h-4.58v12H147Z"/><path class="cls-5" d="M160.63,116.19h3.06l6.45,15.17h-3.46L165.29,128h-6.37l-1.38,3.38h-3.38Zm3.49,8.86-2-4.88-2,4.88Z"/><path class="cls-5" d="M172.46,116.3h6.88a6,6,0,0,1,4.39,1.53,4.73,4.73,0,0,1,1.29,3.44v0A4.68,4.68,0,0,1,181.8,126l3.68,5.38H181.6l-3.23-4.82h-2.6v4.82h-3.31Zm6.67,7.32c1.61,0,2.54-.86,2.54-2.13v0c0-1.42-1-2.15-2.6-2.15h-3.29v4.32Z"/><path class="cls-5" d="M191.72,125.42l-5.79-9.12h3.87l3.59,6,3.66-6h3.76L195,125.36v6h-3.31Z"/><path class="cls-5" d="M71.64,138.92h2.49l2.19,7.16,2.37-7.19h2l2.37,7.19,2.19-7.16h2.43l-3.61,10.65H82l-2.39-6.92-2.39,6.92h-2Z"/><path class="cls-5" d="M87.79,145.49v0a4,4,0,0,1,4-4.21c2.7,0,3.94,2.1,3.94,4.4,0,.18,0,.39,0,.6H90.07a1.88,1.88,0,0,0,2,1.59,2.65,2.65,0,0,0,2-.83l1.31,1.16a4.28,4.28,0,0,1-7.54-2.67Zm5.71-.68a1.74,1.74,0,0,0-1.71-1.72A1.8,1.8,0,0,0,90,144.81Z"/><path class="cls-5" d="M96.8,148.42l1-1.51a4.57,4.57,0,0,0,2.55,1c.67,0,1-.24,1-.6v0c0-.5-.79-.66-1.68-.94-1.13-.33-2.42-.86-2.42-2.43v0c0-1.65,1.33-2.57,3-2.57a5.6,5.6,0,0,1,3,.94l-.88,1.59a4.8,4.8,0,0,0-2.19-.75c-.56,0-.85.24-.85.56v0c0,.45.77.67,1.65,1,1.13.38,2.45.92,2.45,2.4v0c0,1.8-1.34,2.61-3.1,2.61A5.67,5.67,0,0,1,96.8,148.42Z"/><path class="cls-5" d="M105.25,147.19v-3.84h-1v-2h1v-2.07h2.3v2.07h1.9v2h-1.9v3.46c0,.53.23.79.74.79a2.34,2.34,0,0,0,1.13-.29v1.84a3.38,3.38,0,0,1-1.81.47C106.2,149.63,105.25,149.07,105.25,147.19Z"/><path class="cls-5" d="M111.14,141.39h2.3v1.16a3,3,0,0,1,2.52-1.31c1.89,0,3.69,1.48,3.69,4.18v0c0,2.7-1.77,4.18-3.69,4.18a3.11,3.11,0,0,1-2.52-1.21v3.47h-2.3Zm6.21,4.06v0a2,2,0,1,0-3.94,0v0a2,2,0,1,0,3.94,0Z"/><path class="cls-5" d="M120.94,145.49v0a4.38,4.38,0,0,1,8.76,0v0a4.25,4.25,0,0,1-4.4,4.21A4.21,4.21,0,0,1,120.94,145.49Zm6.5,0v0a2.15,2.15,0,0,0-2.13-2.24,2.07,2.07,0,0,0-2.1,2.21v0a2.15,2.15,0,0,0,2.13,2.24A2.07,2.07,0,0,0,127.44,145.49Z"/><path class="cls-5" d="M131.37,141.39h2.3V143a2.5,2.5,0,0,1,2.58-1.78v2.4h-.12c-1.53,0-2.46.92-2.46,2.85v3h-2.3Z"/><path class="cls-5" d="M138.06,147.19v-3.84h-1v-2h1v-2.07h2.3v2.07h1.9v2h-1.9v3.46c0,.53.23.79.74.79a2.34,2.34,0,0,0,1.13-.29v1.84a3.38,3.38,0,0,1-1.81.47C139,149.63,138.06,149.07,138.06,147.19Z"/><path class="cls-5" d="M143.31,151c1-.11,1.56-.63,1.48-1.5h-.94v-2.42h2.45v2c0,2-1,2.79-2.79,2.83Z"/><path class="cls-5" d="M152.23,138.92h2.49l2.19,7.16,2.37-7.19h2l2.37,7.19,2.19-7.16h2.43l-3.61,10.65h-2l-2.39-6.92-2.39,6.92h-2Z"/><path class="cls-5" d="M172.26,138.84h2.14l4.53,10.65H176.5l-1-2.37h-4.47l-1,2.37h-2.37Zm2.45,6.22-1.41-3.43-1.4,3.43Z"/></g></g></svg>