<svg xmlns="http://www.w3.org/2000/svg" viewBox="0 0 250 250"><defs><style>.cls-1{isolation:isolate;}.cls-2{fill:#24ae5f;}.cls-3{fill:#71c063;}.cls-3,.cls-4{fill-rule:evenodd;}.cls-4{fill:#231f20;opacity:0.15;mix-blend-mode:multiply;}.cls-5{fill:#fff;}</style></defs><title>Artboard 5</title><g class="cls-1"><g id="Layer_1" data-name="Layer 1"><rect class="cls-2" x="-0.38" y="0.1" width="249.99" height="250"/><polygon class="cls-3" points="174.19 147.39 174.93 142.17 184.15 145.17 192.34 141.42 189.6 138.04 184.48 137.29 188.24 131.29 192 134.3 192 128.3 188.92 125.67 199.85 112.55 206.68 112.55 206.68 109.54 212.83 109.54 210.78 102.04 213.16 101.67 220 113.67 222.39 105.79 218.29 100.55 214.87 95.67 209.41 91.92 211.12 87.42 221.36 90.42 222.73 87.05 217.27 84.8 209.07 84.42 207.7 79.55 215.56 76.17 221.71 83.67 225.8 83.67 223.41 72.8 225.8 67.92 231.26 69.42 231.95 67.92 228.19 64.54 227.17 60.42 224.78 57.8 220.33 63.05 218.97 56.67 215.21 57.04 215.89 64.92 213.16 64.92 210.78 57.42 211.46 53.67 219.65 46.55 225.8 53.3 230.93 60.05 234.34 71.67 239.46 67.17 236.73 63.8 236.73 58.92 232.29 53.67 230.93 48.42 229.22 48.42 228.53 43.55 227.5 43.55 222.73 43.92 222.73 34.55 218.29 34.17 218.58 33.18 193.65 38.24 89.77 68.53 74.59 67.31 78.03 80.37 69.72 75.8 65.97 82.19 56.42 82.19 53.92 92.23 44.37 88.58 38.13 100 28.15 111.4 20.25 107.3 19.43 115.97 20.25 124.64 11.12 123.27 10.96 131.36 16.67 130.08 47.76 127.2 40.44 127.87 49.77 123.56 65.4 115.48 98.03 110.43 97.57 116.99 106.31 110.43 108.15 116.99 106.77 127.09 127.46 118 147.69 128.61 174.19 147.39 174.19 147.39"/><path class="cls-4" d="M73,98.69a21.68,21.68,0,0,0-2.58-.14q-1.67.19-3.23.42a20.35,20.35,0,0,0-3.18.75,20.93,20.93,0,0,0-3,1,12.09,12.09,0,0,0-2.37,1.17A2.43,2.43,0,0,0,57.62,103q-.4.51.05.84a1.91,1.91,0,0,0,1.31.56,13.84,13.84,0,0,0,2.63,0,17.87,17.87,0,0,0,3.08-.33,23.82,23.82,0,0,0,3.28-.79,19.38,19.38,0,0,0,3-1,13.66,13.66,0,0,0,2.27-1.17A3.27,3.27,0,0,0,74.49,100a1.41,1.41,0,0,0-.15-.84A3.57,3.57,0,0,0,73,98.69Zm1.57-6.78.05-.61a1.13,1.13,0,0,0-.4-.37,3.11,3.11,0,0,0-1,0,11.28,11.28,0,0,0-1.31.19l-1.41.47-1.36.7A6.34,6.34,0,0,0,68,93l6-.37A3,3,0,0,0,74.59,91.92Zm6.62,5.33a1.29,1.29,0,0,1,.35,1.54,6.57,6.57,0,0,1-2.07,2.1,24.13,24.13,0,0,1-4.34,2.2q-2.58,1-5.4,1.92a60.67,60.67,0,0,1-6.06,1.36,43.5,43.5,0,0,1-6,.75,18.74,18.74,0,0,1-4.7-.23A5,5,0,0,1,50.5,106a1.16,1.16,0,0,1-.25-1.64,4.57,4.57,0,0,1,2.17-2.1,23.67,23.67,0,0,1,4.34-2.2,53.88,53.88,0,0,1,5.45-1.87q2.88-.79,6.21-1.4a45,45,0,0,1,5.71-.65,30.22,30.22,0,0,1,4.65.14A5.66,5.66,0,0,1,81.2,97.24Zm-4.95-8.79a9.15,9.15,0,0,1,2.73.19,2.42,2.42,0,0,1,1.26.84l13.13-2.9-3.84,3.65-9.9,1.31-.76.75L87.57,92l-2.27,3.13-25.2.56,3-2.43a12.12,12.12,0,0,1,2.68-1.73A36.49,36.49,0,0,1,69.18,90,29.54,29.54,0,0,1,72.77,89,26.14,26.14,0,0,1,76.25,88.46Zm-.91-1.68L71.51,87l6.72-6.12,4.7-.28L80.6,82.48l17.83-.93-2.27,2.62-18.48.7ZM85.9,74.63l2.68-2.2,22.72-2.76-5,3.78-7.68.42-3.48,2.85,9.09-.56-2.63,2.52L79.49,79.81l2.78-2.29,8.13-.47,3.38-2.85ZM30.7,118.27l5.55-3.18,17.47-4.58-12.93.84L44,108.74l25.5-.93-6.82,2.34-17.42,4.58,13-.79-3.18,2.66Z"/><path class="cls-4" d="M104.48,89.63l1.67-.09,7.27-9.07Zm22-14.72.25-.89q-.15-.42-.45-.33l-8.38,10.23,1.16-.56,1.62-1.31,1.87-1.64q.86-1.07,1.77-2.06a14.57,14.57,0,0,1,1.41-1.92Zm-2.78-7.2,2.12-.28-30.4,38.93-2.58-.28,4.95-6.17-3.18-.19-5.2,5.7-2.93,0Zm-14,8.36a12.66,12.66,0,0,0-2.58,1.87q-1.62,1.31-3.23,2.85-1.82,1.68-3.59,3.65A31.8,31.8,0,0,0,96.91,88a27.1,27.1,0,0,0-2.73,3.32,7.85,7.85,0,0,0-1.46,2.48q-.3.7.15.79a7.67,7.67,0,0,0,1.72-.79q1.06-.89,3-2.48l-4.95,7q-3.89,3.32-6.31,5.14A8.88,8.88,0,0,1,82.92,105q-.86-.14.05-1.92a24.29,24.29,0,0,1,3.33-5,64.12,64.12,0,0,1,5.55-6.59q2.88-3.36,6.46-7,3.33-3.55,6.51-6.36a59.52,59.52,0,0,1,5.55-4.91A30.6,30.6,0,0,1,114.83,70a6.09,6.09,0,0,1,2.47-1.26q.86-.23.76.75a15.23,15.23,0,0,1-1.46,2.94l-6.06,5.14a12.53,12.53,0,0,0,.91-1.78q.05-.56-.35-.42A2.89,2.89,0,0,0,109.68,76.08ZM192,56.64l11.77-2.52-20.45,64L176.54,115l8.23-22.94-6.26.84L163.77,126l-6.31-4.3ZM181.59,88l4.85-.89,8.84-24.25Zm-25-18.22h3.06l-21.23,37.9-3.84.75Zm-24.39-3.18q.81-.23,1,.51a11.55,11.55,0,0,1-.61,2.34,38.6,38.6,0,0,1-2.07,3.69q-1.51,2.15-3.59,5-2.53,3.08-5,5.84-2.63,2.8-5.1,5.19l-11.92,19.35-3.33-.93,9.24-14-1.11.33-10.55,12.8-2.68-.28,33.33-39.49Zm6,8.74a8,8,0,0,0,.61-2.1q-.15-.79-.76-.56a3.29,3.29,0,0,0-1.87.89,12.44,12.44,0,0,0-2.83,2.38,39,39,0,0,0-3.28,3.36A44,44,0,0,0,126.2,84a52.07,52.07,0,0,0-3.43,4.72,24.55,24.55,0,0,0-2.47,4.16,9,9,0,0,0-1.21,3q-.2,1,.5,1.08a6.29,6.29,0,0,0,2.32-1q1.57-1.36,3.48-3.13l3.89-4.39,4-5q1.67-2.57,3-4.77T138.21,75.33Zm6-10.89q1.11-.19,1.21,1a8.06,8.06,0,0,1-.66,3.36q-1,2.38-2.83,6-2.32,3.64-5.45,8.27-3.64,5.14-7.47,9.81-4.29,5-8.08,9.16a79.87,79.87,0,0,1-7.17,6.59q-3.28,2.34-4.7,2.43-1.46-.33-.66-2.94a29.7,29.7,0,0,1,2.93-6.5,80.34,80.34,0,0,1,5.35-8.51q3-4.44,6.72-9.06,3.48-4.49,6.77-8a62.37,62.37,0,0,1,6-6,33.06,33.06,0,0,1,4.54-3.83A7.84,7.84,0,0,1,144.22,64.44Zm7.27-1.12,3-.47-27,40,11-4.77-6.46,10.09-15.15,6.5ZM166.75,61l3.94-.56L165,84.49l10.86-25,10.45-1.68-31.11,61.64-5-3.13L162.5,76.68,145,113.41l-3.89-2.62Zm-5.66.89,3.33-.61L161,67.38h-3Z"/><path class="cls-5" d="M61.22,103v0a7.65,7.65,0,0,1,7.85-7.79A7.77,7.77,0,0,1,75,97.45l-2.11,2.43a5.56,5.56,0,0,0-3.85-1.7,4.46,4.46,0,0,0-4.37,4.69v0a4.47,4.47,0,0,0,4.37,4.73,5.44,5.44,0,0,0,4-1.76L75.12,108a7.7,7.7,0,0,1-6.17,2.69A7.6,7.6,0,0,1,61.22,103Z"/><path class="cls-5" d="M77.77,95.38h6.88A6,6,0,0,1,89,96.91a4.73,4.73,0,0,1,1.29,3.44v0a4.68,4.68,0,0,1-3.23,4.67l3.68,5.38H86.91l-3.23-4.82h-2.6v4.82H77.77Zm6.67,7.31c1.61,0,2.54-.86,2.54-2.13v0c0-1.42-1-2.15-2.6-2.15H81.08v4.32Z"/><path class="cls-5" d="M93.33,95.38h11.36v2.95H96.62v3.06h7.1v2.95h-7.1v3.16h8.18v2.95H93.33Z"/><path class="cls-5" d="M107.74,95.38H119.1v2.95H111v3.06h7.1v2.95H111v3.16h8.18v2.95H107.74Z"/><path class="cls-5" d="M122.16,95.38h3.31V102l6.11-6.58h4l-6.13,6.39,6.41,8.67h-4L127.21,104l-1.74,1.81v4.6h-3.31Z"/><path class="cls-5" d="M136.62,108.25l2-2.35a6.91,6.91,0,0,0,4.5,1.83c1.36,0,2.17-.54,2.17-1.42v0c0-.84-.52-1.27-3-1.92-3-.77-5-1.61-5-4.6v0c0-2.73,2.19-4.54,5.27-4.54a8.72,8.72,0,0,1,5.59,1.91l-1.72,2.5a7.07,7.07,0,0,0-3.92-1.48c-1.27,0-1.94.58-1.94,1.31v0c0,1,.65,1.31,3.25,2,3.05.8,4.78,1.89,4.78,4.52v0c0,3-2.28,4.67-5.53,4.67A9.59,9.59,0,0,1,136.62,108.25Z"/><path class="cls-5" d="M151.57,95.38h3.31v15.06h-3.31Z"/><path class="cls-5" d="M158.65,95.38h5.87c4.73,0,8,3.25,8,7.49v0c0,4.24-3.27,7.53-8,7.53h-5.87Zm3.31,3v9.08h2.56a4.29,4.29,0,0,0,4.54-4.5v0a4.33,4.33,0,0,0-4.54-4.54Z"/><path class="cls-5" d="M175.48,95.38h11.36v2.95h-8.07v3.06h7.1v2.95h-7.1v3.16h8.18v2.95H175.48Z"/><path class="cls-5" d="M50.06,115.83H61.42v2.95H53.35v3.06h7.1v2.95h-7.1v3.16h8.18v2.95H50.06Z"/><path class="cls-5" d="M64.47,115.83h3.31v12h7.51v3H64.47Z"/><path class="cls-5" d="M77.79,115.83H89.15v2.95H81.08v3.06h7.1v2.95h-7.1v3.16h8.18v2.95H77.79Z"/><path class="cls-5" d="M92.21,115.83h3.57l4,6.37,4-6.37h3.57v15.06H104v-9.83l-4.24,6.43h-.09l-4.2-6.37v9.77H92.21Z"/><path class="cls-5" d="M110.88,115.83h11.36v2.95h-8.07v3.06h7.1v2.95h-7.1v3.16h8.18v2.95H110.88Z"/><path class="cls-5" d="M125.3,115.83h3.05l7.06,9.27v-9.27h3.27v15.06h-2.82l-7.29-9.57v9.57H125.3Z"/><path class="cls-5" d="M145.8,118.88h-4.58v-3.06H153.7v3.06h-4.58v12H145.8Z"/><path class="cls-5" d="M159.47,115.72h3.06L169,130.89h-3.46l-1.38-3.38h-6.37l-1.38,3.38H153Zm3.49,8.86-2-4.88-2,4.88Z"/><path class="cls-5" d="M171.3,115.83h6.88a6,6,0,0,1,4.39,1.53,4.73,4.73,0,0,1,1.29,3.44v0a4.68,4.68,0,0,1-3.23,4.67l3.68,5.38h-3.87l-3.23-4.82h-2.6v4.82H171.3Zm6.67,7.32c1.61,0,2.54-.86,2.54-2.13v0c0-1.42-1-2.15-2.6-2.15h-3.29v4.32Z"/><path class="cls-5" d="M190.56,124.95l-5.79-9.12h3.87l3.59,6,3.66-6h3.76l-5.79,9.06v6h-3.31Z"/><path class="cls-5" d="M66.48,138.44H69l2.19,7.16,2.37-7.19h2l2.37,7.19,2.19-7.16h2.43l-3.61,10.65h-2l-2.39-6.92-2.39,6.92h-2Z"/><path class="cls-5" d="M83.83,138h2.42v2H83.83Zm.06,2.93h2.3V149h-2.3Z"/><path class="cls-5" d="M88.34,140.92h2.3v1.15a2.87,2.87,0,0,1,2.37-1.3c1.74,0,2.75,1.15,2.75,3V149h-2.3V144.5c0-1.09-.51-1.65-1.39-1.65s-1.44.56-1.44,1.65V149h-2.3Z"/><path class="cls-5" d="M98.13,146.72v-3.84h-1v-2h1v-2.07h2.3v2.07h1.9v2h-1.9v3.46c0,.53.23.79.74.79a2.34,2.34,0,0,0,1.13-.29v1.84a3.38,3.38,0,0,1-1.81.47C99.08,149.15,98.13,148.59,98.13,146.72Z"/><path class="cls-5" d="M103.4,145v0a4,4,0,0,1,4-4.21c2.7,0,3.94,2.1,3.94,4.4,0,.18,0,.39,0,.6h-5.63a1.88,1.88,0,0,0,2,1.59,2.65,2.65,0,0,0,2-.83l1.31,1.16A4.28,4.28,0,0,1,103.4,145Zm5.71-.68a1.74,1.74,0,0,0-1.71-1.72,1.8,1.8,0,0,0-1.75,1.72Z"/><path class="cls-5" d="M113.06,140.92h2.3v1.63a2.5,2.5,0,0,1,2.58-1.78v2.4h-.12c-1.53,0-2.46.92-2.46,2.85v3h-2.3Z"/><path class="cls-5" d="M118.64,140.92h2.43l1.81,5.42,1.83-5.42h2.39l-3.19,8.16h-2.08Z"/><path class="cls-5" d="M128.48,138h2.42v2h-2.42Zm.06,2.93h2.3V149h-2.3Z"/><path class="cls-5" d="M133.1,138h2.3v11h-2.3Z"/><path class="cls-5" d="M137.66,138H140v11h-2.3Z"/><path class="cls-5" d="M141.73,145v0a4,4,0,0,1,4-4.21c2.7,0,3.94,2.1,3.94,4.4,0,.18,0,.39,0,.6H144a1.88,1.88,0,0,0,2,1.59,2.65,2.65,0,0,0,2-.83l1.31,1.16a4.28,4.28,0,0,1-7.54-2.67Zm5.71-.68a1.74,1.74,0,0,0-1.71-1.72,1.8,1.8,0,0,0-1.75,1.72Z"/><path class="cls-5" d="M150.59,150.51c1-.11,1.56-.63,1.48-1.5h-.94V146.6h2.45v2c0,2-1,2.79-2.79,2.83Z"/><path class="cls-5" d="M160.32,138.44h2.15l5,6.51v-6.51h2.3V149h-2l-5.12-6.72V149h-2.3Z"/><path class="cls-5" d="M171.79,143.76v0a5.37,5.37,0,0,1,5.51-5.47,5.45,5.45,0,0,1,4.17,1.63L180,141.6a3.9,3.9,0,0,0-2.7-1.19,3.13,3.13,0,0,0-3.07,3.29v0a3.14,3.14,0,0,0,3.07,3.32,3.82,3.82,0,0,0,2.78-1.24l1.48,1.5a5.41,5.41,0,0,1-4.34,1.89A5.34,5.34,0,0,1,171.79,143.76Z"/></g></g></svg>