<svg xmlns="http://www.w3.org/2000/svg" viewBox="0 0 250 250"><defs><style>.cls-1{isolation:isolate;}.cls-2{fill:#f29c1f;}.cls-3{fill:#f0c419;}.cls-3,.cls-5{fill-rule:evenodd;}.cls-4{opacity:0.1;mix-blend-mode:multiply;}.cls-5{fill:#231f20;}.cls-6{fill:#fff;}</style></defs><title>Artboard 19</title><g class="cls-1"><g id="Layer_1" data-name="Layer 1"><rect class="cls-2" x="0.25" y="0.31" width="249.99" height="250"/><path class="cls-3" d="M76,14.6l.24.58L72.37,28.34l-.2,7.7-7.29,4.05-4.25,7.29L66.9,59.13,64.07,69.67l1.42,2.63L63.87,79l2.63,4.46,5.06,9.32L69.94,99v.81l3.44,6.28,1.22-2.84.81,3.24L73.19,113l2.63,1.22-1.42,8.71,8.51,3.24-4.05,1.62,1.22,6.89.2,8.3,4.05,11.35,3.85,3.85v6.07l2.63,4.26-3,5.06L90,182.09l8.51,1.62,5.67,1.82,1.22,3,3-.81,2.43,3.44,1.22,5.67,4.66,1.62.81,4.66,4.05,1.42,7.09-.61-.81,6.89,3.24-.2-1,4.05,4.86,3.44-1.42,7.09,2.43,3.85-2.23,3.24,3.24,1.82L181,238.43l4.48-4.66-6.14-6.14,1.75-1.75-1.75-4.38,4.39-1.32v-7l12.28-5.7-9.21-9.21.44-4.83L121.49,88.16,140.35,30.7,85.09,14.91,76,14.6Z"/><g class="cls-4"><polygon class="cls-5" points="117.06 85.85 117.26 91.03 94.21 96.2 93.48 88.61 117.06 85.85"/><path class="cls-5" d="M124,151a17.54,17.54,0,0,0,2.65-1.19,12.5,12.5,0,0,0,2.45-1.79,13.13,13.13,0,0,0,1.89-2.09q.46-1,.93-2.09a1.76,1.76,0,0,0-.2-1.79q-8.13,4.61-12.94,7.5a13,13,0,0,0,1.26,1.23q.86.27,1.76.5A6.72,6.72,0,0,0,124,151Zm29.45,53.14a37.43,37.43,0,0,0,6.7-5.8,66,66,0,0,0-8.43,2.09Q152.62,202.28,153.42,204.14Zm-3.52,2.65-2.65-5.17q-11.11,3.25-12.54,2.82-1.56-3-3.48-6.2,24.18-3.85,43.09-12.5,1.59,2.39,3.05,4.61-15,16.12-38.44,28.66a23,23,0,0,0-.63-5.11Q139.39,213.32,149.9,206.79Zm13.77-37.08q1.89,2.79,3.81,5.71a161.39,161.39,0,0,1-37.91,20.33,59.49,59.49,0,0,0-4.28-5.74A165.5,165.5,0,0,0,163.67,169.71Zm-21.43-33.93a5.13,5.13,0,0,1,.8,3.78,10.2,10.2,0,0,1-1.86,4.41,23.29,23.29,0,0,1-4.91,4.91,49.12,49.12,0,0,1-6.9,4.58,28.27,28.27,0,0,1-6,2.79,51.38,51.38,0,0,1-7,1.59,173.24,173.24,0,0,0-15.46,11,13.89,13.89,0,0,1-5-2.82,121.94,121.94,0,0,1,11.61-9q-.63-.66-1.36-1.33-8.82,3.95-13.63,6a44.73,44.73,0,0,1-2.79-5.84q28.76-11.54,49.85-24.81Q140.94,133.45,142.24,135.77Zm7,11.58q1.49,2.49,3.28,5.24a205.07,205.07,0,0,0-16.15,20q9.49-5,21.1-12.44,1.82,2.72,3.68,5.67a174.76,174.76,0,0,1-39,20.4q-2.65-3-5.41-5.7,2.29-3.12,9.78-9.06,6.77-5.54,8.39-9.12a110.4,110.4,0,0,1-11.74,5.87q-9.39,4.25-14,5.8a50,50,0,0,0-5.37-3.55Q130,160.12,149.2,147.35Zm-36.85-28.79a15.26,15.26,0,0,0-3.91.8,22.43,22.43,0,0,0-4,1.92,36.4,36.4,0,0,0-4.28,3.18,13.43,13.43,0,0,0-2.92,3.85,5.78,5.78,0,0,0-.56,3.85,4.57,4.57,0,0,0,2.06,3.05,10.82,10.82,0,0,0,4.31,1.46,18.93,18.93,0,0,0,5.44-.2,14.87,14.87,0,0,0,4.71-1.39,27.84,27.84,0,0,0,3.91-2.65,18.9,18.9,0,0,0,3.52-3.52,8.31,8.31,0,0,0,2-3.55,4.88,4.88,0,0,0-.07-3.18,5.2,5.2,0,0,0-2.12-2.26,14.1,14.1,0,0,0-3.72-1.19A14.88,14.88,0,0,0,112.35,118.56Zm-22.62,3.05a37,37,0,0,1,8.76-5.51,42.54,42.54,0,0,1,8.39-3.28,28.47,28.47,0,0,1,7.56-1.13,42.43,42.43,0,0,1,8.29.27,16.56,16.56,0,0,1,6,2.16,10.91,10.91,0,0,1,3.68,3.78,8.17,8.17,0,0,1,1.06,5,13.18,13.18,0,0,1-2.65,5.94,44.28,44.28,0,0,1-7.1,6.9,69.21,69.21,0,0,1-8.16,5.61,39.09,39.09,0,0,1-10.18,3.48,38.2,38.2,0,0,1-11.11.73,10.8,10.8,0,0,1-6.77-3.28,13.19,13.19,0,0,1-2.75-6.4,16.15,16.15,0,0,1,.56-7.5A14.77,14.77,0,0,1,89.73,121.61Zm-6.27-16.39q.4-2.75.83-4.94a334.7,334.7,0,0,0,34.83-5.67q2.92,5.21,6.5,11.38-3.22.86-8.66,2.39-1.76-4.48-3.12-8.19-3,.66-5.74,1.23.76,3,1.79,6.8-3.45,1-7.93,2-.63-4.08-1-7.36Q90.3,104.43,83.46,105.22Z"/><path class="cls-5" d="M121.64,73.05l-1,4L88,77.76l-.86,7.43L74.81,86l.76-13.17ZM96.07,63l11.81-1L96.6,59.22Zm28.56-1.86-1.06,4.21L75.7,70.53,76,64.59,83.36,64,84,56.07,76.6,54.24l.4-6.87Zm-26-34.83a48,48,0,0,1,10.61,1.79,44.39,44.39,0,0,1,9.12,3.68,25,25,0,0,1,6.4,4.64,14,14,0,0,1,3.45,5.08,8,8,0,0,1,.3,4.58,8.84,8.84,0,0,1-2.39,3.85A14.74,14.74,0,0,1,121,52.82l-5.9-4.64a8.08,8.08,0,0,0,3-1.72,4.48,4.48,0,0,0,1.33-2.26,5,5,0,0,0-.3-2.59A9.38,9.38,0,0,0,117,38.82a18.41,18.41,0,0,0-3.81-2.52,23.5,23.5,0,0,0-5-1.79,18.17,18.17,0,0,0-5.41-.66,15.12,15.12,0,0,0-5,.53,8.43,8.43,0,0,0-3.81,1.82,4.34,4.34,0,0,0-1.46,2.65A5.06,5.06,0,0,0,93.18,42a11.28,11.28,0,0,0,3.05,3l-9.82,3a24.8,24.8,0,0,1-6.57-5.84,9.86,9.86,0,0,1-2.22-6.24,7.44,7.44,0,0,1,3-5.41,15.81,15.81,0,0,1,7.7-3.55A33.13,33.13,0,0,1,98.65,26.28Z"/></g><path class="cls-6" d="M87.43,95.59H91L95,102l4-6.37h3.57v15.06H99.19v-9.83L95,107.25h-.09l-4.2-6.37v9.77H87.43Z"/><path class="cls-6" d="M106.25,95.59h3.31v15.06h-3.31Z"/><path class="cls-6" d="M118.49,95.48h3.06L128,110.65h-3.46l-1.38-3.38h-6.37l-1.38,3.38H112Zm3.49,8.86-2-4.88-2,4.88Z"/><path class="cls-6" d="M130.33,95.59h3.05l7.06,9.27V95.59h3.27v15.06h-2.82l-7.29-9.57v9.57h-3.27Z"/><path class="cls-6" d="M146.66,103.16v0a8,8,0,0,1,16,0v0a8,8,0,0,1-16,0Zm12.54,0v0a4.58,4.58,0,0,0-4.56-4.73,4.5,4.5,0,0,0-4.52,4.69v0a4.57,4.57,0,0,0,4.56,4.73A4.5,4.5,0,0,0,159.2,103.16Z"/><path class="cls-6" d="M50.69,116H62V119H54V122h7.1V125H54v3.16h8.18v2.95H50.69Z"/><path class="cls-6" d="M65.1,116h3.31v12h7.51v3H65.1Z"/><path class="cls-6" d="M78.42,116H89.78V119H81.71V122h7.1V125h-7.1v3.16h8.18v2.95H78.42Z"/><path class="cls-6" d="M92.84,116h3.57l4,6.37,4-6.37h3.57v15.06h-3.29v-9.83l-4.24,6.43h-.09l-4.2-6.37v9.77H92.84Z"/><path class="cls-6" d="M111.51,116h11.36V119H114.8V122h7.1V125h-7.1v3.16H123v2.95H111.51Z"/><path class="cls-6" d="M125.93,116H129L136,125.3V116h3.27v15.06h-2.82l-7.29-9.57v9.57h-3.27Z"/><path class="cls-6" d="M146.43,119.09h-4.58V116h12.48v3.06h-4.58v12h-3.31Z"/><path class="cls-6" d="M160.1,115.92h3.06l6.45,15.17h-3.46l-1.38-3.38H158.4L157,131.09h-3.38Zm3.49,8.86-2-4.88-2,4.88Z"/><path class="cls-6" d="M171.93,116h6.88a6,6,0,0,1,4.39,1.53A4.73,4.73,0,0,1,184.5,121v0a4.68,4.68,0,0,1-3.23,4.67l3.68,5.38h-3.87l-3.23-4.82h-2.6v4.82h-3.31Zm6.67,7.32c1.62,0,2.54-.86,2.54-2.13v0c0-1.42-1-2.15-2.6-2.15h-3.29v4.32Z"/><path class="cls-6" d="M191.19,125.15,185.4,116h3.87l3.59,6,3.66-6h3.77l-5.79,9.06v6h-3.31Z"/><path class="cls-6" d="M77.54,149.34l2-2.35a6.91,6.91,0,0,0,4.5,1.83c1.35,0,2.17-.54,2.17-1.42v0c0-.84-.52-1.27-3-1.92-3-.77-5-1.61-5-4.6v0c0-2.73,2.2-4.54,5.27-4.54A8.71,8.71,0,0,1,89,138.17l-1.72,2.5a7.07,7.07,0,0,0-3.92-1.48c-1.27,0-1.94.58-1.94,1.31v0c0,1,.64,1.31,3.25,2,3.05.8,4.78,1.89,4.78,4.52v0c0,3-2.28,4.67-5.53,4.67A9.58,9.58,0,0,1,77.54,149.34Z"/><path class="cls-6" d="M91.68,144v0a7.65,7.65,0,0,1,7.85-7.79,7.77,7.77,0,0,1,5.94,2.32L103.36,141a5.56,5.56,0,0,0-3.85-1.7A4.46,4.46,0,0,0,95.14,144v0a4.47,4.47,0,0,0,4.37,4.73,5.43,5.43,0,0,0,4-1.76l2.11,2.13a7.7,7.7,0,0,1-6.18,2.69A7.6,7.6,0,0,1,91.68,144Z"/><path class="cls-6" d="M108.22,136.47h3.31v6h6.11v-6H121v15.06h-3.31v-6h-6.11v6h-3.31Z"/><path class="cls-6" d="M123.91,144v0a8,8,0,0,1,16,0v0a8,8,0,0,1-16,0Zm12.54,0v0a4.57,4.57,0,0,0-4.56-4.73,4.5,4.5,0,0,0-4.52,4.69v0a4.57,4.57,0,0,0,4.56,4.73A4.5,4.5,0,0,0,136.45,144Z"/><path class="cls-6" d="M142.2,144v0a8,8,0,0,1,16,0v0a8,8,0,0,1-16,0Zm12.54,0v0a4.57,4.57,0,0,0-4.56-4.73,4.5,4.5,0,0,0-4.52,4.69v0a4.57,4.57,0,0,0,4.56,4.73A4.5,4.5,0,0,0,154.74,144Z"/><path class="cls-6" d="M161.15,136.47h3.31v12H172v3H161.15Z"/><path class="cls-6" d="M70.91,159.09h2.33v8.46H78.5v2.12h-7.6Z"/><path class="cls-6" d="M79.47,165.66v0a4.38,4.38,0,0,1,8.76,0v0a4.38,4.38,0,0,1-8.76,0Zm6.5,0v0a2.15,2.15,0,0,0-2.13-2.24,2.07,2.07,0,0,0-2.1,2.21v0a2.15,2.15,0,0,0,2.13,2.24A2.07,2.07,0,0,0,86,165.66Z"/><path class="cls-6" d="M89.26,168.59l1-1.51a4.57,4.57,0,0,0,2.55,1c.66,0,1-.24,1-.6v0c0-.5-.79-.66-1.68-.94-1.13-.33-2.42-.86-2.42-2.43v0c0-1.65,1.33-2.57,3-2.57a5.6,5.6,0,0,1,3,.94L94.77,164a4.8,4.8,0,0,0-2.19-.75c-.56,0-.85.24-.85.56v0c0,.45.77.67,1.65,1,1.13.38,2.45.92,2.45,2.4v0c0,1.8-1.34,2.61-3.1,2.61A5.67,5.67,0,0,1,89.26,168.59Z"/><path class="cls-6" d="M102.25,159.09h4.91a3.82,3.82,0,0,1,2.76.94,2.42,2.42,0,0,1,.72,1.8v0a2.46,2.46,0,0,1-1.39,2.28,2.59,2.59,0,0,1,2,2.6v0c0,1.93-1.57,2.9-4,2.9h-5Zm6.09,3.13c0-.7-.54-1.09-1.53-1.09h-2.3v2.24h2.14c1,0,1.68-.33,1.68-1.12Zm-1.13,3.08h-2.69v2.33h2.76c1,0,1.65-.36,1.65-1.15v0C108.93,165.73,108.4,165.3,107.21,165.3Z"/><path class="cls-6" d="M112.43,167.33v0c0-1.77,1.34-2.58,3.26-2.58a5.76,5.76,0,0,1,2,.33v-.14c0-1-.59-1.48-1.74-1.48a6,6,0,0,0-2.24.44l-.57-1.75a7.15,7.15,0,0,1,3.14-.65,3.74,3.74,0,0,1,2.73.91,3.52,3.52,0,0,1,.88,2.58v4.7h-2.22v-.88a3.11,3.11,0,0,1-2.45,1A2.5,2.5,0,0,1,112.43,167.33Zm5.27-.53v-.41a3.55,3.55,0,0,0-1.46-.3c-1,0-1.59.39-1.59,1.12v0c0,.62.51,1,1.25,1C117,168.23,117.7,167.64,117.7,166.81Z"/><path class="cls-6" d="M121.86,161.56h2.29v1.15a2.87,2.87,0,0,1,2.37-1.3c1.74,0,2.75,1.15,2.75,3v5.24H127v-4.52c0-1.09-.51-1.65-1.39-1.65s-1.44.56-1.44,1.65v4.52h-2.29Z"/><path class="cls-6" d="M130.88,165.66v0a4.38,4.38,0,0,1,8.76,0v0a4.38,4.38,0,0,1-8.76,0Zm6.5,0v0a2.15,2.15,0,0,0-2.13-2.24,2.07,2.07,0,0,0-2.1,2.21v0a2.15,2.15,0,0,0,2.13,2.24A2.07,2.07,0,0,0,137.37,165.66Z"/><path class="cls-6" d="M140.66,168.59l1-1.51a4.57,4.57,0,0,0,2.55,1c.66,0,1-.24,1-.6v0c0-.5-.79-.66-1.68-.94-1.13-.33-2.42-.86-2.42-2.43v0c0-1.65,1.33-2.57,3-2.57a5.6,5.6,0,0,1,3,.94l-.87,1.59a4.8,4.8,0,0,0-2.19-.75c-.56,0-.85.24-.85.56v0c0,.45.77.67,1.65,1,1.13.38,2.45.92,2.45,2.4v0c0,1.8-1.34,2.61-3.1,2.61A5.67,5.67,0,0,1,140.66,168.59Z"/><path class="cls-6" d="M148.25,171.16c1-.11,1.56-.63,1.48-1.5h-.94v-2.42h2.45v2c0,2-1,2.79-2.79,2.83Z"/><path class="cls-6" d="M157.51,164.4v0a5.37,5.37,0,0,1,5.51-5.47,5.46,5.46,0,0,1,4.17,1.63l-1.48,1.71a3.9,3.9,0,0,0-2.71-1.19,3.13,3.13,0,0,0-3.07,3.29v0A3.14,3.14,0,0,0,163,167.7a3.82,3.82,0,0,0,2.78-1.24l1.48,1.5a5.41,5.41,0,0,1-4.34,1.89A5.34,5.34,0,0,1,157.51,164.4Z"/><path class="cls-6" d="M172.75,159h2.14l4.53,10.65H177l-1-2.37h-4.47l-1,2.37h-2.37Zm2.45,6.22-1.4-3.43-1.4,3.43Z"/></g></g></svg>