<svg xmlns="http://www.w3.org/2000/svg" viewBox="0 0 250 250"><defs><style>.cls-1{isolation:isolate;}.cls-2{fill:#d25627;}.cls-2,.cls-3,.cls-4{fill-rule:evenodd;}.cls-3{fill:#e57e25;}.cls-4{fill:#231f20;opacity:0.15;mix-blend-mode:multiply;}.cls-5{fill:#fff;}</style></defs><title>Artboard 26</title><g class="cls-1"><g id="Layer_1" data-name="Layer 1"><polyline class="cls-2" points="249.87 249.51 -0.12 249.51 -0.12 -0.49 249.87 -0.49"/><path class="cls-3" d="M8.63,58.12,8.55,34.69l73-6a33.52,33.52,0,0,0,4.25,5.65l95.47-3.76a29,29,0,0,0-.26,3.82,20.13,20.13,0,0,0,2.68,10.3,15.29,15.29,0,0,1,1.82,3.85q0,6.44,5.64,17.05,1.14,2.08,5.41,10.42a7.62,7.62,0,0,0-3.08,6.32q0,3,3.36,5.05l4.5,2.59a16.66,16.66,0,0,1,4.84,4.36l-.57.19q-3.65,1.58-3.65,6.63a11,11,0,0,0,1.08,4,123.65,123.65,0,0,0,6.1,11.69q6.78,11.87,10.43,16.49a6.29,6.29,0,0,1,.68,2.78q.34,3.54.46,4.3l.11.32a18.13,18.13,0,0,0,2.62,5.05l2.62,3.73q1.14,1.64,2.22,10.23,1.37,10.17,6.27,10.17a1.68,1.68,0,0,1,1.08.25,1.54,1.54,0,0,1,.28.63,14.94,14.94,0,0,1,.34,4.3q-.06.13-1,4.17-.42,1.45-.71,2.53a16.43,16.43,0,0,0-.6,3,17.72,17.72,0,0,0,1.88,6.44,15,15,0,0,1,1.25,3.66l-.23.25-3,2.21a13.44,13.44,0,0,0-5.7,11.37A23.42,23.42,0,0,0,230,216l1.25,3.54a2.63,2.63,0,0,1-1.31.82q-5.18,2-5.7,6.76a10.14,10.14,0,0,1-.68,3,38.4,38.4,0,0,1-3.87.13l-6.89-.06.91-.44q5.36-2.4,6.67-5.94a3.18,3.18,0,0,0-.63-3.41,8.7,8.7,0,0,0-3.13-2,9.41,9.41,0,0,0-3.82-.88q-1.37,0-3.88,2.08l-1,.7-.28-.25,3.13-2.15q5.75-4.74,5.75-10.55a6.18,6.18,0,0,0-2.51-5,6,6,0,0,0-4-1.58,11.64,11.64,0,0,0-6.27,2.08,7.91,7.91,0,0,1-2,1.07A30.77,30.77,0,0,1,196,198.6a4.74,4.74,0,0,1-1.25-2.27,36.82,36.82,0,0,0,.4-8,8.81,8.81,0,0,0-2.22-5.75,6.88,6.88,0,0,0-.85-.76,7.31,7.31,0,0,0-4.44-1.33h-1.14a2.62,2.62,0,0,0-2.22,1.07,6.93,6.93,0,0,0,1.08-3.85,5.79,5.79,0,0,0-.85-3,4,4,0,0,0,.74-1.77,17.83,17.83,0,0,0,.11-2.46,11.51,11.51,0,0,0-1.71-5.75q-2.11-4-5.13-4-4.73,0-7.12,5.75L170.6,168l-1-1.14q-2.85-3.48-4-4l-.46-.19-3.88-.82a6.79,6.79,0,0,1,.63-1.58A11.76,11.76,0,0,0,163,156a10.48,10.48,0,0,0-.23-2.4l1,.13a6.86,6.86,0,0,0,4.33-1.52,6.39,6.39,0,0,0,2.56-5.37q0-3-2.05-9.1-2.68-8.08-6.84-11.05a2.72,2.72,0,0,0-1.94-.5,2.76,2.76,0,0,0-1.77,1.07,15.64,15.64,0,0,0-1.6,2.59,9.59,9.59,0,0,0-1.37,4,6.61,6.61,0,0,0,1.31,3.92l.06.06-.23.44a28.12,28.12,0,0,1-2.28-2.34,8.49,8.49,0,0,1-2.05-5.81q0-2,2.79-4.55,4.84-4.29,4.84-9a27.79,27.79,0,0,0-1.71-8.4A49.64,49.64,0,0,1,156,101q.17-6.19,0-9.1a9.07,9.07,0,0,0-2.05-5.68,6.21,6.21,0,0,0-4.84-2q-2.62,0-6.5,3.66l-.51.51.11-1q0-5.62-2.39-8.4a6.83,6.83,0,0,0-4.27-2.34l-1.82-.32.57-1.33a11,11,0,0,0,1.2-4,7.09,7.09,0,0,0-1.65-4.61,5.07,5.07,0,0,0-3.82-2,10.6,10.6,0,0,0-3.31,1,9.22,9.22,0,0,0-1.59.57,4.87,4.87,0,0,1-2.34-.69l-.63-.44.17-.32a9.35,9.35,0,0,0,.74-3A7.94,7.94,0,0,0,120.8,56a7.81,7.81,0,0,0-6.21-3,33,33,0,0,0-6,.51q-6.5,1.14-6.5,5.62a10.06,10.06,0,0,0,.68,3.09l.23.95q0,.25-1,.51a19.33,19.33,0,0,0-5.87,1.52A2.72,2.72,0,0,0,95,66.34a17.64,17.64,0,0,0-1.14,3.16,3,3,0,0,0-1.37-1.77,2.43,2.43,0,0,0-2.45-.06L85,69.81q-3.93,0-7.35,3.6A10.05,10.05,0,0,1,75.84,75a20.32,20.32,0,0,0-.51-4.55,2.53,2.53,0,0,0-.63-1.39q-.57-.7-2.79-2.78l.17-.13a3.47,3.47,0,0,0,1.31-2.08,13.81,13.81,0,0,0,.17-2.65,20.33,20.33,0,0,0-1.08-6.76q-1.77-5.49-6.27-5.49a9.65,9.65,0,0,0-4.44.82,5.6,5.6,0,0,0-2.45,3.16,2.56,2.56,0,0,0-2.39-1.51H53.79a2.77,2.77,0,0,0-1.88.69L49.17,54.9A5,5,0,0,1,47.3,56q2.62-1.83,2.62-3.92a5.86,5.86,0,0,0-1.77-4,5.41,5.41,0,0,0-3.93-1.89q-5.3,0-7.46,3.1-1.25,1.52-2.05,5.56a5,5,0,0,1-1.08,2.46Q32.25,58.57,28,58.57a8.84,8.84,0,0,1-2-.19l-.51-.25v-.06a5.5,5.5,0,0,1,1.2-2,11.11,11.11,0,0,0,2.39-6.19L29,49.41A6.49,6.49,0,0,0,27,45a4.7,4.7,0,0,0-3.31-1.26q-1.14,0-4.62,1.83a16.51,16.51,0,0,0-3.36,2.21,4.12,4.12,0,0,0-1.37,3,9.6,9.6,0,0,0,1,3.73l.23.57-3.53,1A8,8,0,0,0,8.63,58.12ZM183.82,182.24a5.38,5.38,0,0,0-.57,2.65,14.52,14.52,0,0,0,.51,3.16l.06.19a14.93,14.93,0,0,1-6-3.22,22.11,22.11,0,0,1-3.36-3.16l.74.69a5.9,5.9,0,0,0,4,1.77,5.64,5.64,0,0,0,4.39-1.89,7.72,7.72,0,0,0,.51-.63A4.45,4.45,0,0,0,183.82,182.24Z"/><path class="cls-4" d="M226.72,187.42l-9.46,3.22L223.13,201Zm-11-29.24V148.6l4.73-1.29,3.08,9.41Zm-29.34,5.18-7.12-4.86,33.5-9.1v9.35Zm15,37.08-4-7.07,34-17.75Q229.59,185,234,190.13q-9.74,14.42-9,30.32l-6.15-3.73,3.36-11.24-9.29-11.62ZM198.23,174a19.11,19.11,0,0,0,3.19,1.52,18.36,18.36,0,0,0,3.59.69,25.41,25.41,0,0,0,4-.19,20,20,0,0,0,3.53-1,9.22,9.22,0,0,0,2.79-1.83,7.19,7.19,0,0,0,1.54-2.15,2.94,2.94,0,0,0,.06-2.46L196,171.94A9.53,9.53,0,0,0,198.23,174Zm-7.35,3.47a19.29,19.29,0,0,1-4-4.17l-.11-6.32,38.75-5.62.17,5.87h-.06a6.66,6.66,0,0,1-.17,4.61,8.58,8.58,0,0,1-2.68,4,19.8,19.8,0,0,1-4.79,3.29,28.48,28.48,0,0,1-6.72,2,29.67,29.67,0,0,1-7.46.32,31.07,31.07,0,0,1-7-1.26A22,22,0,0,1,190.88,177.5Zm.91-39a16.8,16.8,0,0,0,1.42,2l2.05,1.45a22.46,22.46,0,0,0,2.34.88,16.15,16.15,0,0,0,2.45.06,5,5,0,0,0,2.05-.63,3.46,3.46,0,0,0,1.37-1.33l.57-1.77a3.23,3.23,0,0,0-.23-2.08ZM173,140.74l-3.08-7.2,40.86-4.17,2.56,6.57a7.62,7.62,0,0,1,.34,4.67,10.09,10.09,0,0,1-1.82,4,11.76,11.76,0,0,1-3.76,3,17.7,17.7,0,0,1-5.53,1.58,27.9,27.9,0,0,1-6.5,0,36.07,36.07,0,0,1-6.27-2l-20.28,16.55-4.79-4.8L183,141.81l-1.31-2.08ZM191,108.59a11,11,0,0,0-3.13-2.72,17.75,17.75,0,0,0-3.93-1.7,8.81,8.81,0,0,0-4.33-.19,7.32,7.32,0,0,0-3.87,1.07,7.45,7.45,0,0,0-2.68,2.34,6.64,6.64,0,0,0-1.08,3.22,7.63,7.63,0,0,0,.46,3.54,16.63,16.63,0,0,0,2.17,3.41,20.1,20.1,0,0,0,3.3,2.46,18.11,18.11,0,0,0,3.93,1.52,15.06,15.06,0,0,0,4.1.19,32.85,32.85,0,0,0,3.65-1.14,6.14,6.14,0,0,0,2.45-2.21,5.16,5.16,0,0,0,1.2-3,6.18,6.18,0,0,0-.28-3.41A8.32,8.32,0,0,0,191,108.59Zm1.25-8.91a20.19,20.19,0,0,1,5.58,4.86,15.57,15.57,0,0,1,3.48,6.32,11.44,11.44,0,0,1,.46,6.38,12.9,12.9,0,0,1-2.22,5.5,15.9,15.9,0,0,1-4.62,3.92,16.83,16.83,0,0,1-6.5,2.15,22.2,22.2,0,0,1-7.46-.25,32.85,32.85,0,0,1-7.29-2.53,35.75,35.75,0,0,1-6.1-4.55,21.15,21.15,0,0,1-4.22-6.25,15.35,15.35,0,0,1-1.08-6.82,14.5,14.5,0,0,1,2.05-6.06,18,18,0,0,1,12.36-6.57,17.84,17.84,0,0,1,8.15.76A23.57,23.57,0,0,1,192.25,99.69Zm-3.53-29.94,3.31,9-27.41-.06,8.72,12.44-13.39,1.51q-5.9-14.45-21.2-21.16ZM74.87,49.34,40.46,39.93l135.44-3,10.83,28-11.91.38-6.44-15.79-8.43-.13,5.53,12.95-12.59.57L147,49.91Z"/><path class="cls-5" d="M95.5,81.79h3.05l7.06,9.27V81.79h3.27V96.85h-2.82l-7.29-9.57v9.57H95.5Z"/><path class="cls-5" d="M111.83,89.37v0a8,8,0,0,1,16,0v0a8,8,0,0,1-16,0Zm12.54,0v0a4.58,4.58,0,0,0-4.56-4.73,4.5,4.5,0,0,0-4.52,4.69v0a4.57,4.57,0,0,0,4.56,4.73A4.5,4.5,0,0,0,124.37,89.37Z"/><path class="cls-5" d="M128.53,81.79h3.66l3.94,10.61,3.94-10.61h3.57L137.54,97h-2.93Z"/><path class="cls-5" d="M149,81.69H152l6.45,15.17H155l-1.38-3.38h-6.37l-1.38,3.38h-3.38Zm3.49,8.86-2-4.88-2,4.88Z"/><path class="cls-5" d="M50.79,102.23H62.15v2.95H54.08v3.06h7.1v2.95h-7.1v3.16h8.18v2.95H50.79Z"/><path class="cls-5" d="M65.35,102.23h3.31v15.06H65.35Z"/><path class="cls-5" d="M71.4,115.1l2-2.35a6.91,6.91,0,0,0,4.5,1.83c1.36,0,2.17-.54,2.17-1.42v0c0-.84-.52-1.27-3-1.92-3-.77-5-1.61-5-4.6v0c0-2.73,2.19-4.54,5.27-4.54a8.72,8.72,0,0,1,5.59,1.91l-1.72,2.5a7.07,7.07,0,0,0-3.92-1.48c-1.27,0-1.94.58-1.94,1.31v0c0,1,.65,1.31,3.25,2,3.05.8,4.78,1.89,4.78,4.52v0c0,3-2.28,4.67-5.53,4.67A9.59,9.59,0,0,1,71.4,115.1Z"/><path class="cls-5" d="M86.2,102.23H97.56v2.95H89.49v3.06h7.1v2.95h-7.1v3.16h8.18v2.95H86.2Z"/><path class="cls-5" d="M100.62,102.23h3.05l7.06,9.27v-9.27H114v15.06h-2.82l-7.29-9.57v9.57h-3.27Z"/><path class="cls-5" d="M117.62,102.23h3.31v6H127v-6h3.31v15.06H127v-6h-6.11v6h-3.31Z"/><path class="cls-5" d="M133.3,109.81v0a8,8,0,0,1,16,0v0a8,8,0,0,1-16,0Zm12.54,0v0a4.58,4.58,0,0,0-4.56-4.73,4.5,4.5,0,0,0-4.52,4.69v0a4.57,4.57,0,0,0,4.56,4.73A4.5,4.5,0,0,0,145.85,109.81Z"/><path class="cls-5" d="M150.24,102.23h3.55l3.12,10.2,3.38-10.24h2.84l3.38,10.24,3.12-10.2h3.46l-5.14,15.17h-2.88l-3.4-9.85-3.4,9.85h-2.88Z"/><path class="cls-5" d="M175.54,102.23H186.9v2.95h-8.07v3.06h7.1v2.95h-7.1v3.16H187v2.95H175.54Z"/><path class="cls-5" d="M190,102.23h6.88a6,6,0,0,1,4.39,1.53,4.73,4.73,0,0,1,1.29,3.44v0a4.68,4.68,0,0,1-3.23,4.67l3.68,5.38H199.1l-3.23-4.82h-2.6v4.82H190Zm6.67,7.32c1.61,0,2.54-.86,2.54-2.13v0c0-1.42-1-2.15-2.6-2.15h-3.29v4.32Z"/><path class="cls-5" d="M52.32,122.68H63.67v2.95H55.61v3.06h7.1v2.95h-7.1v3.16h8.18v2.95H52.32Z"/><path class="cls-5" d="M66.73,122.68H70v12h7.51v3H66.73Z"/><path class="cls-5" d="M80,122.68H91.41v2.95H83.34v3.06h7.1v2.95h-7.1v3.16h8.18v2.95H80Z"/><path class="cls-5" d="M94.47,122.68H98l4,6.37,4-6.37h3.57v15.06h-3.29V127.9L102,134.34h-.09L97.71,128v9.77H94.47Z"/><path class="cls-5" d="M113.14,122.68H124.5v2.95h-8.07v3.06h7.1v2.95h-7.1v3.16h8.18v2.95H113.14Z"/><path class="cls-5" d="M127.56,122.68h3.05l7.06,9.27v-9.27h3.27v15.06h-2.82l-7.29-9.57v9.57h-3.27Z"/><path class="cls-5" d="M148.06,125.73h-4.58v-3.06H156v3.06h-4.58v12h-3.31Z"/><path class="cls-5" d="M161.73,122.57h3.06l6.45,15.17h-3.46l-1.38-3.38H160l-1.38,3.38h-3.38Zm3.49,8.86-2-4.88-2,4.88Z"/><path class="cls-5" d="M173.56,122.68h6.88a6,6,0,0,1,4.39,1.53,4.73,4.73,0,0,1,1.29,3.44v0a4.68,4.68,0,0,1-3.23,4.67l3.68,5.38H182.7l-3.23-4.82h-2.6v4.82h-3.31Zm6.67,7.32c1.61,0,2.54-.86,2.54-2.13v0c0-1.42-1-2.15-2.6-2.15h-3.29V130Z"/><path class="cls-5" d="M192.82,131.8,187,122.68h3.87l3.59,6,3.66-6h3.76l-5.79,9.06v6h-3.31Z"/><path class="cls-5" d="M79.17,156l2-2.35a6.91,6.91,0,0,0,4.5,1.83c1.35,0,2.17-.54,2.17-1.42v0c0-.84-.52-1.27-3-1.92-3-.77-5-1.61-5-4.6v0c0-2.73,2.19-4.54,5.27-4.54a8.72,8.72,0,0,1,5.59,1.92l-1.72,2.5A7.07,7.07,0,0,0,85,145.83c-1.27,0-1.94.58-1.94,1.31v0c0,1,.65,1.31,3.25,2,3.06.8,4.78,1.89,4.78,4.52v0c0,3-2.28,4.67-5.53,4.67A9.59,9.59,0,0,1,79.17,156Z"/><path class="cls-5" d="M93.3,150.69v0a7.65,7.65,0,0,1,7.85-7.79,7.77,7.77,0,0,1,5.94,2.32L105,147.61a5.56,5.56,0,0,0-3.85-1.7,4.46,4.46,0,0,0-4.37,4.69v0a4.47,4.47,0,0,0,4.37,4.73,5.43,5.43,0,0,0,4-1.76l2.11,2.13a7.7,7.7,0,0,1-6.17,2.69A7.6,7.6,0,0,1,93.3,150.69Z"/><path class="cls-5" d="M109.85,143.12h3.31v6h6.11v-6h3.31v15.06h-3.31v-6h-6.11v6h-3.31Z"/><path class="cls-5" d="M125.54,150.69v0a8,8,0,0,1,16,0v0a8,8,0,0,1-16,0Zm12.54,0v0a4.58,4.58,0,0,0-4.56-4.73A4.5,4.5,0,0,0,129,150.6v0a4.57,4.57,0,0,0,4.56,4.73A4.5,4.5,0,0,0,138.08,150.69Z"/><path class="cls-5" d="M143.83,150.69v0a8,8,0,0,1,16,0v0a8,8,0,0,1-16,0Zm12.54,0v0a4.58,4.58,0,0,0-4.56-4.73,4.5,4.5,0,0,0-4.52,4.69v0a4.57,4.57,0,0,0,4.56,4.73A4.5,4.5,0,0,0,156.37,150.69Z"/><path class="cls-5" d="M162.78,143.12h3.31v12h7.51v3H162.78Z"/><path class="cls-5" d="M92,165.73h4.12a5.27,5.27,0,0,1,5.62,5.26v0a5.29,5.29,0,0,1-5.62,5.29H92Zm2.33,2.1v6.38h1.8A3,3,0,0,0,99.27,171v0a3,3,0,0,0-3.19-3.19Z"/><path class="cls-5" d="M103,174v0c0-1.77,1.34-2.58,3.26-2.58a5.76,5.76,0,0,1,2,.33v-.14c0-1-.59-1.48-1.74-1.48a6,6,0,0,0-2.24.44l-.57-1.75a7.15,7.15,0,0,1,3.14-.65,3.74,3.74,0,0,1,2.73.91,3.53,3.53,0,0,1,.88,2.58v4.7h-2.22v-.88a3.11,3.11,0,0,1-2.45,1A2.5,2.5,0,0,1,103,174Zm5.27-.53V173a3.55,3.55,0,0,0-1.46-.3c-1,0-1.59.39-1.59,1.12v0c0,.62.51,1,1.25,1C107.6,174.87,108.32,174.28,108.32,173.45Z"/><path class="cls-5" d="M111.45,168.21h2.43l1.81,5.42,1.83-5.42h2.39l-3.19,8.16h-2.08Z"/><path class="cls-5" d="M121.28,165.28h2.42v2h-2.42Zm.06,2.93h2.3v8.1h-2.3Z"/><path class="cls-5" d="M125.41,172.3v0a4,4,0,0,1,4-4.21c2.7,0,3.94,2.1,3.94,4.4,0,.18,0,.39,0,.6h-5.63a1.88,1.88,0,0,0,2,1.59,2.65,2.65,0,0,0,2-.83l1.31,1.16a4.28,4.28,0,0,1-7.54-2.67Zm5.71-.68a1.74,1.74,0,0,0-1.71-1.72,1.8,1.8,0,0,0-1.75,1.72Z"/><path class="cls-5" d="M134.27,177.8c1-.11,1.56-.63,1.48-1.5h-.94v-2.42h2.45v2c0,2-1,2.79-2.79,2.83Z"/><path class="cls-5" d="M144,165.73h8.05v2.12h-5.72v2.25h5v2.12h-5v4.09H144Z"/><path class="cls-5" d="M153.91,165.73h2.33v8.46h5.27v2.12h-7.6Z"/></g></g></svg>